<?xml version="1.0" standalone="no"?>
<!DOCTYPE svg PUBLIC "-//W3C//DTD SVG 1.1//EN" "http://www.w3.org/Graphics/SVG/1.1/DTD/svg11.dtd" >
<svg xmlns="http://www.w3.org/2000/svg" xmlns:xlink="http://www.w3.org/1999/xlink" version="1.1">
<metadata>
Created by FontForge 20170731 at Tue Jan 26 09:57:12 2016
 By Aleksey,,,
Copyright (c) 2014 by Marconi Lima/Typefolio Digital Foundry. All rights reserved.
</metadata>
<defs>
<font id="SVN-MadreScript" horiz-adv-x="552" >
  <font-face 
    font-family="SVN-Madre Script"
    font-weight="400"
    font-style="italic"
    font-stretch="normal"
    units-per-em="1000"
    panose-1="2 0 5 7 0 0 0 9 0 3"
    ascent="800"
    descent="-200"
    x-height="507"
    cap-height="789"
    bbox="-337 -520 1436 1171"
    underline-thickness="50"
    underline-position="-150"
    slope="-12"
    unicode-range="U+0020-FB02"
  />
<missing-glyph horiz-adv-x="740" 
d="M555 106l40 41l-185 185l185 186l-39 41l-186 -187l-186 187l-39 -41l185 -186l-185 -185l40 -41l185 186zM670 -53h-600v773h600v-773z" />
    <glyph glyph-name=".notdef" horiz-adv-x="740" 
d="M555 106l40 41l-185 185l185 186l-39 41l-186 -187l-186 187l-39 -41l185 -186l-185 -185l40 -41l185 186zM670 -53h-600v773h600v-773z" />
    <glyph glyph-name=".null" horiz-adv-x="0" 
 />
    <glyph glyph-name="nonmarkingreturn" horiz-adv-x="333" 
 />
    <glyph glyph-name="space" unicode=" " horiz-adv-x="290" 
 />
    <glyph glyph-name="space" unicode="&#xa0;" horiz-adv-x="290" 
 />
    <glyph glyph-name="exclam" unicode="!" horiz-adv-x="317" 
d="M118 218q8 64 18 144.5t21 180.5t16.5 150.5t6.5 52.5q34 33 87 9q0 -1 -42 -205q-21 -103 -37 -183.5t-27 -141.5q-16 -16 -43 -7zM152 5q-17 -17 -42 -17t-43 17q-17 18 -17 43t17 42q18 18 43 18t42 -18q18 -17 18 -42t-18 -43z" />
    <glyph glyph-name="quotedbl" unicode="&#x22;" horiz-adv-x="369" 
d="M50 512q8 73 11.5 150.5t2.5 159.5q20 21 42.5 18t30.5 -19q-8 -75 -21 -150t-32 -152q-14 -18 -34 -7zM232 512q8 73 11.5 150.5t2.5 159.5q20 21 42.5 18t30.5 -19q-8 -75 -21 -150t-32 -152q-14 -18 -34 -7z" />
    <glyph glyph-name="numbersign" unicode="#" horiz-adv-x="711" 
d="M480 218q-14 -83 -23.5 -137t-14.5 -80q-5 -1 -9.5 -1.5t-9.5 -0.5q-12 0 -18 3q3 21 10.5 74.5t18.5 140.5l-171 -3q-11 -75 -20 -128t-17 -85q-5 -1 -9.5 -1.5t-9.5 -0.5q-12 0 -18 3l28 211h-164q-3 9 -3 26t3 29q64 -4 170 -6l16 133h-146q-3 12 -3 27q0 14 3 28
q37 -2 75 -3l76 -2q16 169 15 215q11 2 25 1.5t31 -2.5q-1 -37 -6 -90t-14 -125h34t48 -1h83q16 157 15 217q11 2 25 1.5t31 -2.5q-1 -28 -5.5 -81.5t-14.5 -134.5h91.5t55.5 1q3 -15 3 -19q0 -12 -3 -19l-152 -6l-20 -140h82.5t50.5 1q0 -2 1 -8.5t1 -10.5q0 -3 -0.5 -7.5
t-1.5 -10.5zM439 260l16 139q-83 -3 -166 -3q-1 -13 -3.5 -31t-5 -36.5t-5 -36.5t-4.5 -31h35t49 -1h84z" />
    <glyph glyph-name="dollar" unicode="$" horiz-adv-x="587" 
d="M441 514q44 47 44 94q0 82 -81 102l-71 -281q4 -2 10.5 -8t17.5 -14q22 -17 29 -23l26 -21q10 -8 16.5 -13.5t10.5 -9.5l22 -22t20 -25q11 -17 19 -36.5t8 -39.5q0 -84 -71 -152q-70 -67 -191 -67q-16 0 -21 1q-16 -81 -18 -113q-8 -13 -25 -15.5t-28 3.5q5 26 11.5 58.5
t16.5 71.5q-39 8 -72 24.5t-57.5 42t-38 59.5t-13.5 76q0 24 11 54q6 15 17 31t27 31t37 28t46 21l11 -15q-81 -59 -81 -157q0 -67 35.5 -104.5t86.5 -50.5q21 91 84 342q-22 17 -39.5 31.5t-31.5 26.5q-27 25 -49.5 61.5t-22.5 72.5q0 79 60 127q61 48 150 48q14 0 19 -1
q15 78 18 108q25 34 54 7q-2 -16 -8 -46t-17 -75q57 -13 91 -44.5t34 -79.5q0 -34 -20.5 -68t-65.5 -53zM252 36q90 0 140 44t50 119q0 40 -32.5 76.5t-94.5 83.5q-30 -120 -49.5 -200.5t-28.5 -122.5h15zM358 716q-2 0 -7 0.5t-7 0.5q-74 0 -108 -36q-33 -35 -33 -77
q0 -67 94 -146q23 96 38.5 160t22.5 98z" />
    <glyph glyph-name="percent" unicode="%" horiz-adv-x="692" 
d="M501 680q-25 -4 -62 0.5t-87 15.5q-100 23 -140 23q-45 0 -79 -36q-35 -35 -35 -102q0 -102 77 -102q22 0 42.5 8.5t36 25.5t24.5 42t9 58q0 34 -11 61q15 6 26 3.5t18.5 -10t11.5 -18.5t4 -21q0 -74 -51 -129t-125 -55q-24 0 -44.5 9.5t-35 25.5t-22.5 38t-8 48
q0 73 51 129t120 56q26 0 74 -9q25 -4 46.5 -8t40.5 -8q20 -4 40.5 -6.5t42.5 -3.5q45 -1 64 12q4 6 10 18l9 18q28 13 40 -7q12 -22 -13 -46q-8 -8 -17 -13l-413 -709q-22 0 -33 17zM466 0q-24 0 -44.5 9.5t-35 25.5t-22.5 38t-8 48q0 73 51 129t120 56q54 0 84.5 -35
t30.5 -87q0 -74 -51 -129t-125 -55zM481 35q22 0 42.5 8.5t36 25.5t24.5 42t9 58q0 102 -75 102q-44 0 -79 -35t-35 -99q0 -102 77 -102z" />
    <glyph glyph-name="ampersand" unicode="&#x26;" horiz-adv-x="836" 
d="M553 331q10 -23 10 -57q0 -63 -33 -127q-31 -64 -99 -112q-68 -47 -151 -47q-116 0 -193 53q-76 54 -76 141q0 169 204 225q-115 40 -115 160q0 51 26.5 88.5t65.5 61.5t83 35.5t78 11.5q80 0 136 -32q55 -31 55 -89q0 -35 -21.5 -70t-64.5 -54q-8 5 -10 13q44 50 44 100
q0 42 -34.5 69t-101.5 27q-82 0 -133 -45t-51 -104q0 -55 46.5 -98t137.5 -53q2 -10 2 -12q0 -8 -3 -15q-42 -3 -89 -16t-86.5 -37.5t-65.5 -61t-26 -85.5q0 -82 61 -128t147 -46t154 65t68 170q0 46 -28 68t-70 22q-36 0 -69 -27q-33 -26 -33 -74q0 -37 24 -59
q25 -22 53 -28t56 -4q1 -10 -7 -17q-36 -11 -63 -11t-50 8.5t-39.5 23t-25.5 34t-9 42.5q0 72 56 115.5t153 43.5q53 0 147 -32q92 -31 115 -31q35 0 35 35q0 14 -14.5 26.5t-37.5 13.5q-5 10 3 15q37 0 57 -15t20 -37q0 -32 -24.5 -57.5t-78.5 -25.5q-43 0 -135 40z" />
    <glyph glyph-name="quotesingle" unicode="'" horiz-adv-x="187" 
d="M50 512q8 73 11.5 150.5t2.5 159.5q20 21 42.5 18t30.5 -19q-8 -75 -21 -150t-32 -152q-14 -18 -34 -7z" />
    <glyph glyph-name="parenleft" unicode="(" horiz-adv-x="353" 
d="M152 -280q-130 242 -95 544q31 288 218 506q20 0 28 -12q-75 -97 -125 -223.5t-65 -270.5q-17 -149 3 -290q10 -71 27 -130.5t40 -109.5q-6 -14 -31 -14z" />
    <glyph glyph-name="parenright" unicode=")" horiz-adv-x="353" 
d="M78 -280q-21 0 -28 12q75 97 125 223.5t65 270.5q8 75 7 147t-11 143q-20 141 -66 240q6 14 31 14q130 -242 95 -544q-31 -288 -218 -506z" />
    <glyph glyph-name="asterisk" unicode="*" horiz-adv-x="447" 
d="M284 431q-18 27 -42 78l-26 58l-33 -42q-22 -28 -38.5 -50t-29.5 -44q-27 3 -39 28l16 20t18 21q19 21 43 45.5t37 38.5q-4 1 -18.5 6t-40.5 14q-26 10 -46 16t-35 10q6 34 23 48q20 -6 41 -16q11 -5 24 -11t25.5 -12t23.5 -11.5t18 -8.5q0 2 0.5 17t1.5 43q2 57 9 85
q22 7 49 0q-3 -11 -5.5 -22t-4.5 -23l-15 -100q17 6 44 19q28 13 52.5 23t49.5 17q13 -15 11 -48q-16 -3 -36 -9.5t-41 -13t-40 -13t-33 -10.5l24 -39q16 -27 29.5 -47t28.5 -39q-17 -20 -45 -28z" />
    <glyph glyph-name="plus" unicode="+" horiz-adv-x="510" 
d="M274 68q-5 -3 -18 -3q-5 0 -9.5 0.5t-9.5 1.5q-3 60 -4.5 103.5l-2.5 72.5q-60 -1 -104 -1.5t-73 0.5q-3 12 -3 27t3 28q58 -3 102 -4.5t74 -2.5q-1 61 -1.5 106.5t0.5 75.5q17 2 31 2.5t25 -1.5q-3 -63 -4.5 -109t-2.5 -75q60 -1 105 -1.5t75 0.5q3 -15 3 -18
q0 -12 -3 -19q-60 -3 -105 -4.5t-76 -2.5q-1 -60 -1.5 -103.5t-0.5 -72.5z" />
    <glyph glyph-name="comma" unicode="," horiz-adv-x="276" 
d="M50 -214q84 56 103 138q21 81 -32 149q20 42 60 46q41 -44 45 -106q2 -32 -7 -66t-28.5 -68t-49.5 -66t-70 -59q-16 4 -21 32z" />
    <glyph glyph-name="hyphen" unicode="-" horiz-adv-x="520" 
d="M53 242q-3 12 -3 27t3 28q95 -5 198 -7t216 -1q3 -15 3 -19q0 -12 -3 -19q-206 -11 -414 -9z" />
    <glyph glyph-name="period" unicode="." horiz-adv-x="220" 
d="M152 5q-17 -17 -42 -17t-43 17q-17 18 -17 43t17 42q18 18 43 18t42 -18q18 -17 18 -42t-18 -43z" />
    <glyph glyph-name="slash" unicode="/" horiz-adv-x="384" 
d="M50 -276q22 120 120 519q49 201 76.5 327t33.5 180q25 34 54 7q-3 -28 -31.5 -149.5t-83.5 -340.5q-109 -436 -116 -531q-8 -12 -25 -15t-28 3z" />
    <glyph glyph-name="zero" unicode="0" horiz-adv-x="696" 
d="M396 715q-104 0 -188 -113t-84 -302q0 -124 50 -194q49 -69 126 -69q48 0 95.5 27t87.5 78t64.5 131.5t24.5 177.5q0 124 -50 194q-49 70 -126 70zM421 763q104 0 164 -78q61 -77 61 -196q0 -127 -50 -244q-49 -114 -139 -186q-89 -71 -195 -71q-95 0 -153 79
q-59 80 -59 195q0 129 51 245q51 115 137 186q86 70 183 70z" />
    <glyph glyph-name="one" unicode="1" horiz-adv-x="463" 
d="M279 649q-65 -47 -166 -148q-17 3 -23 18q26 35 59 72t72 76q80 78 116 97q26 -11 36 -32l-115 -722q-10 -13 -34 -15.5t-40 3.5q10 66 35.5 227t67.5 421z" />
    <glyph glyph-name="two" unicode="2" horiz-adv-x="589" 
d="M114 28q-4 -10 -6.5 -17.5t-4.5 -12.5q-40 0 -53 28q16 45 66 98q26 26 53.5 51t56.5 48q61 48 118 100q58 54 96.5 120t38.5 138q0 79 -42 111q-41 33 -101 33q-63 0 -100 -32t-37 -84q0 -42 33 -85q-5 -12 -10 -15q-34 8 -56.5 33t-22.5 68q0 69 61 111t150 42
q49 0 90 -16q42 -15 73.5 -55.5t31.5 -103.5q0 -59 -24 -116t-61 -99.5t-85 -85.5q-23 -21 -45.5 -39.5t-44.5 -34.5q-21 -15 -42.5 -31.5t-40 -33t-33.5 -32t-24 -28.5q-3 -3 -4 -6q83 11 188 3q106 -7 169 -24q5 -48 -11 -69q-261 56 -377 36z" />
    <glyph glyph-name="three" unicode="3" horiz-adv-x="588" 
d="M251 373q-5 12 -3.5 32.5t9.5 33.5q87 10 150 55t63 109q0 33 -10.5 56t-28.5 37.5t-43 21.5t-55 7q-63 0 -100 -32t-37 -84q0 -42 28 -85q-1 -10 -10 -15q-74 18 -74 101q0 69 62 111q61 42 149 42q73 0 130 -39t57 -115q0 -71 -55 -119q-56 -48 -131 -63q-1 -2 -1 -10
q90 -15 137 -63t47 -114q0 -98 -76 -175q-75 -77 -203 -77q-91 0 -146 46t-55 109q0 84 89 132q7 -1 10 -10q-33 -53 -33 -104q0 -29 11 -53.5t30.5 -42.5t47.5 -28t62 -10q92 0 141 52t49 124q0 161 -211 170z" />
    <glyph glyph-name="four" unicode="4" horiz-adv-x="571" 
d="M368 14q-10 -13 -34 -15.5t-40 3.5q6 42 15.5 102.5t22.5 142.5q-129 -14 -246 -39q-29 19 -36 48q39 95 101 190q64 96 122 160q60 66 107 108.5t69 53.5q25 -10 34 -32q-7 -39 -24.5 -148t-45.5 -289h61t44 -1q4 -17 0 -36q-20 -1 -48 -3t-64 -5zM397 650l-8 3
q-44 -31 -135 -143q-45 -55 -80.5 -112t-61.5 -117q65 7 121.5 10.5t106.5 5.5z" />
    <glyph glyph-name="five" unicode="5" horiz-adv-x="593" 
d="M126 457q31 97 48 230q-1 -1 -3 -1q-10 7 -12 20.5t3 26.5q67 20 188 28q60 4 108 1t83 -11q1 -5 1.5 -13.5t-1 -19t-3.5 -20.5t-5 -17q-167 28 -300 15q-27 -142 -59 -236q169 7 261 -51q93 -59 93 -166q0 -97 -76 -176t-201 -79q-91 0 -146 45q-55 46 -55 109
q0 85 89 133q7 -1 10 -10q-32 -53 -32 -104q0 -29 10.5 -53.5t30 -42.5t47.5 -28t62 -10q93 0 141 58t48 137q0 89 -80 140q-79 52 -262 43q-6 29 11 52h1z" />
    <glyph glyph-name="six" unicode="6" horiz-adv-x="608" 
d="M497 569q12 27 12 56q0 42 -23.5 67.5t-74.5 25.5t-101.5 -27.5t-93.5 -78.5q-42 -51 -68.5 -132t-26.5 -180q0 -127 54 -197q55 -69 138 -69q61 0 98 58t37 158q0 78 -38 123.5t-98 45.5t-97 -60q-22 6 -26 24q65 92 161 92q69 0 117 -52q48 -53 48 -134q0 -71 -28 -137
q-27 -68 -84 -116q-56 -48 -128 -48q-100 0 -163 79q-62 80 -62 195q0 126 53 243q53 116 142 187q91 71 191 71q61 0 94 -29t33 -75q0 -49 -44 -102z" />
    <glyph glyph-name="seven" unicode="7" horiz-adv-x="502" 
d="M169 2q0 138 88 375q-32 2 -70.5 3.5t-84.5 1.5q-6 4 -6 23q0 16 9 21q52 0 94 -1.5t74 -5.5q72 186 148 282q-35 -8 -81 -12.5t-103 -4.5q-112 0 -169 17q-9 40 9 66q207 -47 365 -21q8 7 15 12t14 7q22 -11 26 -33q-88 -103 -165 -322q35 -6 71 -15t71 -22q5 -8 5 -16
q0 -14 -5 -19q-71 23 -155 33q-70 -210 -74 -357q-5 -6 -14.5 -10t-20.5 -5.5t-22 -0.5t-19 4z" />
    <glyph glyph-name="eight" unicode="8" horiz-adv-x="597" 
d="M357 427q91 -77 120 -108q49 -56 49 -111q0 -86 -66 -153q-64 -67 -177 -67q-93 0 -163 52t-70 150q0 19 7 47t27.5 58.5t58.5 59.5t101 50q12 -6 12 -23q-136 -64 -136 -196q0 -46 18.5 -79.5t46.5 -49.5t53 -23t47 -7q78 0 123.5 43.5t45.5 118.5q0 38 -30 78t-75 76
q-32 25 -66.5 53t-63 59t-46.5 64t-17 69q0 79 60 127q61 48 150 48q75 0 127 -37q54 -38 54 -107q0 -137 -190 -192zM333 447q33 12 57.5 24.5t49.5 31.5q53 38 53 103q0 57 -31.5 89t-97.5 32q-73 0 -106 -36q-33 -35 -33 -77q0 -74 108 -167z" />
    <glyph glyph-name="nine" unicode="9" horiz-adv-x="613" 
d="M116 182q-9 -26 -9.5 -52t9 -48t31 -35.5t57.5 -13.5q51 0 101 27t92 78t68 132t26 181q0 127 -54 196q-54 70 -136 70q-61 0 -98 -56.5t-37 -159.5q0 -39 10.5 -70t28.5 -52.5t42.5 -33.5t53.5 -12q59 0 97 59q22 -6 26 -24q-66 -92 -161 -92q-69 0 -117 52t-48 134
q0 69 27 137q29 68 84 116q57 48 129 48q101 0 163 -77t62 -196q0 -126 -53 -244q-53 -116 -142 -187t-189 -71q-63 0 -96 28.5t-33 73.5q0 48 44 104z" />
    <glyph glyph-name="colon" unicode=":" horiz-adv-x="283" 
d="M152 5q-17 -17 -42 -17t-43 17q-17 18 -17 43t17 42q18 18 43 18t42 -18q18 -17 18 -42t-18 -43zM215 409q-17 -17 -42 -17t-43 17q-17 18 -17 43t17 42q18 18 43 18t42 -18q18 -17 18 -42t-18 -43z" />
    <glyph glyph-name="semicolon" unicode=";" horiz-adv-x="351" 
d="M50 -214q84 56 103 138q21 81 -32 149q20 42 60 46q41 -44 45 -106q2 -32 -7 -66t-28.5 -68t-49.5 -66t-70 -59q-16 4 -21 32zM283 409q-17 -17 -42 -17t-43 17q-17 18 -17 43t17 42q18 18 43 18t42 -18q18 -17 18 -42t-18 -43z" />
    <glyph glyph-name="less" unicode="&#x3c;" horiz-adv-x="509" 
d="M314 96q-50 29 -88.5 51t-70 39.5t-56 30.5t-45.5 23q-2 4 -3 11.5t-1 15.5t1 15.5t3 12.5q46 22 140.5 75.5t240.5 141.5q22 -18 24 -38q-51 -35 -107 -70l-94 -58l-84 -48l-54 -31l54 -31q23 -13 44 -24.5t40 -22.5t42.5 -25.5t52.5 -32.5t55 -35.5t51 -34.5
q0 -17 -24 -35z" />
    <glyph glyph-name="equal" unicode="=" horiz-adv-x="520" 
d="M53 333q-3 12 -3 27q0 14 3 28q95 -5 198 -7t216 -1q3 -15 3 -19q0 -12 -3 -19q-206 -11 -414 -9zM53 151q-3 9 -3 26t3 29q183 -11 414 -9q1 -5 1.5 -9.5t0.5 -9.5q0 -3 -0.5 -7.5t-1.5 -10.5q-206 -11 -414 -9z" />
    <glyph glyph-name="greater" unicode="&#x3e;" horiz-adv-x="509" 
d="M455 240q-21 -10 -46.5 -23t-55.5 -30q-29 -17 -68.5 -39.5t-90.5 -51.5l-120 -70q-24 18 -24 35q51 35 107 70q29 19 52 33t40 24l86 48l54 31l-41 23l-63 35q-21 13 -50 30t-60.5 37t-63.5 41t-61 41q2 20 24 38q146 -88 240.5 -141.5t140.5 -75.5q2 -5 3 -12.5
t1 -15.5t-1 -15.5t-3 -11.5z" />
    <glyph glyph-name="question" unicode="?" horiz-adv-x="505" 
d="M255 254q-14 -20 -35 -25t-40.5 1t-33 22t-12.5 38q0 33 26 64.5t63 57.5q27 19 55.5 40t52 44.5t39 49t15.5 54.5q0 68 -39 97q-38 28 -94 28q-66 0 -106.5 -35.5t-40.5 -92.5q0 -35 28 -73q-9 -14 -12 -15q-71 15 -71 89t65 119q65 46 158 46q72 0 127 -38
q55 -37 55 -118q0 -45 -28 -83.5t-70 -65.5q-30 -20 -62 -38.5t-58 -38t-43 -40t-17 -43.5q0 -25 22.5 -34t50.5 -1q3 0 5 -9zM228 3q-17 -17 -42 -17t-43 17q-17 18 -17 43t17 42q18 18 43 18t42 -18q18 -17 18 -42t-18 -43z" />
    <glyph glyph-name="at" unicode="@" horiz-adv-x="1002" 
d="M627 514q12 11 32.5 12.5t36.5 -5.5q-25 -142 -37 -228.5t-12 -120.5q0 -116 81 -116q32 -2 63 26.5t55 73.5t38 100.5t13 108.5q0 87 -30 154.5t-81 109.5t-115 63.5t-136 21.5q-82 0 -156 -32t-132 -92t-92 -150t-34 -201q0 -114 26 -196t72 -128t101 -67t124 -21
q125 0 204 112q11 -5 14 -24q-16 -32 -41.5 -56.5t-57.5 -41.5t-68.5 -26t-75.5 -9q-151 0 -260 114q-109 113 -109 301q0 102 34.5 201.5t97.5 180.5q61 82 155 132q94 51 201 51q188 0 301 -104t113 -258q0 -58 -17.5 -124.5t-48.5 -127.5q-15 -30 -36 -55.5t-45 -44
t-51.5 -29t-55.5 -10.5q-60 0 -89 41t-30 111q-69 -152 -176 -152q-67 0 -102 59q-34 58 -34 145q0 46 16 99t45 102q30 51 81 83t112 32q59 0 105 -20zM596 327q1 8 6.5 42.5t16.5 95.5q-44 29 -96 29q-83 0 -135 -84q-51 -83 -51 -192q0 -72 24 -117t72 -45q39 0 74 44
q35 45 55.5 102.5t33.5 124.5z" />
    <glyph glyph-name="A" unicode="A" horiz-adv-x="1029" 
d="M1076 250q-15 -65 -39 -125q-23 -58 -63 -101q-41 -44 -85 -44q-38 1 -68 17.5t-53.5 45.5t-40 68.5t-28.5 86.5q-16 66 -23 128.5t-10 132.5q-3 71 -2 118.5t3 91.5l-184 -350q103 -13 184 -66q15 -21 10 -41q-138 52 -219 60q-14 -26 -27 -49t-25 -42q-23 -39 -62 -88
q-39 -51 -85.5 -78t-97.5 -27q-63 0 -97 31t-34 77q-2 43 30.5 84.5t87.5 74t126.5 51.5t147.5 18h11l244 450q16 10 32 9.5t29 -6.5q-6 -182 2.5 -321.5t29.5 -234.5t53 -143.5t74 -48.5q51 0 84.5 56t61.5 173zM407 275h-11q-160 0 -239 -53q-78 -53 -78 -117
q0 -26 10 -44t26 -25q16 -6 26.5 -8t21.5 -2q32 0 61.5 14t50.5 32t47 56q13 20 23 36t18 30z" />
    <glyph glyph-name="B" unicode="B" horiz-adv-x="845" 
d="M227 -7q6 19 11.5 42t10.5 45.5t9 44t7 38.5l15 93l13 85l7 48q3 17 5 30t3 22l9 48l12 47q6 18 15.5 40.5t19.5 35.5q10 14 25 25.5t32 16.5l4 -5q-5 -9 -10 -22.5t-9 -32.5t-8.5 -48t-10.5 -70t-11.5 -75.5t-10.5 -63.5l-11 -74l-8.5 -51t-5.5 -34t-5.5 -28.5
t-8.5 -35.5q-10 -38 -21 -64q73 -24 145 -24q109 0 171 61q63 61 63 140q0 66 -60 108q-60 44 -185 36q-3 6 -3 18q0 9 3 18q69 4 119.5 18.5t76.5 31.5q21 15 33.5 30t19.5 29.5t9.5 26.5t1.5 20q0 76 -81 117q-80 41 -197 41q-160 0 -269 -68q-108 -68 -108 -170
q0 -49 29 -80.5t92 -31.5q36 0 63 13q5 -5 5 -10q-35 -50 -95 -50q-29 0 -54 10t-44 28t-29.5 44t-10.5 58q0 91 67 161q69 72 164.5 105.5t198.5 33.5q144 0 242 -56q97 -55 97 -145q0 -57 -48.5 -99t-136.5 -64q87 -9 132.5 -54t45.5 -111q0 -95 -91 -171
q-89 -76 -249 -76q-69 0 -146 19q-20 -19 -45 -19z" />
    <glyph glyph-name="C" unicode="C" horiz-adv-x="631" 
d="M502 256q12 6 25 0q13 -37 5 -83.5t-37 -87.5t-79 -69t-120 -28q-123 0 -197 92q-74 94 -74 231q0 122 55 226q56 106 143 165q88 61 187 61q88 0 144 -48q57 -48 57 -119q0 -75 -68 -143q-9 3 -16 13q32 56 32 117q0 63 -39.5 101t-126.5 38q-49 0 -97 -22t-93 -67
q-43 -45 -70 -124t-27 -182q0 -146 58 -223t160 -77q88 0 135 65q47 66 43 164z" />
    <glyph glyph-name="D" unicode="D" horiz-adv-x="898" 
d="M227 -7q6 19 11.5 42t10.5 45.5t9 44t7 38.5l15 93l13 85l7 48q3 17 5 30t3 22l9 48l12 47q6 18 15.5 40.5t19.5 35.5q10 14 25 25.5t32 16.5l4 -5q-5 -9 -10 -22.5t-9 -32.5t-8.5 -48t-10.5 -70t-11.5 -75.5t-10.5 -63.5l-10 -63q-3 -22 -6 -39t-5 -30
q-2 -12 -4.5 -26.5t-6.5 -31.5q-6 -34 -14 -59.5t-18 -45.5q58 -18 118 -18q83 0 143 36t99 91t58 120t19 123q0 79 -20.5 139t-52.5 95t-75 56q-45 22 -84.5 29.5t-84.5 7.5q-160 0 -269 -68q-108 -68 -108 -170q0 -49 29 -80.5t92 -31.5q36 0 63 13q5 -5 5 -10
q-35 -50 -95 -50q-29 0 -54 10t-44 28t-29.5 44t-10.5 58q0 89 65 160q33 36 74 62t87 43.5t95.5 26t99.5 8.5q55 0 106 -9.5t105 -35.5q79 -34 129 -110.5t52 -203.5q0 -37 -9 -82.5t-29.5 -92t-53 -90t-79 -77.5t-108.5 -54.5t-141 -20.5q-52 0 -123 13q-17 -13 -39 -13z
" />
    <glyph glyph-name="E" unicode="E" horiz-adv-x="637" 
d="M511 288q13 4 25 0q11 -24 10.5 -55.5t-11.5 -65t-32.5 -65.5t-53 -57.5t-74 -41t-95.5 -15.5q-116 0 -193 53q-76 54 -76 141q0 166 204 222q-115 40 -115 160q0 51 26.5 91t66.5 62q40 23 82 35t78 12q80 0 136 -32q55 -31 55 -89q0 -35 -21.5 -70t-64.5 -54
q-8 5 -10 13q44 50 44 100q0 42 -34.5 69t-101.5 27q-84 0 -134 -46q-50 -45 -50 -106q0 -55 46.5 -98t137.5 -53q2 -10 2 -12q0 -8 -3 -15q-45 -3 -89 -16t-86 -36t-67 -61t-25 -84q0 -82 61 -128t147 -46q110 0 166 75q55 74 49 186z" />
    <glyph glyph-name="F" unicode="F" horiz-adv-x="693" 
d="M463 338q-11 -63 -32 -121.5t-52 -112.5q-30 -52 -73.5 -84t-92.5 -32q-65 0 -105 37q-39 37 -39 89q0 38 22.5 74.5t71.5 54.5l7 -9q-25 -28 -37 -51.5t-12 -59.5q0 -43 29 -69t80 -26q44 0 68.5 23.5t41.5 58.5q6 10 10.5 24.5t8 30t6.5 30.5t5 27q4 23 9 62l9 57
q0 5 1 6q-26 -4 -56.5 -11t-65.5 -17q-12 19 0 34q37 12 68.5 21t59.5 14l10 60q2 10 4.5 23.5t6.5 31.5q4 19 8 32.5t8 22.5q12 32 33.5 62t51.5 35l6 -5q-7 -13 -13.5 -38.5t-10.5 -49.5q-5 -26 -12 -76q-4 -26 -7.5 -48t-6.5 -39q31 4 72.5 5.5t93.5 1.5q10 -8 9.5 -21
t-6.5 -22q-109 0 -176 -6zM248 436q-37 -52 -99 -52q-57 0 -103 39t-46 107q0 103 86 168q87 66 231 66q76 0 211 -30t159 -30q30 0 48 8.5t36 31.5q8 -3 12 -10q-34 -50 -61 -68.5t-63 -18.5q-21 0 -157 33q-135 34 -211 34q-250 0 -250 -160q0 -54 35.5 -88.5t101.5 -34.5
q32 0 65 14z" />
    <glyph glyph-name="G" unicode="G" horiz-adv-x="661" 
d="M465 122q-74 -114 -182 -114q-114 0 -186 88t-72 215q0 122 55 226q56 106 143 165q88 61 187 61q88 0 144 -48q57 -48 57 -119q0 -73 -68 -138q-9 3 -16 13q32 55 32 112q0 63 -39.5 101t-126.5 38q-49 0 -97 -22t-93 -67q-43 -45 -70 -124t-27 -182q0 -127 56 -204
q55 -76 138 -76q62 0 109 56q47 57 68 136.5t18 160.5q43 10 74 -18l-35 -281q-2 -20 -5 -39.5t-5 -37.5q-2 -17 -7 -42.5t-12 -59.5t-15 -64.5t-16 -56.5q-8 -27 -19 -56t-25 -61q-27 -63 -60 -105q-32 -42 -79 -70.5t-101 -28.5q-90 0 -148 54q-59 54 -59 133
q0 45 16 85.5t50 72t86.5 51t124.5 20.5q2 -2 2 -10q-1 -2 -1 -8q-96 -11 -151.5 -67t-55.5 -143q0 -59 41 -103q40 -45 111 -45q42 0 74 20t55 53q24 31 42 84q19 52 31.5 106.5t24.5 126.5z" />
    <glyph glyph-name="H" unicode="H" horiz-adv-x="994" 
d="M1041 250q-29 -109 -88 -186q-60 -77 -137 -77q-63 0 -92 43t-29 116q0 50 24 214q-132 24 -275 10l-6 -32q-11 -63 -32 -121.5t-52 -112.5q-30 -52 -73.5 -84t-92.5 -32q-36 0 -63 10t-45 27t-27 40t-9 49q0 102 89 182q88 79 240 114q9 60 20 111.5t25 91.5t31.5 68
t41.5 42q-13 -3 -57 -10t-122 -18q-26 -4 -47 -7t-38 -7q-35 -6 -73 -19q-56 -18 -83.5 -47.5t-31.5 -83.5q0 -51 35.5 -84.5t101.5 -33.5q34 0 67 14l5 -9q-37 -52 -99 -52q-56 0 -103 38q-46 37 -46 103q4 73 42.5 120.5t110.5 73.5q49 19 92 30q42 10 102 18q30 4 54 6.5
t41 3.5q17 2 38.5 3t47.5 2q13 25 36 25q18 -5 23 -22q-24 -24 -70 -37q-10 -16 -24.5 -84.5t-34.5 -192.5l-5 -29q32 4 61.5 5.5t55.5 1.5q72 0 137 -12q5 -12 8.5 -26t4.5 -30q2 17 6.5 44t10.5 64l18 113q3 20 6 42.5t5 45.5q6 46 6 71q24 11 42.5 17.5t32.5 8.5
q0 -31 -10.5 -108t-30.5 -202t-30.5 -202t-10.5 -107q0 -114 82 -114q51 0 97 70q48 70 64 152zM363 341l3 17q-123 -26 -196 -84q-74 -59 -74 -146q0 -46 27.5 -73t81.5 -27q44 0 68.5 23.5t41.5 58.5q6 10 10.5 24.5t8 30t6.5 30.5t5 27q4 23 9 62z" />
    <glyph glyph-name="I" unicode="I" horiz-adv-x="587" 
d="M145 234q-26 -28 -37.5 -51.5t-11.5 -59.5q0 -43 29 -69t80 -26q44 0 68.5 23.5t41.5 58.5q6 10 10.5 24.5t8 30t6.5 30.5t5 27q4 23 9 62l9 57l9 57l11 66l12 63q8 40 16.5 65.5t19.5 53.5q23 57 60 77q-13 -3 -57 -10t-122 -18q-26 -4 -47 -7t-38 -7q-35 -6 -73 -19
q-56 -18 -83.5 -47.5t-31.5 -83.5q0 -54 35.5 -88.5t101.5 -34.5q34 0 67 14l5 -9q-37 -52 -99 -52q-56 0 -102 39q-47 41 -47 107q4 73 42.5 120.5t110.5 73.5q49 19 92 30q42 10 102 18q30 4 54 6.5t41 3.5q17 2 38.5 3t47.5 2q13 25 36 25q18 -5 23 -22q-24 -24 -70 -37
q-11 -19 -23 -71q-5 -26 -12.5 -68t-17.5 -99l-26 -154q-11 -63 -32 -121.5t-52 -112.5q-30 -52 -73.5 -84t-92.5 -32q-65 0 -105 37q-39 37 -39 89q0 38 22.5 74.5t71.5 54.5z" />
    <glyph glyph-name="J" unicode="J" horiz-adv-x="678" 
d="M339 413q-37 -52 -99 -52q-56 0 -102 39q-47 41 -47 107q4 73 42.5 120.5t110.5 73.5q49 19 92 30q42 10 102 18q30 4 54 6.5t41 3.5q17 2 38.5 3t47.5 2q13 25 36 25q18 -5 23 -22q-24 -24 -69 -37q-6 -11 -12.5 -34.5t-15.5 -65.5l-15 -79l-19 -102q-5 -31 -10 -58
t-10 -50l-10 -58q-4 -23 -7 -44.5t-7 -41.5q-7 -38 -21 -100q-7 -29 -14 -56t-15 -51t-18 -50t-22 -51t-25 -47t-27 -40q-28 -35 -66.5 -58t-83.5 -23q-92 0 -152 54q-59 54 -59 137q0 95 70 159t207 66q5 -8 1 -18q-95 -11 -151 -68q-56 -56 -56 -141q0 -61 41 -105
t111 -44q57 0 92 42q18 21 32 45.5t25 63.5q6 19 11 36.5t9.5 35.5t8.5 38t8 46t7.5 47.5t5.5 40.5q3 19 6 42.5t7 52.5t7.5 52.5t6.5 42.5q24 162 53 254.5t81 122.5q-14 -3 -58.5 -10t-121.5 -18q-26 -4 -47 -7t-38 -7q-35 -6 -73 -19q-56 -18 -83.5 -47.5t-31.5 -83.5
q0 -54 35.5 -88.5t101.5 -34.5q34 0 67 14z" />
    <glyph glyph-name="K" unicode="K" horiz-adv-x="969" 
d="M145 234q-26 -28 -37.5 -51.5t-11.5 -59.5q0 -43 29 -69t80 -26q44 0 68.5 23.5t41.5 58.5q6 10 10.5 24.5t8 30t6.5 30.5t5 27q4 23 9 62l9 57l9 57l11 66l12 63q8 40 16.5 65.5t19.5 53.5q23 57 60 77q-13 -3 -57 -10t-122 -18q-26 -4 -47 -7t-38 -7q-35 -6 -73 -19
q-56 -18 -83.5 -47.5t-31.5 -83.5q0 -54 35.5 -88.5t101.5 -34.5q34 0 67 14l5 -9q-37 -52 -99 -52q-56 0 -102 39q-47 41 -47 107q4 73 42.5 120.5t110.5 73.5q49 19 92 30q42 10 102 18q30 4 54 6.5t41 3.5q17 2 38.5 3t47.5 2q13 25 36 25q18 -5 23 -22q-24 -24 -70 -37
q-11 -19 -23 -71q-5 -26 -12.5 -68t-17.5 -99l-26 -154q-11 -63 -32 -121.5t-52 -112.5q-30 -52 -73.5 -84t-92.5 -32q-65 0 -105 37q-39 37 -39 89q0 38 22.5 74.5t71.5 54.5zM1015 250q-30 -109 -93 -185q-63 -77 -143 -77q-25 48 -60 100.5t-81 110.5q-46 59 -88.5 108
t-83.5 90l144 199q15 21 28 38t24 30t25.5 27.5t31.5 30.5q69 63 162 63q28 0 51.5 -8t40 -22.5t25.5 -34t9 -41.5q0 -34 -27.5 -67.5t-82.5 -57.5l-5 9q65 42 65 114q0 36 -18.5 57.5t-54.5 21.5q-27 0 -52 -10.5t-42 -22.5q-17 -11 -44 -45l-42 -53l-51 -74l-101 -145
q32 -31 69.5 -74t81.5 -99q87 -111 129 -192q52 22 93 84q42 61 57 133z" />
    <glyph glyph-name="L" unicode="L" horiz-adv-x="712" 
d="M872 -109q-59 -96 -133 -96q-43 0 -117 47q-37 23 -80 53t-94 68q-101 75 -162 111q-62 -86 -159 -86q-27 0 -50 6t-40 17.5t-27 28t-10 37.5q0 38 40 74q42 37 99 37t141 -39q11 34 19 82q4 23 8 52.5t8 64.5q4 36 7.5 62t5.5 42q8 54 23 103.5t41 98.5q27 51 71.5 80.5
t101.5 29.5q60 0 94.5 -41.5t34.5 -105.5q0 -76 -52 -150q-53 -75 -163 -114q-8 8 -11 21q39 18 70 44t52.5 57t33 66.5t11.5 72.5q0 45 -20 82q-20 36 -63 36q-28 0 -49.5 -12t-36.5 -33q-14 -20 -26 -56q-11 -35 -18 -71.5t-15 -92.5q-19 -115 -41 -199t-48 -138
q35 -19 78 -46.5t95 -64.5q52 -36 96.5 -67t80.5 -53t63.5 -34.5t45.5 -12.5q43 0 79 54q8 -4 16 -15zM254 92q-82 43 -140 43q-75 0 -75 -43q0 -26 22.5 -45.5t68.5 -19.5q83 0 124 65z" />
    <glyph glyph-name="M" unicode="M" horiz-adv-x="1384" 
d="M1431 251q-28 -107 -88 -187q-59 -77 -135 -77q-66 0 -98 43t-32 115q0 28 9 87t26 152q36 184 36 234q0 61 -15 90t-54 29q-45 0 -87.5 -38.5t-77.5 -102.5q-34 -64 -60 -131t-47 -140q-28 -112 -43 -193t-19 -133q-52 -15 -78 5q1 76 54 289q52 211 52 268
q0 60 -15.5 89.5t-53.5 29.5q-55 0 -111 -56q-54 -55 -93 -137q-38 -81 -63.5 -158.5t-35.5 -134.5q-17 -99 -30 -195q-51 -15 -77 5l75 473q7 40 10 71t3 53q0 72 -41.5 107t-110.5 35q-26 0 -58.5 -9.5t-61.5 -31t-49 -57.5t-20 -89q0 -70 63 -104q64 -34 139 -6l5 -10
q-28 -34 -71 -44t-83 2q-39 13 -67 51.5t-28 95.5q0 60 24 105t61 75t81.5 44.5t85.5 14.5q96 0 152 -53q55 -52 55 -135q0 -23 -3 -52t-10 -64l-11 -59q23 63 47.5 111.5t57.5 95.5q33 48 76.5 73t92.5 25q138 0 138 -179q0 -3 -0.5 -11t-0.5 -12q99 259 238 259
q138 0 138 -180q0 -64 -33 -239q-33 -174 -33 -211q0 -113 80 -113q52 0 98 70q47 69 64 153z" />
    <glyph glyph-name="N" unicode="N" horiz-adv-x="959" 
d="M1063 618q23 94 -11 132q-33 40 -93 40q-30 0 -53 -13.5t-38 -34.5q-15 -23 -26 -58q-6 -18 -10.5 -35t-8.5 -35t-7.5 -38.5t-7.5 -46.5q-25 -156 -42 -263.5t-28 -167.5q4 -38 5.5 -62.5t1.5 -37.5q-26 -26 -68 -16q5 153 -78 335q-83 183 -203 303l-7 -85l-7 -100
q-2 -22 -4.5 -48t-6.5 -55q-8 -59 -18 -105q-10 -45 -29 -92t-44 -78q-24 -30 -61 -49.5t-85 -19.5q-30 0 -54.5 10t-42.5 27t-27.5 40t-9.5 49q0 38 22.5 74.5t71.5 54.5l7 -9q-25 -28 -37 -51.5t-12 -59.5q0 -43 27 -69t72 -26q21 -2 38.5 3.5t31.5 16t25.5 25t19.5 29.5
q11 21 20 54q5 18 8.5 33.5t5.5 28.5l12 72l64 415q12 6 29 6q51 -42 99 -100.5t94 -134.5q93 -150 126 -302l4 70q4 48 6 82q1 16 3 37t4 47q6 54 12 89q3 18 7 39t9 44q11 48 24 80.5t32 66.5q26 49 66 75.5t95 26.5q48 1 78.5 -20t42 -53.5t3 -71.5t-38.5 -73z" />
    <glyph glyph-name="O" unicode="O" horiz-adv-x="823" 
d="M218 550q18 95 86 154t162 59q134 0 203 -95t69 -239q0 -79 -24 -157t-69 -142q-43 -63 -112 -102.5t-150 -39.5q-118 0 -196 89q-77 91 -77 209q0 66 27 136.5t81 127.5zM507 471q-53 -108 -154 -108q-54 0 -95 31q-41 32 -46 82q-30 -92 -30 -190q0 -115 56 -188
q57 -71 155 -71q83 0 146 60q64 60 94.5 148.5t30.5 185.5q0 139 -55 221q-54 84 -167 84q-23 0 -54 -8t-59 -29.5t-47.5 -59t-19.5 -95.5q0 -48 27 -80.5t78 -32.5q36 0 64 12.5t67 45.5z" />
    <glyph glyph-name="P" unicode="P" horiz-adv-x="808" 
d="M227 -7q6 19 11.5 42t10.5 45.5t9 44t7 38.5l15 93l13 85l7 48q3 17 5 30t3 22l9 48l12 47q6 18 15.5 40.5t19.5 35.5q10 14 25 25.5t32 16.5l4 -5q-5 -9 -10 -22.5t-9 -32.5t-8.5 -48t-10.5 -70t-11.5 -75.5t-10.5 -63.5l-10 -68q-4 -24 -6.5 -42t-4.5 -29l-12 -63
q-4 -20 -8 -34t-8.5 -25.5t-10 -22t-11.5 -22.5q-12 -23 -27.5 -33t-35.5 -10zM394 233q-11 14 -3 28q151 7 229 76q76 69 76 158q0 62 -24 105t-63 70t-88 39t-100 12q-160 0 -269 -68q-108 -68 -108 -170q0 -49 29 -80.5t92 -31.5q36 0 63 13q5 -5 5 -10q-35 -50 -95 -50
q-29 0 -54 10t-44 28t-29.5 44t-10.5 58q0 91 67 161q69 72 164.5 105.5t198.5 33.5q60 0 120.5 -15t108.5 -45.5t78.5 -78t30.5 -113.5q0 -121 -110 -201q-110 -78 -264 -78z" />
    <glyph glyph-name="Q" unicode="Q" horiz-adv-x="712" 
d="M496 451q-33 -81 -86 -119.5t-116 -38.5q-74 0 -128 57q-54 58 -54 149q0 67 25 117t64 82.5t86 48.5t90 16q135 0 203 -80t68 -208q0 -104 -52 -209q-52 -106 -140 -179q17 -12 43.5 -31t61.5 -45t62.5 -46t47.5 -34t44 -27.5t50 -26.5q51 -25 92 -25q43 0 79 54
q8 -5 16 -15q-59 -96 -133 -96q-45 0 -103 27q-29 14 -53.5 28.5t-46.5 30.5t-49.5 37t-62.5 49q-35 27 -61 46.5t-44 32.5q-97 -58 -201 -58q-45 0 -82 24q-36 25 -36 65q0 41 40 75q40 36 99 36q79 0 200 -76q72 65 113 164q42 100 42 197q0 112 -55 182q-54 71 -165 71
q-21 0 -53.5 -8t-63.5 -30t-53.5 -62t-22.5 -104q0 -36 11.5 -66.5t32 -52.5t49 -34t63.5 -12q96 0 170 102zM363 70q-101 65 -169 65q-74 0 -74 -43q0 -26 22 -45.5t67 -19.5q83 0 154 43z" />
    <glyph glyph-name="R" unicode="R" horiz-adv-x="785" 
d="M832 250q-29 -108 -93 -184q-65 -77 -146 -77q-68 186 -141 313q4 17 18.5 31t33.5 16l8 -15q181 49 181 189q0 54 -26 92t-65.5 61.5t-87.5 34t-93 10.5q-160 0 -269 -68q-108 -68 -108 -170q0 -49 29 -80.5t92 -31.5q36 0 63 13q5 -5 5 -10q-35 -50 -95 -50
q-29 0 -54 10t-44 28t-29.5 44t-10.5 58q0 89 66 160q33 36 74 62t86.5 43.5t95 26t99.5 8.5q58 0 116 -14t110 -41q54 -27 86 -74.5t32 -107.5q0 -78 -60 -137t-178 -84q75 -133 124 -263q52 23 92 84q42 63 56 131zM227 -7q6 19 11.5 42t10.5 45.5t9 44t7 38.5l15 93
l13 85l7 48q3 17 5 30t3 22l9 48l12 47q6 18 15.5 40.5t19.5 35.5q10 14 25 25.5t32 16.5l4 -5q-5 -9 -10 -22.5t-9 -32.5t-8.5 -48t-10.5 -70t-11.5 -75.5t-10.5 -63.5l-10 -68q-4 -24 -6.5 -42t-4.5 -29l-12 -63q-4 -20 -8 -34t-8.5 -25.5t-10 -22t-11.5 -22.5
q-12 -23 -27.5 -33t-35.5 -10z" />
    <glyph glyph-name="S" unicode="S" horiz-adv-x="587" 
d="M441 524q44 47 44 94q0 109 -141 109q-74 0 -108 -36q-33 -35 -33 -77q0 -43 32 -86.5t77 -80.5q33 -27 68.5 -55t64.5 -58t48 -61.5t19 -65.5q0 -84 -71 -152q-70 -67 -191 -67q-98 0 -171 52q-74 53 -74 156q0 24 11 54q6 15 17 31t27 31t37 28t46 21l11 -15
q-81 -59 -81 -157q0 -48 19.5 -82t49.5 -51q31 -16 58 -23t52 -7q90 0 140 44t50 119q0 35 -22.5 66.5t-56.5 62t-74 61t-74 63t-56.5 68.5t-22.5 78q0 79 60 127q61 48 150 48q80 0 135 -34q56 -35 56 -97q0 -34 -20.5 -68t-65.5 -53z" />
    <glyph glyph-name="T" unicode="T" horiz-adv-x="693" 
d="M248 436q-37 -52 -99 -52q-57 0 -103 39t-46 107q0 103 86 168q87 66 231 66q76 0 211 -30t159 -30q30 0 48 8.5t36 31.5q8 -3 12 -10q-34 -50 -61 -68.5t-63 -18.5q-21 0 -157 33q-135 34 -211 34q-250 0 -250 -160q0 -54 35.5 -88.5t101.5 -34.5q32 0 65 14zM170 234
q-26 -28 -37.5 -51.5t-11.5 -59.5q0 -43 29 -69t80 -26q44 0 68.5 23.5t41.5 58.5q6 10 10.5 24.5t8 30t6.5 30.5t5 27q4 23 9 62l9 57q2 8 4 20t4 29l8 51q1 9 3.5 22t5.5 26.5t6 26t6 21.5q6 18 15 40.5t19 35.5q11 14 26 25.5t32 16.5l6 -5q-5 -9 -10 -22.5t-9 -32.5
t-8.5 -48t-10.5 -70t-11.5 -75.5t-10.5 -63.5q-11 -63 -32 -121.5t-52 -112.5q-30 -52 -73.5 -84t-92.5 -32q-65 0 -105 37q-39 37 -39 89q0 38 22.5 74.5t71.5 54.5z" />
    <glyph glyph-name="U" unicode="U" horiz-adv-x="1006" 
d="M1056 255q-10 -52 -25 -95.5t-39 -85.5q-23 -40 -58 -63.5t-78 -23.5q-57 0 -91 29.5t-45 77.5q-10 49 -9.5 97t10.5 99l7 40q-23 -67 -49 -123.5t-60 -108.5t-76 -81.5t-87 -29.5q-44 1 -73 15.5t-46.5 38.5t-25 55t-6.5 65q0 79 39 231q39 151 39 211q0 72 -41.5 106
t-110.5 34q-25 0 -57.5 -9t-62 -30.5t-49.5 -57.5t-20 -89q0 -69 63 -105q64 -34 139 -6l5 -10q-28 -34 -71 -44t-83 2q-39 13 -67 51.5t-28 95.5q0 60 24 105t61 75t81.5 44.5t85.5 14.5q48 0 86.5 -13.5t65.5 -38t41 -58.5t14 -76q0 -31 -40 -194q-40 -161 -40 -252
q0 -119 82 -119q47 0 91 42q46 44 77 105q33 63 59 140q28 78 43.5 141t24.5 115q16 99 30 195q51 15 75 -5q-17 -123 -75 -471q-7 -44 -10.5 -76t-2.5 -71q1 -54 22 -85t72 -34q35 0 63.5 24.5t46.5 63.5q19 40 29.5 77t16.5 73z" />
    <glyph glyph-name="V" unicode="V" horiz-adv-x="893" 
d="M249 436q-28 -34 -71 -44t-83 2q-39 13 -67 51.5t-28 95.5q0 60 24 105t61 75t81.5 44.5t85.5 14.5q48 0 86.5 -13.5t65.5 -38t41 -58.5t14 -76q0 -31 -40 -194q-40 -161 -40 -252q0 -119 82 -119q80 0 152 74q71 73 112 180q40 105 40 207q0 155 -87 230q2 11 24 11
q32 -12 54.5 -35t37 -53.5t21.5 -68t7 -77.5q0 -106 -51 -224t-138 -202t-177 -84q-151 0 -151 174q0 79 39 231q39 151 39 211q0 72 -41.5 106t-110.5 34q-25 0 -57.5 -9t-62 -30.5t-49.5 -57.5t-20 -89q0 -69 63 -105q64 -34 139 -6z" />
    <glyph glyph-name="W" unicode="W" horiz-adv-x="1210" 
d="M249 436q-28 -34 -71 -44t-83 2q-39 13 -67 51.5t-28 95.5q0 60 24 105t61 75t81.5 44.5t85.5 14.5q48 0 86.5 -13.5t65.5 -38t41 -58.5t14 -76q0 -31 -40 -194q-40 -161 -40 -252q0 -119 82 -119q63 0 120 80q57 79 89 198q5 43 15 98l12 63q9 18 28.5 24.5t46.5 -4.5
q-1 -1 -10 -50l-13 -76q-2 -15 -5 -34.5t-5 -44.5q-2 -24 -3.5 -45.5t-1.5 -40.5q0 -168 86 -168q68 0 130 74q63 75 97 180q35 108 35 207q0 155 -87 230q2 11 24 11q31 -12 54 -35t37.5 -54t21.5 -68t7 -77q0 -107 -46 -224q-44 -117 -122 -202q-77 -84 -156 -84
q-146 0 -152 198q-42 -91 -94.5 -144.5t-112.5 -53.5q-83 0 -117 49t-34 125q0 79 39 231q39 151 39 211q0 72 -41.5 106t-110.5 34q-25 0 -57.5 -9t-62 -30.5t-49.5 -57.5t-20 -89q0 -69 63 -105q64 -34 139 -6z" />
    <glyph glyph-name="X" unicode="X" horiz-adv-x="782" 
d="M829 250q-8 -34 -18 -65t-23 -60q-24 -58 -66 -101q-42 -44 -89 -44q-75 0 -116 99q-19 48 -33 98q-6 24 -12 54t-13 66q-63 -128 -155 -223q-91 -94 -183 -94q-42 0 -71 20q-14 13 -7 23q15 -3 33 -3q54 0 110.5 31t104.5 82q49 51 88.5 106t69.5 112l-6 35
q-5 29 -10 53t-9 41t-8.5 38t-11.5 44q-12 48 -27 75q-11 22 -25 42t-32 35t-40.5 23t-48.5 6q-26 0 -58.5 -9t-61.5 -30.5t-49 -57t-20 -88.5q0 -69 63 -105q64 -34 139 -6l5 -10q-37 -45 -98 -50q-58 -4 -105 38q-46 43 -46 117q0 75 41 131q42 57 97.5 82t113.5 25
q54 0 97 -26.5t73 -75.5q30 -48 50 -102.5t36 -124.5q21 50 41 90t50 87q42 68 93 109t116 43q42 0 71 -20l4 -8t3 -9q-15 3 -33 3q-48 0 -92.5 -24t-77.5 -57t-67 -85q-17 -26 -30.5 -48t-23.5 -41t-21 -41t-23 -48q7 -35 15 -84l27 -147q8 -37 15.5 -59.5t17.5 -43.5
q22 -39 55 -39q87 0 148 229z" />
    <glyph glyph-name="Y" unicode="Y" horiz-adv-x="931" 
d="M730 336q-23 -64 -49.5 -118t-60.5 -105q-34 -49 -76.5 -77t-87.5 -28q-83 0 -117 49t-34 125q0 68 39 214q39 145 39 207q0 72 -41.5 106t-110.5 34q-25 0 -57.5 -9t-62 -30.5t-49.5 -57.5t-20 -89q0 -69 63 -105q64 -34 139 -6l5 -10q-28 -34 -71 -44t-83 2
q-39 13 -67 51.5t-28 95.5q0 60 24 105t61 75t81.5 44.5t85.5 14.5q48 0 86.5 -13.5t65.5 -38t41 -58.5t14 -76q0 -32 -40 -191q-40 -157 -40 -234q0 -119 82 -119q47 0 91 41q45 40 77 100q16 30 30.5 63.5t28.5 71.5q28 75 43.5 135t24.5 111q16 99 30 195q51 15 75 -5
q-51 -347 -111 -691q-11 -63 -32 -122t-52 -111q-30 -54 -73.5 -85.5t-92.5 -31.5q-65 0 -105 37q-39 37 -39 89q0 38 22.5 74.5t71.5 54.5l7 -9q-26 -28 -37.5 -51.5t-11.5 -59.5q0 -43 29 -69t80 -26q25 0 46.5 10t35.5 25q15 15 28 40t20 46q7 18 15 52q4 16 6 28.5
t4 22.5l7 49q2 16 4 26l3 15z" />
    <glyph glyph-name="Z" unicode="Z" horiz-adv-x="772" 
d="M872 -109q-59 -96 -133 -96q-42 0 -113 44q-69 42 -170 118q-50 37 -88.5 64.5t-67.5 44.5q-39 -36 -86.5 -57t-86.5 -21q-26 0 -49 6.5t-40 18t-27.5 28t-10.5 36.5q0 41 40 75q40 36 99 36q62 0 159 -47q26 36 59 91.5t71 130.5q-67 -11 -133 -30q-12 19 0 35
q76 25 156 39q45 88 77.5 147.5t54.5 90.5q-42 11 -152 57q-112 47 -163 47q-57 0 -85.5 -31.5t-28.5 -82.5q0 -66 32.5 -107t83.5 -53q-2 -8 -7 -15q-81 15 -121.5 59.5t-40.5 101.5q0 65 53 115q55 50 145 50q41 0 88 -12q45 -10 77 -23q16 -5 36 -14t45 -20
q26 -11 43 -18t27 -11q64 76 123 76q35 0 54 -15t19 -37q0 -15 -8.5 -30t-23.5 -26.5t-36 -19t-46 -7.5q-41 0 -73 7q-13 -21 -40 -76t-69 -145q58 6 152 6q10 -8 9.5 -21.5t-6.5 -22.5q-109 0 -176 -6q-42 -88 -79 -151t-70 -105q32 -19 73 -46t91 -62
q100 -72 166.5 -113.5t101.5 -41.5q43 0 79 54q8 -5 16 -15zM256 91q-83 44 -142 44q-75 0 -75 -44q0 -26 23 -45.5t68 -19.5q61 0 126 65zM650 675q39 -13 69 -13q63 0 63 43q0 13 -11.5 22t-32.5 9q-43 0 -88 -61z" />
    <glyph glyph-name="bracketleft" unicode="[" horiz-adv-x="531" 
d="M51 -266q17 105 37.5 235t43.5 288t39.5 275.5t26.5 196.5l4 34q72 -1 141 0.5t135 6.5q6 -24 0 -48q-48 -1 -104 0.5t-123 3.5q-7 -57 -24 -172.5t-43 -292.5t-45 -299.5t-31 -194.5q112 4 224 3q7 -18 0 -49q-67 5 -137 6.5t-145 0.5z" />
    <glyph glyph-name="backslash" unicode="\" horiz-adv-x="388" 
d="M338 -276q-11 -6 -28 -3.5t-25 15.5q-4 46 -33.5 178t-85.5 352q-55 221 -84 343.5t-32 148.5q29 27 54 -7q6 -52 33.5 -178.5t78.5 -330.5q51 -203 81 -332t41 -186z" />
    <glyph glyph-name="bracketright" unicode="]" horiz-adv-x="530" 
d="M329 -272q-72 1 -141 -0.5t-135 -6.5q-6 25 0 49q48 1 104 -0.5t122 -3.5q7 54 23 167.5t42 287.5q52 348 78 504q-112 -4 -224 -3q-3 10 -3 21q0 15 3 27q67 -5 137 -6.5t145 -0.5l-1 -5q-45 -268 -81 -515t-65 -480z" />
    <glyph glyph-name="asciicircum" unicode="^" horiz-adv-x="626" 
d="M541 285q-24 37 -47.5 75t-46.5 77t-44.5 78.5t-43.5 80.5l-44 83q-4 -5 -15.5 -26.5t-31.5 -58.5q-39 -75 -85.5 -155.5t-94.5 -153.5q-20 2 -38 24q13 25 33 60.5t47 83.5q55 97 95.5 171t61.5 122q4 2 12 3t16 1t15.5 -1t11.5 -3q11 -24 25.5 -54t34.5 -67t43.5 -79.5
t51.5 -93.5t48 -86t31 -57q-16 -22 -35 -24z" />
    <glyph glyph-name="underscore" unicode="_" horiz-adv-x="693" 
d="M53 -102q-3 12 -3 27q0 14 3 28q80 -4 226 -5.5t361 0.5q3 -8 3 -21t-3 -20q-228 -12 -587 -9z" />
    <glyph glyph-name="grave" unicode="`" horiz-adv-x="349" 
d="M50 702q9 31 42 48q87 -83 207 -162q-10 -22 -24 -31q-114 56 -225 145z" />
    <glyph glyph-name="a" unicode="a" horiz-adv-x="619" 
d="M666 251q-30 -109 -92 -186t-141 -77q-60 0 -89 41t-30 111q-69 -152 -176 -152q-67 0 -102 59q-34 58 -34 145q0 46 16 99t45 102q30 51 81 83t112 32q59 0 105 -20l1 5q12 11 32.5 12.5t36.5 -5.5q-25 -142 -37 -228.5t-12 -120.5q0 -116 82 -116q53 0 102 70
q51 72 67 154zM331 306q1 8 6.5 42.5t16.5 95.5q-44 29 -96 29q-83 0 -135 -84q-51 -83 -51 -192q0 -72 24 -117t72 -45q39 0 74 44q35 45 55.5 102.5t33.5 124.5z" />
    <glyph glyph-name="b" unicode="b" horiz-adv-x="562" 
d="M609 249q-33 -72 -86 -111t-116 -39q-17 0 -42 5q-77 -116 -193 -116q-80 0 -122 58q-41 59 -41 145q0 34 9 104.5t28 178.5q19 109 28 176t9 94q26 22 69 26q0 -59 -40 -277q-39 -219 -39 -301q0 -34 8 -63t24 -50t40 -32.5t56 -11.5q77 0 129 82q-62 32 -100 106
q-37 73 -37 152q0 28 6.5 53t20 44t33 29.5t46.5 10.5q63 0 96 -57q34 -55 34 -139q0 -90 -44 -176q16 -3 34 -3q104 0 157 122zM349 152q28 60 28 128q0 40 -6 74t-17.5 58.5t-28 38t-37.5 13.5q-24 0 -37 -23.5t-13 -63.5q0 -60 26 -129q27 -68 85 -96z" />
    <glyph glyph-name="c" unicode="c" horiz-adv-x="444" 
d="M491 249q-18 -49 -43 -92t-63 -83q-37 -40 -90 -63t-116 -23q-85 0 -132 59q-45 58 -45 145q0 48 16 100.5t44 103.5q29 51 76 83.5t104 32.5q65 0 93 -34q29 -34 29 -70q0 -15 -5.5 -30t-15 -26t-24 -17.5t-32.5 -4.5l-5 6q25 31 25 75q0 34 -18.5 50t-45.5 16
q-76 0 -124 -85q-47 -86 -47 -195q0 -35 8.5 -64.5t25.5 -51.5t42.5 -34t60.5 -12q51 0 96 22.5t75 57.5q59 71 78 144z" />
    <glyph glyph-name="d" unicode="d" horiz-adv-x="619" 
d="M666 251q-30 -109 -92 -186t-141 -77q-60 0 -89 41t-30 111q-69 -152 -176 -152q-67 0 -102 59q-34 58 -34 145q0 46 16 99t45 102q30 51 81 83t112 32q54 0 105 -20q17 100 25.5 164t8.5 92q25 18 69 26q0 -31 -10.5 -108t-30.5 -202t-30.5 -202t-10.5 -107
q0 -116 82 -116q53 0 102 70q51 72 67 154zM331 305q2 20 8 54t14 85q-41 29 -95 29q-83 0 -135 -84q-51 -83 -51 -192q0 -72 24 -117t72 -45q39 0 74 44q35 45 55.5 102t33.5 124z" />
    <glyph glyph-name="e" unicode="e" horiz-adv-x="451" 
d="M498 249q-18 -49 -44 -92t-64 -83q-37 -40 -91.5 -63t-117.5 -23q-86 0 -133 59q-46 58 -46 145q0 48 16 100.5t45 103.5q30 51 78.5 83.5t105.5 32.5q64 0 91 -32q28 -31 28 -69q0 -72 -81 -124q-80 -52 -212 -56q-1 -5 -1 -14v-20q0 -36 8.5 -65.5t25.5 -51t43 -33.5
t62 -12q52 0 98 22.5t76 57.5q62 72 80 144zM77 263q115 6 170.5 47.5t55.5 104.5q0 62 -55 62q-65 0 -112 -62q-46 -63 -59 -152z" />
    <glyph glyph-name="f" unicode="f" horiz-adv-x="334" 
d="M376 410q-126 -50 -284 -58l-2 -9q156 -101 156 -316q0 -69 -22 -136q-23 -69 -69 -120q-47 -51 -103 -51q-89 0 -89 155q0 54 60 453q-15 8 -30 14.5t-31 11.5q4 23 24 37h47q23 155 34.5 242.5t11.5 110.5q25 18 69 26q0 -28 -12.5 -122t-37.5 -255q77 4 146 17t132 35
v-35zM81 286q-54 -344 -54 -404t10.5 -88.5t40.5 -28.5q46 0 80 73q35 73 35 162q0 68 -24 148t-88 138z" />
    <glyph glyph-name="g" unicode="g" horiz-adv-x="506" 
d="M301 121q-68 -123 -163 -123q-67 0 -102 56q-34 55 -34 138q0 46 16 99t45 102q30 51 81 83t112 32q54 0 105 -20l1 5q12 11 32.5 12.5t36.5 -5.5q-21 -118 -40.5 -234t-36.5 -234q-8 -43 -18 -81t-30 -83q-27 -63 -75 -104.5t-121 -43.5q-73 0 -118 42q-45 40 -45 96
q0 83 81 139l10 -4q-33 -51 -33 -114q0 -30 10 -53t27.5 -38.5t40 -23t47.5 -7.5q31 0 55 15t39 37q15 20 28 59q6 19 10.5 36t8.5 35t7.5 38t7.5 46zM353 444q-41 29 -95 29q-83 0 -135 -84q-51 -83 -51 -192q0 -66 24 -109t72 -43q58 0 102 84q43 84 63 192z" />
    <glyph glyph-name="h" unicode="h" horiz-adv-x="557" 
d="M604 251q-29 -109 -91 -186t-142 -77q-97 0 -97 141q0 32 15 109q8 38 12 65.5t4 44.5q0 57 -12 84t-46 27q-48 0 -90 -53q-42 -54 -64.5 -120t-31.5 -135q-7 -48 -10 -80t-3 -51q-25 -23 -68 -23q0 30 12.5 124t37.5 253q51 316 51 370q25 18 69 26q0 -26 -13.5 -125
t-41.5 -275q68 137 173 137q106 0 106 -143q0 -17 -4 -45.5t-12 -70.5q-15 -83 -15 -118q0 -48 13 -71.5t46 -23.5q53 0 102 70q51 72 67 154z" />
    <glyph glyph-name="i" unicode="i" horiz-adv-x="303" 
d="M350 251q-30 -109 -92 -186t-141 -77q-60 0 -87.5 43t-27.5 115q0 61 22 186q23 130 23 150q40 23 69 26q0 -17 -6 -59t-19 -108t-19 -113.5t-6 -76.5q0 -116 82 -116q53 0 102 70q51 72 67 154zM99 557q-18 0 -32.5 14.5t-14.5 32.5q0 20 14.5 34.5t32.5 14.5
q20 0 34.5 -14.5t14.5 -34.5q0 -18 -14.5 -32.5t-34.5 -14.5z" />
    <glyph glyph-name="j" unicode="j" horiz-adv-x="196" 
d="M-282 -62q-9 -33 -9 -63q0 -61 33.5 -87.5t81.5 -26.5q72 0 106 79q17 39 26.5 79.5t19.5 102.5l75 473q29 20 69 5q-7 -38 -26 -155t-51 -315l-13 -63q-3 -14 -8 -31.5t-11 -36t-13.5 -36.5t-16.5 -32q-13 -22 -30.5 -42.5t-40.5 -36.5t-51 -25t-62 -7q-63 0 -98.5 33.5
t-35.5 84.5q0 58 47 105zM99 557q-18 0 -32.5 14.5t-14.5 32.5q0 20 14.5 34.5t32.5 14.5q20 0 34.5 -14.5t14.5 -34.5q0 -18 -14.5 -32.5t-34.5 -14.5z" />
    <glyph glyph-name="k" unicode="k" horiz-adv-x="474" 
d="M521 251q-17 -67 -42 -121q-26 -57 -68 -99q-43 -43 -93 -43q-63 0 -100 48q-37 50 -47 178q36 19 63.5 41.5t46 45.5t28 45.5t9.5 42.5q0 31 -17 50.5t-53 19.5q-39 0 -70.5 -31t-55 -77t-39 -100t-22.5 -100q-7 -48 -10 -80t-3 -51q-25 -23 -68 -23q0 30 12.5 124
t37.5 253q51 316 51 370q25 18 69 26q0 -26 -13.5 -125t-41.5 -275q68 137 174 137q60 0 89 -32.5t29 -80.5q0 -49 -38.5 -99.5t-113.5 -92.5q6 -81 30 -124t59 -43q57 0 94.5 54.5t69.5 169.5z" />
    <glyph glyph-name="l" unicode="l" horiz-adv-x="304" 
d="M351 251q-30 -109 -92 -186t-141 -77q-60 0 -87.5 43t-27.5 116q0 31 9.5 106t28.5 196q39 241 39 295q25 18 69 26q0 -31 -10.5 -108t-30.5 -202t-30.5 -202t-10.5 -107q0 -116 82 -116q53 0 102 70q51 72 67 154z" />
    <glyph glyph-name="m" unicode="m" horiz-adv-x="859" 
d="M906 251q-29 -109 -91 -186t-142 -77q-97 0 -97 140q0 32 15 109q16 76 16 111q0 57 -12.5 84t-49.5 27q-60 0 -105 -73q-45 -74 -68 -172q-31 -128 -31 -200q-40 -23 -69 -26q0 28 6 71.5t17 104.5q23 124 23 180q0 115 -68 115q-48 0 -90 -53q-42 -54 -65 -120.5
t-33 -135.5q-7 -51 -10.5 -83t-3.5 -47q-23 -23 -68 -23q0 32 12 113l29 196q18 112 27 188q9 7 30.5 10t38.5 -4l-21 -133q66 140 170 140q61 0 90 -41t31 -111q69 152 180 152q109 0 109 -142q0 -17 -4 -45.5t-12 -70.5q-15 -83 -15 -119q0 -48 13 -71.5t46 -23.5
q53 0 102 70q51 72 67 154z" />
    <glyph glyph-name="n" unicode="n" horiz-adv-x="558" 
d="M605 251q-29 -109 -91 -186t-142 -77q-97 0 -97 140q0 32 15 109q16 76 16 111q0 57 -12 84t-47 27q-48 0 -89 -53q-42 -54 -64 -120t-32 -135q-7 -51 -10.5 -83t-3.5 -48q-23 -23 -68 -23q0 32 12 113l29 196q18 112 27 188q9 7 30.5 10t38.5 -4l-21 -128
q69 135 173 135q106 0 106 -142q0 -17 -4 -45.5t-12 -70.5q-15 -83 -15 -119q0 -48 13 -71.5t46 -23.5q53 0 102 70q51 72 67 154z" />
    <glyph glyph-name="o" unicode="o" 
d="M601 249q-33 -72 -86.5 -111t-116.5 -39q-11 0 -19.5 0.5t-13.5 1.5q-68 -113 -182 -113q-78 0 -130 64q-51 64 -51 161q0 90 48 173t138 107l4 -11q-58 -42 -90.5 -111t-32.5 -148q0 -41 8 -75.5t25 -60t43 -39.5t62 -14q78 0 122 77q-67 26 -104 96t-37 155
q0 66 26.5 108t77.5 42q62 0 95 -59q34 -58 34 -137q0 -96 -37 -177q4 -1 10.5 -1h15.5q106 0 158 121zM346 149q23 63 23 131q0 56 -25 119q-26 65 -63 65q-48 0 -48 -111q0 -62 27 -122q27 -59 86 -82z" />
    <glyph glyph-name="p" unicode="p" horiz-adv-x="547" 
d="M594 249q-27 -123 -98 -197q-70 -73 -170 -73q-51 0 -108 20q-33 -12 -73 -12q-25 0 -43.5 12.5t-18.5 38.5q0 19 16.5 33t30.5 15l7 -2q17 -12 36.5 -22.5t39.5 -20.5q56 32 87 103q33 73 33 155q0 72 -25 117t-76 45q-55 0 -97 -76q-41 -77 -63 -181q-63 -407 -63 -458
q-39 -22 -73 -26q0 64 50 362q25 149 39 251.5t19 160.5q6 4 15.5 7.5t19 5t19 -1t15.5 -11.5l-15 -116q64 130 164 130q70 0 105 -59q36 -59 36 -146q0 -73 -37 -154q-37 -82 -103 -125q30 -9 63 -9q95 0 155 70q60 69 80 172z" />
    <glyph glyph-name="q" unicode="q" horiz-adv-x="564" 
d="M619 268q-87 -100 -199 -100q-23 0 -44 3q-20 -128 -36.5 -237t-27.5 -202q-50 -29 -68 0q11 87 25 181t31 199q-64 -124 -162 -124q-67 0 -102 59q-34 58 -34 145q0 46 16 99t45 102q30 51 81 83t112 32q54 0 105 -20l1 5q12 11 32.5 12.5t36.5 -5.5q-7 -33 -19 -105
t-30 -184q16 -2 29.5 -3.5t24.5 -1.5q87 0 168 84zM313 231q12 38 18 73l23 140q-44 29 -96 29q-83 0 -135 -84q-51 -83 -51 -192q0 -72 24 -117t72 -45q78 0 134 159q-7 8 -7 30q0 3 2 13z" />
    <glyph glyph-name="r" unicode="r" horiz-adv-x="470" 
d="M517 251q-29 -109 -91 -186t-142 -77q-93 0 -93 137q0 18 3 45.5t10 65.5q14 79 14 102q0 49 -23 66q-23 18 -109 39q-10 -88 -39 -193q-2 -3 -7 -4t-11 0t-10.5 4t-4.5 7q14 48 24 96t16 98q-49 16 -49 67q0 25 14 40.5t33 15.5q41 -12 40 -94l40 -10l41 -9
q6 -2 14.5 -4.5t19.5 -6.5q23 -7 33.5 -14.5t23.5 -19.5q13 -11 18 -26.5t5 -34.5q0 -8 -4 -32.5t-12 -66.5t-12 -74t-4 -54q0 -93 60 -93q53 0 102 70q51 72 67 154z" />
    <glyph glyph-name="s" unicode="s" horiz-adv-x="365" 
d="M13 174q3 -1 5 -5q-12 -29 -12 -70q0 -32 24.5 -56.5t73.5 -24.5q43 0 71.5 22.5t28.5 64.5q0 16 -8 34t-21 36t-29.5 36t-34.5 33q-35 31 -63 72q-29 43 -29 78q0 52 52 85t108 33q84 0 87 -87q-2 -8 -8 -8q-46 55 -102 55q-42 0 -63.5 -16t-21.5 -41t31 -62
q16 -19 32.5 -37t35.5 -36q19 -17 36 -38t33 -44q31 -46 31 -86q0 -44 -52 -84q-50 -40 -116 -40q-35 0 -62 8.5t-46 22.5t-28.5 32t-9.5 37q0 60 57 86z" />
    <glyph glyph-name="t" unicode="t" horiz-adv-x="303" 
d="M350 251q-30 -109 -92 -186t-141 -77q-60 0 -87.5 43t-27.5 115q0 56 44 315q-23 1 -41 2t-30 3q-8 20 3 34q20 -2 38.5 -2.5t35.5 0.5q19 110 19 157q29 22 69 26q0 -24 -5.5 -69t-16.5 -111q32 2 65.5 6t69.5 11q6 -9 4.5 -23.5t-7.5 -23.5q-41 -5 -75.5 -7t-63.5 -3
l-12 -70l-13 -74l-10 -62q-5 -35 -7.5 -60.5t-2.5 -43.5q0 -116 82 -116q53 0 102 70q51 72 67 154z" />
    <glyph glyph-name="u" unicode="u" horiz-adv-x="600" 
d="M647 251q-30 -109 -92 -186t-141 -77q-60 0 -88.5 41.5t-29.5 110.5q-71 -152 -179 -152q-60 0 -87.5 43t-27.5 115q0 29 6 73t17 103t17 98.5t6 60.5q40 23 69 26q0 -28 -6.5 -71.5t-19.5 -104.5q-25 -119 -25 -180q0 -116 82 -116q56 0 97 72t64 174q2 16 5.5 36.5
t8.5 46.5q10 52 15 84t5 48q29 18 69 4q0 -17 -6 -58t-19 -105q-24 -128 -24 -186q0 -116 82 -116q53 0 102 70q51 72 67 154z" />
    <glyph glyph-name="v" unicode="v" horiz-adv-x="503" 
d="M232 476q31 31 75 31q40 1 64.5 -21t34.5 -59.5t6 -85t-19 -96.5q-12 -48 -37 -94.5t-60 -82.5t-79 -58t-96 -22q-60 0 -89.5 43t-29.5 115q0 29 6 73t17 103t17 98.5t6 60.5q40 23 69 26q0 -28 -6.5 -71.5t-19.5 -104.5q-26 -124 -26 -180q0 -116 83 -116q84 0 150 84
q66 85 66 194q0 154 -130 154z" />
    <glyph glyph-name="w" unicode="w" horiz-adv-x="744" 
d="M473 476q28 31 75 31q40 1 64.5 -21t34 -59.5t6.5 -85t-18 -96.5q-12 -48 -34.5 -94.5t-55 -82.5t-73 -58t-87.5 -22q-12 0 -26.5 3.5t-29.5 10t-29.5 17t-25.5 24.5q-67 -55 -146 -55q-63 0 -94.5 43.5t-31.5 113.5q0 60 24 177t24 159q19 11 36 17.5t33 8.5
q0 -54 -26 -179q-26 -124 -26 -182q0 -111 78 -111q58 0 107 40q-30 57 -30 127q0 95 41 163t100 68q33 0 50.5 -20.5t17.5 -57.5q0 -57 -31 -132q-30 -77 -81 -137q31 -51 89 -51q76 0 136 84q61 85 61 194q0 154 -130 154zM301 126q35 46 55.5 103.5t20.5 111.5
q0 58 -28 58q-29 0 -44 -67t-15 -117t11 -89z" />
    <glyph glyph-name="x" unicode="x" horiz-adv-x="625" 
d="M672 251q-14 -45 -33 -86t-47 -84q-27 -42 -65 -67.5t-80 -25.5q-133 0 -159 179q-47 -77 -96 -129q-50 -51 -91 -51q-36 0 -58 20q-15 16 -7 27q12 -5 27 -5q61 0 113 51t106 141q-10 126 -30 185.5t-66 59.5q-42 0 -75.5 -53t-66.5 -168l-33 6q7 25 13.5 45.5t12.5 38
t12.5 34t14.5 34.5q24 53 54 76.5t76 27.5q38 0 65.5 -17t41.5 -48q15 -30 22.5 -58.5t11.5 -66.5q46 82 99 138t99 56q35 0 58 -20q13 -15 7 -26q-9 4 -27 4q-66 0 -120.5 -55t-110.5 -150q14 -128 39 -179q26 -50 74 -50q63 0 107 57.5t79 166.5z" />
    <glyph glyph-name="y" unicode="y" horiz-adv-x="491" 
d="M22 -7q-33 -51 -33 -114q0 -30 10 -53t27.5 -38.5t40 -23t47.5 -7.5q31 0 55 15t39 37q15 20 28 59q6 19 10.5 36t8.5 35t7.5 38t7.5 46q5 36 9.5 61t6.5 39q-68 -125 -168 -125q-60 0 -87.5 40.5t-27.5 107.5q0 29 6 73t17 103t17 98.5t6 60.5q40 23 69 26
q0 -28 -6.5 -71.5t-19.5 -104.5q-25 -119 -25 -180q0 -106 82 -106q32 0 59 24.5t48 62.5t36 84t23 90l31 189q29 20 69 5q-23 -131 -42 -247t-35 -221q-8 -43 -18 -81t-30 -83q-27 -63 -75 -104.5t-121 -43.5q-73 0 -118 42q-45 40 -45 96q0 83 81 139z" />
    <glyph glyph-name="z" unicode="z" horiz-adv-x="441" 
d="M2 -3q-30 -60 -30 -119q0 -65 43 -93q44 -29 96 -29q90 0 140 59t50 136q0 167 -222 193q-6 27 12 45q68 16 108.5 34.5t61.5 37.5t27 38.5t6 36.5q0 47 -61 69q-14 5 -50.5 14.5t-97.5 23.5q-10 -88 -39 -193q-2 -3 -7 -4t-11 0t-10.5 4t-4.5 7q14 48 24.5 96t15.5 98
q-50 17 -50 67q0 25 14 40.5t33 15.5q41 -13 40 -91l48 -9q33 -6 54 -10.5t50 -12.5q29 -7 48 -16t37 -22q36 -24 36 -67q0 -51 -44 -94.5t-147 -71.5q54 -12 92.5 -32.5t62.5 -48t35.5 -60t11.5 -68.5q0 -92 -74 -172q-73 -79 -199 -79q-90 0 -139 43t-49 101q0 80 79 137z
" />
    <glyph glyph-name="braceleft" unicode="{" horiz-adv-x="511" 
d="M342 -258q-63 -22 -107 -22q-56 0 -80.5 40t-24.5 103q0 16 3 38t8 51q6 28 11 53t9 47q8 45 6 89q-1 45 -29.5 69.5t-86.5 24.5q-3 19 5 32q57 0 86.5 18t46.5 47q5 8 8.5 20t5.5 26q3 15 4 26.5t2 23.5t1 25.5v31.5q0 285 149 285q44 0 100 -21q4 -19 -8 -25
q-42 15 -72 15q-44 0 -69 -34t-32.5 -80.5t-7.5 -115.5q0 -255 -151 -255q-1 -1 -1 -7q46 0 69.5 -32t24.5 -84q1 -26 0 -51t-4 -50q-2 -25 -5.5 -51t-8.5 -52q-9 -53 -9 -70q0 -105 79 -105q29 0 76 15q11 -8 2 -25z" />
    <glyph glyph-name="bar" unicode="|" horiz-adv-x="304" 
d="M50 -275q17 107 38 242.5t45 302.5q25 167 41.5 287t25.5 195q24 34 54 7q-4 -35 -20.5 -155t-47.5 -328t-51.5 -342t-31.5 -197q-8 -13 -25 -15.5t-28 3.5z" />
    <glyph glyph-name="braceright" unicode="}" horiz-adv-x="511" 
d="M52 -259q-4 19 8 25q42 -15 72 -15q43 0 68 34q26 34 33.5 80.5t7.5 115.5q0 255 151 255q1 1 1 7q-46 0 -69.5 32t-25.5 83q-1 26 0.5 51.5t3.5 50.5q3 25 6.5 51t8.5 52q9 52 9 70q0 105 -79 105q-30 0 -76 -15q-11 8 -2 25q63 22 107 22q105 0 105 -143q0 -32 -12 -89
q-5 -28 -10 -53t-9 -48q-4 -22 -6 -44t-1 -44q2 -45 30.5 -69.5t86.5 -24.5q3 -19 -5 -32q-57 0 -86.5 -18t-46.5 -47q-10 -16 -15 -46q-2 -15 -3 -26.5t-2 -23.5t-1 -25.5v-31.5q0 -285 -149 -285q-45 0 -100 21z" />
    <glyph glyph-name="asciitilde" unicode="~" horiz-adv-x="508" 
d="M458 310q-40 -97 -126 -97q-29 0 -85 32q-56 33 -81 33q-35 0 -53 -14t-38 -51q-14 1 -25 15q40 97 126 97q31 0 88 -33q58 -32 78 -32q35 0 53 14t38 51q13 -1 25 -15z" />
    <glyph glyph-name="exclamdown" unicode="&#xa1;" horiz-adv-x="317" 
d="M50 -269q0 1 42 205q21 103 37 183.5t27 141.5q16 16 43 7q-8 -64 -18 -144.5t-21 -180.5t-16.5 -150.5t-6.5 -52.5q-35 -33 -87 -9zM249 480q18 -17 18 -42t-18 -43q-17 -17 -42 -17t-43 17q-17 18 -17 43t17 42q18 18 43 18t42 -18z" />
    <glyph glyph-name="cent" unicode="&#xa2;" horiz-adv-x="444" 
d="M450 262q-90 -130 -221 -130q-7 0 -15 0.5t-18 1.5q-11 -45 -17.5 -77.5l-10.5 -52.5q-23 -11 -32 12l30 126q-56 20 -85 73t-29 121q0 46 16 99t44 104t75.5 83.5t102.5 33.5q16 65 27 125q11 8 22 4.5t15 -16.5l-28 -116q24 -5 40.5 -15.5t27 -24.5t15.5 -30t5 -31
t-5.5 -30t-15 -26t-24 -17.5t-32.5 -4.5l-5 6q25 31 25 75q0 49 -40 62l-109 -430q26 -8 51 -8q98 0 167 103zM282 620q-37 -3 -67 -28.5t-51 -65t-32 -88t-10 -97.5q0 -100 58 -140l47 191q19 78 33 134.5t22 93.5z" />
    <glyph glyph-name="sterling" unicode="&#xa3;" horiz-adv-x="712" 
d="M689 -18q-59 -96 -133 -96q-28 0 -74 28q-23 14 -50.5 32.5t-61.5 42.5q-68 48 -108 72q-58 -73 -150 -73q-46 0 -79 21.5t-33 57.5q0 35 39 68t95 33q50 0 125 -35q20 54 32 139q-28 -4 -58.5 -11t-64.5 -17q-12 19 0 35q31 11 63 19t65 15q5 49 9.5 84t7.5 55
q8 54 23 103.5t41 98.5q27 51 71.5 80.5t101.5 29.5q60 0 94.5 -41.5t34.5 -105.5q0 -20 -6 -41.5t-18 -43t-29.5 -40.5t-39.5 -34q-12 1 -15 11q49 65 49 146q0 23 -5 44t-15 37.5t-26 26t-37 9.5q-35 0 -59 -16.5t-41 -55.5q-8 -19 -14 -38.5t-11 -42t-9.5 -49.5
l-10.5 -63q-5 -32 -11.5 -67.5t-14.5 -75.5q32 4 75.5 6t98.5 2q10 -8 9.5 -21.5t-6.5 -22.5q-59 0 -105.5 -1.5t-81.5 -5.5q-26 -104 -60 -167q23 -13 51.5 -30.5t62.5 -40.5q69 -46 114.5 -73t69.5 -27q43 0 79 54q8 -4 16 -15zM230 79q-72 36 -121 36q-70 0 -70 -33
q0 -22 19 -38.5t57 -16.5q75 0 115 52z" />
    <glyph glyph-name="currency" unicode="&#xa4;" horiz-adv-x="502" 
d="M345 251q-50 -41 -111 -41q-52 0 -87 28q-20 -22 -35.5 -39t-25.5 -31q-27 9 -34 34q9 10 69 61q-35 44 -29 105q5 52 40 95q-8 7 -19 16t-22.5 18.5t-22.5 18.5t-18 17q10 28 36 34q10 -15 71 -80q49 40 110 40q52 0 88 -30q24 29 39.5 46.5t23.5 24.5q27 -8 34 -34
q-26 -20 -72 -63q32 -46 28 -103q-5 -53 -39 -93q68 -64 82 -73q-8 -23 -34 -36q-8 7 -18 18t-20 23.5t-19 24t-15 19.5zM256 249q52 0 83 34q32 36 28 85t-41 84t-84 35q-26 0 -47.5 -9t-36 -25t-22 -38t-4.5 -47q2 -25 12.5 -47t27 -38t38.5 -25t46 -9z" />
    <glyph glyph-name="yen" unicode="&#xa5;" horiz-adv-x="782" 
d="M429 322l-165 7q-3 7 -3 19q0 7 3 19q81 -1 163 0q-7 94 -21 165t-37.5 117.5t-57 70t-80.5 23.5q-26 0 -58.5 -9t-61.5 -30.5t-49 -57t-20 -88.5q0 -69 63 -105q64 -34 139 -6l5 -10q-37 -45 -98 -50q-58 -4 -105 38q-46 43 -46 117q0 75 41 131q42 57 97.5 82t113.5 25
q110 0 166 -99.5t76 -296.5l43 100q10 20 22.5 45.5t29.5 56.5q34 61 63 99q15 19 33 36.5t37.5 30.5t39.5 20.5t40 7.5q42 0 71 -20l4 -8t3 -9q-15 3 -33 3q-43 0 -85.5 -26.5t-75.5 -62.5q-16 -18 -33 -41.5t-34 -52.5t-31 -53t-25 -44q-10 -20 -21.5 -44t-24.5 -53
q78 1 161 6q3 -13 3 -28t-3 -27q-31 -1 -76.5 -0.5t-106.5 1.5q-10 -56 -15 -95q60 2 105 4t75 4q3 -12 3 -29t-3 -26q-31 -1 -78 -0.5t-110 1.5q-8 -57 -12 -97t-4 -63q-23 -23 -68 -23q0 50 21 184l-163 7q-2 10 -2 18q0 5 0.5 9.5t1.5 9.5q84 -2 170 0z" />
    <glyph glyph-name="brokenbar" unicode="&#xa6;" horiz-adv-x="296" 
d="M146 329q5 36 16 141.5t30 282.5q23 32 54 8q-1 -11 -3.5 -32t-7.5 -52l-25 -169q-17 -107 -27 -186q-21 -9 -37 7zM50 -275q23 140 40 250t30 193q24 4 36 -9l-21 -170q-12 -97 -19.5 -159t-12.5 -93q-8 -14 -25 -16.5t-28 4.5z" />
    <glyph glyph-name="section" unicode="&#xa7;" horiz-adv-x="705" 
d="M559 512q44 47 44 94q0 109 -141 109q-74 0 -108 -36q-33 -35 -33 -77q0 -43 32 -86.5t77 -80.5q32 -26 67.5 -54.5t65.5 -58.5t49 -61.5t18 -65.5q0 -57 -33 -108.5t-96 -81.5q-8 -80 -77 -141q-70 -61 -184 -61q-93 0 -164 53t-71 155q0 24 11 54q6 15 17 31t27 31
t37 28t46 21l11 -15q-81 -59 -81 -157q0 -48 18.5 -82t46.5 -50q29 -17 55 -24t49 -7q90 0 140 44t50 119q0 35 -22.5 66.5t-56.5 62t-74 61t-74 63t-56.5 68.5t-22.5 78q0 60 35 102t93 61v10q0 79 60 127q61 48 150 48q80 0 135 -34q56 -35 56 -97q0 -34 -20.5 -68
t-65.5 -53zM262 529q-36 -15 -52.5 -43t-16.5 -57q0 -42 28.5 -82.5t70.5 -75.5q30 -25 63.5 -52t63 -54.5t51.5 -56.5t29 -59q61 45 61 128q0 35 -26 71t-66 68q-28 22 -59.5 47t-61 52t-52.5 55.5t-33 58.5z" />
    <glyph glyph-name="dieresis" unicode="&#xa8;" horiz-adv-x="389" 
d="M138 657q-15 -15 -36 -15t-37 15q-15 16 -15 37t15 36q16 16 37 16t36 -16q16 -15 16 -36t-16 -37zM323 657q-15 -15 -36 -15t-37 15q-15 16 -15 37t15 36q16 16 37 16t36 -16q16 -15 16 -36t-16 -37z" />
    <glyph glyph-name="copyright" unicode="&#xa9;" horiz-adv-x="811" 
d="M570 110q-22 1 -22 17q167 116 167 304q0 132 -82 201q-80 70 -201 70q-138 0 -232 -100q-94 -98 -94 -271q0 -322 255 -322q69 0 111.5 23t77.5 68q11 -10 10 -22q-15 -25 -38 -45t-51.5 -33.5t-61.5 -21t-68 -7.5q-120 0 -205 90q-86 91 -86 238q0 108 46 207
q47 101 136 168q92 68 203 68q149 0 237 -82q89 -81 89 -202q0 -39 -8.5 -80.5t-28.5 -89.5t-59.5 -94.5t-94.5 -83.5zM534 285q18 -54 -24 -113q-41 -59 -124 -59q-79 0 -126 59q-47 61 -47 148q0 117 74 203q75 86 172 86q57 0 92.5 -30t35.5 -76q0 -49 -43 -92
q-9 2 -13 8q20 38 20 75q0 86 -103 86q-29 0 -61 -13.5t-58.5 -43t-44 -77t-17.5 -115.5q0 -93 37 -141t100 -48q55 0 84 40t27 103h19z" />
    <glyph glyph-name="ordfeminine" unicode="&#xaa;" horiz-adv-x="401" 
d="M448 547q-19 -67 -55 -112q-37 -46 -85 -46q-70 0 -71 90q-41 -90 -105 -90q-42 0 -62 35.5t-20 87.5q0 62 41 126q40 63 110 63q37 0 64 -12l1 3q16 16 44 4q-14 -88 -21.5 -140t-7.5 -69q0 -66 46 -66q31 0 59 40t39 91zM260 659q-26 18 -57 18q-48 0 -78 -49
q-30 -50 -30 -113q0 -42 13.5 -68t41.5 -26q33 0 57 45q25 46 39 108z" />
    <glyph glyph-name="guillemotleft" unicode="&#xab;" horiz-adv-x="668" 
d="M245 96q-71 57 -115 90.5t-76 53.5q-2 4 -3 11.5t-1 15.5t1 15.5t3 12.5q33 20 103 74.5t178 142.5q22 -18 24 -38q-28 -28 -58.5 -55.5t-59.5 -51.5q-14 -12 -26 -22.5t-23 -18.5l-44 -36l-29 -23l51 -42q48 -37 96 -78t93 -86q0 -16 -24 -35zM504 96q-71 57 -115 90.5
t-76 53.5q-2 4 -3 11.5t-1 15.5t1 15.5t3 12.5q33 20 103 74.5t178 142.5q22 -18 24 -38q-28 -28 -58.5 -55.5t-59.5 -51.5q-14 -12 -26 -22.5t-23 -18.5l-44 -36l-29 -23l51 -42q48 -37 96 -78t93 -86q0 -16 -24 -35z" />
    <glyph glyph-name="logicalnot" unicode="&#xac;" horiz-adv-x="604" 
d="M544 30q-5 -3 -18 -3q-5 0 -9.5 0.5t-9.5 1.5q-9 145 -9 285q-106 -5 -217 -6.5t-228 -0.5q-3 12 -3 27q0 14 3 28q102 -5 226.5 -7t274.5 -1q-4 -65 -6.5 -145.5t-3.5 -178.5z" />
    <glyph glyph-name="uni00AD" unicode="&#xad;" horiz-adv-x="520" 
d="M53 223q-3 12 -3 27q0 14 3 28q95 -5 198 -7t216 -1q3 -15 3 -19q0 -12 -3 -19q-206 -11 -414 -9z" />
    <glyph glyph-name="registered" unicode="&#xae;" horiz-adv-x="483" 
d="M324 459q-11 0 -11 9q87 57 87 150q0 33 -11 58t-30.5 42t-46 25.5t-56.5 8.5q-70 0 -120 -50q-48 -50 -48 -134q0 -157 133 -157q59 0 92 45q6 -5 6 -12q-14 -25 -43.5 -38.5t-64.5 -13.5q-61 0 -107 44q-44 44 -44 117q0 84 55 151q56 68 142 68q37 0 68 -11t52.5 -30
t33.5 -45t12 -56q0 -45 -22 -91t-77 -80zM359 556q-8 -29 -27 -51t-42 -22q-17 43 -39 87q3 11 17 14l2 -4q46 13 46 51q0 27 -21.5 39.5t-50.5 12.5q-43 0 -72 -18t-29 -45q0 -30 31 -30q7 0 17 5l1 -2v-3q-9 -14 -26 -14q-16 0 -27.5 10.5t-11.5 28.5q0 38 37 60
q37 24 80 24q18 0 35 -4.5t30.5 -12.5t22 -20.5t8.5 -28.5q0 -47 -65 -62q10 -17 18.5 -35t15.5 -35q28 18 39 57zM190 484q4 18 18 96q2 13 4 27.5t5.5 27t9.5 21t16 11.5h5q-5 -5 -6 -15q-1 -5 -2.5 -14t-3 -19.5l-3 -21l-2.5 -17.5q-3 -16 -6 -33t-6.5 -31.5t-9.5 -23.5
t-16 -9z" />
    <glyph glyph-name="macron" unicode="&#xaf;" horiz-adv-x="428" 
d="M53 665q-3 12 -3 27q0 14 3 28q75 -5 154.5 -7t167.5 -1q3 -9 3 -19q0 -12 -3 -19q-162 -10 -322 -9z" />
    <glyph glyph-name="degree" unicode="&#xb0;" horiz-adv-x="300" 
d="M138 573q31 0 54.5 22.5t23.5 65.5q0 31 -14.5 48.5t-38.5 17.5q-30 0 -54.5 -23t-24.5 -65q0 -32 14.5 -49t39.5 -17zM126 538q-39 0 -62.5 25.5t-23.5 63.5q0 53 39 94t92 41q42 0 65.5 -25.5t23.5 -63.5q0 -55 -39 -95q-37 -40 -95 -40z" />
    <glyph glyph-name="plusminus" unicode="&#xb1;" horiz-adv-x="510" 
d="M274 133q-5 -3 -18 -3q-5 0 -9.5 0.5t-9.5 1.5q-3 60 -4.5 103.5l-2.5 72.5q-60 -1 -104 -1.5t-73 0.5q-3 12 -3 27q0 14 3 28q58 -3 102 -4.5t74 -2.5q-1 61 -1.5 106t0.5 76q17 2 31 2.5t25 -1.5q-3 -63 -4.5 -109t-2.5 -75q60 -1 105 -1.5t75 0.5q3 -15 3 -18
q0 -12 -3 -19q-60 -3 -105 -4.5t-76 -2.5q-1 -60 -1.5 -103.5t-0.5 -72.5zM53 0q-3 12 -3 27t3 28q201 -11 404 -9q3 -15 3 -18q0 -12 -3 -19q-201 -11 -404 -9z" />
    <glyph glyph-name="twosuperior" unicode="&#xb2;" horiz-adv-x="367" 
d="M90 466q-5 -8 -6 -16q-27 0 -34 15q7 22 26.5 43t45 42t52.5 43.5t49.5 47.5t37 53t14.5 61q0 69 -75 69q-30 0 -48 -15.5t-18 -39.5q0 -21 17 -44q-5 -7 -11 -8q-41 11 -41 53q0 36 32.5 58t77.5 22q21 0 40.5 -5.5t34.5 -17t24 -29t9 -41.5q0 -22 -7.5 -44t-19.5 -42
t-27.5 -37.5t-31.5 -30.5l-71 -56q-19 -15 -31 -27t-19 -21q108 9 183 -10q4 -27 -6 -42q-132 28 -197 19z" />
    <glyph glyph-name="threesuperior" unicode="&#xb3;" horiz-adv-x="356" 
d="M210 672q46 -8 70.5 -32.5t24.5 -59.5q0 -49 -41 -90q-40 -40 -109 -40q-47 0 -76 24t-29 56q0 42 47 68q7 -2 11 -5q-17 -26 -17 -54q0 -27 19.5 -45t52.5 -18q48 0 73 25t25 60q0 81 -109 85q-7 19 3 40q45 6 77.5 28t32.5 53q0 57 -71 57q-30 0 -47.5 -15t-17.5 -39
q0 -22 15 -44q-4 -6 -11 -7q-39 7 -39 52q0 36 32.5 57.5t77.5 21.5q20 0 38.5 -5t32.5 -15.5t22.5 -25.5t8.5 -34q0 -37 -28.5 -62t-67.5 -32v-4z" />
    <glyph glyph-name="acute" unicode="&#xb4;" horiz-adv-x="349" 
d="M74 557q-14 9 -24 31q120 79 207 162q33 -17 42 -48q-111 -89 -225 -145z" />
    <glyph glyph-name="mu" unicode="&#xb5;" horiz-adv-x="601" 
d="M648 251q-30 -109 -92 -186t-141 -77q-60 0 -88.5 41.5t-29.5 110.5q-71 -152 -179 -152q-50 0 -78 31q-17 -109 -25.5 -177t-8.5 -96q-48 -23 -68 -26q0 25 4 63.5t12 93.5q7 53 15 100l19 119l19 117q2 17 7.5 49.5t15.5 80.5q19 95 19 138q40 23 69 26
q0 -28 -6.5 -71.5t-19.5 -104.5q-25 -119 -25 -180q0 -116 82 -116q56 0 97 72t64 174q2 16 5.5 36.5t8.5 46.5q10 52 15 84t5 48q29 18 69 4q0 -17 -6 -58t-19 -105q-24 -128 -24 -186q0 -116 82 -116q53 0 102 70q51 72 67 154z" />
    <glyph glyph-name="paragraph" unicode="&#xb6;" horiz-adv-x="479" 
d="M268 699q-29 -80 -48 -210q-10 -66 -16 -125.5t-10 -115.5q-80 0 -129 66q-49 65 -40 161q11 105 77 164q67 60 166 60zM261 148l89 544q52 15 76 -5q-26 -123 -51.5 -257.5t-51.5 -283.5q-15 -87 -46 -162.5t-86 -132.5q-54 -57 -119 -57q-66 0 -104 37q-40 37 -40 89
q0 38 22.5 74.5t71.5 54.5l7 -9q-27 -27 -39 -50.5t-12 -60.5q0 -45 30 -70t81 -25q22 -2 41 5.5t34 21t26.5 31t19.5 35.5q12 21 21 59l13 57q2 10 4.5 24.5t5.5 34.5z" />
    <glyph glyph-name="periodcentered" unicode="&#xb7;" horiz-adv-x="271" 
d="M135 203q-28 0 -46.5 19t-18.5 47t18.5 47t46.5 19q27 0 46.5 -19t19.5 -47t-19.5 -47t-46.5 -19z" />
    <glyph glyph-name="cedilla" unicode="&#xb8;" horiz-adv-x="242" 
d="M50 -274q85 52 85 112q0 24 -17 41.5t-50 24.5q11 22 24 49t29 59q14 0 24 -10q-5 -17 -10.5 -33.5t-11.5 -31.5q31 -12 50 -36t19 -53q0 -71 -118 -149q-20 6 -24 27z" />
    <glyph glyph-name="onesuperior" unicode="&#xb9;" horiz-adv-x="259" 
d="M149 459q-6 -7 -21 -8.5t-23 2.5q4 29 17 112.5t36 223.5l-4 2q-10 -8 -31.5 -28t-54.5 -53q-12 2 -18 13q14 18 31 37t37 39q40 40 60 51q24 -3 31 -16z" />
    <glyph glyph-name="ordmasculine" unicode="&#xba;" horiz-adv-x="345" 
d="M425 665q-12 -70 -49 -110t-86 -42q-15 -54 -48 -89t-84 -35q-23 0 -42.5 10t-34 28t-23 42.5t-8.5 53.5q0 53 28 102q29 50 83 65l5 -7q-24 -14 -40 -39.5t-24.5 -55t-8.5 -60t8.5 -55t26 -40t44.5 -14.5q35 0 57.5 27t31.5 69q-46 8 -73 42.5t-27 79.5q0 28 16 46
t46 18q18 0 32.5 -9.5t24.5 -25.5t15 -37t5 -45q0 -12 -1 -23t-3 -21q42 2 69.5 35.5t37.5 93.5zM265 542q0 4 0.5 11t0.5 10q0 30 -14 69q-13 37 -36 37q-25 0 -25 -37q0 -29 17.5 -55.5t56.5 -34.5z" />
    <glyph glyph-name="guillemotright" unicode="&#xbb;" horiz-adv-x="668" 
d="M614 240q-16 -10 -35 -23.5t-41 -30.5t-51 -39t-65 -51l-89 -70q-24 19 -24 35q23 22 46 43.5t46 41.5l48 40l48 40l51 41q-84 68 -143 119.5t-96 87.5q5 22 24 38q108 -88 178 -142.5t103 -74.5q2 -5 3 -12.5t1 -15.5t-1 -15.5t-3 -11.5zM355 240q-16 -10 -35 -23.5
t-41 -30.5t-51 -39t-65 -51l-89 -70q-24 19 -24 35q23 22 46 43.5t46 41.5l48 40l48 40l51 41q-84 68 -143 119.5t-96 87.5q5 22 24 38q108 -88 178 -142.5t103 -74.5q2 -5 3 -12.5t1 -15.5t-1 -15.5t-3 -11.5z" />
    <glyph glyph-name="onequarter" unicode="&#xbc;" horiz-adv-x="610" 
d="M455 124q-32 -3 -64.5 -8t-67.5 -12q-17 11 -19 28q37 90 107 171q69 79 100 94q21 -4 29 -16l-36 -224h54q4 -9 0 -25l-58 -4l-12 -72t-7 -50q-14 -15 -45 -6zM489 763q28 0 37 -18q-20 -38 -74 -131t-143 -243q-88 -150 -144 -245.5t-79 -137.5q-22 0 -33 17zM149 360
q-6 -7 -21 -8.5t-23 2.5q4 29 17 112.5t36 223.5l-4 2q-10 -8 -31.5 -28t-54.5 -53q-12 2 -18 13q14 18 31 37t37 39q40 40 60 51q24 -3 31 -16zM490 336l-4 2q-12 -8 -29.5 -26.5t-40.5 -46.5t-41.5 -57t-32.5 -60q34 4 63 5.5t55 2.5z" />
    <glyph glyph-name="onehalf" unicode="&#xbd;" horiz-adv-x="648" 
d="M489 763q28 0 37 -18q-20 -38 -74 -131t-143 -243q-88 -150 -144 -245.5t-79 -137.5q-22 0 -33 17zM370 16q-2 -5 -3 -8.5t-2 -7.5q-24 0 -34 15q7 22 26.5 43t45 42t52.5 43.5t49.5 47.5t37 53t14.5 61q0 38 -22 53.5t-53 15.5q-30 0 -48 -15.5t-18 -39.5q0 -21 17 -44
q0 -6 -11 -8q-41 11 -41 53q0 36 32.5 58t77.5 22q21 0 40.5 -5.5t34.5 -17t24 -29t9 -41.5q0 -22 -7.5 -44t-19.5 -42t-27.5 -37.5t-31.5 -30.5l-71 -56q-19 -15 -31 -27t-19 -21q108 9 183 -10q0 -35 -6 -42q-133 27 -198 19zM149 360q-6 -7 -21 -8.5t-23 2.5
q4 29 17 112.5t36 223.5l-4 2q-10 -8 -31.5 -28t-54.5 -53q-12 2 -18 13q14 18 31 37t37 39q40 40 60 51q24 -3 31 -16z" />
    <glyph glyph-name="threequarters" unicode="&#xbe;" horiz-adv-x="660" 
d="M500 124q-32 -3 -64.5 -8t-67.5 -12q-17 11 -19 28q37 90 107 171q69 79 100 94q21 -4 29 -16l-36 -224h54q4 -9 0 -25l-58 -4l-12 -72t-7 -50q-14 -15 -45 -6zM573 763q28 0 37 -18q-20 -38 -74 -131t-143 -243q-88 -150 -144 -245.5t-79 -137.5q-22 0 -33 17zM210 572
q46 -8 70.5 -32.5t24.5 -59.5q0 -49 -41 -90q-40 -40 -109 -40q-47 0 -76 24t-29 56q0 42 47 68q7 -2 11 -5q-17 -29 -17 -54q0 -27 19.5 -45t52.5 -18q48 0 73 25t25 60q0 81 -109 85q-7 19 3 40q45 6 77.5 28t32.5 53q0 57 -71 57q-30 0 -47.5 -15t-17.5 -39q0 -22 15 -44
q0 -5 -11 -7q-39 7 -39 52q0 36 32.5 57.5t77.5 21.5q20 0 38.5 -5t32.5 -15.5t22.5 -25.5t8.5 -34q0 -37 -28.5 -62t-67.5 -32v-4zM535 336l-4 2q-12 -8 -29.5 -26.5t-40.5 -46.5t-41.5 -57t-32.5 -60q34 4 63 5.5t55 2.5z" />
    <glyph glyph-name="questiondown" unicode="&#xbf;" horiz-adv-x="505" 
d="M372 -41q9 13 12 15q71 -15 71 -89t-66 -119q-64 -46 -157 -46q-73 0 -128 38q-54 37 -54 118q0 45 28 83.5t70 65.5q30 20 62 38.5t58 38t43 40t17 43.5q0 25 -22.5 34t-50.5 1q-4 0 -5 9q13 20 34.5 25t41 -1t33 -22t12.5 -38q0 -33 -26 -64.5t-63 -58.5
q-27 -19 -55.5 -39.5t-52 -44t-39 -49t-15.5 -54.5q0 -69 39 -97q38 -28 94 -28q66 0 106.5 35.5t40.5 92.5q0 35 -28 73zM361 479q18 -17 18 -42t-18 -43q-17 -17 -42 -17t-43 17q-17 18 -17 43t17 42q18 18 43 18t42 -18z" />
    <glyph glyph-name="Agrave" unicode="&#xc0;" horiz-adv-x="1029" 
d="M1076 250q-15 -65 -39 -125q-23 -58 -63 -101q-41 -44 -85 -44q-38 1 -68 17.5t-53.5 45.5t-40 68.5t-28.5 86.5q-16 66 -23 128.5t-10 132.5q-3 71 -2 118.5t3 91.5l-184 -350q103 -13 184 -66q15 -21 10 -41q-138 52 -219 60q-14 -26 -27 -49t-25 -42q-23 -39 -62 -88
q-39 -51 -85.5 -78t-97.5 -27q-63 0 -97 31t-34 77q-2 43 30.5 84.5t87.5 74t126.5 51.5t147.5 18h11l244 450q16 10 32 9.5t29 -6.5q-6 -182 2.5 -321.5t29.5 -234.5t53 -143.5t74 -48.5q51 0 84.5 56t61.5 173zM407 275h-11q-160 0 -239 -53q-78 -53 -78 -117
q0 -26 10 -44t26 -25q16 -6 26.5 -8t21.5 -2q32 0 61.5 14t50.5 32t47 56q13 20 23 36t18 30zM615 949q8 29 38 35q30 -40 57 -71.5t69 -65.5q-9 -18 -20 -25q-48 32 -83 64.5t-61 62.5z" />
    <glyph glyph-name="Aacute" unicode="&#xc1;" horiz-adv-x="1029" 
d="M1076 250q-15 -65 -39 -125q-23 -58 -63 -101q-41 -44 -85 -44q-38 1 -68 17.5t-53.5 45.5t-40 68.5t-28.5 86.5q-16 66 -23 128.5t-10 132.5q-3 71 -2 118.5t3 91.5l-184 -350q103 -13 184 -66q15 -21 10 -41q-138 52 -219 60q-14 -26 -27 -49t-25 -42q-23 -39 -62 -88
q-39 -51 -85.5 -78t-97.5 -27q-63 0 -97 31t-34 77q-2 43 30.5 84.5t87.5 74t126.5 51.5t147.5 18h11l244 450q16 10 32 9.5t29 -6.5q-6 -182 2.5 -321.5t29.5 -234.5t53 -143.5t74 -48.5q51 0 84.5 56t61.5 173zM407 275h-11q-160 0 -239 -53q-78 -53 -78 -117
q0 -26 10 -44t26 -25q16 -6 26.5 -8t21.5 -2q32 0 61.5 14t50.5 32t47 56q13 20 23 36t18 30zM681 822q-11 8 -20 26q50 34 91 69.5t68 67.5q14 -5 24 -16t14 -25q-37 -29 -83 -64t-94 -58z" />
    <glyph glyph-name="Acircumflex" unicode="&#xc2;" horiz-adv-x="1029" 
d="M1076 250q-15 -65 -39 -125q-23 -58 -63 -101q-41 -44 -85 -44q-38 1 -68 17.5t-53.5 45.5t-40 68.5t-28.5 86.5q-16 66 -23 128.5t-10 132.5q-3 71 -2 118.5t3 91.5l-184 -350q103 -13 184 -66q15 -21 10 -41q-138 52 -219 60q-14 -26 -27 -49t-25 -42q-23 -39 -62 -88
q-39 -51 -85.5 -78t-97.5 -27q-63 0 -97 31t-34 77q-2 43 30.5 84.5t87.5 74t126.5 51.5t147.5 18h11l244 450q16 10 32 9.5t29 -6.5q-6 -182 2.5 -321.5t29.5 -234.5t53 -143.5t74 -48.5q51 0 84.5 56t61.5 173zM407 275h-11q-160 0 -239 -53q-78 -53 -78 -117
q0 -26 10 -44t26 -25q16 -6 26.5 -8t21.5 -2q32 0 61.5 14t50.5 32t47 56q13 20 23 36t18 30zM728 913q-35 -34 -61.5 -54t-51.5 -37q-6 2 -12 8.5t-8 13.5q44 41 74 73.5t53 62.5q8 4 18 0q20 -35 43.5 -68t55.5 -68q-2 -5 -8.5 -11.5t-13.5 -10.5q-20 17 -40.5 37
t-48.5 54z" />
    <glyph glyph-name="Atilde" unicode="&#xc3;" horiz-adv-x="1029" 
d="M1076 250q-15 -65 -39 -125q-23 -58 -63 -101q-41 -44 -85 -44q-38 1 -68 17.5t-53.5 45.5t-40 68.5t-28.5 86.5q-16 66 -23 128.5t-10 132.5q-3 71 -2 118.5t3 91.5l-184 -350q103 -13 184 -66q15 -21 10 -41q-138 52 -219 60q-14 -26 -27 -49t-25 -42q-23 -39 -62 -88
q-39 -51 -85.5 -78t-97.5 -27q-63 0 -97 31t-34 77q-2 43 30.5 84.5t87.5 74t126.5 51.5t147.5 18h11l244 450q16 10 32 9.5t29 -6.5q-6 -182 2.5 -321.5t29.5 -234.5t53 -143.5t74 -48.5q51 0 84.5 56t61.5 173zM407 275h-11q-160 0 -239 -53q-78 -53 -78 -117
q0 -26 10 -44t26 -25q16 -6 26.5 -8t21.5 -2q32 0 61.5 14t50.5 32t47 56q13 20 23 36t18 30zM857 905q-27 -72 -85 -72q-9 0 -23.5 6t-31.5 18q-17 11 -29 17.5t-20 6.5q-17 0 -28 -10.5t-25 -38.5q-9 1 -13.5 5t-10.5 12q29 74 86 74q22 0 56 -25q17 -10 29 -16.5t19 -6.5
q17 0 28.5 11t25.5 37q9 0 12.5 -3.5t8.5 -9.5z" />
    <glyph glyph-name="Adieresis" unicode="&#xc4;" horiz-adv-x="1029" 
d="M1076 250q-15 -65 -39 -125q-23 -58 -63 -101q-41 -44 -85 -44q-38 1 -68 17.5t-53.5 45.5t-40 68.5t-28.5 86.5q-16 66 -23 128.5t-10 132.5q-3 71 -2 118.5t3 91.5l-184 -350q103 -13 184 -66q15 -21 10 -41q-138 52 -219 60q-14 -26 -27 -49t-25 -42q-23 -39 -62 -88
q-39 -51 -85.5 -78t-97.5 -27q-63 0 -97 31t-34 77q-2 43 30.5 84.5t87.5 74t126.5 51.5t147.5 18h11l244 450q16 10 32 9.5t29 -6.5q-6 -182 2.5 -321.5t29.5 -234.5t53 -143.5t74 -48.5q51 0 84.5 56t61.5 173zM407 275h-11q-160 0 -239 -53q-78 -53 -78 -117
q0 -26 10 -44t26 -25q16 -6 26.5 -8t21.5 -2q32 0 61.5 14t50.5 32t47 56q13 20 23 36t18 30zM657 825q-15 -15 -36 -15t-37 15q-15 16 -15 37t15 36q16 16 37 16t36 -16q16 -15 16 -36t-16 -37zM842 825q-15 -15 -36 -15t-37 15q-15 16 -15 37t15 36q16 16 37 16t36 -16
q16 -15 16 -36t-16 -37z" />
    <glyph glyph-name="Aring" unicode="&#xc5;" horiz-adv-x="1029" 
d="M1076 250q-15 -65 -39 -125q-23 -58 -63 -101q-41 -44 -85 -44q-38 1 -68 17.5t-53.5 45.5t-40 68.5t-28.5 86.5q-16 66 -23 128.5t-10 132.5q-3 71 -2 118.5t3 91.5l-184 -350q103 -13 184 -66q15 -21 10 -41q-138 52 -219 60q-14 -26 -27 -49t-25 -42q-23 -39 -62 -88
q-39 -51 -85.5 -78t-97.5 -27q-63 0 -97 31t-34 77q-2 43 30.5 84.5t87.5 74t126.5 51.5t147.5 18h11l243 449q-23 8 -36 28.5t-13 47.5q0 48 35 86q36 37 84 37q38 0 59.5 -23t21.5 -58q0 -41 -25 -74.5t-64 -44.5q-6 -181 2.5 -320t29.5 -233t53 -142t74 -48q51 0 84.5 56
t61.5 173zM407 275h-11q-160 0 -239 -53q-78 -53 -78 -117q0 -26 10 -44t26 -25q16 -6 26.5 -8t21.5 -2q32 0 61.5 14t50.5 32t47 56q13 20 23 36t18 30zM716 800q28 0 49.5 20.5t21.5 59.5q0 29 -13 44.5t-35 15.5q-28 0 -50 -21t-22 -59q0 -60 49 -60z" />
    <glyph glyph-name="AE" unicode="&#xc6;" horiz-adv-x="1203" 
d="M433 324l244 450q16 10 32 9.5t29 -6.5q2 -10 5 -27t5 -40q79 54 171 54q80 0 136 -32q55 -31 55 -89q0 -35 -21.5 -70t-64.5 -54q-8 5 -10 13q29 32 39.5 66.5t0.5 63.5t-42.5 47.5t-89.5 18.5q-84 0 -134 -46q-50 -45 -50 -106q0 -55 46.5 -98t137.5 -53q2 -10 2 -12
q0 -8 -3 -15q-45 -3 -89 -16t-86 -36t-67 -61t-25 -84q0 -82 61 -128t147 -46q110 0 166 75q55 74 49 186q13 4 25 0q11 -24 10.5 -55.5t-11.5 -65t-32.5 -65.5t-53 -57.5t-74 -41t-95.5 -15.5q-116 0 -193 53q-76 54 -76 141q0 29 8 63q-64 21 -127 27q-14 -26 -27 -49
t-25 -42q-23 -39 -62 -88q-39 -51 -85.5 -78t-97.5 -27q-63 0 -97 31t-34 77q-2 43 30.5 84.5t87.5 74t126.5 51.5t147.5 18h11zM407 275h-11q-160 0 -239 -53q-78 -53 -78 -117q0 -26 10 -44t26 -25q16 -6 26.5 -8t21.5 -2q32 0 61.5 14t50.5 32t47 56q13 20 23 36t18 30z
M483 319q60 -7 120 -32q48 81 178 117q-115 40 -115 160q0 55 31 96q0 16 -1 30t-3 28z" />
    <glyph glyph-name="Ccedilla" unicode="&#xc7;" horiz-adv-x="631" 
d="M294 -12q-4 -13 -8 -25.5t-9 -25.5q31 -12 50 -36t19 -53q0 -71 -118 -149q-20 6 -24 27q85 52 85 112q0 24 -17 41.5t-50 24.5l42 86q-111 12 -175 102q-64 91 -64 219q0 122 55 226q56 106 143 165q88 61 187 61q88 0 144 -48q57 -48 57 -119q0 -75 -68 -143
q-9 3 -16 13q32 56 32 117q0 63 -39.5 101t-126.5 38q-49 0 -97 -22t-93 -67q-43 -45 -70 -124t-27 -182q0 -146 58 -223t160 -77q88 0 135 65q47 66 43 164q12 6 25 0q13 -37 5 -83.5t-37 -87.5t-79 -69t-120 -28h-2z" />
    <glyph glyph-name="Egrave" unicode="&#xc8;" horiz-adv-x="637" 
d="M511 288q13 4 25 0q11 -24 10.5 -55.5t-11.5 -65t-32.5 -65.5t-53 -57.5t-74 -41t-95.5 -15.5q-116 0 -193 53q-76 54 -76 141q0 166 204 222q-115 40 -115 160q0 51 26.5 91t66.5 62q40 23 82 35t78 12q80 0 136 -32q55 -31 55 -89q0 -35 -21.5 -70t-64.5 -54
q-8 5 -10 13q44 50 44 100q0 42 -34.5 69t-101.5 27q-84 0 -134 -46q-50 -45 -50 -106q0 -55 46.5 -98t137.5 -53q2 -10 2 -12q0 -8 -3 -15q-45 -3 -89 -16t-86 -36t-67 -61t-25 -84q0 -82 61 -128t147 -46q110 0 166 75q55 74 49 186zM259 928q8 29 38 35q30 -40 57 -71.5
t69 -65.5q-9 -18 -20 -25q-48 32 -83 64.5t-61 62.5z" />
    <glyph glyph-name="Eacute" unicode="&#xc9;" horiz-adv-x="637" 
d="M511 288q13 4 25 0q11 -24 10.5 -55.5t-11.5 -65t-32.5 -65.5t-53 -57.5t-74 -41t-95.5 -15.5q-116 0 -193 53q-76 54 -76 141q0 166 204 222q-115 40 -115 160q0 51 26.5 91t66.5 62q40 23 82 35t78 12q80 0 136 -32q55 -31 55 -89q0 -35 -21.5 -70t-64.5 -54
q-8 5 -10 13q44 50 44 100q0 42 -34.5 69t-101.5 27q-84 0 -134 -46q-50 -45 -50 -106q0 -55 46.5 -98t137.5 -53q2 -10 2 -12q0 -8 -3 -15q-45 -3 -89 -16t-86 -36t-67 -61t-25 -84q0 -82 61 -128t147 -46q110 0 166 75q55 74 49 186zM328 801q-11 8 -20 26q50 34 91 69.5
t68 67.5q14 -5 24 -16t14 -25q-37 -29 -83 -64t-94 -58z" />
    <glyph glyph-name="Ecircumflex" unicode="&#xca;" horiz-adv-x="637" 
d="M511 288q13 4 25 0q11 -24 10.5 -55.5t-11.5 -65t-32.5 -65.5t-53 -57.5t-74 -41t-95.5 -15.5q-116 0 -193 53q-76 54 -76 141q0 166 204 222q-115 40 -115 160q0 51 26.5 91t66.5 62q40 23 82 35t78 12q80 0 136 -32q55 -31 55 -89q0 -35 -21.5 -70t-64.5 -54
q-8 5 -10 13q44 50 44 100q0 42 -34.5 69t-101.5 27q-84 0 -134 -46q-50 -45 -50 -106q0 -55 46.5 -98t137.5 -53q2 -10 2 -12q0 -8 -3 -15q-45 -3 -89 -16t-86 -36t-67 -61t-25 -84q0 -82 61 -128t147 -46q110 0 166 75q55 74 49 186zM377 892q-35 -34 -61.5 -54t-51.5 -37
q-6 2 -12 8.5t-8 13.5q44 41 74 73.5t53 62.5q8 4 18 0q20 -35 43.5 -68t55.5 -68q-2 -5 -8.5 -11.5t-13.5 -10.5q-20 17 -40.5 37t-48.5 54z" />
    <glyph glyph-name="Edieresis" unicode="&#xcb;" horiz-adv-x="637" 
d="M511 288q13 4 25 0q11 -24 10.5 -55.5t-11.5 -65t-32.5 -65.5t-53 -57.5t-74 -41t-95.5 -15.5q-116 0 -193 53q-76 54 -76 141q0 166 204 222q-115 40 -115 160q0 51 26.5 91t66.5 62q40 23 82 35t78 12q80 0 136 -32q55 -31 55 -89q0 -35 -21.5 -70t-64.5 -54
q-8 5 -10 13q44 50 44 100q0 42 -34.5 69t-101.5 27q-84 0 -134 -46q-50 -45 -50 -106q0 -55 46.5 -98t137.5 -53q2 -10 2 -12q0 -8 -3 -15q-45 -3 -89 -16t-86 -36t-67 -61t-25 -84q0 -82 61 -128t147 -46q110 0 166 75q55 74 49 186zM315 825q-15 -15 -36 -15t-37 15
q-15 16 -15 37t15 36q16 16 37 16t36 -16q16 -15 16 -36t-16 -37zM500 825q-15 -15 -36 -15t-37 15q-15 16 -15 37t15 36q16 16 37 16t36 -16q16 -15 16 -36t-16 -37z" />
    <glyph glyph-name="Igrave" unicode="&#xcc;" horiz-adv-x="587" 
d="M145 234q-26 -28 -37.5 -51.5t-11.5 -59.5q0 -43 29 -69t80 -26q44 0 68.5 23.5t41.5 58.5q6 10 10.5 24.5t8 30t6.5 30.5t5 27q4 23 9 62l9 57l9 57l11 66l12 63q8 40 16.5 65.5t19.5 53.5q23 57 60 77q-13 -3 -57 -10t-122 -18q-26 -4 -47 -7t-38 -7q-35 -6 -73 -19
q-56 -18 -83.5 -47.5t-31.5 -83.5q0 -54 35.5 -88.5t101.5 -34.5q34 0 67 14l5 -9q-37 -52 -99 -52q-56 0 -102 39q-47 41 -47 107q4 73 42.5 120.5t110.5 73.5q49 19 92 30q42 10 102 18q30 4 54 6.5t41 3.5q17 2 38.5 3t47.5 2q13 25 36 25q18 -5 23 -22q-24 -24 -70 -37
q-11 -19 -23 -71q-5 -26 -12.5 -68t-17.5 -99l-26 -154q-11 -63 -32 -121.5t-52 -112.5q-30 -52 -73.5 -84t-92.5 -32q-65 0 -105 37q-39 37 -39 89q0 38 22.5 74.5t71.5 54.5zM379 949q8 29 38 35q30 -40 57 -71.5t69 -65.5q-9 -18 -20 -25q-48 32 -83 64.5t-61 62.5z" />
    <glyph glyph-name="Iacute" unicode="&#xcd;" horiz-adv-x="587" 
d="M145 234q-26 -28 -37.5 -51.5t-11.5 -59.5q0 -43 29 -69t80 -26q44 0 68.5 23.5t41.5 58.5q6 10 10.5 24.5t8 30t6.5 30.5t5 27q4 23 9 62l9 57l9 57l11 66l12 63q8 40 16.5 65.5t19.5 53.5q23 57 60 77q-13 -3 -57 -10t-122 -18q-26 -4 -47 -7t-38 -7q-35 -6 -73 -19
q-56 -18 -83.5 -47.5t-31.5 -83.5q0 -54 35.5 -88.5t101.5 -34.5q34 0 67 14l5 -9q-37 -52 -99 -52q-56 0 -102 39q-47 41 -47 107q4 73 42.5 120.5t110.5 73.5q49 19 92 30q42 10 102 18q30 4 54 6.5t41 3.5q17 2 38.5 3t47.5 2q13 25 36 25q18 -5 23 -22q-24 -24 -70 -37
q-11 -19 -23 -71q-5 -26 -12.5 -68t-17.5 -99l-26 -154q-11 -63 -32 -121.5t-52 -112.5q-30 -52 -73.5 -84t-92.5 -32q-65 0 -105 37q-39 37 -39 89q0 38 22.5 74.5t71.5 54.5zM474 821q-11 8 -20 26q50 34 91 69.5t68 67.5q14 -5 24 -16t14 -25q-37 -29 -83 -64t-94 -58z
" />
    <glyph glyph-name="Icircumflex" unicode="&#xce;" horiz-adv-x="587" 
d="M145 234q-26 -28 -37.5 -51.5t-11.5 -59.5q0 -43 29 -69t80 -26q44 0 68.5 23.5t41.5 58.5q6 10 10.5 24.5t8 30t6.5 30.5t5 27q4 23 9 62l9 57l9 57l11 66l12 63q8 40 16.5 65.5t19.5 53.5q23 57 60 77q-13 -3 -57 -10t-122 -18q-26 -4 -47 -7t-38 -7q-35 -6 -73 -19
q-56 -18 -83.5 -47.5t-31.5 -83.5q0 -54 35.5 -88.5t101.5 -34.5q34 0 67 14l5 -9q-37 -52 -99 -52q-56 0 -102 39q-47 41 -47 107q4 73 42.5 120.5t110.5 73.5q49 19 92 30q42 10 102 18q30 4 54 6.5t41 3.5q17 2 38.5 3t47.5 2q13 25 36 25q18 -5 23 -22q-24 -24 -70 -37
q-11 -19 -23 -71q-5 -26 -12.5 -68t-17.5 -99l-26 -154q-11 -63 -32 -121.5t-52 -112.5q-30 -52 -73.5 -84t-92.5 -32q-65 0 -105 37q-39 37 -39 89q0 38 22.5 74.5t71.5 54.5zM530 937q-45 -43 -82.5 -74.5t-68.5 -52.5q-14 6 -19 24q55 51 96.5 94t69.5 81q9 3 18 0
q51 -89 130 -175q-6 -14 -24 -24q-51 43 -120 127z" />
    <glyph glyph-name="Idieresis" unicode="&#xcf;" horiz-adv-x="587" 
d="M145 234q-26 -28 -37.5 -51.5t-11.5 -59.5q0 -43 29 -69t80 -26q44 0 68.5 23.5t41.5 58.5q6 10 10.5 24.5t8 30t6.5 30.5t5 27q4 23 9 62l9 57l9 57l11 66l12 63q8 40 16.5 65.5t19.5 53.5q23 57 60 77q-13 -3 -57 -10t-122 -18q-26 -4 -47 -7t-38 -7q-35 -6 -73 -19
q-56 -18 -83.5 -47.5t-31.5 -83.5q0 -54 35.5 -88.5t101.5 -34.5q34 0 67 14l5 -9q-37 -52 -99 -52q-56 0 -102 39q-47 41 -47 107q4 73 42.5 120.5t110.5 73.5q49 19 92 30q42 10 102 18q30 4 54 6.5t41 3.5q17 2 38.5 3t47.5 2q13 25 36 25q18 -5 23 -22q-24 -24 -70 -37
q-11 -19 -23 -71q-5 -26 -12.5 -68t-17.5 -99l-26 -154q-11 -63 -32 -121.5t-52 -112.5q-30 -52 -73.5 -84t-92.5 -32q-65 0 -105 37q-39 37 -39 89q0 38 22.5 74.5t71.5 54.5zM461 825q-15 -15 -36 -15t-37 15q-15 16 -15 37t15 36q16 16 37 16t36 -16q16 -15 16 -36
t-16 -37zM646 825q-15 -15 -36 -15t-37 15q-15 16 -15 37t15 36q16 16 37 16t36 -16q16 -15 16 -36t-16 -37z" />
    <glyph glyph-name="Eth" unicode="&#xd0;" horiz-adv-x="898" 
d="M227 -7q12 41 26 111.5t30 172.5q-38 -5 -74.5 -12.5t-71.5 -18.5q-12 19 0 35q79 27 152 39l4 21l7 48q3 17 5 30t3 22l9 48l12 47q6 18 15.5 40.5t19.5 35.5q10 14 25 25.5t32 16.5l4 -5q-5 -9 -10 -22.5t-9 -32.5t-8.5 -48t-10.5 -70t-11.5 -75.5t-10.5 -63.5l-2 -8
q29 2 65.5 3.5t80.5 1.5q10 -8 9.5 -21.5t-6.5 -22.5q-46 0 -84.5 -1.5t-70.5 -3.5q-28 -184 -56 -243q58 -18 118 -18q83 0 143 36t99 91t58 120t19 123q0 79 -20.5 139t-52.5 95t-75 56q-45 22 -84.5 29.5t-84.5 7.5q-160 0 -269 -68q-108 -68 -108 -170q0 -49 29 -80.5
t92 -31.5q36 0 63 13q5 -5 5 -10q-35 -50 -95 -50q-29 0 -54 10t-44 28t-29.5 44t-10.5 58q0 89 65 160q33 36 74 62t87 43.5t95.5 26t99.5 8.5q55 0 106 -9.5t105 -35.5q79 -34 129 -110.5t52 -203.5q0 -37 -9 -82.5t-29.5 -92t-53 -90t-79 -77.5t-108.5 -54.5t-141 -20.5
q-52 0 -123 13q-17 -13 -39 -13z" />
    <glyph glyph-name="Ntilde" unicode="&#xd1;" horiz-adv-x="959" 
d="M1063 618q23 94 -11 132q-33 40 -93 40q-30 0 -53 -13.5t-38 -34.5q-15 -23 -26 -58q-6 -18 -10.5 -35t-8.5 -35t-7.5 -38.5t-7.5 -46.5q-25 -156 -42 -263.5t-28 -167.5q4 -38 5.5 -62.5t1.5 -37.5q-26 -26 -68 -16q5 153 -78 335q-83 183 -203 303l-7 -85l-7 -100
q-2 -22 -4.5 -48t-6.5 -55q-8 -59 -18 -105q-10 -45 -29 -92t-44 -78q-24 -30 -61 -49.5t-85 -19.5q-30 0 -54.5 10t-42.5 27t-27.5 40t-9.5 49q0 38 22.5 74.5t71.5 54.5l7 -9q-25 -28 -37 -51.5t-12 -59.5q0 -43 27 -69t72 -26q21 -2 38.5 3.5t31.5 16t25.5 25t19.5 29.5
q11 21 20 54q5 18 8.5 33.5t5.5 28.5l12 72l64 415q12 6 29 6q51 -42 99 -100.5t94 -134.5q93 -150 126 -302l4 70q4 48 6 82q1 16 3 37t4 47q6 54 12 89q3 18 7 39t9 44q11 48 24 80.5t32 66.5q26 49 66 75.5t95 26.5q48 1 78.5 -20t42 -53.5t3 -71.5t-38.5 -73zM840 907
q-37 -97 -111 -97q-25 0 -75 32q-50 33 -71 33q-28 0 -43 -14t-33 -51q-14 1 -25 15q37 97 111 97q26 0 76 -33q50 -32 70 -32q28 0 43 14t33 51q14 -1 25 -15z" />
    <glyph glyph-name="Ograve" unicode="&#xd2;" horiz-adv-x="823" 
d="M218 550q18 95 86 154t162 59q134 0 203 -95t69 -239q0 -79 -24 -157t-69 -142q-43 -63 -112 -102.5t-150 -39.5q-118 0 -196 89q-77 91 -77 209q0 66 27 136.5t81 127.5zM507 471q-53 -108 -154 -108q-54 0 -95 31q-41 32 -46 82q-30 -92 -30 -190q0 -115 56 -188
q57 -71 155 -71q83 0 146 60q64 60 94.5 148.5t30.5 185.5q0 139 -55 221q-54 84 -167 84q-23 0 -54 -8t-59 -29.5t-47.5 -59t-19.5 -95.5q0 -48 27 -80.5t78 -32.5q36 0 64 12.5t67 45.5zM407 928q8 29 38 35q30 -40 57 -71.5t69 -65.5q-9 -18 -20 -25q-48 32 -83 64.5
t-61 62.5z" />
    <glyph glyph-name="Oacute" unicode="&#xd3;" horiz-adv-x="823" 
d="M218 550q18 95 86 154t162 59q134 0 203 -95t69 -239q0 -79 -24 -157t-69 -142q-43 -63 -112 -102.5t-150 -39.5q-118 0 -196 89q-77 91 -77 209q0 66 27 136.5t81 127.5zM507 471q-53 -108 -154 -108q-54 0 -95 31q-41 32 -46 82q-30 -92 -30 -190q0 -115 56 -188
q57 -71 155 -71q83 0 146 60q64 60 94.5 148.5t30.5 185.5q0 139 -55 221q-54 84 -167 84q-23 0 -54 -8t-59 -29.5t-47.5 -59t-19.5 -95.5q0 -48 27 -80.5t78 -32.5q36 0 64 12.5t67 45.5zM467 801q-11 8 -20 26q50 34 91 69.5t68 67.5q14 -5 24 -16t14 -25q-37 -29 -83 -64
t-94 -58z" />
    <glyph glyph-name="Ocircumflex" unicode="&#xd4;" horiz-adv-x="823" 
d="M218 550q18 95 86 154t162 59q134 0 203 -95t69 -239q0 -79 -24 -157t-69 -142q-43 -63 -112 -102.5t-150 -39.5q-118 0 -196 89q-77 91 -77 209q0 66 27 136.5t81 127.5zM507 471q-53 -108 -154 -108q-54 0 -95 31q-41 32 -46 82q-30 -92 -30 -190q0 -115 56 -188
q57 -71 155 -71q83 0 146 60q64 60 94.5 148.5t30.5 185.5q0 139 -55 221q-54 84 -167 84q-23 0 -54 -8t-59 -29.5t-47.5 -59t-19.5 -95.5q0 -48 27 -80.5t78 -32.5q36 0 64 12.5t67 45.5zM515 892q-35 -34 -61.5 -54t-51.5 -37q-6 2 -12 8.5t-8 13.5q44 41 74 73.5t53 62.5
q8 4 18 0q20 -35 43.5 -68t55.5 -68q-2 -5 -8.5 -11.5t-13.5 -10.5q-20 17 -40.5 37t-48.5 54z" />
    <glyph glyph-name="Otilde" unicode="&#xd5;" horiz-adv-x="823" 
d="M218 550q18 95 86 154t162 59q134 0 203 -95t69 -239q0 -79 -24 -157t-69 -142q-43 -63 -112 -102.5t-150 -39.5q-118 0 -196 89q-77 91 -77 209q0 66 27 136.5t81 127.5zM507 471q-53 -108 -154 -108q-54 0 -95 31q-41 32 -46 82q-30 -92 -30 -190q0 -115 56 -188
q57 -71 155 -71q83 0 146 60q64 60 94.5 148.5t30.5 185.5q0 139 -55 221q-54 84 -167 84q-23 0 -54 -8t-59 -29.5t-47.5 -59t-19.5 -95.5q0 -48 27 -80.5t78 -32.5q36 0 64 12.5t67 45.5zM651 884q-27 -72 -85 -72q-9 0 -23.5 6t-31.5 18q-17 11 -29 17.5t-20 6.5
q-17 0 -28 -10.5t-25 -38.5q-9 1 -13.5 5t-10.5 12q29 74 86 74q22 0 56 -25q17 -10 29 -16.5t19 -6.5q17 0 28.5 11t25.5 37q9 0 12.5 -3.5t8.5 -9.5z" />
    <glyph glyph-name="Odieresis" unicode="&#xd6;" horiz-adv-x="823" 
d="M218 550q18 95 86 154t162 59q134 0 203 -95t69 -239q0 -79 -24 -157t-69 -142q-43 -63 -112 -102.5t-150 -39.5q-118 0 -196 89q-77 91 -77 209q0 66 27 136.5t81 127.5zM507 471q-53 -108 -154 -108q-54 0 -95 31q-41 32 -46 82q-30 -92 -30 -190q0 -115 56 -188
q57 -71 155 -71q83 0 146 60q64 60 94.5 148.5t30.5 185.5q0 139 -55 221q-54 84 -167 84q-23 0 -54 -8t-59 -29.5t-47.5 -59t-19.5 -95.5q0 -48 27 -80.5t78 -32.5q36 0 64 12.5t67 45.5zM437 825q-15 -15 -36 -15t-37 15q-15 16 -15 37t15 36q16 16 37 16t36 -16
q16 -15 16 -36t-16 -37zM622 825q-15 -15 -36 -15t-37 15q-15 16 -15 37t15 36q16 16 37 16t36 -16q16 -15 16 -36t-16 -37z" />
    <glyph glyph-name="multiply" unicode="&#xd7;" horiz-adv-x="547" 
d="M276 236l-199 -188q-9 2 -17 10.5t-10 17.5l197 192l-180 188q4 12 16.5 23t21.5 13q81 -84 174 -192l183 190q13 -3 23.5 -14t11.5 -21q-36 -38 -83 -84.5t-106 -103.5l166 -194q-1 -9 -10 -16.5t-18 -9.5z" />
    <glyph glyph-name="Oslash" unicode="&#xd8;" horiz-adv-x="823" 
d="M653 791q27 0 34 -16l-42 -81q93 -92 93 -265q0 -79 -24 -157t-69 -142q-43 -63 -112 -103q-35 -20 -73 -29.5t-77 -9.5t-76.5 11t-70.5 34q-11 -20 -21.5 -38.5t-19.5 -35.5q-22 0 -32 16q21 40 45 81q-46 43 -72 103.5t-26 126.5t27 136.5t81 127.5q18 95 86 154
t162 59q85 0 149 -44zM613 637q-31 -54 -76.5 -127t-106.5 -168q-61 -94 -103.5 -160.5t-65.5 -106.5q52 -48 132 -48q83 0 146 60q64 60 94.5 148.5t30.5 185.5q0 136 -51 216zM448 442q41 64 75.5 120.5t63.5 107.5q-56 56 -145 56q-23 0 -54 -8t-59 -29.5t-47.5 -59
t-19.5 -95.5q0 -48 27 -80.5t78 -32.5q45 0 81 21zM402 371q-22 -8 -49 -8q-54 0 -95 31q-41 32 -46 82q-30 -92 -30 -190q0 -115 53 -183q26 45 68 111.5t99 156.5z" />
    <glyph glyph-name="Ugrave" unicode="&#xd9;" horiz-adv-x="1006" 
d="M1056 255q-10 -52 -25 -95.5t-39 -85.5q-23 -40 -58 -63.5t-78 -23.5q-57 0 -91 29.5t-45 77.5q-10 49 -9.5 97t10.5 99l7 40q-23 -67 -49 -123.5t-60 -108.5t-76 -81.5t-87 -29.5q-44 1 -73 15.5t-46.5 38.5t-25 55t-6.5 65q0 79 39 231q39 151 39 211q0 72 -41.5 106
t-110.5 34q-25 0 -57.5 -9t-62 -30.5t-49.5 -57.5t-20 -89q0 -69 63 -105q64 -34 139 -6l5 -10q-28 -34 -71 -44t-83 2q-39 13 -67 51.5t-28 95.5q0 60 24 105t61 75t81.5 44.5t85.5 14.5q48 0 86.5 -13.5t65.5 -38t41 -58.5t14 -76q0 -31 -40 -194q-40 -161 -40 -252
q0 -119 82 -119q47 0 91 42q46 44 77 105q33 63 59 140q28 78 43.5 141t24.5 115q16 99 30 195q51 15 75 -5q-17 -123 -75 -471q-7 -44 -10.5 -76t-2.5 -71q1 -54 22 -85t72 -34q35 0 63.5 24.5t46.5 63.5q19 40 29.5 77t16.5 73zM507 928q8 29 38 35q30 -40 57 -71.5
t69 -65.5q-9 -18 -20 -25q-48 32 -83 64.5t-61 62.5z" />
    <glyph glyph-name="Uacute" unicode="&#xda;" horiz-adv-x="1006" 
d="M1056 255q-10 -52 -25 -95.5t-39 -85.5q-23 -40 -58 -63.5t-78 -23.5q-57 0 -91 29.5t-45 77.5q-10 49 -9.5 97t10.5 99l7 40q-23 -67 -49 -123.5t-60 -108.5t-76 -81.5t-87 -29.5q-44 1 -73 15.5t-46.5 38.5t-25 55t-6.5 65q0 79 39 231q39 151 39 211q0 72 -41.5 106
t-110.5 34q-25 0 -57.5 -9t-62 -30.5t-49.5 -57.5t-20 -89q0 -69 63 -105q64 -34 139 -6l5 -10q-28 -34 -71 -44t-83 2q-39 13 -67 51.5t-28 95.5q0 60 24 105t61 75t81.5 44.5t85.5 14.5q48 0 86.5 -13.5t65.5 -38t41 -58.5t14 -76q0 -31 -40 -194q-40 -161 -40 -252
q0 -119 82 -119q47 0 91 42q46 44 77 105q33 63 59 140q28 78 43.5 141t24.5 115q16 99 30 195q51 15 75 -5q-17 -123 -75 -471q-7 -44 -10.5 -76t-2.5 -71q1 -54 22 -85t72 -34q35 0 63.5 24.5t46.5 63.5q19 40 29.5 77t16.5 73zM591 801q-11 8 -20 26q50 34 91 69.5
t68 67.5q14 -5 24 -16t14 -25q-37 -29 -83 -64t-94 -58z" />
    <glyph glyph-name="Ucircumflex" unicode="&#xdb;" horiz-adv-x="1006" 
d="M1056 255q-10 -52 -25 -95.5t-39 -85.5q-23 -40 -58 -63.5t-78 -23.5q-57 0 -91 29.5t-45 77.5q-10 49 -9.5 97t10.5 99l7 40q-23 -67 -49 -123.5t-60 -108.5t-76 -81.5t-87 -29.5q-44 1 -73 15.5t-46.5 38.5t-25 55t-6.5 65q0 79 39 231q39 151 39 211q0 72 -41.5 106
t-110.5 34q-25 0 -57.5 -9t-62 -30.5t-49.5 -57.5t-20 -89q0 -69 63 -105q64 -34 139 -6l5 -10q-28 -34 -71 -44t-83 2q-39 13 -67 51.5t-28 95.5q0 60 24 105t61 75t81.5 44.5t85.5 14.5q48 0 86.5 -13.5t65.5 -38t41 -58.5t14 -76q0 -31 -40 -194q-40 -161 -40 -252
q0 -119 82 -119q47 0 91 42q46 44 77 105q33 63 59 140q28 78 43.5 141t24.5 115q16 99 30 195q51 15 75 -5q-17 -123 -75 -471q-7 -44 -10.5 -76t-2.5 -71q1 -54 22 -85t72 -34q35 0 63.5 24.5t46.5 63.5q19 40 29.5 77t16.5 73zM636 937q-45 -43 -82.5 -74.5t-68.5 -52.5
q-14 6 -19 24q55 51 96.5 94t69.5 81q9 3 18 0q51 -89 130 -175q-6 -14 -24 -24q-51 43 -120 127z" />
    <glyph glyph-name="Udieresis" unicode="&#xdc;" horiz-adv-x="1006" 
d="M1056 255q-10 -52 -25 -95.5t-39 -85.5q-23 -40 -58 -63.5t-78 -23.5q-57 0 -91 29.5t-45 77.5q-10 49 -9.5 97t10.5 99l7 40q-23 -67 -49 -123.5t-60 -108.5t-76 -81.5t-87 -29.5q-44 1 -73 15.5t-46.5 38.5t-25 55t-6.5 65q0 79 39 231q39 151 39 211q0 72 -41.5 106
t-110.5 34q-25 0 -57.5 -9t-62 -30.5t-49.5 -57.5t-20 -89q0 -69 63 -105q64 -34 139 -6l5 -10q-28 -34 -71 -44t-83 2q-39 13 -67 51.5t-28 95.5q0 60 24 105t61 75t81.5 44.5t85.5 14.5q48 0 86.5 -13.5t65.5 -38t41 -58.5t14 -76q0 -31 -40 -194q-40 -161 -40 -252
q0 -119 82 -119q47 0 91 42q46 44 77 105q33 63 59 140q28 78 43.5 141t24.5 115q16 99 30 195q51 15 75 -5q-17 -123 -75 -471q-7 -44 -10.5 -76t-2.5 -71q1 -54 22 -85t72 -34q35 0 63.5 24.5t46.5 63.5q19 40 29.5 77t16.5 73zM567 825q-15 -15 -36 -15t-37 15
q-15 16 -15 37t15 36q16 16 37 16t36 -16q16 -15 16 -36t-16 -37zM752 825q-15 -15 -36 -15t-37 15q-15 16 -15 37t15 36q16 16 37 16t36 -16q16 -15 16 -36t-16 -37z" />
    <glyph glyph-name="Yacute" unicode="&#xdd;" horiz-adv-x="931" 
d="M730 336q-23 -64 -49.5 -118t-60.5 -105q-34 -49 -76.5 -77t-87.5 -28q-83 0 -117 49t-34 125q0 68 39 214q39 145 39 207q0 72 -41.5 106t-110.5 34q-25 0 -57.5 -9t-62 -30.5t-49.5 -57.5t-20 -89q0 -69 63 -105q64 -34 139 -6l5 -10q-28 -34 -71 -44t-83 2
q-39 13 -67 51.5t-28 95.5q0 60 24 105t61 75t81.5 44.5t85.5 14.5q48 0 86.5 -13.5t65.5 -38t41 -58.5t14 -76q0 -32 -40 -191q-40 -157 -40 -234q0 -119 82 -119q47 0 91 41q45 40 77 100q16 30 30.5 63.5t28.5 71.5q28 75 43.5 135t24.5 111q16 99 30 195q51 15 75 -5
q-51 -347 -111 -691q-11 -63 -32 -122t-52 -111q-30 -54 -73.5 -85.5t-92.5 -31.5q-65 0 -105 37q-39 37 -39 89q0 38 22.5 74.5t71.5 54.5l7 -9q-26 -28 -37.5 -51.5t-11.5 -59.5q0 -43 29 -69t80 -26q25 0 46.5 10t35.5 25q15 15 28 40t20 46q7 18 15 52q4 16 6 28.5
t4 22.5l7 49q2 16 4 26l3 15zM591 801q-11 8 -20 26q50 34 91 69.5t68 67.5q14 -5 24 -16t14 -25q-37 -29 -83 -64t-94 -58z" />
    <glyph glyph-name="Thorn" unicode="&#xde;" horiz-adv-x="808" 
d="M227 -7q6 23 11.5 48t10.5 54t9 53.5t7 44.5l15 110l13 100q11 82 17.5 129t8.5 60q-122 -19 -199 -81q-76 -61 -76 -144q0 -49 29 -80.5t92 -31.5q36 0 63 13q5 -5 5 -10q-35 -50 -95 -50q-29 0 -54 10t-44 28t-29.5 44t-10.5 58q0 74 48 136q48 63 120 98.5t160 51.5
q32 125 94 144l4 -5q-14 -30 -29 -131q5 0 16 0.5t17 0.5q60 0 120.5 -14t108.5 -44.5t78.5 -77.5t30.5 -111q0 -120 -110 -197t-264 -77q-10 15 -3 28q154 7 229 75q76 67 76 154q0 77 -42 128q-42 52 -101.5 72.5t-131.5 20.5h-17t-12 -1q-17 -138 -27 -200l-8 -62
q-4 -38 -9 -64q-2 -12 -4 -28t-4 -32.5t-4.5 -32.5t-5.5 -28q-5 -24 -12.5 -52.5t-16.5 -46.5q-13 -29 -29 -47t-41 -18z" />
    <glyph glyph-name="germandbls" unicode="&#xdf;" horiz-adv-x="581" 
d="M-248 -63q-6 -27 -6 -53q0 -64 29.5 -93.5t74.5 -29.5q47 0 77 34q29 33 52 140.5t35 305.5q7 117 23 205.5t45 163.5q30 75 77.5 114t113.5 39q28 0 51 -9.5t39 -25.5t24.5 -38.5t8.5 -47.5q0 -39 -17 -72t-38 -52q-20 -19 -37 -46t-17 -57q0 -25 31 -62
q16 -19 32.5 -37t35.5 -36q19 -17 36 -38t33 -44q31 -46 31 -86q0 -44 -52 -84q-50 -40 -116 -40q-35 0 -62 8.5t-46 22.5t-28.5 32t-9.5 37q0 60 57 86q3 -1 5 -5q-12 -29 -12 -70q0 -32 24.5 -56.5t73.5 -24.5q43 0 71.5 22.5t28.5 64.5q0 32 -29 70t-63.5 69t-63.5 72
q-29 42 -29 77.5t29 77.5q14 20 29 40t29 39q29 38 29 69q0 49 -31 76t-73 27q-40 0 -69 -26q-29 -25 -44.5 -61t-26.5 -93q-5 -29 -8 -54t-5 -48l-7 -107q-2 -31 -3.5 -53.5t-3.5 -36.5q-5 -48 -10 -88.5t-11.5 -77.5t-14.5 -71.5t-18 -70.5q-28 -103 -76 -157t-126 -58
q-28 0 -51 9.5t-39 25.5t-24.5 38t-8.5 48q0 58 43 101z" />
    <glyph glyph-name="agrave" unicode="&#xe0;" horiz-adv-x="619" 
d="M666 251q-30 -109 -92 -186t-141 -77q-60 0 -89 41t-30 111q-69 -152 -176 -152q-67 0 -102 59q-34 58 -34 145q0 46 16 99t45 102q30 51 81 83t112 32q59 0 105 -20l1 5q12 11 32.5 12.5t36.5 -5.5q-25 -142 -37 -228.5t-12 -120.5q0 -116 82 -116q53 0 102 70
q51 72 67 154zM331 306q1 8 6.5 42.5t16.5 95.5q-44 29 -96 29q-83 0 -135 -84q-51 -83 -51 -192q0 -72 24 -117t72 -45q39 0 74 44q35 45 55.5 102.5t33.5 124.5zM209 677q8 29 38 35q30 -40 57 -71.5t69 -65.5q-9 -18 -20 -25q-48 32 -83 64.5t-61 62.5z" />
    <glyph glyph-name="aacute" unicode="&#xe1;" horiz-adv-x="619" 
d="M666 251q-30 -109 -92 -186t-141 -77q-60 0 -89 41t-30 111q-69 -152 -176 -152q-67 0 -102 59q-34 58 -34 145q0 46 16 99t45 102q30 51 81 83t112 32q59 0 105 -20l1 5q12 11 32.5 12.5t36.5 -5.5q-25 -142 -37 -228.5t-12 -120.5q0 -116 82 -116q53 0 102 70
q51 72 67 154zM331 306q1 8 6.5 42.5t16.5 95.5q-44 29 -96 29q-83 0 -135 -84q-51 -83 -51 -192q0 -72 24 -117t72 -45q39 0 74 44q35 45 55.5 102.5t33.5 124.5zM264 550q-11 8 -20 26q50 34 91 69.5t68 67.5q14 -5 24 -16t14 -25q-37 -29 -83 -64t-94 -58z" />
    <glyph glyph-name="acircumflex" unicode="&#xe2;" horiz-adv-x="619" 
d="M666 251q-30 -109 -92 -186t-141 -77q-60 0 -89 41t-30 111q-69 -152 -176 -152q-67 0 -102 59q-34 58 -34 145q0 46 16 99t45 102q30 51 81 83t112 32q59 0 105 -20l1 5q12 11 32.5 12.5t36.5 -5.5q-25 -142 -37 -228.5t-12 -120.5q0 -116 82 -116q53 0 102 70
q51 72 67 154zM331 306q1 8 6.5 42.5t16.5 95.5q-44 29 -96 29q-83 0 -135 -84q-51 -83 -51 -192q0 -72 24 -117t72 -45q39 0 74 44q35 45 55.5 102.5t33.5 124.5zM303 641q-35 -34 -61.5 -54t-51.5 -37q-6 2 -12 8.5t-8 13.5q44 41 74 73.5t53 62.5q8 4 18 0
q20 -35 43.5 -68t55.5 -68q-2 -5 -8.5 -11.5t-13.5 -10.5q-20 17 -40.5 37t-48.5 54z" />
    <glyph glyph-name="atilde" unicode="&#xe3;" horiz-adv-x="619" 
d="M666 251q-30 -109 -92 -186t-141 -77q-60 0 -89 41t-30 111q-69 -152 -176 -152q-67 0 -102 59q-34 58 -34 145q0 46 16 99t45 102q30 51 81 83t112 32q59 0 105 -20l1 5q12 11 32.5 12.5t36.5 -5.5q-25 -142 -37 -228.5t-12 -120.5q0 -116 82 -116q53 0 102 70
q51 72 67 154zM331 306q1 8 6.5 42.5t16.5 95.5q-44 29 -96 29q-83 0 -135 -84q-51 -83 -51 -192q0 -72 24 -117t72 -45q39 0 74 44q35 45 55.5 102.5t33.5 124.5zM449 638q-27 -72 -85 -72q-9 0 -23.5 6t-31.5 18q-17 11 -29 17.5t-20 6.5q-17 0 -28 -10.5t-25 -38.5
q-9 1 -13.5 5t-10.5 12q29 74 86 74q22 0 56 -25q17 -10 29 -16.5t19 -6.5q17 0 28.5 11t25.5 37q9 0 12.5 -3.5t8.5 -9.5z" />
    <glyph glyph-name="adieresis" unicode="&#xe4;" horiz-adv-x="619" 
d="M666 251q-30 -109 -92 -186t-141 -77q-60 0 -89 41t-30 111q-69 -152 -176 -152q-67 0 -102 59q-34 58 -34 145q0 46 16 99t45 102q30 51 81 83t112 32q59 0 105 -20l1 5q12 11 32.5 12.5t36.5 -5.5q-25 -142 -37 -228.5t-12 -120.5q0 -116 82 -116q53 0 102 70
q51 72 67 154zM331 306q1 8 6.5 42.5t16.5 95.5q-44 29 -96 29q-83 0 -135 -84q-51 -83 -51 -192q0 -72 24 -117t72 -45q39 0 74 44q35 45 55.5 102.5t33.5 124.5zM253 657q-15 -15 -36 -15t-37 15q-15 16 -15 37t15 36q16 16 37 16t36 -16q16 -15 16 -36t-16 -37zM438 657
q-15 -15 -36 -15t-37 15q-15 16 -15 37t15 36q16 16 37 16t36 -16q16 -15 16 -36t-16 -37z" />
    <glyph glyph-name="aring" unicode="&#xe5;" horiz-adv-x="619" 
d="M666 251q-30 -109 -92 -186t-141 -77q-60 0 -89 41t-30 111q-69 -152 -176 -152q-67 0 -102 59q-34 58 -34 145q0 46 16 99t45 102q30 51 81 83t112 32q59 0 105 -20l1 5q12 11 32.5 12.5t36.5 -5.5q-25 -142 -37 -228.5t-12 -120.5q0 -116 82 -116q53 0 102 70
q51 72 67 154zM331 306q1 8 6.5 42.5t16.5 95.5q-44 29 -96 29q-83 0 -135 -84q-51 -83 -51 -192q0 -72 24 -117t72 -45q39 0 74 44q35 45 55.5 102.5t33.5 124.5zM298 580q28 0 49.5 20.5t21.5 59.5q0 29 -13 44.5t-35 15.5q-28 0 -50 -21t-22 -59q0 -60 49 -60zM287 548
q-35 0 -56.5 23.5t-21.5 57.5q0 48 35 86q36 37 84 37q38 0 59.5 -23t21.5 -58q0 -49 -35 -87q-35 -36 -87 -36z" />
    <glyph glyph-name="ae" unicode="&#xe6;" horiz-adv-x="767" 
d="M814 249q-18 -42 -37 -74.5t-48 -69.5q-41 -51 -99.5 -84t-139.5 -33q-75 0 -118 47t-52 120q-71 -167 -182 -167q-67 0 -102 59q-34 58 -34 145q0 46 16 99t45 102q30 51 81 83t112 32q59 0 105 -20l1 5q12 11 32.5 12.5t36.5 -5.5l-9 -50q62 62 141 62q64 0 91 -32
q28 -31 28 -69q0 -72 -81 -124q-80 -52 -212 -56q-1 -5 -1 -14v-20q0 -35 8 -64.5t24.5 -51.5t41.5 -34t58 -12q54 0 99.5 22t76.5 59q32 37 51.5 71t33.5 72zM331 306q1 8 6.5 42.5t16.5 95.5q-44 29 -96 29q-83 0 -135 -84q-51 -83 -51 -192q0 -72 24 -117t72 -45
q39 0 74 44q35 45 55.5 102.5t33.5 124.5zM393 263q115 6 170.5 47.5t55.5 104.5q0 62 -55 62q-65 0 -112 -62q-46 -63 -59 -152z" />
    <glyph glyph-name="ccedilla" unicode="&#xe7;" horiz-adv-x="444" 
d="M491 249q-18 -49 -43 -92t-63 -83q-37 -40 -90 -63t-116 -23q-12 0 -15 1l-18 -52q31 -12 50 -36t19 -53q0 -71 -118 -149q-20 6 -24 27q85 52 85 112q0 24 -17 41.5t-50 24.5l44 89q-33 7 -57.5 25.5t-41.5 45t-25.5 59.5t-8.5 69q0 48 16 100.5t44 103.5q29 51 76 83.5
t104 32.5q65 0 93 -34q29 -34 29 -70q0 -15 -5.5 -30t-15 -26t-24 -17.5t-32.5 -4.5l-5 6q25 31 25 75q0 34 -18.5 50t-45.5 16q-76 0 -124 -85q-47 -86 -47 -195q0 -35 8.5 -64.5t25.5 -51.5t42.5 -34t60.5 -12q51 0 96 22.5t75 57.5q59 71 78 144z" />
    <glyph glyph-name="egrave" unicode="&#xe8;" horiz-adv-x="451" 
d="M498 249q-18 -49 -44 -92t-64 -83q-37 -40 -91.5 -63t-117.5 -23q-86 0 -133 59q-46 58 -46 145q0 48 16 100.5t45 103.5q30 51 78.5 83.5t105.5 32.5q64 0 91 -32q28 -31 28 -69q0 -72 -81 -124q-80 -52 -212 -56q-1 -5 -1 -14v-20q0 -36 8.5 -65.5t25.5 -51t43 -33.5
t62 -12q52 0 98 22.5t76 57.5q62 72 80 144zM77 263q115 6 170.5 47.5t55.5 104.5q0 62 -55 62q-65 0 -112 -62q-46 -63 -59 -152zM148 677q8 29 38 35q30 -40 57 -71.5t69 -65.5q-9 -18 -20 -25q-48 32 -83 64.5t-61 62.5z" />
    <glyph glyph-name="eacute" unicode="&#xe9;" horiz-adv-x="451" 
d="M498 249q-18 -49 -44 -92t-64 -83q-37 -40 -91.5 -63t-117.5 -23q-86 0 -133 59q-46 58 -46 145q0 48 16 100.5t45 103.5q30 51 78.5 83.5t105.5 32.5q64 0 91 -32q28 -31 28 -69q0 -72 -81 -124q-80 -52 -212 -56q-1 -5 -1 -14v-20q0 -36 8.5 -65.5t25.5 -51t43 -33.5
t62 -12q52 0 98 22.5t76 57.5q62 72 80 144zM77 263q115 6 170.5 47.5t55.5 104.5q0 62 -55 62q-65 0 -112 -62q-46 -63 -59 -152zM205 550q-11 8 -20 26q50 34 91 69.5t68 67.5q14 -5 24 -16t14 -25q-37 -29 -83 -64t-94 -58z" />
    <glyph glyph-name="ecircumflex" unicode="&#xea;" horiz-adv-x="451" 
d="M498 249q-18 -49 -44 -92t-64 -83q-37 -40 -91.5 -63t-117.5 -23q-86 0 -133 59q-46 58 -46 145q0 48 16 100.5t45 103.5q30 51 78.5 83.5t105.5 32.5q64 0 91 -32q28 -31 28 -69q0 -72 -81 -124q-80 -52 -212 -56q-1 -5 -1 -14v-20q0 -36 8.5 -65.5t25.5 -51t43 -33.5
t62 -12q52 0 98 22.5t76 57.5q62 72 80 144zM77 263q115 6 170.5 47.5t55.5 104.5q0 62 -55 62q-65 0 -112 -62q-46 -63 -59 -152zM262 641q-35 -34 -61.5 -54t-51.5 -37q-6 2 -12 8.5t-8 13.5q44 41 74 73.5t53 62.5q8 4 18 0q20 -35 43.5 -68t55.5 -68q-2 -5 -8.5 -11.5
t-13.5 -10.5q-20 17 -40.5 37t-48.5 54z" />
    <glyph glyph-name="edieresis" unicode="&#xeb;" horiz-adv-x="451" 
d="M498 249q-18 -49 -44 -92t-64 -83q-37 -40 -91.5 -63t-117.5 -23q-86 0 -133 59q-46 58 -46 145q0 48 16 100.5t45 103.5q30 51 78.5 83.5t105.5 32.5q64 0 91 -32q28 -31 28 -69q0 -72 -81 -124q-80 -52 -212 -56q-1 -5 -1 -14v-20q0 -36 8.5 -65.5t25.5 -51t43 -33.5
t62 -12q52 0 98 22.5t76 57.5q62 72 80 144zM77 263q115 6 170.5 47.5t55.5 104.5q0 62 -55 62q-65 0 -112 -62q-46 -63 -59 -152zM198 657q-15 -15 -36 -15t-37 15q-15 16 -15 37t15 36q16 16 37 16t36 -16q16 -15 16 -36t-16 -37zM383 657q-15 -15 -36 -15t-37 15
q-15 16 -15 37t15 36q16 16 37 16t36 -16q16 -15 16 -36t-16 -37z" />
    <glyph glyph-name="igrave" unicode="&#xec;" horiz-adv-x="303" 
d="M350 251q-30 -109 -92 -186t-141 -77q-60 0 -87.5 43t-27.5 115q0 61 22 186q23 130 23 150q40 23 69 26q0 -17 -6 -59t-19 -108t-19 -113.5t-6 -76.5q0 -116 82 -116q53 0 102 70q51 72 67 154zM-5 677q8 29 38 35q30 -40 57 -71.5t69 -65.5q-9 -18 -20 -25
q-48 32 -83 64.5t-61 62.5z" />
    <glyph glyph-name="iacute" unicode="&#xed;" horiz-adv-x="303" 
d="M350 251q-30 -109 -92 -186t-141 -77q-60 0 -87.5 43t-27.5 115q0 61 22 186q23 130 23 150q40 23 69 26q0 -17 -6 -59t-19 -108t-19 -113.5t-6 -76.5q0 -116 82 -116q53 0 102 70q51 72 67 154zM50 550q-11 8 -20 26q50 34 91 69.5t68 67.5q14 -5 24 -16t14 -25
q-37 -29 -83 -64t-94 -58z" />
    <glyph glyph-name="icircumflex" unicode="&#xee;" horiz-adv-x="303" 
d="M350 251q-30 -109 -92 -186t-141 -77q-60 0 -87.5 43t-27.5 115q0 61 22 186q23 130 23 150q40 23 69 26q0 -17 -6 -59t-19 -108t-19 -113.5t-6 -76.5q0 -116 82 -116q53 0 102 70q51 72 67 154zM114 677q-45 -43 -82.5 -74.5t-68.5 -52.5q-14 6 -19 24q55 51 96.5 94
t69.5 81q9 3 18 0q51 -89 130 -175q-6 -14 -24 -24q-51 43 -120 127z" />
    <glyph glyph-name="idieresis" unicode="&#xef;" horiz-adv-x="303" 
d="M350 251q-30 -109 -92 -186t-141 -77q-60 0 -87.5 43t-27.5 115q0 61 22 186q23 130 23 150q40 23 69 26q0 -17 -6 -59t-19 -108t-19 -113.5t-6 -76.5q0 -116 82 -116q53 0 102 70q51 72 67 154zM50 657q-15 -15 -36 -15t-36 15q-16 16 -16 37t16 36q15 16 36 16t36 -16
q16 -15 16 -36t-16 -37zM235 657q-15 -15 -36 -15t-37 15q-15 16 -15 37t15 36q16 16 37 16t36 -16q16 -15 16 -36t-16 -37z" />
    <glyph glyph-name="eth" unicode="&#xf0;" horiz-adv-x="532" 
d="M235 595q-13 7 -12 25q32 16 57 29t42 24q-77 74 -259 64q-4 10 -2 20q201 44 304 -59q20 12 41 25.5t44 28.5q22 -7 25 -34q-43 -27 -85 -49q65 -89 65 -233q0 -43 -11 -98.5t-36 -118.5q-17 -44 -41 -86t-55.5 -74t-70.5 -51.5t-85 -19.5q-64 0 -109 58t-45 145
q0 65 29 134q30 67 94 116t147 49q78 0 127 -55q-6 142 -54 211zM396 342q-21 118 -132 118q-23 -2 -47 -8t-47.5 -21t-44 -40.5t-35.5 -65.5q-19 -51 -19 -125q0 -72 28 -119t87 -47q42 0 80 31t63 79q26 49 43 99.5t24 98.5z" />
    <glyph glyph-name="ntilde" unicode="&#xf1;" horiz-adv-x="558" 
d="M605 251q-29 -109 -91 -186t-142 -77q-97 0 -97 140q0 32 15 109q16 76 16 111q0 57 -12 84t-47 27q-48 0 -89 -53q-42 -54 -64 -120t-32 -135q-7 -51 -10.5 -83t-3.5 -48q-23 -23 -68 -23q0 32 12 113l29 196q18 112 27 188q9 7 30.5 10t38.5 -4l-21 -128
q69 135 173 135q106 0 106 -142q0 -17 -4 -45.5t-12 -70.5q-15 -83 -15 -119q0 -48 13 -71.5t46 -23.5q53 0 102 70q51 72 67 154zM447 735q-37 -97 -111 -97q-25 0 -75 32q-50 33 -71 33q-28 0 -43 -14t-33 -51q-14 1 -25 15q37 97 111 97q26 0 76 -33q50 -32 70 -32
q28 0 43 14t33 51q14 -1 25 -15z" />
    <glyph glyph-name="ograve" unicode="&#xf2;" 
d="M601 249q-33 -72 -86.5 -111t-116.5 -39q-11 0 -19.5 0.5t-13.5 1.5q-68 -113 -182 -113q-78 0 -130 64q-51 64 -51 161q0 90 48 173t138 107l4 -11q-58 -42 -90.5 -111t-32.5 -148q0 -41 8 -75.5t25 -60t43 -39.5t62 -14q78 0 122 77q-67 26 -104 96t-37 155
q0 66 26.5 108t77.5 42q62 0 95 -59q34 -58 34 -137q0 -96 -37 -177q4 -1 10.5 -1h15.5q106 0 158 121zM346 149q23 63 23 131q0 56 -25 119q-26 65 -63 65q-48 0 -48 -111q0 -62 27 -122q27 -59 86 -82zM174 677q8 29 38 35q30 -40 57 -71.5t69 -65.5q-9 -18 -20 -25
q-48 32 -83 64.5t-61 62.5z" />
    <glyph glyph-name="oacute" unicode="&#xf3;" 
d="M601 249q-33 -72 -86.5 -111t-116.5 -39q-11 0 -19.5 0.5t-13.5 1.5q-68 -113 -182 -113q-78 0 -130 64q-51 64 -51 161q0 90 48 173t138 107l4 -11q-58 -42 -90.5 -111t-32.5 -148q0 -41 8 -75.5t25 -60t43 -39.5t62 -14q78 0 122 77q-67 26 -104 96t-37 155
q0 66 26.5 108t77.5 42q62 0 95 -59q34 -58 34 -137q0 -96 -37 -177q4 -1 10.5 -1h15.5q106 0 158 121zM346 149q23 63 23 131q0 56 -25 119q-26 65 -63 65q-48 0 -48 -111q0 -62 27 -122q27 -59 86 -82zM197 550q-11 8 -20 26q50 34 91 69.5t68 67.5q14 -5 24 -16t14 -25
q-37 -29 -83 -64t-94 -58z" />
    <glyph glyph-name="ocircumflex" unicode="&#xf4;" 
d="M601 249q-33 -72 -86.5 -111t-116.5 -39q-11 0 -19.5 0.5t-13.5 1.5q-68 -113 -182 -113q-78 0 -130 64q-51 64 -51 161q0 90 48 173t138 107l4 -11q-58 -42 -90.5 -111t-32.5 -148q0 -41 8 -75.5t25 -60t43 -39.5t62 -14q78 0 122 77q-67 26 -104 96t-37 155
q0 66 26.5 108t77.5 42q62 0 95 -59q34 -58 34 -137q0 -96 -37 -177q4 -1 10.5 -1h15.5q106 0 158 121zM346 149q23 63 23 131q0 56 -25 119q-26 65 -63 65q-48 0 -48 -111q0 -62 27 -122q27 -59 86 -82zM259 641q-35 -34 -61.5 -54t-51.5 -37q-6 2 -12 8.5t-8 13.5
q44 41 74 73.5t53 62.5q8 4 18 0q20 -35 43.5 -68t55.5 -68q-2 -5 -8.5 -11.5t-13.5 -10.5q-20 17 -40.5 37t-48.5 54z" />
    <glyph glyph-name="otilde" unicode="&#xf5;" 
d="M601 249q-33 -72 -86.5 -111t-116.5 -39q-11 0 -19.5 0.5t-13.5 1.5q-68 -113 -182 -113q-78 0 -130 64q-51 64 -51 161q0 90 48 173t138 107l4 -11q-58 -42 -90.5 -111t-32.5 -148q0 -41 8 -75.5t25 -60t43 -39.5t62 -14q78 0 122 77q-67 26 -104 96t-37 155
q0 66 26.5 108t77.5 42q62 0 95 -59q34 -58 34 -137q0 -96 -37 -177q4 -1 10.5 -1h15.5q106 0 158 121zM346 149q23 63 23 131q0 56 -25 119q-26 65 -63 65q-48 0 -48 -111q0 -62 27 -122q27 -59 86 -82zM399 638q-27 -72 -85 -72q-9 0 -23.5 6t-31.5 18q-17 11 -29 17.5
t-20 6.5q-17 0 -28 -10.5t-25 -38.5q-9 1 -13.5 5t-10.5 12q29 74 86 74q22 0 56 -25q17 -10 29 -16.5t19 -6.5q17 0 28.5 11t25.5 37q9 0 12.5 -3.5t8.5 -9.5z" />
    <glyph glyph-name="odieresis" unicode="&#xf6;" 
d="M601 249q-33 -72 -86.5 -111t-116.5 -39q-11 0 -19.5 0.5t-13.5 1.5q-68 -113 -182 -113q-78 0 -130 64q-51 64 -51 161q0 90 48 173t138 107l4 -11q-58 -42 -90.5 -111t-32.5 -148q0 -41 8 -75.5t25 -60t43 -39.5t62 -14q78 0 122 77q-67 26 -104 96t-37 155
q0 66 26.5 108t77.5 42q62 0 95 -59q34 -58 34 -137q0 -96 -37 -177q4 -1 10.5 -1h15.5q106 0 158 121zM346 149q23 63 23 131q0 56 -25 119q-26 65 -63 65q-48 0 -48 -111q0 -62 27 -122q27 -59 86 -82zM219 657q-15 -15 -36 -15t-37 15q-15 16 -15 37t15 36q16 16 37 16
t36 -16q16 -15 16 -36t-16 -37zM404 657q-15 -15 -36 -15t-37 15q-15 16 -15 37t15 36q16 16 37 16t36 -16q16 -15 16 -36t-16 -37z" />
    <glyph glyph-name="divide" unicode="&#xf7;" horiz-adv-x="520" 
d="M265 44q-15 -15 -38 -15t-39 15q-15 16 -15 39t15 38q16 16 39 16t38 -16q16 -15 16 -38t-16 -39zM328 416q-16 -15 -38 -15t-38 16t-16 38t16 38t38 16t38 -16q16 -15 16 -38t-16 -39zM53 242q-3 12 -3 27t3 28q95 -5 198 -7t216 -1q3 -15 3 -19q0 -12 -3 -19
q-206 -11 -414 -9z" />
    <glyph glyph-name="oslash" unicode="&#xf8;" 
d="M601 249q-33 -72 -86.5 -111t-116.5 -39q-11 0 -19.5 0.5t-13.5 1.5q-68 -113 -182 -113q-54 0 -97 33l-51 -86q-16 2 -26 14l54 91q-61 65 -61 173q0 90 48 173t138 107l4 -11q-58 -40 -91 -111q-32 -70 -32 -148q0 -79 28 -128l105 168q-14 50 -14 99q0 66 26.5 108
t77.5 42q30 0 55 -16l42 73q19 -2 27 -14l-45 -79q50 -56 50 -160q0 -96 -37 -177q4 -1 10.5 -1h15.5q106 0 158 121zM329 111q-75 28 -114 116l-99 -157q33 -36 91 -36q78 0 122 77zM244 272q28 -96 102 -123q23 63 23 131q0 72 -33 137zM316 446q-17 18 -35 18
q-48 0 -48 -111q0 -5 0.5 -14.5t1.5 -23.5z" />
    <glyph glyph-name="ugrave" unicode="&#xf9;" horiz-adv-x="600" 
d="M647 251q-30 -109 -92 -186t-141 -77q-60 0 -88.5 41.5t-29.5 110.5q-71 -152 -179 -152q-60 0 -87.5 43t-27.5 115q0 29 6 73t17 103t17 98.5t6 60.5q40 23 69 26q0 -28 -6.5 -71.5t-19.5 -104.5q-25 -119 -25 -180q0 -116 82 -116q56 0 97 72t64 174q2 16 5.5 36.5
t8.5 46.5q10 52 15 84t5 48q29 18 69 4q0 -17 -6 -58t-19 -105q-24 -128 -24 -186q0 -116 82 -116q53 0 102 70q51 72 67 154zM133 677q8 29 38 35q30 -40 57 -71.5t69 -65.5q-9 -18 -20 -25q-48 32 -83 64.5t-61 62.5z" />
    <glyph glyph-name="uacute" unicode="&#xfa;" horiz-adv-x="600" 
d="M647 251q-30 -109 -92 -186t-141 -77q-60 0 -88.5 41.5t-29.5 110.5q-71 -152 -179 -152q-60 0 -87.5 43t-27.5 115q0 29 6 73t17 103t17 98.5t6 60.5q40 23 69 26q0 -28 -6.5 -71.5t-19.5 -104.5q-25 -119 -25 -180q0 -116 82 -116q56 0 97 72t64 174q2 16 5.5 36.5
t8.5 46.5q10 52 15 84t5 48q29 18 69 4q0 -17 -6 -58t-19 -105q-24 -128 -24 -186q0 -116 82 -116q53 0 102 70q51 72 67 154zM205 550q-11 8 -20 26q50 34 91 69.5t68 67.5q14 -5 24 -16t14 -25q-37 -29 -83 -64t-94 -58z" />
    <glyph glyph-name="ucircumflex" unicode="&#xfb;" horiz-adv-x="600" 
d="M647 251q-30 -109 -92 -186t-141 -77q-60 0 -88.5 41.5t-29.5 110.5q-71 -152 -179 -152q-60 0 -87.5 43t-27.5 115q0 29 6 73t17 103t17 98.5t6 60.5q40 23 69 26q0 -28 -6.5 -71.5t-19.5 -104.5q-25 -119 -25 -180q0 -116 82 -116q56 0 97 72t64 174q2 16 5.5 36.5
t8.5 46.5q10 52 15 84t5 48q29 18 69 4q0 -17 -6 -58t-19 -105q-24 -128 -24 -186q0 -116 82 -116q53 0 102 70q51 72 67 154zM257 677q-45 -43 -82.5 -74.5t-68.5 -52.5q-14 6 -19 24q55 51 96.5 94t69.5 81q9 3 18 0q51 -89 130 -175q-6 -14 -24 -24q-51 43 -120 127z" />
    <glyph glyph-name="udieresis" unicode="&#xfc;" horiz-adv-x="600" 
d="M647 251q-30 -109 -92 -186t-141 -77q-60 0 -88.5 41.5t-29.5 110.5q-71 -152 -179 -152q-60 0 -87.5 43t-27.5 115q0 29 6 73t17 103t17 98.5t6 60.5q40 23 69 26q0 -28 -6.5 -71.5t-19.5 -104.5q-25 -119 -25 -180q0 -116 82 -116q56 0 97 72t64 174q2 16 5.5 36.5
t8.5 46.5q10 52 15 84t5 48q29 18 69 4q0 -17 -6 -58t-19 -105q-24 -128 -24 -186q0 -116 82 -116q53 0 102 70q51 72 67 154zM188 657q-15 -15 -36 -15t-37 15q-15 16 -15 37t15 36q16 16 37 16t36 -16q16 -15 16 -36t-16 -37zM373 657q-15 -15 -36 -15t-37 15
q-15 16 -15 37t15 36q16 16 37 16t36 -16q16 -15 16 -36t-16 -37z" />
    <glyph glyph-name="yacute" unicode="&#xfd;" horiz-adv-x="491" 
d="M22 -7q-33 -51 -33 -114q0 -30 10 -53t27.5 -38.5t40 -23t47.5 -7.5q31 0 55 15t39 37q15 20 28 59q6 19 10.5 36t8.5 35t7.5 38t7.5 46q5 36 9.5 61t6.5 39q-68 -125 -168 -125q-60 0 -87.5 40.5t-27.5 107.5q0 29 6 73t17 103t17 98.5t6 60.5q40 23 69 26
q0 -28 -6.5 -71.5t-19.5 -104.5q-25 -119 -25 -180q0 -106 82 -106q32 0 59 24.5t48 62.5t36 84t23 90l31 189q29 20 69 5q-23 -131 -42 -247t-35 -221q-8 -43 -18 -81t-30 -83q-27 -63 -75 -104.5t-121 -43.5q-73 0 -118 42q-45 40 -45 96q0 83 81 139zM205 550
q-11 8 -20 26q50 34 91 69.5t68 67.5q14 -5 24 -16t14 -25q-37 -29 -83 -64t-94 -58z" />
    <glyph glyph-name="thorn" unicode="&#xfe;" horiz-adv-x="547" 
d="M594 249q-27 -123 -98 -197q-70 -73 -170 -73q-51 0 -108 20q-33 -12 -73 -12q-25 0 -43.5 12.5t-18.5 38.5q0 19 16.5 33t30.5 15l7 -2q17 -12 36.5 -22.5t39.5 -20.5q56 32 87 103q33 73 33 155q0 72 -25 117t-76 45q-45 0 -82 -55q-38 -54 -58 -122t-30 -138
q-26 -172 -39.5 -271.5t-13.5 -128.5q-32 -22 -73 -26q1 66 69 494q35 215 54 350t23 193q6 4 15.5 7.5t19 5t19 -1t15.5 -11.5q-7 -69 -54 -382q64 133 165 133q70 0 105 -59q36 -59 36 -146q0 -73 -37 -154q-37 -82 -103 -125q30 -9 63 -9q95 0 155 70q60 69 80 172z" />
    <glyph glyph-name="ydieresis" unicode="&#xff;" horiz-adv-x="491" 
d="M22 -7q-33 -51 -33 -114q0 -30 10 -53t27.5 -38.5t40 -23t47.5 -7.5q31 0 55 15t39 37q15 20 28 59q6 19 10.5 36t8.5 35t7.5 38t7.5 46q5 36 9.5 61t6.5 39q-68 -125 -168 -125q-60 0 -87.5 40.5t-27.5 107.5q0 29 6 73t17 103t17 98.5t6 60.5q40 23 69 26
q0 -28 -6.5 -71.5t-19.5 -104.5q-25 -119 -25 -180q0 -106 82 -106q32 0 59 24.5t48 62.5t36 84t23 90l31 189q29 20 69 5q-23 -131 -42 -247t-35 -221q-8 -43 -18 -81t-30 -83q-27 -63 -75 -104.5t-121 -43.5q-73 0 -118 42q-45 40 -45 96q0 83 81 139zM189 657
q-15 -15 -36 -15t-37 15q-15 16 -15 37t15 36q16 16 37 16t36 -16q16 -15 16 -36t-16 -37zM374 657q-15 -15 -36 -15t-37 15q-15 16 -15 37t15 36q16 16 37 16t36 -16q16 -15 16 -36t-16 -37z" />
    <glyph glyph-name="Amacron" unicode="&#x100;" horiz-adv-x="1029" 
d="M1076 250q-15 -65 -39 -125q-23 -58 -63 -101q-41 -44 -85 -44q-38 1 -68 17.5t-53.5 45.5t-40 68.5t-28.5 86.5q-16 66 -23 128.5t-10 132.5q-3 71 -2 118.5t3 91.5l-184 -350q103 -13 184 -66q15 -21 10 -41q-138 52 -219 60q-14 -26 -27 -49t-25 -42q-23 -39 -62 -88
q-39 -51 -85.5 -78t-97.5 -27q-63 0 -97 31t-34 77q-2 43 30.5 84.5t87.5 74t126.5 51.5t147.5 18h11l244 450q16 10 32 9.5t29 -6.5q-6 -182 2.5 -321.5t29.5 -234.5t53 -143.5t74 -48.5q51 0 84.5 56t61.5 173zM407 275h-11q-160 0 -239 -53q-78 -53 -78 -117
q0 -26 10 -44t26 -25q16 -6 26.5 -8t21.5 -2q32 0 61.5 14t50.5 32t47 56q13 20 23 36t18 30zM552 865q-3 12 -3 27q0 14 3 28q75 -5 154.5 -7t167.5 -1q3 -9 3 -19q0 -12 -3 -19q-162 -10 -322 -9z" />
    <glyph glyph-name="amacron" unicode="&#x101;" horiz-adv-x="619" 
d="M666 251q-30 -109 -92 -186t-141 -77q-60 0 -89 41t-30 111q-69 -152 -176 -152q-67 0 -102 59q-34 58 -34 145q0 46 16 99t45 102q30 51 81 83t112 32q59 0 105 -20l1 5q12 11 32.5 12.5t36.5 -5.5q-25 -142 -37 -228.5t-12 -120.5q0 -116 82 -116q53 0 102 70
q51 72 67 154zM331 306q1 8 6.5 42.5t16.5 95.5q-44 29 -96 29q-83 0 -135 -84q-51 -83 -51 -192q0 -72 24 -117t72 -45q39 0 74 44q35 45 55.5 102.5t33.5 124.5zM148 665q-3 12 -3 27q0 14 3 28q75 -5 154.5 -7t167.5 -1q3 -9 3 -19q0 -12 -3 -19q-162 -10 -322 -9z" />
    <glyph glyph-name="Abreve" unicode="&#x102;" horiz-adv-x="1029" 
d="M1076 250q-15 -65 -39 -125q-23 -58 -63 -101q-41 -44 -85 -44q-38 1 -68 17.5t-53.5 45.5t-40 68.5t-28.5 86.5q-16 66 -23 128.5t-10 132.5q-3 71 -2 118.5t3 91.5l-184 -350q103 -13 184 -66q15 -21 10 -41q-138 52 -219 60q-14 -26 -27 -49t-25 -42q-23 -39 -62 -88
q-39 -51 -85.5 -78t-97.5 -27q-63 0 -97 31t-34 77q-2 43 30.5 84.5t87.5 74t126.5 51.5t147.5 18h11l244 450q16 10 32 9.5t29 -6.5q-6 -182 2.5 -321.5t29.5 -234.5t53 -143.5t74 -48.5q51 0 84.5 56t61.5 173zM407 275h-11q-160 0 -239 -53q-78 -53 -78 -117
q0 -26 10 -44t26 -25q16 -6 26.5 -8t21.5 -2q32 0 61.5 14t50.5 32t47 56q13 20 23 36t18 30zM623 940q9 6 19.5 8t25.5 -2q-2 -17 0 -32t9 -26t20 -17.5t33 -6.5q17 0 33 7.5t30 19t24.5 26t15.5 29.5q8 2 17 0t14 -8q-8 -22 -20.5 -43t-30.5 -37t-41 -25.5t-52 -9.5
q-26 0 -44.5 9.5t-30.5 25.5t-17.5 37t-4.5 45z" />
    <glyph glyph-name="abreve" unicode="&#x103;" horiz-adv-x="619" 
d="M666 251q-30 -109 -92 -186t-141 -77q-60 0 -89 41t-30 111q-69 -152 -176 -152q-67 0 -102 59q-34 58 -34 145q0 46 16 99t45 102q30 51 81 83t112 32q59 0 105 -20l1 5q12 11 32.5 12.5t36.5 -5.5q-25 -142 -37 -228.5t-12 -120.5q0 -116 82 -116q53 0 102 70
q51 72 67 154zM331 306q1 8 6.5 42.5t16.5 95.5q-44 29 -96 29q-83 0 -135 -84q-51 -83 -51 -192q0 -72 24 -117t72 -45q39 0 74 44q35 45 55.5 102.5t33.5 124.5zM197 673q9 6 19.5 8t25.5 -2q-2 -17 0 -32t9 -26t20 -17.5t33 -6.5q17 0 33 7.5t30 19t24.5 26t15.5 29.5
q8 2 17 0t14 -8q-8 -22 -20.5 -43t-30.5 -37t-41 -25.5t-52 -9.5q-26 0 -44.5 9.5t-30.5 25.5t-17.5 37t-4.5 45z" />
    <glyph glyph-name="Aogonek" unicode="&#x104;" horiz-adv-x="1029" 
d="M1076 250q-10 -45 -24.5 -86t-33.5 -79q-38 -74 -90 -96q-101 -65 -101 -172q0 -34 21 -54t50 -20q41 0 64 38q6 -2 11.5 -9t5.5 -16q-48 -56 -114 -56q-49 0 -75.5 27.5t-26.5 70.5q0 54 30.5 102.5t81.5 80.5q-41 2 -72.5 27t-55 65.5t-39 91.5t-24.5 104q-7 35 -11 73
t-6 80t-2.5 76t-0.5 63.5t0.5 55.5t2.5 52l-184 -350q103 -13 184 -66q15 -21 10 -41q-138 52 -219 60q-14 -26 -27 -49t-25 -42q-23 -39 -62 -88q-39 -51 -85.5 -78t-97.5 -27q-63 0 -97 31t-34 77q-2 43 30.5 84.5t87.5 74t126.5 51.5t147.5 18h11l244 450q16 10 32 9.5
t29 -6.5q-6 -182 2.5 -321.5t29.5 -234.5t53 -143.5t74 -48.5q51 0 84.5 56t61.5 173zM407 275h-11q-160 0 -239 -53q-78 -53 -78 -117q0 -26 10 -44t26 -25q16 -6 26.5 -8t21.5 -2q32 0 61.5 14t50.5 32t47 56q13 20 23 36t18 30z" />
    <glyph glyph-name="aogonek" unicode="&#x105;" horiz-adv-x="619" 
d="M666 251q-23 -86 -71 -158q-46 -70 -106 -94q-119 -65 -119 -182q0 -34 21 -54t50 -20q41 0 64 38q6 -2 11.5 -9t5.5 -16q-48 -56 -114 -56q-49 0 -75.5 27.5t-26.5 70.5q0 57 34 108t89 82q-58 1 -86 42t-29 110q-69 -152 -176 -152q-67 0 -102 59q-34 58 -34 145
q0 46 16 99t45 102q30 51 81 83t112 32q59 0 105 -20l1 5q12 11 32.5 12.5t36.5 -5.5q-25 -142 -37 -228.5t-12 -120.5q0 -116 82 -116q53 0 102 70q51 72 67 154zM331 306q1 8 6.5 42.5t16.5 95.5q-44 29 -96 29q-83 0 -135 -84q-51 -83 -51 -192q0 -72 24 -117t72 -45
q39 0 74 44q35 45 55.5 102.5t33.5 124.5z" />
    <glyph glyph-name="Cacute" unicode="&#x106;" horiz-adv-x="631" 
d="M502 256q12 6 25 0q13 -37 5 -83.5t-37 -87.5t-79 -69t-120 -28q-123 0 -197 92q-74 94 -74 231q0 122 55 226q56 106 143 165q88 61 187 61q88 0 144 -48q57 -48 57 -119q0 -75 -68 -143q-9 3 -16 13q32 56 32 117q0 63 -39.5 101t-126.5 38q-49 0 -97 -22t-93 -67
q-43 -45 -70 -124t-27 -182q0 -146 58 -223t160 -77q88 0 135 65q47 66 43 164zM314 810q-14 9 -24 31q120 79 207 162q33 -17 42 -48q-111 -89 -225 -145z" />
    <glyph glyph-name="cacute" unicode="&#x107;" horiz-adv-x="444" 
d="M491 249q-18 -49 -43 -92t-63 -83q-37 -40 -90 -63t-116 -23q-85 0 -132 59q-45 58 -45 145q0 48 16 100.5t44 103.5q29 51 76 83.5t104 32.5q65 0 93 -34q29 -34 29 -70q0 -15 -5.5 -30t-15 -26t-24 -17.5t-32.5 -4.5l-5 6q25 31 25 75q0 34 -18.5 50t-45.5 16
q-76 0 -124 -85q-47 -86 -47 -195q0 -35 8.5 -64.5t25.5 -51.5t42.5 -34t60.5 -12q51 0 96 22.5t75 57.5q59 71 78 144zM168 557q-14 9 -24 31q120 79 207 162q33 -17 42 -48q-111 -89 -225 -145z" />
    <glyph glyph-name="Ccircumflex" unicode="&#x108;" horiz-adv-x="631" 
d="M502 256q12 6 25 0q13 -37 5 -83.5t-37 -87.5t-79 -69t-120 -28q-123 0 -197 92q-74 94 -74 231q0 122 55 226q56 106 143 165q88 61 187 61q88 0 144 -48q57 -48 57 -119q0 -75 -68 -143q-9 3 -16 13q32 56 32 117q0 63 -39.5 101t-126.5 38q-49 0 -97 -22t-93 -67
q-43 -45 -70 -124t-27 -182q0 -146 58 -223t160 -77q88 0 135 65q47 66 43 164zM427 937q-45 -43 -82.5 -74.5t-68.5 -52.5q-14 6 -19 24q55 51 96.5 94t69.5 81q9 3 18 0q51 -89 130 -175q-6 -14 -24 -24q-51 43 -120 127z" />
    <glyph glyph-name="ccircumflex" unicode="&#x109;" horiz-adv-x="444" 
d="M491 249q-18 -49 -43 -92t-63 -83q-37 -40 -90 -63t-116 -23q-85 0 -132 59q-45 58 -45 145q0 48 16 100.5t44 103.5q29 51 76 83.5t104 32.5q65 0 93 -34q29 -34 29 -70q0 -15 -5.5 -30t-15 -26t-24 -17.5t-32.5 -4.5l-5 6q25 31 25 75q0 34 -18.5 50t-45.5 16
q-76 0 -124 -85q-47 -86 -47 -195q0 -35 8.5 -64.5t25.5 -51.5t42.5 -34t60.5 -12q51 0 96 22.5t75 57.5q59 71 78 144zM281 677q-45 -43 -82.5 -74.5t-68.5 -52.5q-14 6 -19 24q55 51 96.5 94t69.5 81q9 3 18 0q51 -89 130 -175q-6 -14 -24 -24q-51 43 -120 127z" />
    <glyph glyph-name="Cdotaccent" unicode="&#x10a;" horiz-adv-x="631" 
d="M502 256q12 6 25 0q13 -37 5 -83.5t-37 -87.5t-79 -69t-120 -28q-123 0 -197 92q-74 94 -74 231q0 122 55 226q56 106 143 165q88 61 187 61q88 0 144 -48q57 -48 57 -119q0 -75 -68 -143q-9 3 -16 13q32 56 32 117q0 63 -39.5 101t-126.5 38q-49 0 -97 -22t-93 -67
q-43 -45 -70 -124t-27 -182q0 -146 58 -223t160 -77q88 0 135 65q47 66 43 164zM450 825q-15 -15 -36 -15t-37 15q-15 16 -15 37t15 36q16 16 37 16t36 -16q16 -15 16 -36t-16 -37z" />
    <glyph glyph-name="cdotaccent" unicode="&#x10b;" horiz-adv-x="444" 
d="M491 249q-18 -49 -43 -92t-63 -83q-37 -40 -90 -63t-116 -23q-85 0 -132 59q-45 58 -45 145q0 48 16 100.5t44 103.5q29 51 76 83.5t104 32.5q65 0 93 -34q29 -34 29 -70q0 -15 -5.5 -30t-15 -26t-24 -17.5t-32.5 -4.5l-5 6q25 31 25 75q0 34 -18.5 50t-45.5 16
q-76 0 -124 -85q-47 -86 -47 -195q0 -35 8.5 -64.5t25.5 -51.5t42.5 -34t60.5 -12q51 0 96 22.5t75 57.5q59 71 78 144zM304 657q-15 -15 -36 -15t-37 15q-15 16 -15 37t15 36q16 16 37 16t36 -16q16 -15 16 -36t-16 -37z" />
    <glyph glyph-name="Ccaron" unicode="&#x10c;" horiz-adv-x="631" 
d="M502 256q12 6 25 0q13 -37 5 -83.5t-37 -87.5t-79 -69t-120 -28q-123 0 -197 92q-74 94 -74 231q0 122 55 226q56 106 143 165q88 61 187 61q88 0 144 -48q57 -48 57 -119q0 -75 -68 -143q-9 3 -16 13q32 56 32 117q0 63 -39.5 101t-126.5 38q-49 0 -97 -22t-93 -67
q-43 -45 -70 -124t-27 -182q0 -146 58 -223t160 -77q88 0 135 65q47 66 43 164zM387 812q-51 89 -130 175q6 13 24 24q20 -17 50 -48.5t69 -78.5q95 89 152 127q14 -7 19 -24q-55 -51 -96.5 -94t-69.5 -81q-11 -5 -18 0z" />
    <glyph glyph-name="ccaron" unicode="&#x10d;" horiz-adv-x="444" 
d="M491 249q-18 -49 -43 -92t-63 -83q-37 -40 -90 -63t-116 -23q-85 0 -132 59q-45 58 -45 145q0 48 16 100.5t44 103.5q29 51 76 83.5t104 32.5q65 0 93 -34q29 -34 29 -70q0 -15 -5.5 -30t-15 -26t-24 -17.5t-32.5 -4.5l-5 6q25 31 25 75q0 34 -18.5 50t-45.5 16
q-76 0 -124 -85q-47 -86 -47 -195q0 -35 8.5 -64.5t25.5 -51.5t42.5 -34t60.5 -12q51 0 96 22.5t75 57.5q59 71 78 144zM241 552q-51 89 -130 175q6 13 24 24q20 -17 50 -48.5t69 -78.5q95 89 152 127q14 -7 19 -24q-55 -51 -96.5 -94t-69.5 -81q-11 -5 -18 0z" />
    <glyph glyph-name="Dcaron" unicode="&#x10e;" horiz-adv-x="898" 
d="M227 -7q6 19 11.5 42t10.5 45.5t9 44t7 38.5l15 93l13 85l7 48q3 17 5 30t3 22l9 48l12 47q6 18 15.5 40.5t19.5 35.5q10 14 25 25.5t32 16.5l4 -5q-5 -9 -10 -22.5t-9 -32.5t-8.5 -48t-10.5 -70t-11.5 -75.5t-10.5 -63.5l-10 -63q-3 -22 -6 -39t-5 -30
q-2 -12 -4.5 -26.5t-6.5 -31.5q-6 -34 -14 -59.5t-18 -45.5q58 -18 118 -18q83 0 143 36t99 91t58 120t19 123q0 79 -20.5 139t-52.5 95t-75 56q-45 22 -84.5 29.5t-84.5 7.5q-160 0 -269 -68q-108 -68 -108 -170q0 -49 29 -80.5t92 -31.5q36 0 63 13q5 -5 5 -10
q-35 -50 -95 -50q-29 0 -54 10t-44 28t-29.5 44t-10.5 58q0 89 65 160q33 36 74 62t87 43.5t95.5 26t99.5 8.5q55 0 106 -9.5t105 -35.5q79 -34 129 -110.5t52 -203.5q0 -37 -9 -82.5t-29.5 -92t-53 -90t-79 -77.5t-108.5 -54.5t-141 -20.5q-52 0 -123 13q-17 -13 -39 -13z
M470 812q-51 89 -130 175q6 13 24 24q20 -17 50 -48.5t69 -78.5q95 89 152 127q14 -7 19 -24q-55 -51 -96.5 -94t-69.5 -81q-11 -5 -18 0z" />
    <glyph glyph-name="dcaron" unicode="&#x10f;" horiz-adv-x="619" 
d="M494 538q60 38 73 95q14 58 -23 104q16 28 52 33q22 -21 29 -53.5t-2.5 -68.5t-36 -72.5t-69.5 -64.5q-19 5 -23 27zM666 251q-30 -109 -92 -186t-141 -77q-60 0 -89 41t-30 111q-69 -152 -176 -152q-67 0 -102 59q-34 58 -34 145q0 46 16 99t45 102q30 51 81 83t112 32
q54 0 105 -20q17 100 25.5 164t8.5 92q25 18 69 26q0 -31 -10.5 -108t-30.5 -202t-30.5 -202t-10.5 -107q0 -116 82 -116q53 0 102 70q51 72 67 154zM331 305q2 20 8 54t14 85q-41 29 -95 29q-83 0 -135 -84q-51 -83 -51 -192q0 -72 24 -117t72 -45q39 0 74 44
q35 45 55.5 102t33.5 124z" />
    <glyph glyph-name="Dcroat" unicode="&#x110;" horiz-adv-x="898" 
d="M227 -7q12 41 26 111.5t30 172.5q-38 -5 -74.5 -12.5t-71.5 -18.5q-12 19 0 35q79 27 152 39l4 21l7 48q3 17 5 30t3 22l9 48l12 47q6 18 15.5 40.5t19.5 35.5q10 14 25 25.5t32 16.5l4 -5q-5 -9 -10 -22.5t-9 -32.5t-8.5 -48t-10.5 -70t-11.5 -75.5t-10.5 -63.5l-2 -8
q29 2 65.5 3.5t80.5 1.5q10 -8 9.5 -21.5t-6.5 -22.5q-46 0 -84.5 -1.5t-70.5 -3.5q-28 -184 -56 -243q58 -18 118 -18q83 0 143 36t99 91t58 120t19 123q0 79 -20.5 139t-52.5 95t-75 56q-45 22 -84.5 29.5t-84.5 7.5q-160 0 -269 -68q-108 -68 -108 -170q0 -49 29 -80.5
t92 -31.5q36 0 63 13q5 -5 5 -10q-35 -50 -95 -50q-29 0 -54 10t-44 28t-29.5 44t-10.5 58q0 89 65 160q33 36 74 62t87 43.5t95.5 26t99.5 8.5q55 0 106 -9.5t105 -35.5q79 -34 129 -110.5t52 -203.5q0 -37 -9 -82.5t-29.5 -92t-53 -90t-79 -77.5t-108.5 -54.5t-141 -20.5
q-52 0 -123 13q-17 -13 -39 -13z" />
    <glyph glyph-name="dcroat" unicode="&#x111;" horiz-adv-x="619" 
d="M666 251q-30 -109 -92 -186t-141 -77q-60 0 -89 41t-30 111q-69 -152 -176 -152q-67 0 -102 59q-34 58 -34 145q0 46 16 99t45 102q30 51 81 83t112 32q54 0 105 -20l26 166q-52 2 -92 4t-68 4q-3 4 -3 15q0 8 3 14q30 -1 71 -0.5t93 1.5q2 20 3 33t1 19q25 18 69 26
q0 -30 -6 -75l96 5q3 -12 3 -24q0 -11 -3 -23q-53 -2 -101 0q-4 -28 -11 -71t-17 -103q-19 -118 -31 -202t-12 -126q0 -116 82 -116q53 0 102 70q51 72 67 154zM331 305q2 20 8 54t14 85q-41 29 -95 29q-83 0 -135 -84q-51 -83 -51 -192q0 -72 24 -117t72 -45q39 0 74 44
q35 45 55.5 102t33.5 124z" />
    <glyph glyph-name="Emacron" unicode="&#x112;" horiz-adv-x="637" 
d="M511 288q13 4 25 0q11 -24 10.5 -55.5t-11.5 -65t-32.5 -65.5t-53 -57.5t-74 -41t-95.5 -15.5q-116 0 -193 53q-76 54 -76 141q0 166 204 222q-115 40 -115 160q0 51 26.5 91t66.5 62q40 23 82 35t78 12q80 0 136 -32q55 -31 55 -89q0 -35 -21.5 -70t-64.5 -54
q-8 5 -10 13q44 50 44 100q0 42 -34.5 69t-101.5 27q-84 0 -134 -46q-50 -45 -50 -106q0 -55 46.5 -98t137.5 -53q2 -10 2 -12q0 -8 -3 -15q-45 -3 -89 -16t-86 -36t-67 -61t-25 -84q0 -82 61 -128t147 -46q110 0 166 75q55 74 49 186zM210 865q-3 12 -3 27q0 14 3 28
q75 -5 154.5 -7t167.5 -1q3 -9 3 -19q0 -12 -3 -19q-162 -10 -322 -9z" />
    <glyph glyph-name="emacron" unicode="&#x113;" horiz-adv-x="451" 
d="M498 249q-18 -49 -44 -92t-64 -83q-37 -40 -91.5 -63t-117.5 -23q-86 0 -133 59q-46 58 -46 145q0 48 16 100.5t45 103.5q30 51 78.5 83.5t105.5 32.5q64 0 91 -32q28 -31 28 -69q0 -72 -81 -124q-80 -52 -212 -56q-1 -5 -1 -14v-20q0 -36 8.5 -65.5t25.5 -51t43 -33.5
t62 -12q52 0 98 22.5t76 57.5q62 72 80 144zM77 263q115 6 170.5 47.5t55.5 104.5q0 62 -55 62q-65 0 -112 -62q-46 -63 -59 -152zM93 665q-3 12 -3 27q0 14 3 28q75 -5 154.5 -7t167.5 -1q3 -9 3 -19q0 -12 -3 -19q-162 -10 -322 -9z" />
    <glyph glyph-name="Ebreve" unicode="&#x114;" horiz-adv-x="637" 
d="M511 288q13 4 25 0q11 -24 10.5 -55.5t-11.5 -65t-32.5 -65.5t-53 -57.5t-74 -41t-95.5 -15.5q-116 0 -193 53q-76 54 -76 141q0 166 204 222q-115 40 -115 160q0 51 26.5 91t66.5 62q40 23 82 35t78 12q80 0 136 -32q55 -31 55 -89q0 -35 -21.5 -70t-64.5 -54
q-8 5 -10 13q44 50 44 100q0 42 -34.5 69t-101.5 27q-84 0 -134 -46q-50 -45 -50 -106q0 -55 46.5 -98t137.5 -53q2 -10 2 -12q0 -8 -3 -15q-45 -3 -89 -16t-86 -36t-67 -61t-25 -84q0 -82 61 -128t147 -46q110 0 166 75q55 74 49 186zM211 995q24 14 57 7q0 -87 28 -115
q29 -29 74 -29q79 0 130 144q18 4 31 -10q-68 -182 -187 -182q-52 0 -93 50q-40 50 -40 135z" />
    <glyph glyph-name="ebreve" unicode="&#x115;" horiz-adv-x="451" 
d="M498 249q-18 -49 -44 -92t-64 -83q-37 -40 -91.5 -63t-117.5 -23q-86 0 -133 59q-46 58 -46 145q0 48 16 100.5t45 103.5q30 51 78.5 83.5t105.5 32.5q64 0 91 -32q28 -31 28 -69q0 -72 -81 -124q-80 -52 -212 -56q-1 -5 -1 -14v-20q0 -36 8.5 -65.5t25.5 -51t43 -33.5
t62 -12q52 0 98 22.5t76 57.5q62 72 80 144zM77 263q115 6 170.5 47.5t55.5 104.5q0 62 -55 62q-65 0 -112 -62q-46 -63 -59 -152zM94 736q24 14 57 7q0 -87 28 -115q29 -29 74 -29q79 0 130 144q18 4 31 -10q-68 -182 -187 -182q-52 0 -93 50q-40 50 -40 135z" />
    <glyph glyph-name="Edotaccent" unicode="&#x116;" horiz-adv-x="637" 
d="M511 288q13 4 25 0q11 -24 10.5 -55.5t-11.5 -65t-32.5 -65.5t-53 -57.5t-74 -41t-95.5 -15.5q-116 0 -193 53q-76 54 -76 141q0 166 204 222q-115 40 -115 160q0 51 26.5 91t66.5 62q40 23 82 35t78 12q80 0 136 -32q55 -31 55 -89q0 -35 -21.5 -70t-64.5 -54
q-8 5 -10 13q44 50 44 100q0 42 -34.5 69t-101.5 27q-84 0 -134 -46q-50 -45 -50 -106q0 -55 46.5 -98t137.5 -53q2 -10 2 -12q0 -8 -3 -15q-45 -3 -89 -16t-86 -36t-67 -61t-25 -84q0 -82 61 -128t147 -46q110 0 166 75q55 74 49 186zM407 874q-15 -15 -36 -15t-37 15
q-15 16 -15 37t15 36q16 16 37 16t36 -16q16 -15 16 -36t-16 -37z" />
    <glyph glyph-name="edotaccent" unicode="&#x117;" horiz-adv-x="451" 
d="M498 249q-18 -49 -44 -92t-64 -83q-37 -40 -91.5 -63t-117.5 -23q-86 0 -133 59q-46 58 -46 145q0 48 16 100.5t45 103.5q30 51 78.5 83.5t105.5 32.5q64 0 91 -32q28 -31 28 -69q0 -72 -81 -124q-80 -52 -212 -56q-1 -5 -1 -14v-20q0 -36 8.5 -65.5t25.5 -51t43 -33.5
t62 -12q52 0 98 22.5t76 57.5q62 72 80 144zM77 263q115 6 170.5 47.5t55.5 104.5q0 62 -55 62q-65 0 -112 -62q-46 -63 -59 -152zM290 657q-15 -15 -36 -15t-37 15q-15 16 -15 37t15 36q16 16 37 16t36 -16q16 -15 16 -36t-16 -37z" />
    <glyph glyph-name="Eogonek" unicode="&#x118;" horiz-adv-x="637" 
d="M393 -244q-48 -56 -114 -56q-49 0 -75.5 27.5t-26.5 70.5q0 57 34.5 108.5t90.5 82.5q-4 0 -11 -0.5t-11 -0.5q-116 0 -193 53q-76 54 -76 141q0 166 204 222q-115 40 -115 160q0 51 26.5 91t66.5 62q40 23 82 35t78 12q80 0 136 -32q55 -31 55 -89q0 -35 -21.5 -70
t-64.5 -54q-8 5 -10 13q44 50 44 100q0 42 -34.5 69t-101.5 27q-84 0 -134 -46q-50 -45 -50 -106q0 -55 46.5 -98t137.5 -53q2 -10 2 -12q0 -8 -3 -15q-45 -3 -89 -16t-86 -36t-67 -61t-25 -84q0 -82 61 -128t147 -46q110 0 166 75q55 74 49 186q13 4 25 0q16 -30 9 -74
t-27 -86q-19 -41 -61.5 -77.5t-96.5 -51.5q-119 -65 -119 -182q0 -34 21 -54t50 -20q41 0 64 38q6 -2 11.5 -9t5.5 -16z" />
    <glyph glyph-name="eogonek" unicode="&#x119;" horiz-adv-x="451" 
d="M498 249q-19 -55 -50 -105q-15 -24 -35.5 -47t-45.5 -43t-54 -35t-60 -22q-114 -65 -114 -180q0 -34 21 -54t50 -20q41 0 64 38q6 -2 11.5 -9t5.5 -16q-48 -56 -114 -56q-49 0 -75.5 27.5t-26.5 70.5q0 57 34.5 108.5t90.5 82.5q-5 -1 -19 -1q-86 0 -133 59
q-46 58 -46 145q0 48 16 100.5t45 103.5q30 51 78.5 83.5t105.5 32.5q64 0 91 -32q28 -31 28 -69q0 -72 -81 -124q-80 -52 -212 -56q-1 -5 -1 -14v-20q0 -36 8.5 -65.5t25.5 -51t43 -33.5t62 -12q52 0 98 22.5t76 57.5q62 72 80 144zM77 263q115 6 170.5 47.5t55.5 104.5
q0 62 -55 62q-65 0 -112 -62q-46 -63 -59 -152z" />
    <glyph glyph-name="Ecaron" unicode="&#x11a;" horiz-adv-x="637" 
d="M511 288q13 4 25 0q11 -24 10.5 -55.5t-11.5 -65t-32.5 -65.5t-53 -57.5t-74 -41t-95.5 -15.5q-116 0 -193 53q-76 54 -76 141q0 166 204 222q-115 40 -115 160q0 51 26.5 91t66.5 62q40 23 82 35t78 12q80 0 136 -32q55 -31 55 -89q0 -35 -21.5 -70t-64.5 -54
q-8 5 -10 13q44 50 44 100q0 42 -34.5 69t-101.5 27q-84 0 -134 -46q-50 -45 -50 -106q0 -55 46.5 -98t137.5 -53q2 -10 2 -12q0 -8 -3 -15q-45 -3 -89 -16t-86 -36t-67 -61t-25 -84q0 -82 61 -128t147 -46q110 0 166 75q55 74 49 186zM344 812q-51 89 -130 175q6 13 24 24
q20 -17 50 -48.5t69 -78.5q95 89 152 127q14 -7 19 -24q-55 -51 -96.5 -94t-69.5 -81q-11 -5 -18 0z" />
    <glyph glyph-name="ecaron" unicode="&#x11b;" horiz-adv-x="451" 
d="M498 249q-18 -49 -44 -92t-64 -83q-37 -40 -91.5 -63t-117.5 -23q-86 0 -133 59q-46 58 -46 145q0 48 16 100.5t45 103.5q30 51 78.5 83.5t105.5 32.5q64 0 91 -32q28 -31 28 -69q0 -72 -81 -124q-80 -52 -212 -56q-1 -5 -1 -14v-20q0 -36 8.5 -65.5t25.5 -51t43 -33.5
t62 -12q52 0 98 22.5t76 57.5q62 72 80 144zM77 263q115 6 170.5 47.5t55.5 104.5q0 62 -55 62q-65 0 -112 -62q-46 -63 -59 -152zM227 552q-51 89 -130 175q6 13 24 24q20 -17 50 -48.5t69 -78.5q95 89 152 127q14 -7 19 -24q-55 -51 -96.5 -94t-69.5 -81q-11 -5 -18 0z
" />
    <glyph glyph-name="Gcircumflex" unicode="&#x11c;" horiz-adv-x="661" 
d="M465 122q-74 -114 -182 -114q-114 0 -186 88t-72 215q0 122 55 226q56 106 143 165q88 61 187 61q88 0 144 -48q57 -48 57 -119q0 -73 -68 -138q-9 3 -16 13q32 55 32 112q0 63 -39.5 101t-126.5 38q-49 0 -97 -22t-93 -67q-43 -45 -70 -124t-27 -182q0 -127 56 -204
q55 -76 138 -76q62 0 109 56q47 57 68 136.5t18 160.5q43 10 74 -18l-35 -281q-2 -20 -5 -39.5t-5 -37.5q-2 -17 -7 -42.5t-12 -59.5t-15 -64.5t-16 -56.5q-8 -27 -19 -56t-25 -61q-27 -63 -60 -105q-32 -42 -79 -70.5t-101 -28.5q-90 0 -148 54q-59 54 -59 133
q0 45 16 85.5t50 72t86.5 51t124.5 20.5q2 -2 2 -10q-1 -2 -1 -8q-96 -11 -151.5 -67t-55.5 -143q0 -59 41 -103q40 -45 111 -45q42 0 74 20t55 53q24 31 42 84q19 52 31.5 106.5t24.5 126.5zM427 937q-45 -43 -82.5 -74.5t-68.5 -52.5q-14 6 -19 24q55 51 96.5 94t69.5 81
q9 3 18 0q51 -89 130 -175q-6 -14 -24 -24q-51 43 -120 127z" />
    <glyph glyph-name="gcircumflex" unicode="&#x11d;" horiz-adv-x="506" 
d="M301 121q-68 -123 -163 -123q-67 0 -102 56q-34 55 -34 138q0 46 16 99t45 102q30 51 81 83t112 32q54 0 105 -20l1 5q12 11 32.5 12.5t36.5 -5.5q-21 -118 -40.5 -234t-36.5 -234q-8 -43 -18 -81t-30 -83q-27 -63 -75 -104.5t-121 -43.5q-73 0 -118 42q-45 40 -45 96
q0 83 81 139l10 -4q-33 -51 -33 -114q0 -30 10 -53t27.5 -38.5t40 -23t47.5 -7.5q31 0 55 15t39 37q15 20 28 59q6 19 10.5 36t8.5 35t7.5 38t7.5 46zM353 444q-41 29 -95 29q-83 0 -135 -84q-51 -83 -51 -192q0 -66 24 -109t72 -43q58 0 102 84q43 84 63 192zM322 677
q-45 -43 -82.5 -74.5t-68.5 -52.5q-14 6 -19 24q55 51 96.5 94t69.5 81q9 3 18 0q51 -89 130 -175q-6 -14 -24 -24q-51 43 -120 127z" />
    <glyph glyph-name="Gbreve" unicode="&#x11e;" horiz-adv-x="661" 
d="M465 122q-74 -114 -182 -114q-114 0 -186 88t-72 215q0 122 55 226q56 106 143 165q88 61 187 61q88 0 144 -48q57 -48 57 -119q0 -73 -68 -138q-9 3 -16 13q32 55 32 112q0 63 -39.5 101t-126.5 38q-49 0 -97 -22t-93 -67q-43 -45 -70 -124t-27 -182q0 -127 56 -204
q55 -76 138 -76q62 0 109 56q47 57 68 136.5t18 160.5q43 10 74 -18l-35 -281q-2 -20 -5 -39.5t-5 -37.5q-2 -17 -7 -42.5t-12 -59.5t-15 -64.5t-16 -56.5q-8 -27 -19 -56t-25 -61q-27 -63 -60 -105q-32 -42 -79 -70.5t-101 -28.5q-90 0 -148 54q-59 54 -59 133
q0 45 16 85.5t50 72t86.5 51t124.5 20.5q2 -2 2 -10q-1 -2 -1 -8q-96 -11 -151.5 -67t-55.5 -143q0 -59 41 -103q40 -45 111 -45q42 0 74 20t55 53q24 31 42 84q19 52 31.5 106.5t24.5 126.5zM254 995q24 14 57 7q0 -87 28 -115q29 -29 74 -29q79 0 130 144q18 4 31 -10
q-68 -182 -187 -182q-52 0 -93 50q-40 50 -40 135z" />
    <glyph glyph-name="gbreve" unicode="&#x11f;" horiz-adv-x="506" 
d="M301 121q-68 -123 -163 -123q-67 0 -102 56q-34 55 -34 138q0 46 16 99t45 102q30 51 81 83t112 32q54 0 105 -20l1 5q12 11 32.5 12.5t36.5 -5.5q-21 -118 -40.5 -234t-36.5 -234q-8 -43 -18 -81t-30 -83q-27 -63 -75 -104.5t-121 -43.5q-73 0 -118 42q-45 40 -45 96
q0 83 81 139l10 -4q-33 -51 -33 -114q0 -30 10 -53t27.5 -38.5t40 -23t47.5 -7.5q31 0 55 15t39 37q15 20 28 59q6 19 10.5 36t8.5 35t7.5 38t7.5 46zM353 444q-41 29 -95 29q-83 0 -135 -84q-51 -83 -51 -192q0 -66 24 -109t72 -43q58 0 102 84q43 84 63 192zM148 736
q24 14 57 7q0 -87 28 -115q29 -29 74 -29q79 0 130 144q18 4 31 -10q-68 -182 -187 -182q-52 0 -93 50q-40 50 -40 135z" />
    <glyph glyph-name="Gdotaccent" unicode="&#x120;" horiz-adv-x="661" 
d="M465 122q-74 -114 -182 -114q-114 0 -186 88t-72 215q0 122 55 226q56 106 143 165q88 61 187 61q88 0 144 -48q57 -48 57 -119q0 -73 -68 -138q-9 3 -16 13q32 55 32 112q0 63 -39.5 101t-126.5 38q-49 0 -97 -22t-93 -67q-43 -45 -70 -124t-27 -182q0 -127 56 -204
q55 -76 138 -76q62 0 109 56q47 57 68 136.5t18 160.5q43 10 74 -18l-35 -281q-2 -20 -5 -39.5t-5 -37.5q-2 -17 -7 -42.5t-12 -59.5t-15 -64.5t-16 -56.5q-8 -27 -19 -56t-25 -61q-27 -63 -60 -105q-32 -42 -79 -70.5t-101 -28.5q-90 0 -148 54q-59 54 -59 133
q0 45 16 85.5t50 72t86.5 51t124.5 20.5q2 -2 2 -10q-1 -2 -1 -8q-96 -11 -151.5 -67t-55.5 -143q0 -59 41 -103q40 -45 111 -45q42 0 74 20t55 53q24 31 42 84q19 52 31.5 106.5t24.5 126.5zM450 825q-15 -15 -36 -15t-37 15q-15 16 -15 37t15 36q16 16 37 16t36 -16
q16 -15 16 -36t-16 -37z" />
    <glyph glyph-name="gdotaccent" unicode="&#x121;" horiz-adv-x="506" 
d="M301 121q-68 -123 -163 -123q-67 0 -102 56q-34 55 -34 138q0 46 16 99t45 102q30 51 81 83t112 32q54 0 105 -20l1 5q12 11 32.5 12.5t36.5 -5.5q-21 -118 -40.5 -234t-36.5 -234q-8 -43 -18 -81t-30 -83q-27 -63 -75 -104.5t-121 -43.5q-73 0 -118 42q-45 40 -45 96
q0 83 81 139l10 -4q-33 -51 -33 -114q0 -30 10 -53t27.5 -38.5t40 -23t47.5 -7.5q31 0 55 15t39 37q15 20 28 59q6 19 10.5 36t8.5 35t7.5 38t7.5 46zM353 444q-41 29 -95 29q-83 0 -135 -84q-51 -83 -51 -192q0 -66 24 -109t72 -43q58 0 102 84q43 84 63 192zM345 657
q-15 -15 -36 -15t-37 15q-15 16 -15 37t15 36q16 16 37 16t36 -16q16 -15 16 -36t-16 -37z" />
    <glyph glyph-name="Gcommaaccent" unicode="&#x122;" horiz-adv-x="661" 
d="M243 -274q60 38 73 95q14 58 -23 104q16 28 52 33q22 -21 29 -53.5t-2.5 -68.5t-36 -72.5t-69.5 -64.5q-19 5 -23 27zM465 122q-74 -114 -182 -114q-114 0 -186 88t-72 215q0 122 55 226q56 106 143 165q88 61 187 61q88 0 144 -48q57 -48 57 -119q0 -73 -68 -138
q-9 3 -16 13q32 55 32 112q0 63 -39.5 101t-126.5 38q-49 0 -97 -22t-93 -67q-43 -45 -70 -124t-27 -182q0 -127 56 -204q55 -76 138 -76q62 0 109 56q47 57 68 136.5t18 160.5q43 10 74 -18l-35 -281q-2 -20 -5 -39.5t-5 -37.5q-2 -17 -7 -42.5t-12 -59.5t-15 -64.5
t-16 -56.5q-8 -27 -19 -56t-25 -61q-27 -63 -60 -105q-32 -42 -79 -70.5t-101 -28.5q-90 0 -148 54q-59 54 -59 133q0 45 16 85.5t50 72t86.5 51t124.5 20.5q2 -2 2 -10q-1 -2 -1 -8q-96 -11 -151.5 -67t-55.5 -143q0 -59 41 -103q40 -45 111 -45q42 0 74 20t55 53
q24 31 42 84q19 52 31.5 106.5t24.5 126.5z" />
    <glyph glyph-name="gcommaaccent" unicode="&#x123;" horiz-adv-x="506" 
d="M281 573q-22 21 -29 53.5t2.5 68.5t35.5 72t70 65q19 -5 23 -27q-60 -38 -73 -95q-14 -58 23 -104q-16 -28 -52 -33zM301 121q-68 -123 -163 -123q-67 0 -102 56q-34 55 -34 138q0 46 16 99t45 102q30 51 81 83t112 32q54 0 105 -20l1 5q12 11 32.5 12.5t36.5 -5.5
q-21 -118 -40.5 -234t-36.5 -234q-8 -43 -18 -81t-30 -83q-27 -63 -75 -104.5t-121 -43.5q-73 0 -118 42q-45 40 -45 96q0 83 81 139l10 -4q-33 -51 -33 -114q0 -30 10 -53t27.5 -38.5t40 -23t47.5 -7.5q31 0 55 15t39 37q15 20 28 59q6 19 10.5 36t8.5 35t7.5 38t7.5 46z
M353 444q-41 29 -95 29q-83 0 -135 -84q-51 -83 -51 -192q0 -66 24 -109t72 -43q58 0 102 84q43 84 63 192z" />
    <glyph glyph-name="Hcircumflex" unicode="&#x124;" horiz-adv-x="994" 
d="M1041 250q-29 -109 -88 -186q-60 -77 -137 -77q-63 0 -92 43t-29 116q0 50 24 214q-132 24 -275 10l-6 -32q-11 -63 -32 -121.5t-52 -112.5q-30 -52 -73.5 -84t-92.5 -32q-36 0 -63 10t-45 27t-27 40t-9 49q0 102 89 182q88 79 240 114q9 60 20 111.5t25 91.5t31.5 68
t41.5 42q-13 -3 -57 -10t-122 -18q-26 -4 -47 -7t-38 -7q-35 -6 -73 -19q-56 -18 -83.5 -47.5t-31.5 -83.5q0 -51 35.5 -84.5t101.5 -33.5q34 0 67 14l5 -9q-37 -52 -99 -52q-56 0 -103 38q-46 37 -46 103q4 73 42.5 120.5t110.5 73.5q49 19 92 30q42 10 102 18q30 4 54 6.5
t41 3.5q17 2 38.5 3t47.5 2q13 25 36 25q18 -5 23 -22q-24 -24 -70 -37q-10 -16 -24.5 -84.5t-34.5 -192.5l-5 -29q32 4 61.5 5.5t55.5 1.5q72 0 137 -12q5 -12 8.5 -26t4.5 -30q2 17 6.5 44t10.5 64l18 113q3 20 6 42.5t5 45.5q6 46 6 71q24 11 42.5 17.5t32.5 8.5
q0 -31 -10.5 -108t-30.5 -202t-30.5 -202t-10.5 -107q0 -114 82 -114q51 0 97 70q48 70 64 152zM363 341l3 17q-123 -26 -196 -84q-74 -59 -74 -146q0 -46 27.5 -73t81.5 -27q44 0 68.5 23.5t41.5 58.5q6 10 10.5 24.5t8 30t6.5 30.5t5 27q4 23 9 62zM675 936
q-45 -43 -82.5 -74.5t-68.5 -52.5q-14 7 -19 24q55 51 96.5 94t69.5 81q9 3 18 0q51 -89 130 -175q-6 -14 -24 -24q-51 43 -120 127z" />
    <glyph glyph-name="hcircumflex" unicode="&#x125;" horiz-adv-x="557" 
d="M604 251q-29 -109 -91 -186t-142 -77q-97 0 -97 141q0 32 15 109q8 38 12 65.5t4 44.5q0 57 -12 84t-46 27q-48 0 -90 -53q-42 -54 -64.5 -120t-31.5 -135q-7 -48 -10 -80t-3 -51q-25 -23 -68 -23q0 30 12.5 124t37.5 253q51 316 51 370q25 18 69 26q0 -26 -13.5 -125
t-41.5 -275q68 137 173 137q106 0 106 -143q0 -17 -4 -45.5t-12 -70.5q-15 -83 -15 -118q0 -48 13 -71.5t46 -23.5q53 0 102 70q51 72 67 154zM130 937q-45 -43 -82.5 -74.5t-68.5 -52.5q-14 6 -19 24q55 51 96.5 94t69.5 81q9 3 18 0q51 -89 130 -175q-6 -14 -24 -24
q-51 43 -120 127z" />
    <glyph glyph-name="Hbar" unicode="&#x126;" horiz-adv-x="994" 
d="M1041 250q-29 -109 -88 -186q-60 -77 -137 -77q-63 0 -92 43t-29 116q0 50 24 214q-132 24 -275 10l-6 -32q-11 -63 -32 -121.5t-52 -112.5q-30 -52 -73.5 -84t-92.5 -32q-36 0 -63 10t-45 27t-27 40t-9 49q0 102 89 182q88 79 240 114q7 45 14 82.5t15 68.5h-72
q-6 23 0 47q42 -2 62.5 -3t22.5 -1q32 93 76 119q-13 -3 -57 -10t-122 -18q-26 -4 -47 -7t-38 -7q-35 -6 -73 -19q-56 -18 -83.5 -47.5t-31.5 -83.5q0 -51 35.5 -84.5t101.5 -33.5q34 0 67 14l5 -9q-37 -52 -99 -52q-56 0 -103 38q-46 37 -46 103q4 73 42.5 120.5
t110.5 73.5q49 19 92 30q42 10 102 18q30 4 54 6.5t41 3.5q17 2 38.5 3t47.5 2q13 25 36 25q18 -5 23 -22q-24 -24 -70 -37q-15 -24 -34 -127q37 -1 105 -2t169 -2q15 102 15 144q24 11 42.5 17.5t32.5 8.5q0 -43 -18 -170h36.5t22.5 1q3 -12 3 -15q0 -11 -3 -15l-65 -3
q-2 -17 -7 -45.5t-12 -70.5l-20 -125l-13 -97q-6 -53 -6 -79q0 -114 82 -114q51 0 97 70q48 70 64 152zM363 341l3 17q-123 -26 -196 -84q-74 -59 -74 -146q0 -46 27.5 -73t81.5 -27q44 0 68.5 23.5t41.5 58.5q6 10 10.5 24.5t8 30t6.5 30.5t5 27q4 23 9 62zM752 565
q-87 -2 -155.5 -3t-120.5 -1q-2 -13 -5.5 -31.5t-7.5 -43.5l-10 -62q32 4 61.5 5.5t55.5 1.5q72 0 137 -12q5 -12 8.5 -26t4.5 -30z" />
    <glyph glyph-name="hbar" unicode="&#x127;" horiz-adv-x="557" 
d="M604 251q-29 -109 -91 -186t-142 -77q-97 0 -97 141q0 32 15 109q8 38 12 65.5t4 44.5q0 57 -12 84t-46 27q-48 0 -90 -53q-42 -54 -64.5 -120t-31.5 -135q-7 -48 -10 -80t-3 -51q-25 -23 -68 -23q0 42 18 164l42 273q12 76 20 132l13 91q-13 1 -35.5 2t-55.5 3
q-3 4 -3 15q0 8 3 14q49 -1 95 0q2 21 3 34.5t1 18.5q25 18 69 26q0 -29 -6 -78q52 2 93 4t72 4q3 -12 3 -24q0 -11 -3 -23q-31 -1 -73.5 -0.5t-96.5 1.5q-4 -26 -14.5 -96.5t-29.5 -187.5q68 137 173 137q106 0 106 -143q0 -17 -4 -45.5t-12 -70.5q-15 -83 -15 -118
q0 -48 13 -71.5t46 -23.5q53 0 102 70q51 72 67 154z" />
    <glyph glyph-name="Itilde" unicode="&#x128;" horiz-adv-x="587" 
d="M145 234q-26 -28 -37.5 -51.5t-11.5 -59.5q0 -43 29 -69t80 -26q44 0 68.5 23.5t41.5 58.5q6 10 10.5 24.5t8 30t6.5 30.5t5 27q4 23 9 62l9 57l9 57l11 66l12 63q8 40 16.5 65.5t19.5 53.5q23 57 60 77q-13 -3 -57 -10t-122 -18q-26 -4 -47 -7t-38 -7q-35 -6 -73 -19
q-56 -18 -83.5 -47.5t-31.5 -83.5q0 -54 35.5 -88.5t101.5 -34.5q34 0 67 14l5 -9q-37 -52 -99 -52q-56 0 -102 39q-47 41 -47 107q4 73 42.5 120.5t110.5 73.5q49 19 92 30q42 10 102 18q30 4 54 6.5t41 3.5q17 2 38.5 3t47.5 2q13 25 36 25q18 -5 23 -22q-24 -24 -70 -37
q-11 -19 -23 -71q-5 -26 -12.5 -68t-17.5 -99l-26 -154q-11 -63 -32 -121.5t-52 -112.5q-30 -52 -73.5 -84t-92.5 -32q-65 0 -105 37q-39 37 -39 89q0 38 22.5 74.5t71.5 54.5zM620 895q-27 -72 -85 -72q-9 0 -23.5 6t-31.5 18q-17 11 -29 17.5t-20 6.5q-17 0 -28 -10.5
t-25 -38.5q-9 1 -13.5 5t-10.5 12q29 74 86 74q22 0 56 -25q17 -10 29 -16.5t19 -6.5q17 0 28.5 11t25.5 37q9 0 12.5 -3.5t8.5 -9.5z" />
    <glyph glyph-name="itilde" unicode="&#x129;" horiz-adv-x="303" 
d="M350 251q-30 -109 -92 -186t-141 -77q-60 0 -87.5 43t-27.5 115q0 61 22 186q23 130 23 150q40 23 69 26q0 -17 -6 -59t-19 -108t-19 -113.5t-6 -76.5q0 -116 82 -116q53 0 102 70q51 72 67 154zM228 638q-27 -72 -85 -72q-9 0 -23.5 6t-31.5 18q-17 11 -29 17.5t-20 6.5
q-17 0 -28 -10.5t-25 -38.5q-9 1 -13.5 5t-10.5 12q29 74 86 74q22 0 56 -25q17 -10 29 -16.5t19 -6.5q17 0 28.5 11t25.5 37q9 0 12.5 -3.5t8.5 -9.5z" />
    <glyph glyph-name="Imacron" unicode="&#x12a;" horiz-adv-x="587" 
d="M145 234q-26 -28 -37.5 -51.5t-11.5 -59.5q0 -43 29 -69t80 -26q44 0 68.5 23.5t41.5 58.5q6 10 10.5 24.5t8 30t6.5 30.5t5 27q4 23 9 62l9 57l9 57l11 66l12 63q8 40 16.5 65.5t19.5 53.5q23 57 60 77q-13 -3 -57 -10t-122 -18q-26 -4 -47 -7t-38 -7q-35 -6 -73 -19
q-56 -18 -83.5 -47.5t-31.5 -83.5q0 -54 35.5 -88.5t101.5 -34.5q34 0 67 14l5 -9q-37 -52 -99 -52q-56 0 -102 39q-47 41 -47 107q4 73 42.5 120.5t110.5 73.5q49 19 92 30q42 10 102 18q30 4 54 6.5t41 3.5q17 2 38.5 3t47.5 2q13 25 36 25q18 -5 23 -22q-24 -24 -70 -37
q-11 -19 -23 -71q-5 -26 -12.5 -68t-17.5 -99l-26 -154q-11 -63 -32 -121.5t-52 -112.5q-30 -52 -73.5 -84t-92.5 -32q-65 0 -105 37q-39 37 -39 89q0 38 22.5 74.5t71.5 54.5zM356 865q-3 12 -3 27q0 14 3 28q75 -5 154.5 -7t167.5 -1q3 -9 3 -19q0 -12 -3 -19
q-162 -10 -322 -9z" />
    <glyph glyph-name="imacron" unicode="&#x12b;" horiz-adv-x="303" 
d="M350 251q-30 -109 -92 -186t-141 -77q-60 0 -87.5 43t-27.5 115q0 61 22 186q23 130 23 150q40 23 69 26q0 -17 -6 -59t-19 -108t-19 -113.5t-6 -76.5q0 -116 82 -116q53 0 102 70q51 72 67 154zM-55 665q-3 12 -3 27q0 14 3 28q75 -5 154.5 -7t167.5 -1q3 -9 3 -19
q0 -12 -3 -19q-162 -10 -322 -9z" />
    <glyph glyph-name="Ibreve" unicode="&#x12c;" horiz-adv-x="587" 
d="M145 234q-26 -28 -37.5 -51.5t-11.5 -59.5q0 -43 29 -69t80 -26q44 0 68.5 23.5t41.5 58.5q6 10 10.5 24.5t8 30t6.5 30.5t5 27q4 23 9 62l9 57l9 57l11 66l12 63q8 40 16.5 65.5t19.5 53.5q23 57 60 77q-13 -3 -57 -10t-122 -18q-26 -4 -47 -7t-38 -7q-35 -6 -73 -19
q-56 -18 -83.5 -47.5t-31.5 -83.5q0 -54 35.5 -88.5t101.5 -34.5q34 0 67 14l5 -9q-37 -52 -99 -52q-56 0 -102 39q-47 41 -47 107q4 73 42.5 120.5t110.5 73.5q49 19 92 30q42 10 102 18q30 4 54 6.5t41 3.5q17 2 38.5 3t47.5 2q13 25 36 25q18 -5 23 -22q-24 -24 -70 -37
q-11 -19 -23 -71q-5 -26 -12.5 -68t-17.5 -99l-26 -154q-11 -63 -32 -121.5t-52 -112.5q-30 -52 -73.5 -84t-92.5 -32q-65 0 -105 37q-39 37 -39 89q0 38 22.5 74.5t71.5 54.5zM357 995q24 14 57 7q0 -87 28 -115q29 -29 74 -29q79 0 130 144q18 4 31 -10
q-68 -182 -187 -182q-52 0 -93 50q-40 50 -40 135z" />
    <glyph glyph-name="ibreve" unicode="&#x12d;" horiz-adv-x="303" 
d="M350 251q-30 -109 -92 -186t-141 -77q-60 0 -87.5 43t-27.5 115q0 61 22 186q23 130 23 150q40 23 69 26q0 -17 -6 -59t-19 -108t-19 -113.5t-6 -76.5q0 -116 82 -116q53 0 102 70q51 72 67 154zM-54 736q24 14 57 7q0 -87 28 -115q29 -29 74 -29q79 0 130 144
q18 4 31 -10q-68 -182 -187 -182q-52 0 -93 50q-40 50 -40 135z" />
    <glyph glyph-name="Iogonek" unicode="&#x12e;" horiz-adv-x="587" 
d="M145 234q-26 -28 -37.5 -51.5t-11.5 -59.5q0 -43 29 -69t80 -26q44 0 68.5 23.5t41.5 58.5q6 10 10.5 24.5t8 30t6.5 30.5t5 27q4 23 9 62l9 57l9 57l11 66l12 63q8 40 16.5 65.5t19.5 53.5q23 57 60 77q-13 -3 -57 -10t-122 -18q-26 -4 -47 -7t-38 -7q-35 -6 -73 -19
q-56 -18 -83.5 -47.5t-31.5 -83.5q0 -54 35.5 -88.5t101.5 -34.5q34 0 67 14l5 -9q-37 -52 -99 -52q-56 0 -102 39q-47 41 -47 107q4 73 42.5 120.5t110.5 73.5q49 19 92 30q42 10 102 18q30 4 54 6.5t41 3.5q17 2 38.5 3t47.5 2q13 25 36 25q18 -5 23 -22q-24 -24 -70 -37
q-11 -19 -23 -71q-5 -26 -12.5 -68t-17.5 -99l-26 -154q-19 -113 -71 -212q-51 -97 -124 -127q-119 -65 -119 -182q0 -34 21 -54t50 -20q41 0 64 38q6 -2 11.5 -9t5.5 -16q-48 -56 -114 -56q-49 0 -75.5 27.5t-26.5 70.5q0 57 34 108t89 82q-32 0 -57.5 10.5t-43.5 27.5
t-28 39.5t-10 48.5q0 38 22.5 74.5t71.5 54.5z" />
    <glyph glyph-name="iogonek" unicode="&#x12f;" horiz-adv-x="303" 
d="M350 251q-23 -86 -71 -158q-46 -70 -106 -94q-119 -65 -119 -182q0 -34 21 -54t50 -20q41 0 64 38q6 -2 11.5 -9t5.5 -16q-48 -56 -114 -56q-49 0 -75.5 27.5t-26.5 70.5q0 57 34 108t89 82q-57 1 -84 43.5t-27 114.5q0 61 22 186q23 130 23 150q40 23 69 26
q0 -17 -6 -59t-19 -108t-19 -113.5t-6 -76.5q0 -116 82 -116q53 0 102 70q51 72 67 154zM105 638q-22 0 -39 17t-17 39t17 39t39 17q23 0 39.5 -17t16.5 -39t-16.5 -39t-39.5 -17z" />
    <glyph glyph-name="Idotaccent" unicode="&#x130;" horiz-adv-x="587" 
d="M145 234q-26 -28 -37.5 -51.5t-11.5 -59.5q0 -43 29 -69t80 -26q44 0 68.5 23.5t41.5 58.5q6 10 10.5 24.5t8 30t6.5 30.5t5 27q4 23 9 62l9 57l9 57l11 66l12 63q8 40 16.5 65.5t19.5 53.5q23 57 60 77q-13 -3 -57 -10t-122 -18q-26 -4 -47 -7t-38 -7q-35 -6 -73 -19
q-56 -18 -83.5 -47.5t-31.5 -83.5q0 -54 35.5 -88.5t101.5 -34.5q34 0 67 14l5 -9q-37 -52 -99 -52q-56 0 -102 39q-47 41 -47 107q4 73 42.5 120.5t110.5 73.5q49 19 92 30q42 10 102 18q30 4 54 6.5t41 3.5q17 2 38.5 3t47.5 2q13 25 36 25q18 -5 23 -22q-24 -24 -70 -37
q-11 -19 -23 -71q-5 -26 -12.5 -68t-17.5 -99l-26 -154q-11 -63 -32 -121.5t-52 -112.5q-30 -52 -73.5 -84t-92.5 -32q-65 0 -105 37q-39 37 -39 89q0 38 22.5 74.5t71.5 54.5zM553 825q-15 -15 -36 -15t-37 15q-15 16 -15 37t15 36q16 16 37 16t36 -16q16 -15 16 -36
t-16 -37z" />
    <glyph glyph-name="dotlessi" unicode="&#x131;" horiz-adv-x="303" 
d="M350 251q-30 -109 -92 -186t-141 -77q-60 0 -87.5 43t-27.5 115q0 61 22 186q23 130 23 150q40 23 69 26q0 -17 -6 -59t-19 -108t-19 -113.5t-6 -76.5q0 -116 82 -116q53 0 102 70q51 72 67 154z" />
    <glyph glyph-name="IJ" unicode="&#x132;" horiz-adv-x="1265" 
d="M145 234q-26 -28 -37.5 -51.5t-11.5 -59.5q0 -43 29 -69t80 -26q44 0 68.5 23.5t41.5 58.5q6 10 10.5 24.5t8 30t6.5 30.5t5 27q4 23 9 62l9 57l9 57l11 66l12 63q8 40 16.5 65.5t19.5 53.5q23 57 60 77q-13 -3 -57 -10t-122 -18q-26 -4 -47 -7t-38 -7q-35 -6 -73 -19
q-56 -18 -83.5 -47.5t-31.5 -83.5q0 -54 35.5 -88.5t101.5 -34.5q34 0 67 14l5 -9q-37 -52 -99 -52q-56 0 -102 39q-47 41 -47 107q4 73 42.5 120.5t110.5 73.5q49 19 92 30q42 10 102 18q30 4 54 6.5t41 3.5q17 2 38.5 3t47.5 2q13 25 36 25q18 -5 23 -22q-24 -24 -70 -37
q-11 -19 -23 -71q-5 -26 -12.5 -68t-17.5 -99l-26 -154q-11 -63 -32 -121.5t-52 -112.5q-30 -52 -73.5 -84t-92.5 -32q-65 0 -105 37q-39 37 -39 89q0 38 22.5 74.5t71.5 54.5zM926 413q-37 -52 -99 -52q-56 0 -102 39q-47 41 -47 107q4 73 42.5 120.5t110.5 73.5
q49 19 92 30q42 10 102 18q30 4 54 6.5t41 3.5q17 2 38.5 3t47.5 2q13 25 36 25q18 -5 23 -22q-24 -24 -69 -37q-6 -11 -12.5 -34.5t-15.5 -65.5l-15 -79l-19 -102q-5 -31 -10 -58t-10 -50l-10 -58q-4 -23 -7 -44.5t-7 -41.5q-7 -38 -21 -100q-7 -29 -14 -56t-15 -51
t-18 -50t-22 -51t-25 -47t-27 -40q-28 -35 -66.5 -58t-83.5 -23q-92 0 -152 54q-59 54 -59 137q0 95 70 159t207 66q5 -8 1 -18q-95 -11 -151 -68q-56 -56 -56 -141q0 -61 41 -105t111 -44q57 0 92 42q18 21 32 45.5t25 63.5q6 19 11 36.5t9.5 35.5t8.5 38t8 46t7.5 47.5
t5.5 40.5q3 19 6 42.5t7 52.5t7.5 52.5t6.5 42.5q24 162 53 254.5t81 122.5q-14 -3 -58.5 -10t-121.5 -18q-26 -4 -47 -7t-38 -7q-35 -6 -73 -19q-56 -18 -83.5 -47.5t-31.5 -83.5q0 -54 35.5 -88.5t101.5 -34.5q34 0 67 14z" />
    <glyph glyph-name="ij" unicode="&#x133;" horiz-adv-x="499" 
d="M105 638q-22 0 -39 17t-17 39t17 39t39 17q23 0 39.5 -17t16.5 -39t-16.5 -39t-39.5 -17zM457 655q-17 -17 -39 -17t-39 17t-17 39t17 39t39 17t39 -17t17 -39t-17 -39zM293 115q-76 -127 -176 -127q-60 0 -87.5 43t-27.5 115q0 61 22 186q23 130 23 150q40 23 69 26
q0 -17 -6 -59t-19 -108t-19 -113.5t-6 -76.5q0 -116 82 -116q50 0 97 63q49 66 68 144q13 87 23 149.5t18 103.5q29 20 69 5q-7 -38 -26 -155t-51 -315l-13 -63q-3 -14 -8 -31.5t-11 -36t-14 -36.5t-17 -32q-12 -22 -30 -42.5t-40.5 -36.5t-51 -25t-61.5 -7
q-63 0 -98.5 33.5t-35.5 84.5q0 58 47 105l8 -5q-9 -33 -9 -63q0 -61 33.5 -87.5t81.5 -26.5q72 0 106 79q17 39 26.5 79.5t19.5 102.5z" />
    <glyph glyph-name="Jcircumflex" unicode="&#x134;" horiz-adv-x="678" 
d="M339 413q-37 -52 -99 -52q-56 0 -102 39q-47 41 -47 107q4 73 42.5 120.5t110.5 73.5q49 19 92 30q42 10 102 18q30 4 54 6.5t41 3.5q17 2 38.5 3t47.5 2q13 25 36 25q18 -5 23 -22q-24 -24 -69 -37q-6 -11 -12.5 -34.5t-15.5 -65.5l-15 -79l-19 -102q-5 -31 -10 -58
t-10 -50l-10 -58q-4 -23 -7 -44.5t-7 -41.5q-7 -38 -21 -100q-7 -29 -14 -56t-15 -51t-18 -50t-22 -51t-25 -47t-27 -40q-28 -35 -66.5 -58t-83.5 -23q-92 0 -152 54q-59 54 -59 137q0 95 70 159t207 66q5 -8 1 -18q-95 -11 -151 -68q-56 -56 -56 -141q0 -61 41 -105
t111 -44q57 0 92 42q18 21 32 45.5t25 63.5q6 19 11 36.5t9.5 35.5t8.5 38t8 46t7.5 47.5t5.5 40.5q3 19 6 42.5t7 52.5t7.5 52.5t6.5 42.5q24 162 53 254.5t81 122.5q-14 -3 -58.5 -10t-121.5 -18q-26 -4 -47 -7t-38 -7q-35 -6 -73 -19q-56 -18 -83.5 -47.5t-31.5 -83.5
q0 -54 35.5 -88.5t101.5 -34.5q34 0 67 14zM530 937q-45 -43 -82.5 -74.5t-68.5 -52.5q-14 6 -19 24q55 51 96.5 94t69.5 81q9 3 18 0q51 -89 130 -175q-6 -14 -24 -24q-51 43 -120 127z" />
    <glyph glyph-name="jcircumflex" unicode="&#x135;" horiz-adv-x="196" 
d="M-282 -62q-9 -33 -9 -63q0 -61 33.5 -87.5t81.5 -26.5q72 0 106 79q17 39 26.5 79.5t19.5 102.5l75 473q29 20 69 5q-7 -38 -26 -155t-51 -315l-13 -63q-3 -14 -8 -31.5t-11 -36t-13.5 -36.5t-16.5 -32q-13 -22 -30.5 -42.5t-40.5 -36.5t-51 -25t-62 -7q-63 0 -98.5 33.5
t-35.5 84.5q0 58 47 105zM111 677q-45 -43 -82.5 -74.5t-68.5 -52.5q-14 6 -19 24q55 51 96.5 94t69.5 81q9 3 18 0q51 -89 130 -175q-6 -14 -24 -24q-51 43 -120 127z" />
    <glyph glyph-name="Kcommaaccent" unicode="&#x136;" horiz-adv-x="969" 
d="M374 -274q60 38 73 95q14 58 -23 104q16 28 52 33q22 -21 29 -53.5t-2.5 -68.5t-36 -72.5t-69.5 -64.5q-19 5 -23 27zM145 234q-26 -28 -37.5 -51.5t-11.5 -59.5q0 -43 29 -69t80 -26q44 0 68.5 23.5t41.5 58.5q6 10 10.5 24.5t8 30t6.5 30.5t5 27q4 23 9 62l9 57l9 57
l11 66l12 63q8 40 16.5 65.5t19.5 53.5q23 57 60 77q-13 -3 -57 -10t-122 -18q-26 -4 -47 -7t-38 -7q-35 -6 -73 -19q-56 -18 -83.5 -47.5t-31.5 -83.5q0 -54 35.5 -88.5t101.5 -34.5q34 0 67 14l5 -9q-37 -52 -99 -52q-56 0 -102 39q-47 41 -47 107q4 73 42.5 120.5
t110.5 73.5q49 19 92 30q42 10 102 18q30 4 54 6.5t41 3.5q17 2 38.5 3t47.5 2q13 25 36 25q18 -5 23 -22q-24 -24 -70 -37q-11 -19 -23 -71q-5 -26 -12.5 -68t-17.5 -99l-26 -154q-11 -63 -32 -121.5t-52 -112.5q-30 -52 -73.5 -84t-92.5 -32q-65 0 -105 37q-39 37 -39 89
q0 38 22.5 74.5t71.5 54.5zM1015 250q-30 -109 -93 -185q-63 -77 -143 -77q-25 48 -60 100.5t-81 110.5q-46 59 -88.5 108t-83.5 90l144 199q15 21 28 38t24 30t25.5 27.5t31.5 30.5q69 63 162 63q28 0 51.5 -8t40 -22.5t25.5 -34t9 -41.5q0 -34 -27.5 -67.5t-82.5 -57.5
l-5 9q65 42 65 114q0 36 -18.5 57.5t-54.5 21.5q-27 0 -52 -10.5t-42 -22.5q-17 -11 -44 -45l-42 -53l-51 -74l-101 -145q32 -31 69.5 -74t81.5 -99q87 -111 129 -192q52 22 93 84q42 61 57 133z" />
    <glyph glyph-name="kcommaaccent" unicode="&#x137;" horiz-adv-x="474" 
d="M29 -274q60 38 73 95q14 58 -23 104q16 28 52 33q22 -21 29 -53.5t-2.5 -68.5t-36 -72.5t-69.5 -64.5q-19 5 -23 27zM521 251q-17 -67 -42 -121q-26 -57 -68 -99q-43 -43 -93 -43q-63 0 -100 48q-37 50 -47 178q36 19 63.5 41.5t46 45.5t28 45.5t9.5 42.5q0 31 -17 50.5
t-53 19.5q-39 0 -70.5 -31t-55 -77t-39 -100t-22.5 -100q-7 -48 -10 -80t-3 -51q-25 -23 -68 -23q0 30 12.5 124t37.5 253q51 316 51 370q25 18 69 26q0 -26 -13.5 -125t-41.5 -275q68 137 174 137q60 0 89 -32.5t29 -80.5q0 -49 -38.5 -99.5t-113.5 -92.5q6 -81 30 -124
t59 -43q57 0 94.5 54.5t69.5 169.5z" />
    <glyph glyph-name="kgreenlandic" unicode="&#x138;" horiz-adv-x="474" 
d="M521 251q-17 -67 -42 -121q-26 -57 -68 -99q-43 -43 -93 -43q-63 0 -100 48q-37 50 -47 178q36 19 63.5 41.5t46 45.5t28 45.5t9.5 42.5q0 31 -17 50.5t-53 19.5q-39 0 -70.5 -31t-55 -77t-39 -100t-22.5 -100q-7 -48 -10 -80t-3 -51q-25 -23 -68 -23q0 22 4 60.5
t13 99.5l15 105l20 128q7 42 12 70.5t7 45.5q29 21 70 26l-26 -161q69 136 174 136q60 0 89 -32.5t29 -80.5q0 -49 -38.5 -99.5t-113.5 -92.5q6 -81 30 -124t59 -43q57 0 94.5 54.5t69.5 169.5z" />
    <glyph glyph-name="Lacute" unicode="&#x139;" horiz-adv-x="712" 
d="M872 -109q-59 -96 -133 -96q-43 0 -117 47q-37 23 -80 53t-94 68q-101 75 -162 111q-62 -86 -159 -86q-27 0 -50 6t-40 17.5t-27 28t-10 37.5q0 38 40 74q42 37 99 37t141 -39q11 34 19 82q4 23 8 52.5t8 64.5q4 36 7.5 62t5.5 42q8 54 23 103.5t41 98.5q27 51 71.5 80.5
t101.5 29.5q60 0 94.5 -41.5t34.5 -105.5q0 -76 -52 -150q-53 -75 -163 -114q-8 8 -11 21q39 18 70 44t52.5 57t33 66.5t11.5 72.5q0 45 -20 82q-20 36 -63 36q-28 0 -49.5 -12t-36.5 -33q-14 -20 -26 -56q-11 -35 -18 -71.5t-15 -92.5q-19 -115 -41 -199t-48 -138
q35 -19 78 -46.5t95 -64.5q52 -36 96.5 -67t80.5 -53t63.5 -34.5t45.5 -12.5q43 0 79 54q8 -4 16 -15zM254 92q-82 43 -140 43q-75 0 -75 -43q0 -26 22.5 -45.5t68.5 -19.5q83 0 124 65zM521 810q-14 9 -24 31q120 79 207 162q33 -17 42 -48q-111 -89 -225 -145z" />
    <glyph glyph-name="lacute" unicode="&#x13a;" horiz-adv-x="304" 
d="M351 251q-30 -109 -92 -186t-141 -77q-60 0 -87.5 43t-27.5 116q0 31 9.5 106t28.5 196q39 241 39 295q25 18 69 26q0 -31 -10.5 -108t-30.5 -202t-30.5 -202t-10.5 -107q0 -116 82 -116q53 0 102 70q51 72 67 154zM81 810q-14 9 -24 31q120 79 207 162q33 -17 42 -48
q-111 -89 -225 -145z" />
    <glyph glyph-name="Lcommaaccent" unicode="&#x13b;" horiz-adv-x="712" 
d="M234 -274q60 38 73 95q14 58 -23 104q16 28 52 33q22 -21 29 -53.5t-2.5 -68.5t-36 -72.5t-69.5 -64.5q-19 5 -23 27zM872 -109q-59 -96 -133 -96q-43 0 -117 47q-37 23 -80 53t-94 68q-101 75 -162 111q-62 -86 -159 -86q-27 0 -50 6t-40 17.5t-27 28t-10 37.5
q0 38 40 74q42 37 99 37t141 -39q11 34 19 82q4 23 8 52.5t8 64.5q4 36 7.5 62t5.5 42q8 54 23 103.5t41 98.5q27 51 71.5 80.5t101.5 29.5q60 0 94.5 -41.5t34.5 -105.5q0 -76 -52 -150q-53 -75 -163 -114q-8 8 -11 21q39 18 70 44t52.5 57t33 66.5t11.5 72.5q0 45 -20 82
q-20 36 -63 36q-28 0 -49.5 -12t-36.5 -33q-14 -20 -26 -56q-11 -35 -18 -71.5t-15 -92.5q-19 -115 -41 -199t-48 -138q35 -19 78 -46.5t95 -64.5q52 -36 96.5 -67t80.5 -53t63.5 -34.5t45.5 -12.5q43 0 79 54q8 -4 16 -15zM254 92q-82 43 -140 43q-75 0 -75 -43
q0 -26 22.5 -45.5t68.5 -19.5q83 0 124 65z" />
    <glyph glyph-name="lcommaaccent" unicode="&#x13c;" horiz-adv-x="304" 
d="M14 -274q60 38 73 95q14 58 -23 104q16 28 52 33q22 -21 29 -53.5t-2.5 -68.5t-36 -72.5t-69.5 -64.5q-19 5 -23 27zM351 251q-30 -109 -92 -186t-141 -77q-60 0 -87.5 43t-27.5 116q0 31 9.5 106t28.5 196q39 241 39 295q25 18 69 26q0 -31 -10.5 -108t-30.5 -202
t-30.5 -202t-10.5 -107q0 -116 82 -116q53 0 102 70q51 72 67 154z" />
    <glyph glyph-name="Lcaron" unicode="&#x13d;" horiz-adv-x="712" 
d="M737 538q60 38 73 95q14 58 -23 104q16 28 52 33q22 -21 29 -53.5t-2.5 -68.5t-36 -72.5t-69.5 -64.5q-19 5 -23 27zM872 -109q-59 -96 -133 -96q-43 0 -117 47q-37 23 -80 53t-94 68q-101 75 -162 111q-62 -86 -159 -86q-27 0 -50 6t-40 17.5t-27 28t-10 37.5
q0 38 40 74q42 37 99 37t141 -39q11 34 19 82q4 23 8 52.5t8 64.5q4 36 7.5 62t5.5 42q8 54 23 103.5t41 98.5q27 51 71.5 80.5t101.5 29.5q60 0 94.5 -41.5t34.5 -105.5q0 -76 -52 -150q-53 -75 -163 -114q-8 8 -11 21q39 18 70 44t52.5 57t33 66.5t11.5 72.5q0 45 -20 82
q-20 36 -63 36q-28 0 -49.5 -12t-36.5 -33q-14 -20 -26 -56q-11 -35 -18 -71.5t-15 -92.5q-19 -115 -41 -199t-48 -138q35 -19 78 -46.5t95 -64.5q52 -36 96.5 -67t80.5 -53t63.5 -34.5t45.5 -12.5q43 0 79 54q8 -4 16 -15zM254 92q-82 43 -140 43q-75 0 -75 -43
q0 -26 22.5 -45.5t68.5 -19.5q83 0 124 65z" />
    <glyph glyph-name="lcaron" unicode="&#x13e;" horiz-adv-x="304" 
d="M179 538q60 38 73 95q14 58 -23 104q16 28 52 33q22 -21 29 -53.5t-2.5 -68.5t-36 -72.5t-69.5 -64.5q-19 5 -23 27zM351 251q-30 -109 -92 -186t-141 -77q-60 0 -87.5 43t-27.5 116q0 31 9.5 106t28.5 196q39 241 39 295q25 18 69 26q0 -31 -10.5 -108t-30.5 -202
t-30.5 -202t-10.5 -107q0 -116 82 -116q53 0 102 70q51 72 67 154z" />
    <glyph glyph-name="Ldot" unicode="&#x13f;" horiz-adv-x="712" 
d="M872 -109q-59 -96 -133 -96q-43 0 -117 47q-37 23 -80 53t-94 68q-101 75 -162 111q-62 -86 -159 -86q-27 0 -50 6t-40 17.5t-27 28t-10 37.5q0 38 40 74q42 37 99 37t141 -39q11 34 19 82q4 23 8 52.5t8 64.5q4 36 7.5 62t5.5 42q8 54 23 103.5t41 98.5q27 51 71.5 80.5
t101.5 29.5q60 0 94.5 -41.5t34.5 -105.5q0 -76 -52 -150q-53 -75 -163 -114q-8 8 -11 21q39 18 70 44t52.5 57t33 66.5t11.5 72.5q0 45 -20 82q-20 36 -63 36q-28 0 -49.5 -12t-36.5 -33q-14 -20 -26 -56q-11 -35 -18 -71.5t-15 -92.5q-19 -115 -41 -199t-48 -138
q35 -19 78 -46.5t95 -64.5q52 -36 96.5 -67t80.5 -53t63.5 -34.5t45.5 -12.5q43 0 79 54q8 -4 16 -15zM254 92q-82 43 -140 43q-75 0 -75 -43q0 -26 22.5 -45.5t68.5 -19.5q83 0 124 65zM543 230q-15 -15 -36 -15t-37 15q-15 16 -15 37t15 36q16 16 37 16t36 -16
q16 -15 16 -36t-16 -37z" />
    <glyph glyph-name="ldot" unicode="&#x140;" horiz-adv-x="575" 
d="M351 251q-30 -109 -92 -186t-141 -77q-60 0 -87.5 43t-27.5 116q0 31 9.5 106t28.5 196q39 241 39 295q25 18 69 26q0 -31 -10.5 -108t-30.5 -202t-30.5 -202t-10.5 -107q0 -116 82 -116q53 0 102 70q51 72 67 154zM255 298q-15 -15 -36 -15t-37 15q-15 16 -15 37t15 36
q16 16 37 16t36 -16q16 -15 16 -36t-16 -37z" />
    <glyph glyph-name="Lslash" unicode="&#x141;" horiz-adv-x="712" 
d="M872 -109q-59 -96 -133 -96q-43 0 -117 47q-37 23 -80 53t-94 68q-101 75 -162 111q-62 -86 -159 -86q-27 0 -50 6t-40 17.5t-27 28t-10 37.5q0 38 40 74q42 37 99 37t141 -39q7 20 12.5 46t10.5 58q-77 -12 -135 -30q-12 19 0 35q36 13 71 22t70 15q9 76 13.5 115
t5.5 42q8 54 23 103.5t41 98.5q27 51 71.5 80.5t101.5 29.5q60 0 94.5 -41.5t34.5 -105.5q0 -76 -52 -150q-53 -75 -163 -114q-8 8 -11 21q39 18 70 44t52.5 57t33 66.5t11.5 72.5q0 45 -20 82q-20 36 -63 36q-28 0 -49.5 -12t-36.5 -33q-14 -20 -26 -56q-11 -35 -18 -71.5
t-15 -92.5q-8 -49 -15.5 -89.5t-15.5 -73.5q31 4 71.5 5.5t92.5 1.5q10 -8 9.5 -21.5t-6.5 -22.5q-56 0 -100 -1.5t-78 -5.5q-11 -42 -23 -74t-24 -56q35 -19 78 -46.5t95 -64.5q52 -36 96.5 -67t80.5 -53t63.5 -34.5t45.5 -12.5q43 0 79 54q8 -4 16 -15zM254 92
q-82 43 -140 43q-75 0 -75 -43q0 -26 22.5 -45.5t68.5 -19.5q83 0 124 65z" />
    <glyph glyph-name="lslash" unicode="&#x142;" horiz-adv-x="304" 
d="M474 884q-17 -21 -31.5 -35.5t-29 -23t-30 -12t-33.5 -3.5q-12 0 -124 28q-114 29 -179 29q-77 0 -136 -23q-32 -12 -51 -36t-19 -57q0 -57 44 -89q-1 -8 -6 -13q-36 1 -56.5 26t-20.5 60q0 74 77 127q76 52 194 52q58 0 170 -26t135 -26q17 0 28.5 1.5t21 5t17.5 10
t17 15.5q8 -3 12 -10zM351 251q-30 -109 -92 -186t-141 -77q-60 0 -87.5 43t-27.5 116q0 31 9.5 106t28.5 196q39 241 39 295q25 18 69 26q0 -31 -10.5 -108t-30.5 -202t-30.5 -202t-10.5 -107q0 -116 82 -116q53 0 102 70q51 72 67 154z" />
    <glyph glyph-name="Nacute" unicode="&#x143;" horiz-adv-x="959" 
d="M1063 618q23 94 -11 132q-33 40 -93 40q-30 0 -53 -13.5t-38 -34.5q-15 -23 -26 -58q-6 -18 -10.5 -35t-8.5 -35t-7.5 -38.5t-7.5 -46.5q-25 -156 -42 -263.5t-28 -167.5q4 -38 5.5 -62.5t1.5 -37.5q-26 -26 -68 -16q5 153 -78 335q-83 183 -203 303l-7 -85l-7 -100
q-2 -22 -4.5 -48t-6.5 -55q-8 -59 -18 -105q-10 -45 -29 -92t-44 -78q-24 -30 -61 -49.5t-85 -19.5q-30 0 -54.5 10t-42.5 27t-27.5 40t-9.5 49q0 38 22.5 74.5t71.5 54.5l7 -9q-25 -28 -37 -51.5t-12 -59.5q0 -43 27 -69t72 -26q21 -2 38.5 3.5t31.5 16t25.5 25t19.5 29.5
q11 21 20 54q5 18 8.5 33.5t5.5 28.5l12 72l64 415q12 6 29 6q51 -42 99 -100.5t94 -134.5q93 -150 126 -302l4 70q4 48 6 82q1 16 3 37t4 47q6 54 12 89q3 18 7 39t9 44q11 48 24 80.5t32 66.5q26 49 66 75.5t95 26.5q48 1 78.5 -20t42 -53.5t3 -71.5t-38.5 -73zM561 810
q-14 9 -24 31q120 79 207 162q33 -17 42 -48q-111 -89 -225 -145z" />
    <glyph glyph-name="nacute" unicode="&#x144;" horiz-adv-x="558" 
d="M605 251q-29 -109 -91 -186t-142 -77q-97 0 -97 140q0 32 15 109q16 76 16 111q0 57 -12 84t-47 27q-48 0 -89 -53q-42 -54 -64 -120t-32 -135q-7 -51 -10.5 -83t-3.5 -48q-23 -23 -68 -23q0 32 12 113l29 196q18 112 27 188q9 7 30.5 10t38.5 -4l-21 -128
q69 135 173 135q106 0 106 -142q0 -17 -4 -45.5t-12 -70.5q-15 -83 -15 -119q0 -48 13 -71.5t46 -23.5q53 0 102 70q51 72 67 154zM168 557q-14 9 -24 31q120 79 207 162q33 -17 42 -48q-111 -89 -225 -145z" />
    <glyph glyph-name="Ncommaaccent" unicode="&#x145;" horiz-adv-x="959" 
d="M373 -274q60 38 73 95q14 58 -23 104q16 28 52 33q22 -21 29 -53.5t-2.5 -68.5t-36 -72.5t-69.5 -64.5q-19 5 -23 27zM1063 618q23 94 -11 132q-33 40 -93 40q-30 0 -53 -13.5t-38 -34.5q-15 -23 -26 -58q-6 -18 -10.5 -35t-8.5 -35t-7.5 -38.5t-7.5 -46.5
q-25 -156 -42 -263.5t-28 -167.5q4 -38 5.5 -62.5t1.5 -37.5q-26 -26 -68 -16q5 153 -78 335q-83 183 -203 303l-7 -85l-7 -100q-2 -22 -4.5 -48t-6.5 -55q-8 -59 -18 -105q-10 -45 -29 -92t-44 -78q-24 -30 -61 -49.5t-85 -19.5q-30 0 -54.5 10t-42.5 27t-27.5 40t-9.5 49
q0 38 22.5 74.5t71.5 54.5l7 -9q-25 -28 -37 -51.5t-12 -59.5q0 -43 27 -69t72 -26q21 -2 38.5 3.5t31.5 16t25.5 25t19.5 29.5q11 21 20 54q5 18 8.5 33.5t5.5 28.5l12 72l64 415q12 6 29 6q51 -42 99 -100.5t94 -134.5q93 -150 126 -302l4 70q4 48 6 82q1 16 3 37t4 47
q6 54 12 89q3 18 7 39t9 44q11 48 24 80.5t32 66.5q26 49 66 75.5t95 26.5q48 1 78.5 -20t42 -53.5t3 -71.5t-38.5 -73z" />
    <glyph glyph-name="ncommaaccent" unicode="&#x146;" horiz-adv-x="558" 
d="M82 -274q60 38 73 95q14 58 -23 104q16 28 52 33q22 -21 29 -53.5t-2.5 -68.5t-36 -72.5t-69.5 -64.5q-19 5 -23 27zM605 251q-29 -109 -91 -186t-142 -77q-97 0 -97 140q0 32 15 109q16 76 16 111q0 57 -12 84t-47 27q-48 0 -89 -53q-42 -54 -64 -120t-32 -135
q-7 -51 -10.5 -83t-3.5 -48q-23 -23 -68 -23q0 32 12 113l29 196q18 112 27 188q9 7 30.5 10t38.5 -4l-21 -128q69 135 173 135q106 0 106 -142q0 -17 -4 -45.5t-12 -70.5q-15 -83 -15 -119q0 -48 13 -71.5t46 -23.5q53 0 102 70q51 72 67 154z" />
    <glyph glyph-name="Ncaron" unicode="&#x147;" horiz-adv-x="959" 
d="M1063 618q23 94 -11 132q-33 40 -93 40q-30 0 -53 -13.5t-38 -34.5q-15 -23 -26 -58q-6 -18 -10.5 -35t-8.5 -35t-7.5 -38.5t-7.5 -46.5q-25 -156 -42 -263.5t-28 -167.5q4 -38 5.5 -62.5t1.5 -37.5q-26 -26 -68 -16q5 153 -78 335q-83 183 -203 303l-7 -85l-7 -100
q-2 -22 -4.5 -48t-6.5 -55q-8 -59 -18 -105q-10 -45 -29 -92t-44 -78q-24 -30 -61 -49.5t-85 -19.5q-30 0 -54.5 10t-42.5 27t-27.5 40t-9.5 49q0 38 22.5 74.5t71.5 54.5l7 -9q-25 -28 -37 -51.5t-12 -59.5q0 -43 27 -69t72 -26q21 -2 38.5 3.5t31.5 16t25.5 25t19.5 29.5
q11 21 20 54q5 18 8.5 33.5t5.5 28.5l12 72l64 415q12 6 29 6q51 -42 99 -100.5t94 -134.5q93 -150 126 -302l4 70q4 48 6 82q1 16 3 37t4 47q6 54 12 89q3 18 7 39t9 44q11 48 24 80.5t32 66.5q26 49 66 75.5t95 26.5q48 1 78.5 -20t42 -53.5t3 -71.5t-38.5 -73zM634 812
q-51 89 -130 175q6 13 24 24q20 -17 50 -48.5t69 -78.5q95 89 152 127q14 -7 19 -24q-55 -51 -96.5 -94t-69.5 -81q-11 -5 -18 0z" />
    <glyph glyph-name="ncaron" unicode="&#x148;" horiz-adv-x="558" 
d="M605 251q-29 -109 -91 -186t-142 -77q-97 0 -97 140q0 32 15 109q16 76 16 111q0 57 -12 84t-47 27q-48 0 -89 -53q-42 -54 -64 -120t-32 -135q-7 -51 -10.5 -83t-3.5 -48q-23 -23 -68 -23q0 32 12 113l29 196q18 112 27 188q9 7 30.5 10t38.5 -4l-21 -128
q69 135 173 135q106 0 106 -142q0 -17 -4 -45.5t-12 -70.5q-15 -83 -15 -119q0 -48 13 -71.5t46 -23.5q53 0 102 70q51 72 67 154zM241 552q-51 89 -130 175q6 13 24 24q20 -17 50 -48.5t69 -78.5q95 89 152 127q14 -7 19 -24q-55 -51 -96.5 -94t-69.5 -81q-11 -5 -18 0z
" />
    <glyph glyph-name="napostrophe" unicode="&#x149;" horiz-adv-x="558" 
d="M-103 538q60 38 73 95q14 58 -23 104q16 28 52 33q22 -21 29 -53.5t-2.5 -68.5t-36 -72.5t-69.5 -64.5q-19 5 -23 27zM605 251q-29 -109 -91 -186t-142 -77q-97 0 -97 140q0 32 15 109q16 76 16 111q0 57 -12 84t-47 27q-48 0 -89 -53q-42 -54 -64 -120t-32 -135
q-7 -51 -10.5 -83t-3.5 -48q-23 -23 -68 -23q0 32 12 113l29 196q18 112 27 188q9 7 30.5 10t38.5 -4l-21 -128q69 135 173 135q106 0 106 -142q0 -17 -4 -45.5t-12 -70.5q-15 -83 -15 -119q0 -48 13 -71.5t46 -23.5q53 0 102 70q51 72 67 154z" />
    <glyph glyph-name="Eng" unicode="&#x14a;" horiz-adv-x="959" 
d="M489 -33q-26 -28 -37.5 -51.5t-11.5 -59.5q0 -43 30 -69t79 -26q33 0 58 19t41 54q16 34 25.5 67.5t16.5 78.5q-7 0 -13 2q5 153 -78 335q-83 183 -203 303l-7 -85l-7 -100q-2 -22 -4.5 -48t-6.5 -55q-8 -59 -18 -105q-10 -45 -29 -92t-44 -78q-24 -30 -61 -49.5
t-85 -19.5q-30 0 -54.5 10t-42.5 27t-27.5 40t-9.5 49q0 38 22.5 74.5t71.5 54.5l7 -9q-25 -28 -37 -51.5t-12 -59.5q0 -43 27 -69t72 -26q21 -2 38.5 3.5t31.5 16t25.5 25t19.5 29.5q11 21 20 54q5 18 8.5 33.5t5.5 28.5l12 72l64 415q12 6 29 6q51 -42 99 -100.5
t94 -134.5q93 -150 126 -302l4 70q4 48 6 82q1 16 3 37t4 47q6 54 12 89q3 18 7 39t9 44q11 48 24 80.5t32 66.5q26 49 66 75.5t95 26.5q48 1 78.5 -20t42 -53.5t3 -71.5t-38.5 -73l-8 5q23 94 -11 132q-33 40 -93 40q-30 0 -53 -13.5t-38 -34.5q-15 -23 -26 -58
q-6 -18 -10.5 -35t-8.5 -35t-7.5 -38.5t-7.5 -46.5l-87 -542q-13 -66 -29.5 -115.5t-39 -83t-52 -50.5t-68.5 -17q-65 0 -105 37q-39 37 -39 89q0 38 22.5 74.5t71.5 54.5z" />
    <glyph glyph-name="eng" unicode="&#x14b;" horiz-adv-x="558" 
d="M294 254l6 42l5 44q3 30 0 46q-1 13 -4.5 27t-10.5 24.5t-17.5 16.5t-25.5 5q-48 0 -90 -53q-42 -54 -64 -119.5t-31 -134.5q-7 -45 -10.5 -77.5t-3.5 -54.5q-23 -23 -68 -23q0 32 12 113l29 196q18 112 27 188q9 7 30.5 10t38.5 -4l-21 -128q69 135 173 135
q106 0 106 -142q0 -10 -3.5 -37t-10.5 -73l-35 -225q-49 -310 -246 -310q-57 0 -88 31t-31 77q0 58 47 105l8 -5q-9 -33 -9 -63q0 -56 28.5 -80t71.5 -24q72 0 106 79q17 39 26.5 79.5t19.5 102.5z" />
    <glyph glyph-name="Omacron" unicode="&#x14c;" horiz-adv-x="823" 
d="M218 550q18 95 86 154t162 59q134 0 203 -95t69 -239q0 -79 -24 -157t-69 -142q-43 -63 -112 -102.5t-150 -39.5q-118 0 -196 89q-77 91 -77 209q0 66 27 136.5t81 127.5zM507 471q-53 -108 -154 -108q-54 0 -95 31q-41 32 -46 82q-30 -92 -30 -190q0 -115 56 -188
q57 -71 155 -71q83 0 146 60q64 60 94.5 148.5t30.5 185.5q0 139 -55 221q-54 84 -167 84q-23 0 -54 -8t-59 -29.5t-47.5 -59t-19.5 -95.5q0 -48 27 -80.5t78 -32.5q36 0 64 12.5t67 45.5zM332 865q-3 12 -3 27q0 14 3 28q75 -5 154.5 -7t167.5 -1q3 -9 3 -19q0 -12 -3 -19
q-162 -10 -322 -9z" />
    <glyph glyph-name="omacron" unicode="&#x14d;" 
d="M601 249q-33 -72 -86.5 -111t-116.5 -39q-11 0 -19.5 0.5t-13.5 1.5q-68 -113 -182 -113q-78 0 -130 64q-51 64 -51 161q0 90 48 173t138 107l4 -11q-58 -42 -90.5 -111t-32.5 -148q0 -41 8 -75.5t25 -60t43 -39.5t62 -14q78 0 122 77q-67 26 -104 96t-37 155
q0 66 26.5 108t77.5 42q62 0 95 -59q34 -58 34 -137q0 -96 -37 -177q4 -1 10.5 -1h15.5q106 0 158 121zM346 149q23 63 23 131q0 56 -25 119q-26 65 -63 65q-48 0 -48 -111q0 -62 27 -122q27 -59 86 -82zM114 665q-3 12 -3 27q0 14 3 28q75 -5 154.5 -7t167.5 -1q3 -9 3 -19
q0 -12 -3 -19q-162 -10 -322 -9z" />
    <glyph glyph-name="Obreve" unicode="&#x14e;" horiz-adv-x="823" 
d="M218 550q18 95 86 154t162 59q134 0 203 -95t69 -239q0 -79 -24 -157t-69 -142q-43 -63 -112 -102.5t-150 -39.5q-118 0 -196 89q-77 91 -77 209q0 66 27 136.5t81 127.5zM507 471q-53 -108 -154 -108q-54 0 -95 31q-41 32 -46 82q-30 -92 -30 -190q0 -115 56 -188
q57 -71 155 -71q83 0 146 60q64 60 94.5 148.5t30.5 185.5q0 139 -55 221q-54 84 -167 84q-23 0 -54 -8t-59 -29.5t-47.5 -59t-19.5 -95.5q0 -48 27 -80.5t78 -32.5q36 0 64 12.5t67 45.5zM333 995q24 14 57 7q0 -87 28 -115q29 -29 74 -29q79 0 130 144q18 4 31 -10
q-68 -182 -187 -182q-52 0 -93 50q-40 50 -40 135z" />
    <glyph glyph-name="obreve" unicode="&#x14f;" 
d="M601 249q-33 -72 -86.5 -111t-116.5 -39q-11 0 -19.5 0.5t-13.5 1.5q-68 -113 -182 -113q-78 0 -130 64q-51 64 -51 161q0 90 48 173t138 107l4 -11q-58 -42 -90.5 -111t-32.5 -148q0 -41 8 -75.5t25 -60t43 -39.5t62 -14q78 0 122 77q-67 26 -104 96t-37 155
q0 66 26.5 108t77.5 42q62 0 95 -59q34 -58 34 -137q0 -96 -37 -177q4 -1 10.5 -1h15.5q106 0 158 121zM346 149q23 63 23 131q0 56 -25 119q-26 65 -63 65q-48 0 -48 -111q0 -62 27 -122q27 -59 86 -82zM116 736q24 14 57 7q0 -87 28 -115q29 -29 74 -29q79 0 130 144
q18 4 31 -10q-68 -182 -187 -182q-52 0 -93 50q-40 50 -40 135z" />
    <glyph glyph-name="Ohungarumlaut" unicode="&#x150;" horiz-adv-x="823" 
d="M218 550q18 95 86 154t162 59q134 0 203 -95t69 -239q0 -79 -24 -157t-69 -142q-43 -63 -112 -102.5t-150 -39.5q-118 0 -196 89q-77 91 -77 209q0 66 27 136.5t81 127.5zM507 471q-53 -108 -154 -108q-54 0 -95 31q-41 32 -46 82q-30 -92 -30 -190q0 -115 56 -188
q57 -71 155 -71q83 0 146 60q64 60 94.5 148.5t30.5 185.5q0 139 -55 221q-54 84 -167 84q-23 0 -54 -8t-59 -29.5t-47.5 -59t-19.5 -95.5q0 -48 27 -80.5t78 -32.5q36 0 64 12.5t67 45.5zM317 810q-12 8 -23 31q105 82 177 162q32 -17 41 -48q-98 -90 -195 -145zM498 810
q-12 8 -23 31q105 82 177 162q32 -17 41 -48q-98 -90 -195 -145z" />
    <glyph glyph-name="ohungarumlaut" unicode="&#x151;" 
d="M601 249q-33 -72 -86.5 -111t-116.5 -39q-11 0 -19.5 0.5t-13.5 1.5q-68 -113 -182 -113q-78 0 -130 64q-51 64 -51 161q0 90 48 173t138 107l4 -11q-58 -42 -90.5 -111t-32.5 -148q0 -41 8 -75.5t25 -60t43 -39.5t62 -14q78 0 122 77q-67 26 -104 96t-37 155
q0 66 26.5 108t77.5 42q62 0 95 -59q34 -58 34 -137q0 -96 -37 -177q4 -1 10.5 -1h15.5q106 0 158 121zM346 149q23 63 23 131q0 56 -25 119q-26 65 -63 65q-48 0 -48 -111q0 -62 27 -122q27 -59 86 -82zM133 557q-12 8 -23 31q105 82 177 162q32 -17 41 -48
q-98 -90 -195 -145zM314 557q-12 8 -23 31q105 82 177 162q32 -17 41 -48q-98 -90 -195 -145z" />
    <glyph glyph-name="OE" unicode="&#x152;" horiz-adv-x="1182" 
d="M596 74q-94 -86 -213 -86q-118 0 -196 89q-77 91 -77 209q0 66 27 136.5t81 127.5q18 95 86 154t162 59q135 0 209 -104q35 50 100 77q65 28 123 28q80 0 136 -32q55 -31 55 -89q0 -35 -21.5 -70t-64.5 -54q-8 5 -10 13q29 32 39.5 66.5t0.5 63.5t-42.5 47.5t-89.5 18.5
q-84 0 -134 -46q-50 -45 -50 -106q0 -55 46.5 -98t137.5 -53q2 -10 2 -12q0 -8 -3 -15q-45 -3 -89 -16t-86 -36t-67 -61t-25 -84q0 -82 61 -128t147 -46q110 0 166 75q55 74 49 186q13 4 25 0q11 -24 10.5 -55.5t-11.5 -65t-32.5 -65.5t-53 -57.5t-74 -41t-95.5 -15.5
q-73 0 -133.5 22t-95.5 64zM507 471q-53 -108 -154 -108q-54 0 -95 31q-41 32 -46 82q-30 -92 -30 -190q0 -115 56 -188q57 -71 155 -71q103 0 176 91q-13 26 -13 64q0 166 204 222q-115 40 -115 160q-48 162 -203 162q-23 0 -54 -8t-59 -29.5t-47.5 -59t-19.5 -95.5
q0 -48 27 -80.5t78 -32.5q36 0 64 12.5t67 45.5z" />
    <glyph glyph-name="oe" unicode="&#x153;" horiz-adv-x="813" 
d="M860 249q-18 -42 -37 -74.5t-48 -69.5q-41 -51 -99.5 -84t-139.5 -33q-64 0 -105 35t-57 93q-68 -128 -191 -128q-78 0 -130 64q-51 64 -51 161q0 90 48 173t138 107l4 -11q-58 -42 -90.5 -111t-32.5 -148q0 -41 8 -75.5t25 -60t43 -39.5t62 -14q31 0 56.5 12.5
t44.5 34.5t32.5 53t20.5 67q-81 12 -127 70t-46 134q0 48 26.5 77.5t77.5 29.5q49 0 80.5 -37t42.5 -97q74 134 194 134q64 0 91 -32q28 -31 28 -69q0 -72 -81 -124q-80 -52 -212 -56q-1 -5 -1 -14v-20q0 -35 8 -64.5t24.5 -51.5t41.5 -34t58 -12q54 0 99.5 22t76.5 59
q32 37 51.5 71t33.5 72zM439 263q115 6 170.5 47.5t55.5 104.5q0 62 -55 62q-65 0 -112 -62q-46 -63 -59 -152zM367 241q1 13 1.5 22.5t0.5 16.5q0 56 -25 119q-26 65 -63 65q-48 0 -48 -68q0 -32 10 -61q11 -29 43 -57.5t81 -36.5z" />
    <glyph glyph-name="Racute" unicode="&#x154;" horiz-adv-x="785" 
d="M832 250q-29 -108 -93 -184q-65 -77 -146 -77q-68 186 -141 313q4 17 18.5 31t33.5 16l8 -15q181 49 181 189q0 54 -26 92t-65.5 61.5t-87.5 34t-93 10.5q-160 0 -269 -68q-108 -68 -108 -170q0 -49 29 -80.5t92 -31.5q36 0 63 13q5 -5 5 -10q-35 -50 -95 -50
q-29 0 -54 10t-44 28t-29.5 44t-10.5 58q0 89 66 160q33 36 74 62t86.5 43.5t95 26t99.5 8.5q58 0 116 -14t110 -41q54 -27 86 -74.5t32 -107.5q0 -78 -60 -137t-178 -84q75 -133 124 -263q52 23 92 84q42 63 56 131zM227 -7q6 19 11.5 42t10.5 45.5t9 44t7 38.5l15 93
l13 85l7 48q3 17 5 30t3 22l9 48l12 47q6 18 15.5 40.5t19.5 35.5q10 14 25 25.5t32 16.5l4 -5q-5 -9 -10 -22.5t-9 -32.5t-8.5 -48t-10.5 -70t-11.5 -75.5t-10.5 -63.5l-10 -68q-4 -24 -6.5 -42t-4.5 -29l-12 -63q-4 -20 -8 -34t-8.5 -25.5t-10 -22t-11.5 -22.5
q-12 -23 -27.5 -33t-35.5 -10zM397 810q-14 9 -24 31q120 79 207 162q33 -17 42 -48q-111 -89 -225 -145z" />
    <glyph glyph-name="racute" unicode="&#x155;" horiz-adv-x="470" 
d="M517 251q-29 -109 -91 -186t-142 -77q-93 0 -93 137q0 18 3 45.5t10 65.5q14 79 14 102q0 49 -23 66q-23 18 -109 39q-10 -88 -39 -193q-2 -3 -7 -4t-11 0t-10.5 4t-4.5 7q14 48 24 96t16 98q-49 16 -49 67q0 25 14 40.5t33 15.5q41 -12 40 -94l40 -10l41 -9
q6 -2 14.5 -4.5t19.5 -6.5q23 -7 33.5 -14.5t23.5 -19.5q13 -11 18 -26.5t5 -34.5q0 -8 -4 -32.5t-12 -66.5t-12 -74t-4 -54q0 -93 60 -93q53 0 102 70q51 72 67 154zM134 557q-14 9 -24 31q120 79 207 162q33 -17 42 -48q-111 -89 -225 -145z" />
    <glyph glyph-name="Rcommaaccent" unicode="&#x156;" horiz-adv-x="785" 
d="M322 -274q60 38 73 95q14 58 -23 104q16 28 52 33q22 -21 29 -53.5t-2.5 -68.5t-36 -72.5t-69.5 -64.5q-19 5 -23 27zM832 250q-29 -108 -93 -184q-65 -77 -146 -77q-68 186 -141 313q4 17 18.5 31t33.5 16l8 -15q181 49 181 189q0 54 -26 92t-65.5 61.5t-87.5 34
t-93 10.5q-160 0 -269 -68q-108 -68 -108 -170q0 -49 29 -80.5t92 -31.5q36 0 63 13q5 -5 5 -10q-35 -50 -95 -50q-29 0 -54 10t-44 28t-29.5 44t-10.5 58q0 89 66 160q33 36 74 62t86.5 43.5t95 26t99.5 8.5q58 0 116 -14t110 -41q54 -27 86 -74.5t32 -107.5
q0 -78 -60 -137t-178 -84q75 -133 124 -263q52 23 92 84q42 63 56 131zM227 -7q6 19 11.5 42t10.5 45.5t9 44t7 38.5l15 93l13 85l7 48q3 17 5 30t3 22l9 48l12 47q6 18 15.5 40.5t19.5 35.5q10 14 25 25.5t32 16.5l4 -5q-5 -9 -10 -22.5t-9 -32.5t-8.5 -48t-10.5 -70
t-11.5 -75.5t-10.5 -63.5l-10 -68q-4 -24 -6.5 -42t-4.5 -29l-12 -63q-4 -20 -8 -34t-8.5 -25.5t-10 -22t-11.5 -22.5q-12 -23 -27.5 -33t-35.5 -10z" />
    <glyph glyph-name="rcommaaccent" unicode="&#x157;" horiz-adv-x="470" 
d="M27 -274q60 38 73 95q14 58 -23 104q16 28 52 33q22 -21 29 -53.5t-2.5 -68.5t-36 -72.5t-69.5 -64.5q-19 5 -23 27zM517 251q-29 -109 -91 -186t-142 -77q-93 0 -93 137q0 18 3 45.5t10 65.5q14 79 14 102q0 49 -23 66q-23 18 -109 39q-10 -88 -39 -193q-2 -3 -7 -4
t-11 0t-10.5 4t-4.5 7q14 48 24 96t16 98q-49 16 -49 67q0 25 14 40.5t33 15.5q41 -12 40 -94l40 -10l41 -9q6 -2 14.5 -4.5t19.5 -6.5q23 -7 33.5 -14.5t23.5 -19.5q13 -11 18 -26.5t5 -34.5q0 -8 -4 -32.5t-12 -66.5t-12 -74t-4 -54q0 -93 60 -93q53 0 102 70
q51 72 67 154z" />
    <glyph glyph-name="Rcaron" unicode="&#x158;" horiz-adv-x="785" 
d="M832 250q-29 -108 -93 -184q-65 -77 -146 -77q-68 186 -141 313q4 17 18.5 31t33.5 16l8 -15q181 49 181 189q0 54 -26 92t-65.5 61.5t-87.5 34t-93 10.5q-160 0 -269 -68q-108 -68 -108 -170q0 -49 29 -80.5t92 -31.5q36 0 63 13q5 -5 5 -10q-35 -50 -95 -50
q-29 0 -54 10t-44 28t-29.5 44t-10.5 58q0 89 66 160q33 36 74 62t86.5 43.5t95 26t99.5 8.5q58 0 116 -14t110 -41q54 -27 86 -74.5t32 -107.5q0 -78 -60 -137t-178 -84q75 -133 124 -263q52 23 92 84q42 63 56 131zM227 -7q6 19 11.5 42t10.5 45.5t9 44t7 38.5l15 93
l13 85l7 48q3 17 5 30t3 22l9 48l12 47q6 18 15.5 40.5t19.5 35.5q10 14 25 25.5t32 16.5l4 -5q-5 -9 -10 -22.5t-9 -32.5t-8.5 -48t-10.5 -70t-11.5 -75.5t-10.5 -63.5l-10 -68q-4 -24 -6.5 -42t-4.5 -29l-12 -63q-4 -20 -8 -34t-8.5 -25.5t-10 -22t-11.5 -22.5
q-12 -23 -27.5 -33t-35.5 -10zM470 812q-51 89 -130 175q6 13 24 24q20 -17 50 -48.5t69 -78.5q95 89 152 127q14 -7 19 -24q-55 -51 -96.5 -94t-69.5 -81q-11 -5 -18 0z" />
    <glyph glyph-name="rcaron" unicode="&#x159;" horiz-adv-x="470" 
d="M517 251q-29 -109 -91 -186t-142 -77q-93 0 -93 137q0 18 3 45.5t10 65.5q14 79 14 102q0 49 -23 66q-23 18 -109 39q-10 -88 -39 -193q-2 -3 -7 -4t-11 0t-10.5 4t-4.5 7q14 48 24 96t16 98q-49 16 -49 67q0 25 14 40.5t33 15.5q41 -12 40 -94l40 -10l41 -9
q6 -2 14.5 -4.5t19.5 -6.5q23 -7 33.5 -14.5t23.5 -19.5q13 -11 18 -26.5t5 -34.5q0 -8 -4 -32.5t-12 -66.5t-12 -74t-4 -54q0 -93 60 -93q53 0 102 70q51 72 67 154zM208 552q-51 89 -130 175q6 13 24 24q20 -17 50 -48.5t69 -78.5q95 89 152 127q14 -7 19 -24
q-55 -51 -96.5 -94t-69.5 -81q-11 -5 -18 0z" />
    <glyph glyph-name="Sacute" unicode="&#x15a;" horiz-adv-x="587" 
d="M441 524q44 47 44 94q0 109 -141 109q-74 0 -108 -36q-33 -35 -33 -77q0 -43 32 -86.5t77 -80.5q33 -27 68.5 -55t64.5 -58t48 -61.5t19 -65.5q0 -84 -71 -152q-70 -67 -191 -67q-98 0 -171 52q-74 53 -74 156q0 24 11 54q6 15 17 31t27 31t37 28t46 21l11 -15
q-81 -59 -81 -157q0 -48 19.5 -82t49.5 -51q31 -16 58 -23t52 -7q90 0 140 44t50 119q0 35 -22.5 66.5t-56.5 62t-74 61t-74 63t-56.5 68.5t-22.5 78q0 79 60 127q61 48 150 48q80 0 135 -34q56 -35 56 -97q0 -34 -20.5 -68t-65.5 -53zM277 810q-14 9 -24 31q120 79 207 162
q33 -17 42 -48q-111 -89 -225 -145z" />
    <glyph glyph-name="sacute" unicode="&#x15b;" horiz-adv-x="365" 
d="M13 174q3 -1 5 -5q-12 -29 -12 -70q0 -32 24.5 -56.5t73.5 -24.5q43 0 71.5 22.5t28.5 64.5q0 16 -8 34t-21 36t-29.5 36t-34.5 33q-35 31 -63 72q-29 43 -29 78q0 52 52 85t108 33q84 0 87 -87q-2 -8 -8 -8q-46 55 -102 55q-42 0 -63.5 -16t-21.5 -41t31 -62
q16 -19 32.5 -37t35.5 -36q19 -17 36 -38t33 -44q31 -46 31 -86q0 -44 -52 -84q-50 -40 -116 -40q-35 0 -62 8.5t-46 22.5t-28.5 32t-9.5 37q0 60 57 86zM89 557q-14 9 -24 31q120 79 207 162q33 -17 42 -48q-111 -89 -225 -145z" />
    <glyph glyph-name="Scircumflex" unicode="&#x15c;" horiz-adv-x="587" 
d="M441 524q44 47 44 94q0 109 -141 109q-74 0 -108 -36q-33 -35 -33 -77q0 -43 32 -86.5t77 -80.5q33 -27 68.5 -55t64.5 -58t48 -61.5t19 -65.5q0 -84 -71 -152q-70 -67 -191 -67q-98 0 -171 52q-74 53 -74 156q0 24 11 54q6 15 17 31t27 31t37 28t46 21l11 -15
q-81 -59 -81 -157q0 -48 19.5 -82t49.5 -51q31 -16 58 -23t52 -7q90 0 140 44t50 119q0 35 -22.5 66.5t-56.5 62t-74 61t-74 63t-56.5 68.5t-22.5 78q0 79 60 127q61 48 150 48q80 0 135 -34q56 -35 56 -97q0 -34 -20.5 -68t-65.5 -53zM390 937q-45 -43 -82.5 -74.5
t-68.5 -52.5q-14 6 -19 24q55 51 96.5 94t69.5 81q9 3 18 0q51 -89 130 -175q-6 -14 -24 -24q-51 43 -120 127z" />
    <glyph glyph-name="scircumflex" unicode="&#x15d;" horiz-adv-x="365" 
d="M13 174q3 -1 5 -5q-12 -29 -12 -70q0 -32 24.5 -56.5t73.5 -24.5q43 0 71.5 22.5t28.5 64.5q0 16 -8 34t-21 36t-29.5 36t-34.5 33q-35 31 -63 72q-29 43 -29 78q0 52 52 85t108 33q84 0 87 -87q-2 -8 -8 -8q-46 55 -102 55q-42 0 -63.5 -16t-21.5 -41t31 -62
q16 -19 32.5 -37t35.5 -36q19 -17 36 -38t33 -44q31 -46 31 -86q0 -44 -52 -84q-50 -40 -116 -40q-35 0 -62 8.5t-46 22.5t-28.5 32t-9.5 37q0 60 57 86zM203 677q-45 -43 -82.5 -74.5t-68.5 -52.5q-14 6 -19 24q55 51 96.5 94t69.5 81q9 3 18 0q51 -89 130 -175
q-6 -14 -24 -24q-51 43 -120 127z" />
    <glyph glyph-name="Scedilla" unicode="&#x15e;" horiz-adv-x="587" 
d="M213 -63q31 -12 50 -36t19 -53q0 -71 -118 -149q-20 6 -24 27q85 52 85 112q0 24 -17 41.5t-50 24.5l43 88q-83 12 -140 63q-56 53 -56 141q0 24 11 54q6 15 17 31t27 31t37 28t46 21l11 -15q-81 -59 -81 -157q0 -48 19.5 -82t49.5 -51q31 -16 58 -23t52 -7q90 0 140 44
t50 119q0 35 -22.5 66.5t-56.5 62t-74 61t-74 63t-56.5 68.5t-22.5 78q0 79 60 127q61 48 150 48q80 0 135 -34q56 -35 56 -97q0 -34 -20.5 -68t-65.5 -53l-10 13q44 47 44 94q0 109 -141 109q-74 0 -108 -36q-33 -35 -33 -77q0 -43 32 -86.5t77 -80.5q33 -27 68.5 -55
t64.5 -58t48 -61.5t19 -65.5q0 -84 -71 -152q-70 -67 -191 -67q-15 0 -19 1z" />
    <glyph glyph-name="scedilla" unicode="&#x15f;" horiz-adv-x="365" 
d="M14 -274q85 52 85 112q0 24 -17 41.5t-50 24.5q17 34 27.5 55.5t14.5 30.5q-57 6 -87.5 35t-30.5 63q0 60 57 86q3 -1 5 -5q-12 -29 -12 -70q0 -32 24.5 -56.5t73.5 -24.5q43 0 71.5 22.5t28.5 64.5q0 16 -8 34t-21 36t-29.5 36t-34.5 33q-35 31 -63 72q-29 43 -29 78
q0 52 52 85t108 33q84 0 87 -87q-2 -8 -8 -8q-46 55 -102 55q-42 0 -63.5 -16t-21.5 -41t31 -62q16 -19 32.5 -37t35.5 -36q19 -17 36 -38t33 -44q31 -46 31 -86q0 -43 -51 -83q-50 -39 -115 -41q-4 -13 -8 -25.5t-9 -25.5q31 -12 50 -36t19 -53q0 -71 -118 -149
q-20 6 -24 27z" />
    <glyph glyph-name="Scaron" unicode="&#x160;" horiz-adv-x="587" 
d="M441 524q44 47 44 94q0 109 -141 109q-74 0 -108 -36q-33 -35 -33 -77q0 -43 32 -86.5t77 -80.5q33 -27 68.5 -55t64.5 -58t48 -61.5t19 -65.5q0 -84 -71 -152q-70 -67 -191 -67q-98 0 -171 52q-74 53 -74 156q0 24 11 54q6 15 17 31t27 31t37 28t46 21l11 -15
q-81 -59 -81 -157q0 -48 19.5 -82t49.5 -51q31 -16 58 -23t52 -7q90 0 140 44t50 119q0 35 -22.5 66.5t-56.5 62t-74 61t-74 63t-56.5 68.5t-22.5 78q0 79 60 127q61 48 150 48q80 0 135 -34q56 -35 56 -97q0 -34 -20.5 -68t-65.5 -53zM350 812q-51 89 -130 175q6 13 24 24
q20 -17 50 -48.5t69 -78.5q95 89 152 127q14 -7 19 -24q-55 -51 -96.5 -94t-69.5 -81q-11 -5 -18 0z" />
    <glyph glyph-name="scaron" unicode="&#x161;" horiz-adv-x="365" 
d="M13 174q3 -1 5 -5q-12 -29 -12 -70q0 -32 24.5 -56.5t73.5 -24.5q43 0 71.5 22.5t28.5 64.5q0 16 -8 34t-21 36t-29.5 36t-34.5 33q-35 31 -63 72q-29 43 -29 78q0 52 52 85t108 33q84 0 87 -87q-2 -8 -8 -8q-46 55 -102 55q-42 0 -63.5 -16t-21.5 -41t31 -62
q16 -19 32.5 -37t35.5 -36q19 -17 36 -38t33 -44q31 -46 31 -86q0 -44 -52 -84q-50 -40 -116 -40q-35 0 -62 8.5t-46 22.5t-28.5 32t-9.5 37q0 60 57 86zM185 552q-51 89 -130 175q6 13 24 24q20 -17 50 -48.5t69 -78.5q95 89 152 127q14 -7 19 -24q-55 -51 -96.5 -94
t-69.5 -81q-11 -5 -18 0z" />
    <glyph glyph-name="Tcommaaccent" unicode="&#x162;" horiz-adv-x="693" 
d="M197 -11q-58 4 -93 40t-35 85q0 38 22.5 74.5t71.5 54.5l7 -9q-26 -28 -37.5 -51.5t-11.5 -59.5q0 -43 29 -69t80 -26q44 0 68.5 23.5t41.5 58.5q6 10 10.5 24.5t8 30t6.5 30.5t5 27q4 23 9 62l9 57q2 8 4 20t4 29l8 51q1 9 3.5 22t5.5 26.5t6 26t6 21.5q6 18 15 40.5
t19 35.5q11 14 26 25.5t32 16.5l6 -5q-5 -9 -10 -22.5t-9 -32.5t-8.5 -48t-10.5 -70t-11.5 -75.5t-10.5 -63.5q-15 -80 -44 -156q-28 -72 -80 -130q-51 -57 -111 -63l-18 -52q31 -12 50 -36t19 -53q0 -71 -118 -149q-20 6 -24 27q85 52 85 112q0 24 -17 41.5t-50 24.5z
M248 436q-37 -52 -99 -52q-57 0 -103 39t-46 107q0 103 86 168q87 66 231 66q76 0 211 -30t159 -30q30 0 48 8.5t36 31.5q8 -3 12 -10q-34 -50 -61 -68.5t-63 -18.5q-21 0 -157 33q-135 34 -211 34q-250 0 -250 -160q0 -54 35.5 -88.5t101.5 -34.5q32 0 65 14z" />
    <glyph glyph-name="tcommaaccent" unicode="&#x163;" horiz-adv-x="303" 
d="M109 -12l-18 -51q31 -12 50 -36t19 -53q0 -71 -118 -149q-20 6 -24 27q85 52 85 112q0 24 -17 41.5t-50 24.5q11 21 22 43.5t22 46.5q-78 24 -78 152q0 56 44 315q-23 1 -41 2t-30 3q-8 20 3 34q20 -2 38.5 -2.5t35.5 0.5q19 110 19 157q29 22 69 26q0 -24 -5.5 -69
t-16.5 -111q32 2 65.5 6t69.5 11q6 -9 4.5 -23.5t-7.5 -23.5q-41 -5 -75.5 -7t-63.5 -3l-12 -70l-13 -74l-10 -62q-5 -35 -7.5 -60.5t-2.5 -43.5q0 -116 82 -116q53 0 102 70q51 72 67 154l33 -8q-30 -109 -92 -186t-141 -77h-8z" />
    <glyph glyph-name="Tcaron" unicode="&#x164;" horiz-adv-x="693" 
d="M248 436q-37 -52 -99 -52q-57 0 -103 39t-46 107q0 103 86 168q87 66 231 66q76 0 211 -30t159 -30q30 0 48 8.5t36 31.5q8 -3 12 -10q-34 -50 -61 -68.5t-63 -18.5q-21 0 -157 33q-135 34 -211 34q-250 0 -250 -160q0 -54 35.5 -88.5t101.5 -34.5q32 0 65 14zM170 234
q-26 -28 -37.5 -51.5t-11.5 -59.5q0 -43 29 -69t80 -26q44 0 68.5 23.5t41.5 58.5q6 10 10.5 24.5t8 30t6.5 30.5t5 27q4 23 9 62l9 57q2 8 4 20t4 29l8 51q1 9 3.5 22t5.5 26.5t6 26t6 21.5q6 18 15 40.5t19 35.5q11 14 26 25.5t32 16.5l6 -5q-5 -9 -10 -22.5t-9 -32.5
t-8.5 -48t-10.5 -70t-11.5 -75.5t-10.5 -63.5q-11 -63 -32 -121.5t-52 -112.5q-30 -52 -73.5 -84t-92.5 -32q-65 0 -105 37q-39 37 -39 89q0 38 22.5 74.5t71.5 54.5zM495 812q-51 89 -130 175q6 13 24 24q20 -17 50 -48.5t69 -78.5q95 89 152 127q14 -7 19 -24
q-55 -51 -96.5 -94t-69.5 -81q-11 -5 -18 0z" />
    <glyph glyph-name="tcaron" unicode="&#x165;" horiz-adv-x="303" 
d="M170 578q60 38 73 95q14 58 -23 104q16 28 52 33q22 -21 29 -53.5t-2.5 -68.5t-36 -72.5t-69.5 -64.5q-19 5 -23 27zM350 251q-30 -109 -92 -186t-141 -77q-60 0 -87.5 43t-27.5 115q0 56 44 315q-23 1 -41 2t-30 3q-8 20 3 34q20 -2 38.5 -2.5t35.5 0.5q19 110 19 157
q29 22 69 26q0 -24 -5.5 -69t-16.5 -111q32 2 65.5 6t69.5 11q6 -9 4.5 -23.5t-7.5 -23.5q-41 -5 -75.5 -7t-63.5 -3l-12 -70l-13 -74l-10 -62q-5 -35 -7.5 -60.5t-2.5 -43.5q0 -116 82 -116q53 0 102 70q51 72 67 154z" />
    <glyph glyph-name="Tbar" unicode="&#x166;" horiz-adv-x="693" 
d="M248 436q-37 -52 -99 -52q-57 0 -103 39t-46 107q0 103 86 168q87 66 231 66q76 0 211 -30t159 -30q30 0 48 8.5t36 31.5q8 -3 12 -10q-34 -50 -61 -68.5t-63 -18.5q-21 0 -157 33q-135 34 -211 34q-250 0 -250 -160q0 -54 35.5 -88.5t101.5 -34.5q32 0 65 14zM463 338
q-11 -63 -32 -121.5t-52 -112.5q-30 -52 -73.5 -84t-92.5 -32q-65 0 -105 37q-39 37 -39 89q0 38 22.5 74.5t71.5 54.5l7 -9q-26 -28 -37.5 -51.5t-11.5 -59.5q0 -43 29 -69t80 -26q44 0 68.5 23.5t41.5 58.5q6 10 10.5 24.5t8 30t6.5 30.5t5 27q4 23 9 62l9 57l1 10
q-47 -2 -95 0q-3 12 -3 27q0 14 3 28l103 -6l12 69q5 27 15 62q10 36 21 58t30 41t42 25l6 -5q-7 -13 -13.5 -38.5t-10.5 -50.5q-5 -26 -12 -76q-4 -26 -7.5 -48t-6.5 -39q72 -2 143 0q3 -9 3 -19q0 -12 -3 -19q-26 -2 -63 -4t-88 -4z" />
    <glyph glyph-name="tbar" unicode="&#x167;" horiz-adv-x="303" 
d="M350 251q-30 -109 -92 -186t-141 -77q-60 0 -87.5 43t-27.5 115q0 54 18 161q-20 1 -36 2t-27 2q-8 20 3 34q11 -1 27 -1.5t38 -0.5l21 118q-23 1 -41 2t-30 3q-8 20 3 34q20 -2 38.5 -2.5t35.5 0.5q19 110 19 157q29 22 69 26q0 -24 -5.5 -69t-16.5 -111q32 2 65.5 6
t69.5 11q6 -9 4.5 -23.5t-7.5 -23.5q-41 -5 -75.5 -7t-63.5 -3l-20 -116q72 4 144 18q6 -9 4.5 -23.5t-7.5 -23.5q-42 -5 -78.5 -7.5t-69.5 -2.5q-18 -104 -18 -155q0 -116 82 -116q53 0 102 70q51 72 67 154z" />
    <glyph glyph-name="Utilde" unicode="&#x168;" horiz-adv-x="1006" 
d="M1056 255q-10 -52 -25 -95.5t-39 -85.5q-23 -40 -58 -63.5t-78 -23.5q-57 0 -91 29.5t-45 77.5q-10 49 -9.5 97t10.5 99l7 40q-23 -67 -49 -123.5t-60 -108.5t-76 -81.5t-87 -29.5q-44 1 -73 15.5t-46.5 38.5t-25 55t-6.5 65q0 79 39 231q39 151 39 211q0 72 -41.5 106
t-110.5 34q-25 0 -57.5 -9t-62 -30.5t-49.5 -57.5t-20 -89q0 -69 63 -105q64 -34 139 -6l5 -10q-28 -34 -71 -44t-83 2q-39 13 -67 51.5t-28 95.5q0 60 24 105t61 75t81.5 44.5t85.5 14.5q48 0 86.5 -13.5t65.5 -38t41 -58.5t14 -76q0 -31 -40 -194q-40 -161 -40 -252
q0 -119 82 -119q47 0 91 42q46 44 77 105q33 63 59 140q28 78 43.5 141t24.5 115q16 99 30 195q51 15 75 -5q-17 -123 -75 -471q-7 -44 -10.5 -76t-2.5 -71q1 -54 22 -85t72 -34q35 0 63.5 24.5t46.5 63.5q19 40 29.5 77t16.5 73zM757 874q-27 -72 -85 -72q-9 0 -23.5 6
t-31.5 18q-17 11 -29 17.5t-20 6.5q-17 0 -28 -10.5t-25 -38.5q-9 1 -13.5 5t-10.5 12q29 74 86 74q22 0 56 -25q17 -10 29 -16.5t19 -6.5q17 0 28.5 11t25.5 37q9 0 12.5 -3.5t8.5 -9.5z" />
    <glyph glyph-name="utilde" unicode="&#x169;" horiz-adv-x="600" 
d="M647 251q-30 -109 -92 -186t-141 -77q-60 0 -88.5 41.5t-29.5 110.5q-71 -152 -179 -152q-60 0 -87.5 43t-27.5 115q0 29 6 73t17 103t17 98.5t6 60.5q40 23 69 26q0 -28 -6.5 -71.5t-19.5 -104.5q-25 -119 -25 -180q0 -116 82 -116q56 0 97 72t64 174q2 16 5.5 36.5
t8.5 46.5q10 52 15 84t5 48q29 18 69 4q0 -17 -6 -58t-19 -105q-24 -128 -24 -186q0 -116 82 -116q53 0 102 70q51 72 67 154zM386 638q-27 -72 -85 -72q-9 0 -23.5 6t-31.5 18q-17 11 -29 17.5t-20 6.5q-17 0 -28 -10.5t-25 -38.5q-9 1 -13.5 5t-10.5 12q29 74 86 74
q22 0 56 -25q17 -10 29 -16.5t19 -6.5q17 0 28.5 11t25.5 37q9 0 12.5 -3.5t8.5 -9.5z" />
    <glyph glyph-name="Umacron" unicode="&#x16a;" horiz-adv-x="1006" 
d="M1056 255q-10 -52 -25 -95.5t-39 -85.5q-23 -40 -58 -63.5t-78 -23.5q-57 0 -91 29.5t-45 77.5q-10 49 -9.5 97t10.5 99l7 40q-23 -67 -49 -123.5t-60 -108.5t-76 -81.5t-87 -29.5q-44 1 -73 15.5t-46.5 38.5t-25 55t-6.5 65q0 79 39 231q39 151 39 211q0 72 -41.5 106
t-110.5 34q-25 0 -57.5 -9t-62 -30.5t-49.5 -57.5t-20 -89q0 -69 63 -105q64 -34 139 -6l5 -10q-28 -34 -71 -44t-83 2q-39 13 -67 51.5t-28 95.5q0 60 24 105t61 75t81.5 44.5t85.5 14.5q48 0 86.5 -13.5t65.5 -38t41 -58.5t14 -76q0 -31 -40 -194q-40 -161 -40 -252
q0 -119 82 -119q47 0 91 42q46 44 77 105q33 63 59 140q28 78 43.5 141t24.5 115q16 99 30 195q51 15 75 -5q-17 -123 -75 -471q-7 -44 -10.5 -76t-2.5 -71q1 -54 22 -85t72 -34q35 0 63.5 24.5t46.5 63.5q19 40 29.5 77t16.5 73zM462 865q-3 12 -3 27q0 14 3 28
q75 -5 154.5 -7t167.5 -1q3 -9 3 -19q0 -12 -3 -19q-162 -10 -322 -9z" />
    <glyph glyph-name="umacron" unicode="&#x16b;" horiz-adv-x="600" 
d="M647 251q-30 -109 -92 -186t-141 -77q-60 0 -88.5 41.5t-29.5 110.5q-71 -152 -179 -152q-60 0 -87.5 43t-27.5 115q0 29 6 73t17 103t17 98.5t6 60.5q40 23 69 26q0 -28 -6.5 -71.5t-19.5 -104.5q-25 -119 -25 -180q0 -116 82 -116q56 0 97 72t64 174q2 16 5.5 36.5
t8.5 46.5q10 52 15 84t5 48q29 18 69 4q0 -17 -6 -58t-19 -105q-24 -128 -24 -186q0 -116 82 -116q53 0 102 70q51 72 67 154zM83 665q-3 12 -3 27q0 14 3 28q75 -5 154.5 -7t167.5 -1q3 -9 3 -19q0 -12 -3 -19q-162 -10 -322 -9z" />
    <glyph glyph-name="Ubreve" unicode="&#x16c;" horiz-adv-x="1006" 
d="M1056 255q-10 -52 -25 -95.5t-39 -85.5q-23 -40 -58 -63.5t-78 -23.5q-57 0 -91 29.5t-45 77.5q-10 49 -9.5 97t10.5 99l7 40q-23 -67 -49 -123.5t-60 -108.5t-76 -81.5t-87 -29.5q-44 1 -73 15.5t-46.5 38.5t-25 55t-6.5 65q0 79 39 231q39 151 39 211q0 72 -41.5 106
t-110.5 34q-25 0 -57.5 -9t-62 -30.5t-49.5 -57.5t-20 -89q0 -69 63 -105q64 -34 139 -6l5 -10q-28 -34 -71 -44t-83 2q-39 13 -67 51.5t-28 95.5q0 60 24 105t61 75t81.5 44.5t85.5 14.5q48 0 86.5 -13.5t65.5 -38t41 -58.5t14 -76q0 -31 -40 -194q-40 -161 -40 -252
q0 -119 82 -119q47 0 91 42q46 44 77 105q33 63 59 140q28 78 43.5 141t24.5 115q16 99 30 195q51 15 75 -5q-17 -123 -75 -471q-7 -44 -10.5 -76t-2.5 -71q1 -54 22 -85t72 -34q35 0 63.5 24.5t46.5 63.5q19 40 29.5 77t16.5 73zM463 995q24 14 57 7q0 -87 28 -115
q29 -29 74 -29q79 0 130 144q18 4 31 -10q-68 -182 -187 -182q-52 0 -93 50q-40 50 -40 135z" />
    <glyph glyph-name="ubreve" unicode="&#x16d;" horiz-adv-x="600" 
d="M647 251q-30 -109 -92 -186t-141 -77q-60 0 -88.5 41.5t-29.5 110.5q-71 -152 -179 -152q-60 0 -87.5 43t-27.5 115q0 29 6 73t17 103t17 98.5t6 60.5q40 23 69 26q0 -28 -6.5 -71.5t-19.5 -104.5q-25 -119 -25 -180q0 -116 82 -116q56 0 97 72t64 174q2 16 5.5 36.5
t8.5 46.5q10 52 15 84t5 48q29 18 69 4q0 -17 -6 -58t-19 -105q-24 -128 -24 -186q0 -116 82 -116q53 0 102 70q51 72 67 154zM84 736q24 14 57 7q0 -87 28 -115q29 -29 74 -29q79 0 130 144q18 4 31 -10q-68 -182 -187 -182q-52 0 -93 50q-40 50 -40 135z" />
    <glyph glyph-name="Uring" unicode="&#x16e;" horiz-adv-x="1006" 
d="M1056 255q-10 -52 -25 -95.5t-39 -85.5q-23 -40 -58 -63.5t-78 -23.5q-57 0 -91 29.5t-45 77.5q-10 49 -9.5 97t10.5 99l7 40q-23 -67 -49 -123.5t-60 -108.5t-76 -81.5t-87 -29.5q-44 1 -73 15.5t-46.5 38.5t-25 55t-6.5 65q0 79 39 231q39 151 39 211q0 72 -41.5 106
t-110.5 34q-25 0 -57.5 -9t-62 -30.5t-49.5 -57.5t-20 -89q0 -69 63 -105q64 -34 139 -6l5 -10q-28 -34 -71 -44t-83 2q-39 13 -67 51.5t-28 95.5q0 60 24 105t61 75t81.5 44.5t85.5 14.5q48 0 86.5 -13.5t65.5 -38t41 -58.5t14 -76q0 -31 -40 -194q-40 -161 -40 -252
q0 -119 82 -119q47 0 91 42q46 44 77 105q33 63 59 140q28 78 43.5 141t24.5 115q16 99 30 195q51 15 75 -5q-17 -123 -75 -471q-7 -44 -10.5 -76t-2.5 -71q1 -54 22 -85t72 -34q35 0 63.5 24.5t46.5 63.5q19 40 29.5 77t16.5 73zM612 800q28 0 49.5 20.5t21.5 59.5
q0 29 -13 44.5t-35 15.5q-28 0 -50 -21t-22 -59q0 -60 49 -60zM601 768q-35 0 -56.5 23.5t-21.5 57.5q0 48 35 86q36 37 84 37q38 0 59.5 -23t21.5 -58q0 -49 -35 -87q-35 -36 -87 -36z" />
    <glyph glyph-name="uring" unicode="&#x16f;" horiz-adv-x="600" 
d="M647 251q-30 -109 -92 -186t-141 -77q-60 0 -88.5 41.5t-29.5 110.5q-71 -152 -179 -152q-60 0 -87.5 43t-27.5 115q0 29 6 73t17 103t17 98.5t6 60.5q40 23 69 26q0 -28 -6.5 -71.5t-19.5 -104.5q-25 -119 -25 -180q0 -116 82 -116q56 0 97 72t64 174q2 16 5.5 36.5
t8.5 46.5q10 52 15 84t5 48q29 18 69 4q0 -17 -6 -58t-19 -105q-24 -128 -24 -186q0 -116 82 -116q53 0 102 70q51 72 67 154zM233 580q28 0 49.5 20.5t21.5 59.5q0 29 -13 44.5t-35 15.5q-28 0 -50 -21t-22 -59q0 -60 49 -60zM222 548q-35 0 -56.5 23.5t-21.5 57.5
q0 48 35 86q36 37 84 37q38 0 59.5 -23t21.5 -58q0 -49 -35 -87q-35 -36 -87 -36z" />
    <glyph glyph-name="Uhungarumlaut" unicode="&#x170;" horiz-adv-x="1006" 
d="M1056 255q-10 -52 -25 -95.5t-39 -85.5q-23 -40 -58 -63.5t-78 -23.5q-57 0 -91 29.5t-45 77.5q-10 49 -9.5 97t10.5 99l7 40q-23 -67 -49 -123.5t-60 -108.5t-76 -81.5t-87 -29.5q-44 1 -73 15.5t-46.5 38.5t-25 55t-6.5 65q0 79 39 231q39 151 39 211q0 72 -41.5 106
t-110.5 34q-25 0 -57.5 -9t-62 -30.5t-49.5 -57.5t-20 -89q0 -69 63 -105q64 -34 139 -6l5 -10q-28 -34 -71 -44t-83 2q-39 13 -67 51.5t-28 95.5q0 60 24 105t61 75t81.5 44.5t85.5 14.5q48 0 86.5 -13.5t65.5 -38t41 -58.5t14 -76q0 -31 -40 -194q-40 -161 -40 -252
q0 -119 82 -119q47 0 91 42q46 44 77 105q33 63 59 140q28 78 43.5 141t24.5 115q16 99 30 195q51 15 75 -5q-17 -123 -75 -471q-7 -44 -10.5 -76t-2.5 -71q1 -54 22 -85t72 -34q35 0 63.5 24.5t46.5 63.5q19 40 29.5 77t16.5 73zM447 810q-12 8 -23 31q105 82 177 162
q32 -17 41 -48q-98 -90 -195 -145zM628 810q-12 8 -23 31q105 82 177 162q32 -17 41 -48q-98 -90 -195 -145z" />
    <glyph glyph-name="uhungarumlaut" unicode="&#x171;" horiz-adv-x="600" 
d="M647 251q-30 -109 -92 -186t-141 -77q-60 0 -88.5 41.5t-29.5 110.5q-71 -152 -179 -152q-60 0 -87.5 43t-27.5 115q0 29 6 73t17 103t17 98.5t6 60.5q40 23 69 26q0 -28 -6.5 -71.5t-19.5 -104.5q-25 -119 -25 -180q0 -116 82 -116q56 0 97 72t64 174q2 16 5.5 36.5
t8.5 46.5q10 52 15 84t5 48q29 18 69 4q0 -17 -6 -58t-19 -105q-24 -128 -24 -186q0 -116 82 -116q53 0 102 70q51 72 67 154zM123 557q-12 8 -23 31q105 82 177 162q32 -17 41 -48q-98 -90 -195 -145zM304 557q-12 8 -23 31q105 82 177 162q32 -17 41 -48
q-98 -90 -195 -145z" />
    <glyph glyph-name="Uogonek" unicode="&#x172;" horiz-adv-x="1006" 
d="M1056 255q-43 -217 -151 -259q-113 -65 -113 -179q0 -34 21 -54t50 -20q41 0 64 38q6 -2 11.5 -9t5.5 -16q-48 -56 -114 -56q-49 0 -75.5 27.5t-26.5 70.5q0 57 33.5 107t88.5 82q-54 2 -87 31.5t-43 77.5t-9.5 95.5t10.5 98.5l7 40q-23 -67 -49 -123.5t-60 -108.5
t-76 -81.5t-87 -29.5q-44 1 -73 15.5t-46.5 38.5t-25 55t-6.5 65q0 79 39 231q39 151 39 211q0 72 -41.5 106t-110.5 34q-25 0 -57.5 -9t-62 -30.5t-49.5 -57.5t-20 -89q0 -69 63 -105q64 -34 139 -6l5 -10q-28 -34 -71 -44t-83 2q-39 13 -67 51.5t-28 95.5q0 60 24 105
t61 75t81.5 44.5t85.5 14.5q48 0 86.5 -13.5t65.5 -38t41 -58.5t14 -76q0 -31 -40 -194q-40 -161 -40 -252q0 -119 82 -119q47 0 91 42q46 44 77 105q33 63 59 140q28 78 43.5 141t24.5 115q16 99 30 195q51 15 75 -5q-17 -123 -75 -471q-7 -44 -10.5 -76t-2.5 -71
q1 -54 22 -85t72 -34q35 0 63.5 24.5t46.5 63.5q19 40 29.5 77t16.5 73z" />
    <glyph glyph-name="uogonek" unicode="&#x173;" horiz-adv-x="600" 
d="M647 251q-23 -86 -71 -158q-46 -70 -106 -94q-119 -65 -119 -182q0 -34 21 -54t50 -20q41 0 64 38q6 -2 11.5 -9t5.5 -16q-48 -56 -114 -56q-49 0 -75.5 27.5t-26.5 70.5q0 57 34 108t89 82q-57 1 -85 42t-29 110q-71 -152 -179 -152q-60 0 -87.5 43t-27.5 115q0 29 6 73
t17 103t17 98.5t6 60.5q40 23 69 26q0 -28 -6.5 -71.5t-19.5 -104.5q-25 -119 -25 -180q0 -116 82 -116q56 0 97 72t64 174q2 16 5.5 36.5t8.5 46.5q10 52 15 84t5 48q29 18 69 4q0 -17 -6 -58t-19 -105q-24 -128 -24 -186q0 -116 82 -116q53 0 102 70q51 72 67 154z" />
    <glyph glyph-name="Wcircumflex" unicode="&#x174;" horiz-adv-x="1210" 
d="M249 436q-28 -34 -71 -44t-83 2q-39 13 -67 51.5t-28 95.5q0 60 24 105t61 75t81.5 44.5t85.5 14.5q48 0 86.5 -13.5t65.5 -38t41 -58.5t14 -76q0 -31 -40 -194q-40 -161 -40 -252q0 -119 82 -119q63 0 120 80q57 79 89 198q5 43 15 98l12 63q9 18 28.5 24.5t46.5 -4.5
q-1 -1 -10 -50l-13 -76q-2 -15 -5 -34.5t-5 -44.5q-2 -24 -3.5 -45.5t-1.5 -40.5q0 -168 86 -168q68 0 130 74q63 75 97 180q35 108 35 207q0 155 -87 230q2 11 24 11q31 -12 54 -35t37.5 -54t21.5 -68t7 -77q0 -107 -46 -224q-44 -117 -122 -202q-77 -84 -156 -84
q-146 0 -152 198q-42 -91 -94.5 -144.5t-112.5 -53.5q-83 0 -117 49t-34 125q0 79 39 231q39 151 39 211q0 72 -41.5 106t-110.5 34q-25 0 -57.5 -9t-62 -30.5t-49.5 -57.5t-20 -89q0 -69 63 -105q64 -34 139 -6zM771 937q-45 -43 -82.5 -74.5t-68.5 -52.5q-14 6 -19 24
q55 51 96.5 94t69.5 81q9 3 18 0q51 -89 130 -175q-6 -14 -24 -24q-51 43 -120 127z" />
    <glyph glyph-name="wcircumflex" unicode="&#x175;" horiz-adv-x="744" 
d="M473 476q28 31 75 31q40 1 64.5 -21t34 -59.5t6.5 -85t-18 -96.5q-12 -48 -34.5 -94.5t-55 -82.5t-73 -58t-87.5 -22q-12 0 -26.5 3.5t-29.5 10t-29.5 17t-25.5 24.5q-67 -55 -146 -55q-63 0 -94.5 43.5t-31.5 113.5q0 60 24 177t24 159q19 11 36 17.5t33 8.5
q0 -54 -26 -179q-26 -124 -26 -182q0 -111 78 -111q58 0 107 40q-30 57 -30 127q0 95 41 163t100 68q33 0 50.5 -20.5t17.5 -57.5q0 -57 -31 -132q-30 -77 -81 -137q31 -51 89 -51q76 0 136 84q61 85 61 194q0 154 -130 154zM301 126q35 46 55.5 103.5t20.5 111.5
q0 58 -28 58q-29 0 -44 -67t-15 -117t11 -89zM385 677q-45 -43 -82.5 -74.5t-68.5 -52.5q-14 6 -19 24q55 51 96.5 94t69.5 81q9 3 18 0q51 -89 130 -175q-6 -14 -24 -24q-51 43 -120 127z" />
    <glyph glyph-name="Ycircumflex" unicode="&#x176;" horiz-adv-x="931" 
d="M730 336q-23 -64 -49.5 -118t-60.5 -105q-34 -49 -76.5 -77t-87.5 -28q-83 0 -117 49t-34 125q0 68 39 214q39 145 39 207q0 72 -41.5 106t-110.5 34q-25 0 -57.5 -9t-62 -30.5t-49.5 -57.5t-20 -89q0 -69 63 -105q64 -34 139 -6l5 -10q-28 -34 -71 -44t-83 2
q-39 13 -67 51.5t-28 95.5q0 60 24 105t61 75t81.5 44.5t85.5 14.5q48 0 86.5 -13.5t65.5 -38t41 -58.5t14 -76q0 -32 -40 -191q-40 -157 -40 -234q0 -119 82 -119q47 0 91 41q45 40 77 100q16 30 30.5 63.5t28.5 71.5q28 75 43.5 135t24.5 111q16 99 30 195q51 15 75 -5
q-51 -347 -111 -691q-11 -63 -32 -122t-52 -111q-30 -54 -73.5 -85.5t-92.5 -31.5q-65 0 -105 37q-39 37 -39 89q0 38 22.5 74.5t71.5 54.5l7 -9q-26 -28 -37.5 -51.5t-11.5 -59.5q0 -43 29 -69t80 -26q25 0 46.5 10t35.5 25q15 15 28 40t20 46q7 18 15 52q4 16 6 28.5
t4 22.5l7 49q2 16 4 26l3 15zM636 937q-45 -43 -82.5 -74.5t-68.5 -52.5q-14 6 -19 24q55 51 96.5 94t69.5 81q9 3 18 0q51 -89 130 -175q-6 -14 -24 -24q-51 43 -120 127z" />
    <glyph glyph-name="ycircumflex" unicode="&#x177;" horiz-adv-x="491" 
d="M22 -7q-33 -51 -33 -114q0 -30 10 -53t27.5 -38.5t40 -23t47.5 -7.5q31 0 55 15t39 37q15 20 28 59q6 19 10.5 36t8.5 35t7.5 38t7.5 46q5 36 9.5 61t6.5 39q-68 -125 -168 -125q-60 0 -87.5 40.5t-27.5 107.5q0 29 6 73t17 103t17 98.5t6 60.5q40 23 69 26
q0 -28 -6.5 -71.5t-19.5 -104.5q-25 -119 -25 -180q0 -106 82 -106q32 0 59 24.5t48 62.5t36 84t23 90l31 189q29 20 69 5q-23 -131 -42 -247t-35 -221q-8 -43 -18 -81t-30 -83q-27 -63 -75 -104.5t-121 -43.5q-73 0 -118 42q-45 40 -45 96q0 83 81 139zM258 677
q-45 -43 -82.5 -74.5t-68.5 -52.5q-14 6 -19 24q55 51 96.5 94t69.5 81q9 3 18 0q51 -89 130 -175q-6 -14 -24 -24q-51 43 -120 127z" />
    <glyph glyph-name="Ydieresis" unicode="&#x178;" horiz-adv-x="931" 
d="M730 336q-23 -64 -49.5 -118t-60.5 -105q-34 -49 -76.5 -77t-87.5 -28q-83 0 -117 49t-34 125q0 68 39 214q39 145 39 207q0 72 -41.5 106t-110.5 34q-25 0 -57.5 -9t-62 -30.5t-49.5 -57.5t-20 -89q0 -69 63 -105q64 -34 139 -6l5 -10q-28 -34 -71 -44t-83 2
q-39 13 -67 51.5t-28 95.5q0 60 24 105t61 75t81.5 44.5t85.5 14.5q48 0 86.5 -13.5t65.5 -38t41 -58.5t14 -76q0 -32 -40 -191q-40 -157 -40 -234q0 -119 82 -119q47 0 91 41q45 40 77 100q16 30 30.5 63.5t28.5 71.5q28 75 43.5 135t24.5 111q16 99 30 195q51 15 75 -5
q-51 -347 -111 -691q-11 -63 -32 -122t-52 -111q-30 -54 -73.5 -85.5t-92.5 -31.5q-65 0 -105 37q-39 37 -39 89q0 38 22.5 74.5t71.5 54.5l7 -9q-26 -28 -37.5 -51.5t-11.5 -59.5q0 -43 29 -69t80 -26q25 0 46.5 10t35.5 25q15 15 28 40t20 46q7 18 15 52q4 16 6 28.5
t4 22.5l7 49q2 16 4 26l3 15zM567 825q-15 -15 -36 -15t-37 15q-15 16 -15 37t15 36q16 16 37 16t36 -16q16 -15 16 -36t-16 -37zM752 825q-15 -15 -36 -15t-37 15q-15 16 -15 37t15 36q16 16 37 16t36 -16q16 -15 16 -36t-16 -37z" />
    <glyph glyph-name="Zacute" unicode="&#x179;" horiz-adv-x="772" 
d="M872 -109q-59 -96 -133 -96q-42 0 -113 44q-69 42 -170 118q-50 37 -88.5 64.5t-67.5 44.5q-39 -36 -86.5 -57t-86.5 -21q-26 0 -49 6.5t-40 18t-27.5 28t-10.5 36.5q0 41 40 75q40 36 99 36q62 0 159 -47q26 36 59 91.5t71 130.5q-67 -11 -133 -30q-12 19 0 35
q76 25 156 39q45 88 77.5 147.5t54.5 90.5q-42 11 -152 57q-112 47 -163 47q-57 0 -85.5 -31.5t-28.5 -82.5q0 -66 32.5 -107t83.5 -53q-2 -8 -7 -15q-81 15 -121.5 59.5t-40.5 101.5q0 65 53 115q55 50 145 50q41 0 88 -12q45 -10 77 -23q16 -5 36 -14t45 -20
q26 -11 43 -18t27 -11q64 76 123 76q35 0 54 -15t19 -37q0 -15 -8.5 -30t-23.5 -26.5t-36 -19t-46 -7.5q-41 0 -73 7q-13 -21 -40 -76t-69 -145q58 6 152 6q10 -8 9.5 -21.5t-6.5 -22.5q-109 0 -176 -6q-42 -88 -79 -151t-70 -105q32 -19 73 -46t91 -62
q100 -72 166.5 -113.5t101.5 -41.5q43 0 79 54q8 -5 16 -15zM256 91q-83 44 -142 44q-75 0 -75 -44q0 -26 23 -45.5t68 -19.5q61 0 126 65zM650 675q39 -13 69 -13q63 0 63 43q0 13 -11.5 22t-32.5 9q-43 0 -88 -61zM441 810q-14 9 -24 31q120 79 207 162q33 -17 42 -48
q-111 -89 -225 -145z" />
    <glyph glyph-name="zacute" unicode="&#x17a;" horiz-adv-x="441" 
d="M2 -3q-30 -60 -30 -119q0 -65 43 -93q44 -29 96 -29q90 0 140 59t50 136q0 167 -222 193q-6 27 12 45q68 16 108.5 34.5t61.5 37.5t27 38.5t6 36.5q0 47 -61 69q-14 5 -50.5 14.5t-97.5 23.5q-10 -88 -39 -193q-2 -3 -7 -4t-11 0t-10.5 4t-4.5 7q14 48 24.5 96t15.5 98
q-50 17 -50 67q0 25 14 40.5t33 15.5q41 -13 40 -91l48 -9q33 -6 54 -10.5t50 -12.5q29 -7 48 -16t37 -22q36 -24 36 -67q0 -51 -44 -94.5t-147 -71.5q54 -12 92.5 -32.5t62.5 -48t35.5 -60t11.5 -68.5q0 -92 -74 -172q-73 -79 -199 -79q-90 0 -139 43t-49 101q0 80 79 137z
M120 557q-14 9 -24 31q120 79 207 162q33 -17 42 -48q-111 -89 -225 -145z" />
    <glyph glyph-name="Zdotaccent" unicode="&#x17b;" horiz-adv-x="772" 
d="M872 -109q-59 -96 -133 -96q-42 0 -113 44q-69 42 -170 118q-50 37 -88.5 64.5t-67.5 44.5q-39 -36 -86.5 -57t-86.5 -21q-26 0 -49 6.5t-40 18t-27.5 28t-10.5 36.5q0 41 40 75q40 36 99 36q62 0 159 -47q26 36 59 91.5t71 130.5q-67 -11 -133 -30q-12 19 0 35
q76 25 156 39q45 88 77.5 147.5t54.5 90.5q-42 11 -152 57q-112 47 -163 47q-57 0 -85.5 -31.5t-28.5 -82.5q0 -66 32.5 -107t83.5 -53q-2 -8 -7 -15q-81 15 -121.5 59.5t-40.5 101.5q0 65 53 115q55 50 145 50q41 0 88 -12q45 -10 77 -23q16 -5 36 -14t45 -20
q26 -11 43 -18t27 -11q64 76 123 76q35 0 54 -15t19 -37q0 -15 -8.5 -30t-23.5 -26.5t-36 -19t-46 -7.5q-41 0 -73 7q-13 -21 -40 -76t-69 -145q58 6 152 6q10 -8 9.5 -21.5t-6.5 -22.5q-109 0 -176 -6q-42 -88 -79 -151t-70 -105q32 -19 73 -46t91 -62
q100 -72 166.5 -113.5t101.5 -41.5q43 0 79 54q8 -5 16 -15zM256 91q-83 44 -142 44q-75 0 -75 -44q0 -26 23 -45.5t68 -19.5q61 0 126 65zM650 675q39 -13 69 -13q63 0 63 43q0 13 -11.5 22t-32.5 9q-43 0 -88 -61zM577 825q-15 -15 -36 -15t-37 15q-15 16 -15 37t15 36
q16 16 37 16t36 -16q16 -15 16 -36t-16 -37z" />
    <glyph glyph-name="zdotaccent" unicode="&#x17c;" horiz-adv-x="441" 
d="M2 -3q-30 -60 -30 -119q0 -65 43 -93q44 -29 96 -29q90 0 140 59t50 136q0 167 -222 193q-6 27 12 45q68 16 108.5 34.5t61.5 37.5t27 38.5t6 36.5q0 47 -61 69q-14 5 -50.5 14.5t-97.5 23.5q-10 -88 -39 -193q-2 -3 -7 -4t-11 0t-10.5 4t-4.5 7q14 48 24.5 96t15.5 98
q-50 17 -50 67q0 25 14 40.5t33 15.5q41 -13 40 -91l48 -9q33 -6 54 -10.5t50 -12.5q29 -7 48 -16t37 -22q36 -24 36 -67q0 -51 -44 -94.5t-147 -71.5q54 -12 92.5 -32.5t62.5 -48t35.5 -60t11.5 -68.5q0 -92 -74 -172q-73 -79 -199 -79q-90 0 -139 43t-49 101q0 80 79 137z
M256 657q-15 -15 -36 -15t-37 15q-15 16 -15 37t15 36q16 16 37 16t36 -16q16 -15 16 -36t-16 -37z" />
    <glyph glyph-name="Zcaron" unicode="&#x17d;" horiz-adv-x="772" 
d="M872 -109q-59 -96 -133 -96q-42 0 -113 44q-69 42 -170 118q-50 37 -88.5 64.5t-67.5 44.5q-39 -36 -86.5 -57t-86.5 -21q-26 0 -49 6.5t-40 18t-27.5 28t-10.5 36.5q0 41 40 75q40 36 99 36q62 0 159 -47q26 36 59 91.5t71 130.5q-67 -11 -133 -30q-12 19 0 35
q76 25 156 39q45 88 77.5 147.5t54.5 90.5q-42 11 -152 57q-112 47 -163 47q-57 0 -85.5 -31.5t-28.5 -82.5q0 -66 32.5 -107t83.5 -53q-2 -8 -7 -15q-81 15 -121.5 59.5t-40.5 101.5q0 65 53 115q55 50 145 50q41 0 88 -12q45 -10 77 -23q16 -5 36 -14t45 -20
q26 -11 43 -18t27 -11q64 76 123 76q35 0 54 -15t19 -37q0 -15 -8.5 -30t-23.5 -26.5t-36 -19t-46 -7.5q-41 0 -73 7q-13 -21 -40 -76t-69 -145q58 6 152 6q10 -8 9.5 -21.5t-6.5 -22.5q-109 0 -176 -6q-42 -88 -79 -151t-70 -105q32 -19 73 -46t91 -62
q100 -72 166.5 -113.5t101.5 -41.5q43 0 79 54q8 -5 16 -15zM256 91q-83 44 -142 44q-75 0 -75 -44q0 -26 23 -45.5t68 -19.5q61 0 126 65zM650 675q39 -13 69 -13q63 0 63 43q0 13 -11.5 22t-32.5 9q-43 0 -88 -61zM514 812q-51 89 -130 175q6 13 24 24q20 -17 50 -48.5
t69 -78.5q95 89 152 127q14 -7 19 -24q-55 -51 -96.5 -94t-69.5 -81q-11 -5 -18 0z" />
    <glyph glyph-name="zcaron" unicode="&#x17e;" horiz-adv-x="444" 
d="M2 -3q-30 -60 -30 -119q0 -65 43 -93q44 -29 96 -29q90 0 140 59t50 136q0 167 -222 193q-6 27 12 45q68 16 108.5 34.5t61.5 37.5t27 38.5t6 36.5q0 47 -61 69q-14 5 -50.5 14.5t-97.5 23.5q-10 -88 -39 -193q-2 -3 -7 -4t-11 0t-10.5 4t-4.5 7q14 48 24.5 96t15.5 98
q-50 17 -50 67q0 25 14 40.5t33 15.5q41 -13 40 -91l48 -9q33 -6 54 -10.5t50 -12.5q29 -7 48 -16t37 -22q36 -24 36 -67q0 -51 -44 -94.5t-147 -71.5q54 -12 92.5 -32.5t62.5 -48t35.5 -60t11.5 -68.5q0 -92 -74 -172q-73 -79 -199 -79q-90 0 -139 43t-49 101q0 80 79 137z
M193 552q-51 89 -130 175q6 13 24 24q20 -17 50 -48.5t69 -78.5q95 89 152 127q14 -7 19 -24q-55 -51 -96.5 -94t-69.5 -81q-11 -5 -18 0z" />
    <glyph glyph-name="florin" unicode="&#x192;" horiz-adv-x="774" 
d="M683 546q6 27 6 53q0 64 -29 93.5t-74 29.5q-47 0 -74.5 -29.5t-46.5 -75.5q-11 -29 -18 -69q-7 -41 -11 -74.5t-7 -78.5q25 1 61.5 2.5t87.5 4.5q5 -23 0 -45q-25 -1 -62.5 -0.5t-88.5 1.5q-2 -30 -4 -58.5t-4 -56.5q-5 -48 -10 -88.5t-11.5 -77.5t-14.5 -71.5
t-18 -70.5q-28 -103 -76 -157t-126 -58q-28 0 -51 9.5t-39 25.5t-24.5 38t-8.5 48q0 58 43 101l8 -5q-6 -27 -6 -53q0 -64 29.5 -93.5t74.5 -29.5q48 0 76 34q30 33 53 140.5t35 305.5q1 22 3.5 51t6.5 67q-48 2 -82.5 3.5t-56.5 3.5q-3 12 -3 14q0 1 3 13q72 -2 144 0
q12 87 32 156t50 116.5t70 72.5t92 25q28 0 50.5 -9.5t38.5 -25.5t24.5 -38.5t8.5 -47.5q0 -58 -43 -101z" />
    <glyph glyph-name="Ohorn" unicode="&#x1a0;" horiz-adv-x="823" 
d="M218 550q18 95 86 154t162 59q79 0 137 -35q26 -4 45 1.5t31 28.5q10 18 6.5 36.5t-17.5 26.5q-10 6 -21.5 3.5t-22.5 -8.5q-5 5 -6.5 13t0.5 14l4 3q18 5 40 4.5t40 -12.5q23 -14 28.5 -36.5t-5.5 -48.5q-17 -35 -62 -47q-7 -2 -13 -3t-12 -1q16 -15 31 -34
q69 -95 69 -239q0 -79 -24 -157t-69 -142q-43 -63 -112 -102.5t-150 -39.5q-118 0 -196 89q-77 91 -77 209q0 66 27 136.5t81 127.5zM507 471q-53 -108 -154 -108q-54 0 -95 31q-41 32 -46 82q-30 -92 -30 -190q0 -115 56 -188q57 -71 155 -71q83 0 146 60q64 60 94.5 148.5
t30.5 185.5q0 139 -55 221q-54 84 -167 84q-23 0 -54 -8t-59 -29.5t-47.5 -59t-19.5 -95.5q0 -48 27 -80.5t78 -32.5q36 0 64 12.5t67 45.5z" />
    <glyph glyph-name="ohorn" unicode="&#x1a1;" 
d="M601 249q-33 -72 -86.5 -111t-116.5 -39q-11 0 -19.5 0.5t-13.5 1.5q-68 -113 -182 -113q-78 0 -130 64q-51 64 -51 161q0 90 48 173t138 107l4 -11q-58 -42 -90.5 -111t-32.5 -148q0 -41 8 -75.5t25 -60t43 -39.5t62 -14q78 0 122 77q-67 26 -104 96t-37 155
q0 66 26.5 108t77.5 42q52 0 84 -42q18 -1 32.5 6t24.5 25t6.5 36.5t-17.5 26.5q-10 6 -21.5 3.5t-22.5 -8.5q-5 5 -6.5 13t0.5 14l4 3q18 5 40 4.5t40 -12.5q23 -14 28.5 -36.5t-5.5 -48.5q-17 -35 -62 -47q-12 -4 -26 -4q30 -56 30 -129q0 -96 -37 -177q4 -1 10.5 -1h15.5
q106 0 158 121zM346 149q23 63 23 131q0 56 -25 119q-26 65 -63 65q-48 0 -48 -111q0 -62 27 -122q27 -59 86 -82z" />
    <glyph glyph-name="Uhorn" unicode="&#x1af;" horiz-adv-x="1006" 
d="M1056 255q-10 -52 -25 -95.5t-39 -85.5q-23 -40 -58 -63.5t-78 -23.5q-57 0 -91 29.5t-45 77.5q-10 49 -9.5 97t10.5 99l7 40q-23 -67 -49 -123.5t-60 -108.5t-76 -81.5t-87 -29.5q-44 1 -73 15.5t-46.5 38.5t-25 55t-6.5 65q0 79 39 231q39 151 39 211q0 72 -41.5 106
t-110.5 34q-25 0 -57.5 -9t-62 -30.5t-49.5 -57.5t-20 -89q0 -69 63 -105q64 -34 139 -6l5 -10q-28 -34 -71 -44t-83 2q-39 13 -67 51.5t-28 95.5q0 60 24 105t61 75t81.5 44.5t85.5 14.5q48 0 86.5 -13.5t65.5 -38t41 -58.5t14 -76q0 -31 -40 -194q-40 -161 -40 -252
q0 -119 82 -119q47 0 91 42q46 44 77 105q33 63 59 140q28 78 43.5 141t24.5 115q16 99 30 195q51 15 75 -5q-1 -5 -1.5 -10.5t-1.5 -11.5q16 1 28.5 7.5t21.5 23.5q10 18 6.5 36.5t-17.5 26.5q-10 6 -21.5 3.5t-22.5 -8.5q-5 5 -6.5 13t0.5 14l4 3q18 5 40 4.5t40 -12.5
q23 -14 28.5 -36.5t-5.5 -48.5q-17 -35 -62 -47q-10 -3 -19 -3.5t-19 0.5q-10 -67 -27 -172.5t-41 -252.5q-7 -44 -10.5 -76t-2.5 -71q1 -54 22 -85t72 -34q35 0 63.5 24.5t46.5 63.5q19 40 29.5 77t16.5 73z" />
    </font>
</defs>
</svg>
