<?xml version="1.0" standalone="no"?>
<!DOCTYPE svg PUBLIC "-//W3C//DTD SVG 1.1//EN" "http://www.w3.org/Graphics/SVG/1.1/DTD/svg11.dtd" >
<svg xmlns="http://www.w3.org/2000/svg" xmlns:xlink="http://www.w3.org/1999/xlink" version="1.1">
<metadata>
Created by FontForge 20170731 at Fri Feb  3 17:22:24 2017
 By Aleksey,,,
Copyright (c) Mark Simonson, 2008. All rights reserved.
</metadata>
<defs>
<font id="Lakeside" horiz-adv-x="459" >
  <font-face 
    font-family="Lakeside"
    font-weight="400"
    font-style="italic"
    font-stretch="normal"
    units-per-em="2000"
    panose-1="3 6 6 2 4 5 7 7 13 2"
    ascent="1600"
    descent="-400"
    x-height="306"
    cap-height="1108"
    bbox="-623 -529 2771 1758"
    underline-thickness="60"
    underline-position="-213"
    slope="-44"
    unicode-range="U+000D-FB02"
  />
<missing-glyph horiz-adv-x="690" 
d="M104 95q7 8 28.5 32.5t52.5 59.5t69.5 77.5t79 87.5t81.5 89t76.5 82.5t64 68.5t44.5 45q18 16 41.5 21.5t37.5 7.5q19 1 40.5 2t47.5 1q35 0 73.5 -2t80.5 -6q19 -2 26 -17q5 -7 5 -15q0 -9 -5.5 -18.5t-13.5 -18.5q-18 -19 -59 -64.5t-94 -104t-111.5 -123.5
t-110.5 -122t-90.5 -100t-52.5 -58q-10 -11 -20.5 -15.5t-30.5 -4.5h-257q-13 0 -25 3.5t-12 19.5q0 20 11.5 40.5t22.5 31.5zM372 61q8 11 39 46t75.5 85t98 108.5t105.5 115.5t98 106.5t77 81.5h-219l-9 -12l-481 -531h216z" />
    <glyph glyph-name="f_j" unicode="fj" horiz-adv-x="559" 
d="M-149 -393q66 57 132 107.5t135 98.5q45 44 81.5 84t68.5 78.5t62 77t60 79.5q-20 -13 -46 -23t-52 -10q-20 0 -42 8t-37 28q-16 -44 -43.5 -93t-62 -98.5t-72.5 -97t-75 -88.5q-47 -53 -102 -104.5t-109 -92t-100.5 -65.5t-75.5 -25q-16 0 -26.5 11t-10.5 28
q0 24 18.5 58t47.5 73t64.5 80t70.5 80q68 77 151 170t174 192t185 200t184.5 194.5t173 175t149.5 141.5q4 4 13 4q11 0 22 -10t11 -22q0 -5 -2 -8l-4 -6q-136 -130 -277.5 -275t-282.5 -297q1 -29 7 -48.5t15.5 -30.5t21.5 -15.5t25 -4.5q30 0 54 11t41 25q11 10 28 27
t33.5 34t30.5 31l20 20q5 6 15 6q14 0 27 -10.5t13 -21.5q0 -5 -22.5 -37t-59.5 -80.5t-83.5 -107.5t-94.5 -116l136 90q39 26 74.5 53t63.5 50.5t47.5 40.5t27.5 24q5 5 8 6t5 1q9 0 18.5 -10t9.5 -21q0 -2 -1.5 -5.5t-6.5 -8.5q-8 -7 -31.5 -27t-57 -46t-74 -56t-81.5 -56
q-69 -44 -129 -83.5t-121 -81.5l-32 -34q-24 -25 -56 -57t-67.5 -66t-73 -66.5t-71.5 -58t-63 -41t-48 -15.5q-11 0 -18 5t-7 16q0 31 94 112zM-367 -444q10 0 40.5 22t71 57t87 80t88.5 91q43 46 87.5 101.5t80.5 109.5t59.5 100.5t23.5 75.5q-100 -108 -195.5 -215
t-189.5 -212q-35 -39 -64.5 -72.5t-50.5 -60t-32.5 -45t-11.5 -26.5q0 -6 6 -6zM712 462q0 -15 -8 -31t-20.5 -29t-27.5 -21.5t-29 -8.5q-12 0 -21 8.5t-9 25.5q0 15 7.5 30.5t19.5 28t27 21t30 8.5q14 0 22.5 -7.5t8.5 -24.5z" />
    <glyph glyph-name=".notdef" horiz-adv-x="690" 
d="M104 95q7 8 28.5 32.5t52.5 59.5t69.5 77.5t79 87.5t81.5 89t76.5 82.5t64 68.5t44.5 45q18 16 41.5 21.5t37.5 7.5q19 1 40.5 2t47.5 1q35 0 73.5 -2t80.5 -6q19 -2 26 -17q5 -7 5 -15q0 -9 -5.5 -18.5t-13.5 -18.5q-18 -19 -59 -64.5t-94 -104t-111.5 -123.5
t-110.5 -122t-90.5 -100t-52.5 -58q-10 -11 -20.5 -15.5t-30.5 -4.5h-257q-13 0 -25 3.5t-12 19.5q0 20 11.5 40.5t22.5 31.5zM372 61q8 11 39 46t75.5 85t98 108.5t105.5 115.5t98 106.5t77 81.5h-219l-9 -12l-481 -531h216z" />
    <glyph glyph-name=".null" horiz-adv-x="0" 
 />
    <glyph glyph-name=".null" horiz-adv-x="0" 
 />
    <glyph glyph-name="nonmarkingreturn" unicode="&#xd;" horiz-adv-x="0" 
 />
    <glyph glyph-name="space" unicode=" " horiz-adv-x="314" 
 />
    <glyph glyph-name="exclam" unicode="!" horiz-adv-x="407" 
d="M262 95q0 -18 -10 -38t-25 -36.5t-33.5 -27t-35.5 -10.5q-15 0 -26 10.5t-11 30.5q0 18 9 38t23.5 36t32.5 26.5t37 10.5q17 0 28 -10t11 -30zM719 618q-97 -100 -190 -199t-183 -206q-8 -9 -19 -9q-10 0 -18.5 8t-8.5 19q0 10 6 15q92 115 183 229.5t178 223.5q7 9 17 9
q16 0 31 -19.5t15 -41.5q0 -8 -2.5 -15.5t-8.5 -13.5z" />
    <glyph glyph-name="quotedbl" unicode="&#x22;" horiz-adv-x="476" 
d="M641 653q17 0 27.5 -9.5t10.5 -29.5q0 -30 -21 -62.5t-52 -62.5t-65 -56t-61 -43q-5 -4 -15 -4q-11 0 -19 9.5t-8 20.5t16 22q11 6 24.5 15.5t26.5 20.5t24 22t17 20q-3 5 -5 10.5t-2 16.5q0 18 9 37.5t23.5 35.5t32.5 26.5t37 10.5zM447 653q17 0 27.5 -9.5t10.5 -29.5
q0 -30 -21 -62.5t-52 -62.5t-65 -56t-61 -43q-3 -2 -7.5 -3t-7.5 -1q-11 0 -19.5 9.5t-8.5 20.5t17 22q11 6 24.5 15.5t26 20.5t24 22t17.5 20q-4 5 -6 10.5t-2 16.5q0 18 9 37.5t23.5 35.5t33 26.5t37.5 10.5z" />
    <glyph glyph-name="numbersign" unicode="#" horiz-adv-x="813" 
d="M626 260q-35 -40 -71.5 -85.5t-78.5 -99.5q-6 -6 -12 -6t-12 5.5t-11 14t-8 18.5t-3 18q0 11 5 16q26 32 51 61.5t51 57.5l-167 -4q-33 -39 -69.5 -83.5t-77.5 -97.5q-5 -6 -12 -6q-6 0 -11.5 5.5t-10.5 14t-8 18.5t-3 18q0 12 4 16q24 30 48 57t47 53q-20 -2 -48 -4
t-55 -4q-14 -1 -33.5 -2.5t-21.5 -1.5q-7 0 -7 7q0 5 4 13t10 15.5t13.5 13.5t13.5 7q48 6 94 11.5t90 8.5q40 43 79 82t81 77q-27 -1 -55.5 -3t-57.5 -4q-8 -1 -18.5 -2t-20.5 -2t-17.5 -1.5t-10.5 -0.5q-8 0 -8 7q0 5 4 13t10.5 15.5t13.5 13.5t13 7q60 8 115.5 14
t106.5 9q39 34 80.5 67.5t88.5 70.5q2 1 3.5 2t3.5 1q8 0 13.5 -11t5.5 -24q0 -6 -1.5 -12t-6.5 -10l-95 -79q26 1 50 2t47 1h33.5t37.5 -2q38 32 77.5 64.5t83.5 67.5l4 2t4 1q8 0 13 -11t5 -24q0 -6 -1.5 -12t-6.5 -10q-26 -22 -50 -41.5t-46 -39.5q38 -1 77 -4l78 -6
q12 -3 12 -14t-12 -24t-29 -13h-198q-42 -38 -80.5 -76t-80.5 -83q47 -2 94.5 -4.5t95.5 -7.5q12 -3 12 -14t-12 -24t-29 -13h-217zM759 482q-44 -2 -86.5 -2.5t-84.5 -2.5q-42 -37 -80.5 -74.5t-79.5 -81.5q37 2 70.5 3.5t64.5 1.5h35q41 42 80 80t81 76z" />
    <glyph glyph-name="dollar" unicode="$" horiz-adv-x="537" 
d="M562 514q-23 -3 -49.5 -9t-51 -13t-44 -15t-28.5 -16q-13 -13 -13 -23q0 -18 22 -38.5t48 -44.5t48 -51t22 -58q0 -21 -16 -46q-20 -29 -72 -59.5t-130 -48.5l-98 -123q-6 -6 -18 -6q-8 0 -17 2.5t-17 7t-13.5 9.5t-5.5 10q0 3 3 8l68 77q-8 -1 -19 -1.5t-21 -1t-17.5 -1
l-7.5 -0.5q-28 0 -45 15.5t-17 32.5q0 23 31 26q65 4 115.5 10t89 16t64.5 25.5t43 38.5l4 8t2 7q0 19 -22.5 40t-50 43.5t-50 47.5t-22.5 52q0 25 26 52q15 14 42 29t61.5 28t75 24t81.5 18l87 101q6 6 20 6q17 0 34.5 -8.5t17.5 -18.5q0 -5 -3 -6l-66 -69q36 -5 57 -25.5
t21 -49.5q0 -27 -20.5 -58t-67.5 -60q-17 -9 -34 -9t-31.5 6.5t-14.5 16.5t17 20q30 16 44 33t14 31q0 23 -34 23q-5 0 -16.5 -1.5t-25.5 -3.5z" />
    <glyph glyph-name="percent" unicode="%" horiz-adv-x="1034" 
d="M301 259q-31 0 -52 18q-19 18 -19 52q0 25 9.5 55t26.5 61t40.5 61t51.5 56q43 39 80 63t68.5 37.5t58 18.5t47.5 5q20 0 27 -5t7 -15q0 -11 -6 -20q7 -7 10 -18t3 -24q12 -34 37 -46t77 -12q66 0 141.5 21.5t147.5 56.5q15 9 34.5 20.5t40.5 23.5t42 23.5t39 21.5
q5 2 7.5 3.5t7.5 1.5t8 -6t3 -14q0 -13 -6 -27t-15 -19q-148 -84 -278 -164.5t-254 -167t-249.5 -182.5t-264.5 -210q-7 -5 -10 -5q-8 0 -12 11t-4 26q0 17 4.5 32t15.5 23q100 79 186.5 144.5t168.5 124t164 113t174 110.5q-69 -20 -131 -20q-35 0 -59 10.5t-38 27.5
q-16 -35 -41 -70t-55 -65q-60 -61 -122.5 -96t-110.5 -35zM712 -12q-33 0 -52 18q-20 17 -20 54q0 24 9.5 54t26 60.5t40 60.5t51.5 56q43 39 80 63t69 37.5t58 18.5t47 5q9 0 22 -2.5t13 -17.5q0 -5 -2 -10l-4 -10q12 -12 12 -40q0 -21 -9 -48t-25 -55.5t-37.5 -58
t-46.5 -54.5q-61 -61 -123.5 -96t-108.5 -35zM989 300q0 10 -7 17q-3 3 -6 7.5t-3 9.5q0 8 8 18q-37 -6 -75.5 -28.5t-89.5 -71.5q-47 -44 -74 -87.5t-27 -72.5q0 -13 7 -23q8 -11 23 -11q26 0 65.5 28t84.5 73q43 43 68.5 80.5t25.5 60.5zM578 572q0 5 -1 9.5t-5 7.5
q-2 2 -4.5 6t-2.5 9q0 9 7 20q-37 -5 -75.5 -28.5t-89.5 -72.5q-46 -45 -73.5 -88t-27.5 -72q0 -15 8 -23q8 -11 23 -11q26 0 65 28t83 73q43 43 68 81t25 61z" />
    <glyph glyph-name="ampersand" unicode="&#x26;" horiz-adv-x="793" 
d="M528 188q-11 0 -25.5 1t-22.5 2q-21 4 -21 19q0 7 5 15t13 15t18 12t21 5q39 2 91 3.5t108 1.5q22 0 44 -1t43 -1q17 0 17 -12q0 -8 -6 -17.5t-15.5 -18t-22 -14.5t-25.5 -7q-30 -3 -58.5 -4.5t-59.5 -1.5h-28q13 -15 13 -35q0 -30 -27.5 -66.5t-82.5 -65.5
q-32 -17 -71.5 -26t-78.5 -9q-51 0 -93 17t-60 54q-10 19 -10 44q0 24 10 49.5t32.5 51t58 50.5t86.5 48q-35 1 -61.5 13.5t-34.5 36.5q-2 8 -3.5 14.5t-1.5 14.5q0 31 19 64.5t54 67t84.5 65t110.5 57.5q51 23 115.5 38.5t126.5 15.5q49 0 88 -14t55 -47q11 -22 11 -48
q0 -32 -16.5 -63t-41 -58t-53.5 -48.5t-54 -33.5q-18 -9 -35 -9t-27 6.5t-10 14.5q0 5 6 9q14 8 39 25.5t49 39.5t41.5 47.5t17.5 49.5q0 11 -5 23q-9 20 -33.5 28.5t-59.5 8.5q-45 0 -98 -12.5t-98 -33.5q-50 -22 -88 -46.5t-64 -48t-39.5 -45.5t-13.5 -40q0 -4 1 -7.5
t2 -6.5q6 -17 23.5 -24t44.5 -7q47 0 108 23q2 0 3.5 1t2.5 1q10 0 14.5 -10t4.5 -22q0 -13 -5.5 -25t-16.5 -14q-75 -18 -126 -41t-82 -47t-44.5 -47.5t-13.5 -43.5q0 -14 6 -26q11 -20 36 -29.5t56 -9.5q26 0 53 5.5t51 17.5q39 17 59.5 42t20.5 43q0 11 -8.5 18t-22.5 8z
" />
    <glyph glyph-name="quotesingle" unicode="'" horiz-adv-x="282" 
d="M447 653q17 0 27.5 -9.5t10.5 -29.5q0 -30 -21 -62.5t-52 -62.5t-65 -56t-61 -43q-3 -2 -7.5 -3t-7.5 -1q-11 0 -19.5 9.5t-8.5 20.5t17 22q11 6 24.5 15.5t26 20.5t24 22t17.5 20q-4 5 -6 10.5t-2 16.5q0 18 9 37.5t23.5 35.5t33 26.5t37.5 10.5z" />
    <glyph glyph-name="parenleft" unicode="(" horiz-adv-x="589" 
d="M303 12q17 89 60.5 189.5t123 204t201 206.5t294.5 197q6 4 13 4q14 0 26 -9.5t12 -20.5q0 -5 -8 -10q-139 -83 -258.5 -187t-210 -220t-148.5 -238.5t-74 -242.5q-3 -10 -8 -10t-11.5 4.5t-11.5 11t-8.5 14.5t-3.5 15q0 13 3.5 40.5t8.5 51.5z" />
    <glyph glyph-name="parenright" unicode=")" horiz-adv-x="589" 
d="M638 658q-17 -89 -60.5 -189.5t-123 -204t-200.5 -206.5t-294 -197q-5 -3 -12 -3q-14 0 -26 9t-12 20q0 5 7 10q139 83 258.5 187t210 220t148 238.5t73.5 242.5q3 11 8 11t11 -4.5t11.5 -11t9 -15t3.5 -15.5q0 -13 -3.5 -40.5t-8.5 -51.5z" />
    <glyph glyph-name="asterisk" unicode="*" horiz-adv-x="640" 
d="M727 712q5 -20 8.5 -40.5t6.5 -41.5q2 -7 3.5 -18t1.5 -17q0 -13 -7.5 -19.5t-18.5 -6.5q-7 0 -13.5 4t-9.5 12q-11 23 -20.5 44t-16.5 41l-92 -93q-5 -6 -11.5 -9t-11.5 -3q-10 0 -17 8.5t-7 20.5q0 11 6 18q22 30 40.5 56.5t37.5 50.5q-23 2 -48.5 4.5t-50.5 6.5
t-25 23q0 9 6.5 16.5t19.5 9.5q30 3 60 4.5t59 3.5q-2 8 -4.5 20.5t-4.5 26.5q-2 16 -4.5 38.5t-2.5 33.5q0 13 8 20t19 7q18 0 25 -13q10 -23 19 -46.5t17 -47.5q22 23 45.5 46.5t51.5 48.5q9 9 20 9q10 0 18 -8t8 -19q0 -4 -2 -8t-4 -9q-37 -55 -75 -103q24 -2 48.5 -5.5
t50.5 -9.5q11 -2 17 -10t6 -16t-6 -14.5t-17 -6.5q-71 -9 -133 -9z" />
    <glyph glyph-name="plus" unicode="+" horiz-adv-x="727" 
d="M666 459q0 -18 -8 -29q-17 -20 -42 -46.5t-54 -57.5q51 -2 98 -4t81 -5q10 -3 10 -11q0 -13 -15 -28t-38 -15h-193q-42 -45 -77.5 -84.5t-61.5 -68.5q-13 -13 -18.5 -20t-10.5 -7q-8 0 -15 12.5t-7 26.5q0 17 8 26q15 21 40 50.5t55 64.5h-179q-14 0 -14 9q0 6 6 14.5
t15 16.5t20.5 13.5t22.5 6.5q26 2 76.5 2.5t110.5 0.5q48 52 92.5 96.5t71.5 68.5q5 5 9 5q8 0 12.5 -11.5t4.5 -25.5z" />
    <glyph glyph-name="comma" unicode="," horiz-adv-x="430" 
d="M246 135q17 0 28 -10t11 -30q0 -30 -21.5 -62.5t-52 -62.5t-65 -56t-60.5 -43q-7 -4 -16 -4q-11 0 -19 10t-8 20q0 8 3.5 12t13.5 10q11 6 24.5 16t26 21t23.5 21.5t17 19.5q-7 10 -7 27q0 18 9 38t23.5 36t32.5 26.5t37 10.5z" />
    <glyph glyph-name="hyphen" unicode="-" horiz-adv-x="551" 
d="M148 130q-12 0 -12 9q0 6 6 14.5t17.5 16.5t27 14t33.5 7q13 2 39 2h59q20 0 62 -2t91 -4q13 0 13 -13q0 -12 -15 -28t-36 -16h-285z" />
    <glyph glyph-name="hyphen" unicode="&#xad;" horiz-adv-x="551" 
d="M148 130q-12 0 -12 9q0 6 6 14.5t17.5 16.5t27 14t33.5 7q13 2 39 2h59q20 0 62 -2t91 -4q13 0 13 -13q0 -12 -15 -28t-36 -16h-285z" />
    <glyph glyph-name="period" unicode="." horiz-adv-x="407" 
d="M262 95q0 -18 -10 -38t-25 -36.5t-33.5 -27t-35.5 -10.5q-15 0 -26 10.5t-11 30.5q0 18 9 38t23.5 36t32.5 26.5t37 10.5q17 0 28 -10t11 -30z" />
    <glyph glyph-name="slash" unicode="/" horiz-adv-x="813" 
d="M1379 898q-205 -144 -393.5 -286.5t-367.5 -289t-352.5 -299.5t-348.5 -318q-10 -8 -15 -8q-9 0 -14.5 11.5t-5.5 26.5q0 13 4 25.5t15 22.5q155 146 320.5 293.5t345 293.5t373.5 290.5t405 285.5q15 10 19.5 11.5t6.5 1.5q8 0 15.5 -9.5t7.5 -22.5q0 -8 -3 -15.5
t-12 -13.5z" />
    <glyph glyph-name="zero" unicode="0" horiz-adv-x="565" 
d="M536 211q-47 -49 -99.5 -92.5t-104 -76.5t-99 -52t-83.5 -19q-37 0 -57.5 22t-20.5 59q0 40 22 91t57 103.5t78.5 102.5t85.5 89q107 95 188.5 147.5t151.5 75.5q31 11 50.5 14.5t33.5 3.5q20 0 27.5 -8t7.5 -19t-6.5 -20t-20.5 -11q11 -8 14 -20.5t3 -23.5
q0 -33 -20 -78t-52.5 -94.5t-73.5 -100t-82 -93.5zM678 523q0 11 -6 19q-16 13 -16 29q0 9 4.5 17.5t9.5 15.5q-69 -23 -147 -73.5t-157 -128.5q-39 -38 -75 -80.5t-64 -83.5t-45 -77.5t-17 -62.5q0 -19 10 -30t30 -11q24 0 58 16t72 42.5t78.5 61.5t77.5 74
q35 36 68.5 75.5t60 77t42.5 68.5t16 51z" />
    <glyph glyph-name="one" unicode="1" horiz-adv-x="458" 
d="M783 644q-84 -87 -163.5 -170.5t-158 -166t-157.5 -164.5t-160 -164q-7 -7 -14 -7q-11 0 -21.5 15t-10.5 31q0 14 9 23q126 120 239 235t219 221q-61 -32 -118 -60.5t-127 -58.5q-3 -2 -8 -2q-11 0 -17.5 12t-6.5 27q0 10 4 19t11 13q140 57 253.5 117.5t193.5 125.5
q8 8 18 8q11 0 16.5 -10.5t5.5 -23.5t-7 -20z" />
    <glyph glyph-name="two" unicode="2" horiz-adv-x="563" 
d="M433 44q11 0 14.5 -3t3.5 -9t-5.5 -16t-17.5 -19.5t-31.5 -16t-47.5 -6.5q-24 0 -44.5 4.5t-40 11t-40 14t-42.5 14.5q-45 -20 -84 -30.5t-70 -10.5q-32 0 -50 11.5t-18 37.5q0 9 6 21.5t20.5 23.5t38 19t59.5 8q29 0 56 -3.5t53 -8.5q59 28 122 69t123.5 88t115 96
t95.5 93.5t65 81t24 58.5q0 17 -12.5 24.5t-29.5 7.5q-28 0 -68.5 -17t-87.5 -47t-97 -70t-97 -86q-12 -12 -23 -12t-17 10.5t-6 24.5q0 8 2.5 16.5t8.5 15.5q45 49 103.5 94.5t119.5 80.5t119.5 55.5t102.5 20.5q15 0 30.5 -4t28 -12.5t20 -21.5t7.5 -32q0 -35 -24 -80
t-65.5 -95t-97 -102.5t-118.5 -102.5t-129.5 -95.5t-130.5 -80.5q32 -8 65.5 -14t69.5 -6h21v0z" />
    <glyph glyph-name="three" unicode="3" horiz-adv-x="563" 
d="M367 533q38 35 81.5 63.5t87.5 48.5t85.5 31t74.5 11q16 0 31 -3.5t27 -11.5t19 -22t7 -36q0 -33 -19.5 -66.5t-54 -64.5t-82 -60t-102.5 -53q35 -2 52.5 -28.5t17.5 -58.5q0 -48 -45 -105.5t-121.5 -112.5t-177 -100.5t-211.5 -67.5q-13 -2 -30 -5.5t-25 -3.5t-16 5.5
t-14.5 14t-11 18t-4.5 17.5q0 13 14 16q105 12 203.5 46.5t175 78.5t122.5 91t46 84q0 14 -13.5 28t-44.5 14q-18 0 -43.5 -7.5t-60.5 -24.5q-3 -1 -6 -1q-7 0 -11 9t-4 23q0 15 6 30.5t20 21.5q63 24 124 51t109 55.5t78 57t30 55.5q0 30 -35 30q-21 0 -51.5 -10t-64.5 -28
t-70.5 -42.5t-69.5 -53.5q-5 -5 -11 -5q-9 0 -15.5 13.5t-6.5 29.5q0 18 10 28z" />
    <glyph glyph-name="four" unicode="4" horiz-adv-x="563" 
d="M376 174q-53 -2 -104 -7.5t-99 -15.5q-11 -2 -24.5 -5.5t-18.5 -3.5q-14 0 -27.5 13t-13.5 27q0 8 7 14q107 72 191.5 134t155.5 120t133 116t123 123q4 4 9 4q11 0 20.5 -15.5t9.5 -31.5q0 -14 -8 -22q-66 -64 -125 -117.5t-116.5 -101t-117.5 -91.5t-128 -89
q51 11 103.5 16t101.5 7l112 116q22 24 28.5 30.5t11.5 6.5q9 0 19 -15t10 -28q0 -6 -5 -11l-96 -98l66 -3q12 0 12 -16q0 -9 -4 -19.5t-10.5 -19.5t-14.5 -15t-15 -6q-8 0 -34.5 2t-68.5 2q-68 -72 -134 -142.5t-143 -144.5q-3 -3 -8 -3q-6 0 -12 4.5t-11 11.5t-8.5 16
t-3.5 17q0 11 8 18q54 48 112 105.5t117 117.5z" />
    <glyph glyph-name="five" unicode="5" horiz-adv-x="537" 
d="M314 364q0 5 1 10t6 9q37 34 66 63t53.5 57t47.5 57.5t49 65.5q11 15 30 28t36 13q7 0 19 -0.5t25 -2.5q19 -1 37 -2t29 -1q19 0 35.5 1t27.5 2q11 2 21.5 3.5t18.5 1.5q13 0 13 -13q0 -8 -6 -20.5t-16 -24.5t-22 -21.5t-24 -12.5q-27 -6 -53.5 -8.5t-43.5 -2.5
q-20 0 -41 1.5t-38 4.5q-30 -40 -63.5 -80t-77.5 -80q14 5 27 6t26 1q43 0 71.5 -19t28.5 -62q0 -38 -23 -80.5t-63.5 -85.5t-95.5 -84t-119.5 -77t-135.5 -64t-143 -45q-9 -2 -21 -4.5t-23 -4.5t-20 -3.5t-13 -1.5q-8 0 -16.5 6t-16 14t-12 17.5t-4.5 17.5q0 10 11 13
q69 7 140.5 27.5t138.5 49t126 62.5t103 69.5t69.5 70t25.5 62.5q0 26 -21 38t-46 12q-19 0 -40 -5t-43 -18q-2 -1 -6 -1q-11 0 -23 13t-12 28z" />
    <glyph glyph-name="six" unicode="6" horiz-adv-x="537" 
d="M476 133q-32 -32 -70.5 -61.5t-79 -52.5t-80 -37t-72.5 -14q-18 0 -34 6t-28.5 17t-20 27t-7.5 36q0 41 24.5 92.5t61 104t80 102t81.5 85.5q62 60 120.5 107t114.5 84.5t110.5 67t108.5 53.5q8 4 23 4q12 0 23.5 -3.5t21 -8.5t15.5 -11t6 -10q0 -5 -6 -8
q-65 -24 -130 -57t-127 -73t-120.5 -86t-109.5 -95l-9 -9q42 30 90 48t87 18q37 0 57.5 -16t20.5 -51q0 -27 -13.5 -60.5t-35 -68t-48.5 -68.5t-54 -62zM505 373q-15 0 -36.5 -7t-45 -20.5t-46.5 -32t-42 -42.5q-2 -3 -6 -3q-9 0 -18.5 10.5t-9.5 27.5q0 6 2 9
q-25 -31 -48 -64t-40.5 -64t-28 -58t-10.5 -45q0 -16 9 -25.5t28 -9.5q21 0 49.5 11t58.5 28.5t59 39.5t52 45q17 17 35.5 40t33.5 46.5t25 45.5t10 39q0 13 -5.5 21t-25.5 8z" />
    <glyph glyph-name="seven" unicode="7" horiz-adv-x="470" 
d="M811 626q-103 -68 -212 -150t-212 -177t-194 -202.5t-158 -225.5q-1 -4 -7 -4t-13 6t-13 15t-10 20t-4 22q0 5 1 10.5t5 10.5q55 88 135 177.5t169.5 172.5t182.5 155t174 125q-29 4 -55 13t-55 9q-32 0 -70 -18t-88 -71q-6 -6 -11 -6q-8 0 -13 14t-5 30q0 11 2.5 20.5
t8.5 15.5q68 57 117.5 76.5t88.5 19.5q21 0 39.5 -3.5t36 -7t34.5 -7t34 -3.5q19 0 38.5 5t42.5 19q2 2 6 2q8 0 12 -10t4 -23q0 -9 -2.5 -18t-8.5 -12z" />
    <glyph glyph-name="eight" unicode="8" horiz-adv-x="563" 
d="M681 689q32 0 57.5 -12t34.5 -36q0 -1 0.5 -3t0.5 -4q0 -9 -6.5 -21t-15.5 -22.5t-18.5 -18t-15.5 -7.5q-2 0 -5 4q-9 24 -25.5 34.5t-37.5 10.5q-27 0 -55.5 -14.5t-45.5 -33.5q-32 -33 -41 -72.5t-11 -81.5q39 16 79.5 35t82.5 44t85.5 57.5t89.5 74.5q9 7 21 21.5
t24.5 30.5t23 30.5t15.5 22.5l4.5 4.5t4.5 2.5q5 0 11 -4.5t10.5 -11.5t7.5 -15t3 -15t-3 -11q-6 -9 -15 -22t-19.5 -26.5t-22.5 -26.5t-24 -23q-50 -47 -99 -82t-96.5 -63t-93.5 -49t-89 -39q0 -33 -2.5 -67t-13.5 -69t-32.5 -71.5t-59.5 -73.5q-20 -20 -45.5 -37
t-54 -29.5t-58 -20t-57.5 -7.5q-47 0 -78.5 21t-31.5 70q0 35 20 77t57 79q31 30 63.5 53.5t66.5 42t68.5 34t70.5 29.5q0 7 -0.5 13.5t-0.5 14.5q0 25 3 50.5t12 51t25 51.5t42 52q17 18 40 32t48.5 24.5t51.5 16t50 5.5zM214 52q14 0 30.5 5t32.5 13t30.5 18t26.5 21
q49 46 63.5 93.5t14.5 95.5v14q-58 -23 -106.5 -48t-85.5 -60q-25 -25 -40 -52.5t-15 -52.5q0 -23 14.5 -35t34.5 -12z" />
    <glyph glyph-name="nine" unicode="9" horiz-adv-x="537" 
d="M360 528q31 31 69.5 61t79 53t80 37t72.5 14q18 0 34 -6t28.5 -17t20 -27t7.5 -36q0 -41 -24 -92.5t-61 -104t-80 -102t-81 -85.5q-63 -60 -121 -107t-114 -84.5t-110.5 -67t-109.5 -53.5q-8 -4 -22 -4q-12 0 -23.5 3.5t-21 8.5t-15.5 10.5t-6 10.5q0 6 6 8q64 24 129 57
t127 73t120.5 85.5t109.5 95.5l10 9q-42 -30 -90.5 -48t-87.5 -18q-37 0 -57.5 16t-20.5 51q0 27 13.5 60.5t35 68t48.5 68.5t55 62zM331 288q15 0 36.5 7t44.5 20.5t46 32t42 42.5q3 3 7 3q9 0 18 -10.5t9 -27.5q0 -6 -1 -9q25 31 48 64t40.5 64t28 58t10.5 45
q0 16 -9.5 25.5t-27.5 9.5q-21 0 -49.5 -11t-58.5 -28.5t-59.5 -40t-51.5 -44.5q-17 -17 -35.5 -40t-33.5 -46.5t-25 -46t-10 -38.5q0 -13 5.5 -21t25.5 -8z" />
    <glyph glyph-name="colon" unicode=":" horiz-adv-x="407" 
d="M239 95q0 -18 -10 -38t-25 -36.5t-33.5 -27t-35.5 -10.5q-15 0 -26 10.5t-11 30.5q0 18 9 38t23.5 36t32.5 26.5t37 10.5q17 0 28 -10t11 -30zM415 295q0 -18 -10 -38t-25 -36t-33.5 -26.5t-35.5 -10.5q-15 0 -26 10.5t-11 30.5q0 18 9 37.5t23.5 35.5t32.5 26.5t37 10.5
q17 0 28 -10t11 -30z" />
    <glyph glyph-name="semicolon" unicode=";" horiz-adv-x="430" 
d="M438 295q0 -18 -10 -38t-25 -36t-33.5 -26.5t-35.5 -10.5q-15 0 -26 10.5t-11 30.5q0 18 9 37.5t23.5 35.5t32.5 26.5t37 10.5q17 0 28 -10t11 -30zM223 135q17 0 28 -10t11 -30q0 -30 -21.5 -62.5t-52 -62.5t-65 -56t-60.5 -43q-7 -4 -16 -4q-11 0 -19 10t-8 20
q0 8 3.5 12t13.5 10q11 6 24.5 16t26 21t24 21.5t17.5 19.5q-8 10 -8 27q0 18 9 38t23.5 36t32.5 26.5t37 10.5z" />
    <glyph glyph-name="less" unicode="&#x3c;" horiz-adv-x="727" 
d="M263 266q-9 4 -9 16q0 11 9 23.5t20 15.5q13 4 43.5 13t69.5 20.5t82.5 24t83 23.5t71 20t46.5 13q5 1 9.5 1h9.5q24 0 38.5 -11t14.5 -23q0 -5 -2.5 -8.5t-9.5 -4.5q-41 -11 -91.5 -25t-102 -28t-100 -27.5t-85.5 -23.5q42 -20 96.5 -50.5t106.5 -60.5q8 -4 8 -12
q0 -9 -13 -17.5t-30 -8.5q-11 0 -23 6z" />
    <glyph glyph-name="equal" unicode="=" horiz-adv-x="727" 
d="M318 344q-12 0 -12 9q0 6 6 14.5t17.5 16.5t27 14t33.5 8q13 1 39 1h59q41 0 89 -0.5t94 -1.5t86 -2t65 -2q5 0 8.5 -3.5t3.5 -8.5q0 -13 -15 -29t-36 -16h-465zM164 187q-13 0 -13 9q0 6 6.5 14.5t17.5 16.5t27 14t34 7q12 1 38 1h60q40 0 88 -0.5t94 -1.5t86 -2t65 -2
q6 0 9 -3.5t3 -8.5q0 -6 -4 -14t-11 -14.5t-16 -11t-19 -4.5h-465z" />
    <glyph glyph-name="greater" unicode="&#x3e;" horiz-adv-x="727" 
d="M661 308q9 -5 9 -16t-9 -23.5t-20 -16.5q-13 -4 -43 -13t-69 -20t-83 -23.5t-83.5 -23.5t-71 -20t-46.5 -13q-5 -1 -9.5 -1h-9.5q-24 0 -38.5 11t-14.5 22q0 13 12 14q41 11 91.5 24.5t102 28t100 28t86.5 23.5q-43 20 -97.5 50.5t-106.5 59.5q-8 4 -8 13t13 17.5t30 8.5
q12 0 23 -6z" />
    <glyph glyph-name="question" unicode="?" horiz-adv-x="407" 
d="M262 95q0 -18 -10 -38t-25 -36.5t-33.5 -27t-35.5 -10.5q-15 0 -26 10.5t-11 30.5q0 18 9 38t23.5 36t32.5 26.5t37 10.5q17 0 28 -10t11 -30zM623 393q-53 -24 -92.5 -43.5t-71.5 -39t-59 -43t-54 -54.5q-8 -9 -19 -9q-10 0 -18.5 8t-8.5 19q0 10 6 15q55 69 122 114.5
t134 77.5q15 7 41.5 19.5t52 29.5t44 37.5t18.5 44.5q0 21 -17 36.5t-55 15.5q-17 0 -37 -3.5t-44 -11.5q-2 0 -2.5 -1t-2.5 -1q-9 0 -9 16q0 11 8 26.5t22 20.5q26 9 49 13t43 4q61 0 94 -31t33 -76q0 -35 -16.5 -63t-42.5 -50t-57 -39.5t-61 -31.5z" />
    <glyph glyph-name="at" unicode="@" horiz-adv-x="872" 
d="M707 539q52 0 90 -14.5t63 -40t37.5 -60.5t12.5 -77q0 -69 -33 -134.5t-82.5 -116t-107 -81t-106.5 -30.5q-34 0 -52.5 15t-18.5 38q0 21 9 42q-21 -18 -44 -35t-47 -30.5t-48.5 -21.5t-48.5 -8q-35 0 -52 21t-17 57q0 45 28.5 88.5t72.5 77t95.5 54t98.5 20.5
q35 0 55 -16t28 -39l47 41q8 7 14 9t11 2q8 0 17.5 -13t9.5 -27q0 -6 -8 -15.5t-20 -21t-27 -23.5t-29 -24q-13 -11 -26.5 -23t-25 -25.5t-18.5 -27.5t-7 -28t7 -18.5t18 -4.5q37 0 79.5 23.5t79 61.5t60.5 87t24 100q0 78 -43 119.5t-124 41.5q-50 0 -110.5 -19
t-121.5 -52.5t-119 -79t-102.5 -98t-71.5 -110t-27 -114.5q0 -61 33.5 -103.5t107.5 -47.5q26 -3 26 -14t-17.5 -22.5t-40.5 -11.5q-28 0 -60.5 9t-60.5 30t-47 56.5t-19 88.5q0 68 30.5 135.5t81.5 128t118 112t140 89t147.5 59t140.5 21.5zM340 80q0 -10 5.5 -16.5
t21.5 -6.5q21 0 47 13t56 34t61.5 48t63.5 55q-3 14 -13.5 25t-32.5 11q-25 0 -61 -16.5t-69 -41t-56 -53t-23 -52.5z" />
    <glyph glyph-name="A" unicode="A" horiz-adv-x="891" 
d="M667 265q-59 -57 -121.5 -110t-125.5 -93.5t-124.5 -65t-116.5 -24.5q-63 0 -91 32.5t-28 90.5q0 55 19.5 113.5t53 117t78.5 116t96 111.5t104.5 102.5t105.5 88.5q94 73 187.5 127t181.5 89.5t168 52.5t146 17q44 0 73 -16t29 -47q0 -22 -10.5 -44.5t-26.5 -43
t-35.5 -37t-37.5 -25.5q2 -5 2 -8.5v-6.5q0 -5 -2 -9t-8 -11q-49 -60 -85.5 -103t-69 -80t-63.5 -74t-69 -83q-36 -43 -75 -88t-71.5 -90.5t-53.5 -91.5t-21 -92q0 -17 11.5 -31.5t33.5 -14.5q16 0 43 11.5t61.5 33.5t75.5 52.5t85 68.5q5 5 8 6t5 1q9 0 18.5 -10t9.5 -21
q0 -4 -1.5 -6.5t-6.5 -7.5q-47 -40 -93.5 -75t-89 -60.5t-79.5 -40t-65 -14.5q-54 0 -77 28t-23 66q0 51 21 100.5t54 98.5zM158 121q0 -36 18 -51.5t47 -15.5q50 0 120.5 38t152 100.5t169 143.5t171 166t158.5 167.5t132 149.5q-6 9 -6 20q0 19 18.5 32.5t40.5 24
t40.5 21.5t18.5 26q0 14 -11.5 19t-31.5 5q-60 0 -139.5 -22.5t-164 -60.5t-167.5 -88t-150 -106q-74 -60 -148.5 -129.5t-134 -143t-96.5 -149t-37 -147.5z" />
    <glyph glyph-name="B" unicode="B" horiz-adv-x="799" 
d="M477 427q-34 -36 -69.5 -74.5t-74 -83t-82 -96t-93.5 -112.5q-11 -11 -19 -11q-14 0 -24.5 17t-10.5 37q0 18 11 29q65 76 121 140t110.5 123t110 116t120 118.5t141.5 131.5t173 155q6 6 15 6q11 0 19 -12.5t8 -27.5q0 -19 -13 -31q-63 -60 -116 -109.5t-98.5 -92.5
t-85.5 -81.5t-77 -75.5q60 17 132 42t144.5 55.5t140 66.5t119.5 76.5t83.5 85t31.5 91.5q0 30 -14.5 52.5t-40 37.5t-60 22.5t-74.5 7.5q-73 0 -146.5 -12.5t-144 -35t-136 -54t-120.5 -68.5q-2 -2 -6.5 -4.5t-4.5 -4.5t3.5 -6.5t3.5 -10.5q0 -9 -12 -17q-18 -13 -39.5 -24
t-43 -19t-41 -12.5t-33.5 -4.5q-22 0 -22 26t33 60.5t88.5 70.5t129 70.5t155.5 61.5t167 43.5t163 16.5q56 0 105.5 -11t86 -33.5t58 -56t21.5 -79.5q0 -54 -26 -102.5t-70 -91.5t-102.5 -80t-122.5 -68t-130 -56t-126 -44q17 2 31.5 3t28.5 1q54 0 86 -22.5t32 -81.5
q0 -46 -30 -93.5t-83 -93t-125.5 -88t-158 -79.5t-180 -66t-191.5 -48q-13 -2 -32 -5.5t-27 -3.5q-9 0 -18 5t-16 12t-11.5 15t-4.5 14q0 12 12 13q74 12 161 35t174.5 55t169 71t144 81.5t100.5 87t38 88.5q0 37 -28 50.5t-67 13.5q-31 0 -65 -6t-62.5 -13t-48 -13
t-22.5 -6q-15 0 -23 17z" />
    <glyph glyph-name="C" unicode="C" horiz-adv-x="637" 
d="M765 162q-29 -25 -76.5 -59t-104.5 -65.5t-119 -53.5t-121 -22q-115 0 -173.5 66.5t-58.5 178.5q0 58 20 123.5t59 136t95.5 143t128.5 144.5q72 71 162.5 134t186 110t189.5 74.5t172 27.5q74 0 109 -32.5t35 -78.5q0 -50 -29 -103.5t-77 -95.5q1 -2 2 -5t1 -5
q0 -9 -8.5 -20.5t-21.5 -24t-29.5 -25.5t-32.5 -23q-52 -33 -95.5 -55t-63.5 -28q-5 -1 -8.5 -1h-6.5q-17 0 -27 8t-10 21q0 16 25 31q54 26 106 61t92 74.5t64.5 81t24.5 81.5q0 28 -16.5 50t-62.5 22q-52 0 -111 -16t-120 -43t-121.5 -62t-115.5 -73.5t-101.5 -78
t-78.5 -74.5q-71 -77 -118 -144t-75.5 -124.5t-40.5 -105.5t-12 -87t10.5 -73t32 -59.5t54 -40.5t76.5 -15q55 0 109 18t101.5 43.5t85 53.5t61.5 48q5 5 8 6t5 1q9 0 18.5 -10t9.5 -21q0 -2 -1.5 -5.5t-6.5 -8.5z" />
    <glyph glyph-name="D" unicode="D" horiz-adv-x="966" 
d="M996 344q-105 -86 -225 -155t-243.5 -117t-244.5 -74t-228 -26q-32 0 -46 19.5t-14 37.5q0 11 4.5 19.5t12.5 8.5q13 0 31 -4t47 -4q55 0 122.5 10.5t142.5 31t154.5 50.5t157 68.5t150 85t135.5 100.5q131 113 193 224.5t62 208.5q0 49 -16 93t-49 77.5t-83 53
t-118 19.5q-58 0 -118 -13.5t-115 -34t-101.5 -45.5t-77.5 -48q-1 -1 -5 -4t-4 -5q0 -5 5.5 -8t5.5 -10q0 -5 -2.5 -10t-8.5 -10q-18 -15 -45 -32t-53.5 -31.5t-49 -25t-32.5 -12.5q-5 -2 -14 -2q-19 0 -30 8.5t-11 20.5t10 25q59 73 137 130t164 96t175.5 59.5t171.5 20.5
q167 0 256 -78.5t89 -222.5q0 -53 -15.5 -112t-50 -122t-90 -129t-136.5 -132zM990 915q-82 -83 -148.5 -151t-125 -129.5t-112 -119t-107.5 -118t-113 -128t-128 -148.5q-6 -6 -14 -6q-13 0 -24 16.5t-11 36.5q0 16 10 29q70 80 127 144.5t109.5 123t104 113.5t111 115.5
t130.5 130.5t162 157q2 1 4.5 2t4.5 1q11 0 20 -13.5t9 -30.5q0 -16 -9 -25z" />
    <glyph glyph-name="E" unicode="E" horiz-adv-x="813" 
d="M488 572q94 98 184.5 188.5t182.5 175.5q-51 -2 -80 -2.5t-43.5 -1t-19 -0.5h-7.5q-45 0 -75 9.5t-30 31.5q0 18 9 32t22 23t27 14t24 5t10.5 -5.5t1 -12.5t6 -12.5t25.5 -5.5q10 0 37 1t59.5 2.5t65.5 3.5t57 3q11 9 21.5 18t21.5 20l4 2t4 1q9 0 17 -12t12 -25
q100 5 197 9.5t191 4.5h49q17 0 22.5 -3.5t5.5 -8.5q0 -9 -9 -20.5t-23.5 -22t-31.5 -18t-32 -7.5q-108 0 -215.5 -5.5t-216.5 -10.5q-94 -89 -186 -178.5t-183 -186.5q88 6 180 11t204 5q14 0 14 -14q0 -9 -6 -21.5t-15 -24t-20.5 -19t-21.5 -7.5q-96 0 -201 -5t-212 -7
q-60 -65 -120.5 -132.5t-121.5 -140.5q-27 -32 -41.5 -60.5t-14.5 -52.5q0 -32 29 -51t92 -19q48 0 102.5 10.5t108.5 26t104 33t89 32.5q15 6 26 10t13 4q10 0 10 -12q0 -11 -11 -28.5t-31 -26.5q-49 -24 -107.5 -44.5t-119.5 -36.5t-120.5 -25t-111.5 -9q-87 0 -126 31.5
t-39 81.5q0 37 19.5 79.5t55.5 84.5q108 126 216 243h-31q-9 0 -9 8q0 7 6.5 18.5t15.5 22.5t19.5 18.5t19.5 7.5q13 0 26 1z" />
    <glyph glyph-name="F" unicode="F" horiz-adv-x="748" 
d="M540 551q96 96 197 192.5t212 196.5q-24 -2 -51 -3t-52.5 -2t-46.5 -1.5t-32 -0.5q-45 0 -74 8.5t-29 30.5q0 13 8 26.5t20.5 24.5t27 17.5t28.5 6.5q10 0 12 -4.5t2 -12.5q0 -7 4.5 -13t24.5 -6q14 0 41.5 1t62 3t72.5 3.5t74 3.5l38 34q3 3 7 3q8 0 15.5 -9.5
t10.5 -22.5q93 5 183.5 8.5t178.5 3.5h52q20 0 26 -4t6 -10q0 -8 -9.5 -19t-24 -21t-32 -17t-34.5 -7q-100 0 -199.5 -5t-202.5 -10q-106 -102 -204 -197.5t-192 -189.5q42 2 93 4.5t102 4.5t97 3t76 1q14 0 14 -15q0 -9 -5.5 -20.5t-14 -22t-19 -17.5t-21.5 -7
q-16 0 -61 -1.5t-103.5 -3.5t-122 -4t-115.5 -4q-124 -126 -244 -256t-241 -270q-5 -6 -10 -8.5t-8 -2.5q-14 0 -22 17t-8 37q0 11 2 20t8 15q51 58 100.5 114.5t99.5 111.5t101.5 110t106.5 111h-26q-11 0 -11 11q0 7 5.5 17.5t14.5 20t19.5 16t20.5 7.5q7 0 16 0.5t17 1
t13.5 1z" />
    <glyph glyph-name="G" unicode="G" horiz-adv-x="799" 
d="M549 -6q-22 -22 -50 -48.5t-66 -63.5q-56 -54 -109.5 -98t-103 -74.5t-94.5 -47.5t-85 -17q-37 0 -53 15t-16 45q0 38 36.5 76t104 77.5t162 80.5t210.5 84q39 38 80 78t78 78q-34 -23 -74.5 -45t-83 -39t-84 -27.5t-78.5 -10.5q-41 0 -69.5 13.5t-46.5 37t-26 54
t-8 64.5q0 46 15.5 102.5t49 119.5t87 131.5t128.5 139.5q107 102 210 174.5t196 118t172.5 66.5t140.5 21q78 0 118.5 -32.5t40.5 -91.5q0 -45 -28.5 -94t-83 -97.5t-133 -93.5t-177.5 -83q-11 -4 -21 -4q-23 0 -41 13.5t-18 27.5q0 12 16 19q109 38 183 78t119 79t64 74
t19 62q0 71 -92 71q-47 0 -115.5 -21.5t-152.5 -66.5t-181 -115.5t-201 -168.5q-48 -45 -87 -96t-67.5 -102.5t-44 -101.5t-15.5 -92q0 -23 6.5 -45.5t19.5 -40.5t32.5 -29.5t46.5 -11.5q31 0 69 11.5t78 30.5t79.5 43.5t75 49.5t64.5 49t48 43q3 3 7 3q12 0 21.5 -18.5
t9.5 -38.5q0 -14 -6 -23q-38 -40 -67 -71t-52.5 -56t-42 -45.5t-34.5 -38.5l79 28l12 4t11 2q8 0 8 -13q0 -7 -2.5 -15.5t-6.5 -16t-9 -13.5t-11 -7q-35 -9 -76 -22t-85 -28zM389 -67q-65 -27 -123.5 -54.5t-103.5 -54t-71.5 -49.5t-26.5 -41q0 -8 5.5 -15t13.5 -7
q24 0 53.5 16t64.5 43t75.5 63t86.5 76z" />
    <glyph glyph-name="H" unicode="H" horiz-adv-x="884" 
d="M44 54q49 46 92.5 88t84 82.5t79 80t78.5 81.5q-11 0 -14.5 4t-3.5 12q0 7 4 16t11.5 17t16.5 13.5t20 5.5q15 2 23 2h12l18 20q38 39 82.5 88t89.5 100.5t86.5 103.5t73.5 97.5t51.5 81.5t19.5 57q0 11 -7 18.5t-19 7.5q-48 0 -118 -26.5t-146.5 -73t-150.5 -108.5
t-129 -133q4 -4 7 -8t3 -11q0 -10 -15 -28.5t-36 -36.5t-42.5 -31.5t-33.5 -13.5q-8 0 -18 6t-10 32q0 31 34.5 81.5t92.5 107t134 114t160 103.5t169.5 75t162.5 29q33 0 48 -18.5t15 -44.5q0 -41 -36 -105.5t-94.5 -142t-131.5 -163.5t-147 -170l140 6t136 4
q25 28 50.5 57.5t53.5 59.5q58 64 128 135.5t142 140t140 129.5t121 104q7 5 12 5q11 0 20 -15.5t9 -32.5q0 -16 -9 -24q-52 -44 -113 -100.5t-125.5 -119.5t-131 -130t-128.5 -132l-70 -75q9 0 30 -0.5t44.5 -0.5t43.5 -0.5t27 -0.5q19 0 19 -16q0 -9 -6 -19.5t-15.5 -20
t-21.5 -16.5t-25 -7q-44 -2 -86 -2h-85q-42 -47 -80.5 -94t-68 -90.5t-47 -80t-17.5 -62.5q0 -17 7.5 -27.5t27.5 -10.5q56 0 129 45.5t168 126.5q5 5 8 6t5 1q9 0 18.5 -10t9.5 -21q0 -2 -1.5 -5.5t-6.5 -8.5q-47 -41 -95.5 -77t-97 -63.5t-95.5 -43.5t-91 -16t-63 17.5
t-19 49.5q0 28 11 61t36.5 76t67 98.5t101.5 128.5q-69 0 -136.5 -0.5t-137.5 -2.5q-100 -105 -203 -209.5t-215 -214.5q-8 -6 -12 -6q-13 0 -22.5 18t-9.5 39q0 11 2.5 20t10.5 17z" />
    <glyph glyph-name="I" unicode="I" horiz-adv-x="361" 
d="M537 435q-109 -117 -223 -233t-239 -237q-8 -5 -12 -5q-12 0 -22 15.5t-10 33.5q0 20 12 31q63 58 117 111.5t105 105t101.5 104.5t106.5 110q38 40 82.5 88t89 98.5t86 101t73.5 95t51.5 79.5t19.5 56q0 18 -9.5 29.5t-29.5 11.5q-39 0 -102.5 -23t-137.5 -67
t-151.5 -107.5t-144.5 -143.5q2 -2 5 -7t3 -12q0 -9 -13.5 -27.5t-32 -37.5t-39 -33.5t-33.5 -14.5q-19 0 -28 10.5t-9 24.5q0 34 34.5 85t93 108.5t135 115t160.5 103.5t170 75t163 29q33 0 48 -18.5t15 -44.5q0 -30 -22 -75.5t-58.5 -100t-83 -114.5t-95 -118
t-94.5 -110.5t-82 -91.5z" />
    <glyph glyph-name="J" unicode="J" horiz-adv-x="557" 
d="M340 77q29 9 55.5 17t55.5 18q4 1 10.5 2.5t9.5 1.5q11 0 11 -12q0 -11 -7.5 -23t-18.5 -15q-46 -13 -93 -27.5t-95 -30.5q-86 -83 -160 -150.5t-137.5 -114.5t-117 -72.5t-96.5 -25.5q-35 0 -56 13.5t-21 50.5t35.5 76t101 79t158.5 80t209 80q62 62 132.5 132
t148.5 149q51 51 108.5 112t113.5 125.5t108 129.5t91 122.5t62.5 104.5t23.5 77q0 48 -48 48q-38 0 -86.5 -20.5t-101.5 -57.5t-108 -87.5t-108 -110.5t-100.5 -128t-84.5 -138q4 -4 6.5 -7.5t2.5 -10.5q0 -8 -11.5 -27.5t-28 -39.5t-35 -35.5t-32.5 -15.5q-18 0 -26.5 11
t-8.5 27q0 28 20 73.5t55.5 101.5t84 118.5t105.5 123.5t120.5 116.5t127.5 98t127.5 67.5t121.5 25q30 0 48.5 -8t29 -20t14 -27.5t3.5 -30.5q0 -44 -23 -101t-62 -122t-92 -135t-113 -140.5t-124 -139.5t-126 -130zM-228 -271q0 -18 20 -18q37 0 114.5 61.5t194.5 172.5
q-67 -28 -127 -56.5t-105 -56.5t-71 -54.5t-26 -48.5z" />
    <glyph glyph-name="K" unicode="K" horiz-adv-x="785" 
d="M436 436q-3 5 -5.5 9.5t-2.5 10.5q0 16 16.5 28t42.5 12h6q38 40 81.5 88t86.5 97.5t82 99t69 91t48 73.5t18 48q0 17 -8 24.5t-28 7.5q-51 0 -117.5 -22t-139.5 -64.5t-148.5 -104.5t-142.5 -142q11 -9 11 -19q0 -8 -13.5 -26t-32.5 -37t-40 -33t-35 -14q-17 0 -24 8.5
t-7 22.5q0 24 19.5 58.5t54 75t82 84.5t103 86.5t117.5 80.5t126 66.5t128 45.5t123 17q37 0 52 -25t15 -55q0 -38 -31.5 -95t-83.5 -126t-118.5 -145t-136.5 -152q125 62 230.5 126.5t202 137t188 157t187.5 185.5q3 3 6 3q9 0 16 -17.5t7 -37.5q0 -11 -2 -19.5t-7 -13.5
q-203 -208 -413 -351.5t-429 -228.5q26 -17 35.5 -42.5t9.5 -55.5q0 -37 -11.5 -78.5t-26 -81t-26 -73.5t-11.5 -56q0 -14 6 -21.5t23 -7.5q30 0 70.5 18t82 44t78.5 54.5t61 48.5q5 5 8 6t5 1q9 0 18.5 -10t9.5 -21q0 -2 -1.5 -5.5t-6.5 -8.5q-29 -25 -71 -57.5t-88.5 -62
t-94 -50t-87.5 -20.5q-59 0 -82 22t-23 56t15 77.5t33 87.5t33 86t15 75q0 20 -6.5 34.5t-23.5 24.5q-110 -115 -224 -233.5t-239 -239.5q-5 -3 -7 -3q-11 0 -21 21t-10 43q0 19 9 27q56 52 106.5 100.5t98.5 95.5t95 94t95 96z" />
    <glyph glyph-name="L" unicode="L" horiz-adv-x="675" 
d="M803 162q-47 -41 -94.5 -76t-96 -61t-97.5 -41t-100 -15q-47 0 -88 4.5t-79 11t-75 13t-75 11.5q-58 -26 -112 -26q-26 0 -36.5 12.5t-10.5 22.5q0 26 32.5 40t78.5 14q15 0 35 -1.5t28 -3.5q51 39 106.5 100t111 130t108.5 139.5t100 129.5q101 128 189.5 228t171.5 170
q92 78 171.5 111t137.5 33q57 0 84.5 -27.5t27.5 -62.5q0 -25 -10.5 -52.5t-27 -55t-37.5 -54t-42.5 -50t-42 -43t-35.5 -32.5q-57 -51 -121 -98t-117 -79q-17 -9 -34 -9q-20 0 -35.5 9t-15.5 20q0 10 11 17q30 19 63 41.5t64.5 45t60.5 45t52 42.5q9 8 27.5 24t40.5 37
t45 45.5t42 49t31 47t12 40.5q0 39 -49 39q-23 0 -53.5 -10t-64 -28.5t-69.5 -44t-69 -55.5q-74 -69 -160.5 -172t-192.5 -238q-44 -56 -92.5 -117.5t-100.5 -120.5t-107 -111.5t-110 -91.5q48 -7 105.5 -13.5t129.5 -6.5q53 0 97.5 11t86 32t82 51t85.5 68q5 5 8 6t5 1
q9 0 18.5 -10t9.5 -21q0 -2 -1.5 -5.5t-6.5 -8.5z" />
    <glyph glyph-name="M" unicode="M" horiz-adv-x="1182" 
d="M1065 858q-22 0 -72.5 -39t-122 -105.5t-158.5 -155t-181 -188t-190 -204.5t-185 -203q-4 -4 -11 -4q-14 0 -25 17.5t-11 37.5q0 8 1.5 15t7.5 12q56 58 104.5 111t94 105t90 104.5t92.5 109.5q34 40 71.5 87.5t74 98t70 100t59 92.5t40.5 77t15 53q0 22 -9 35t-29 13
q-51 0 -113.5 -22.5t-129.5 -65.5t-134 -106t-126 -143q5 -5 8.5 -9t3.5 -11q0 -8 -12 -26t-29.5 -37t-37 -33t-33.5 -14q-20 0 -27.5 11t-7.5 27q0 34 29.5 85t80.5 108t118.5 113.5t144 101.5t157 73.5t157.5 28.5q38 0 59 -24t21 -63q0 -26 -14 -63t-38 -83t-57.5 -99
t-72.5 -109q137 141 233.5 217.5t153.5 76.5q24 0 41.5 -17t17.5 -44q0 -29 -15.5 -67.5t-43.5 -85t-67 -99.5t-85 -111q90 90 177 170.5t165 141.5t143 96.5t109 35.5q29 0 49.5 -17.5t20.5 -46.5q0 -38 -32.5 -89t-85 -111t-119.5 -127t-135.5 -136t-132.5 -137.5
t-111 -131.5q-34 -44 -47 -72.5t-13 -45.5t10 -23.5t24 -6.5q23 0 55 13t69.5 35t78 51.5t79.5 63.5q5 5 8 6t5 1q9 0 18.5 -10t9.5 -21q0 -2 -1.5 -5.5t-6.5 -8.5q-34 -29 -80 -64t-95.5 -65t-99 -50.5t-89.5 -20.5q-78 0 -78 66q0 33 23.5 83t74.5 117q48 63 108 128.5
t123 129.5t122.5 124t106.5 110t75.5 88.5t28.5 60.5q0 7 -3.5 13.5t-14.5 6.5q-21 0 -72 -32t-123.5 -90.5t-163.5 -142t-192.5 -186t-209.5 -222t-214 -250.5q-5 -7 -14 -7q-12 0 -25 16t-13 33q0 9 8 20q120 145 227 277.5t187.5 239.5t127.5 183t47 109q0 7 -4 14t-13 7
z" />
    <glyph glyph-name="N" unicode="N" horiz-adv-x="877" 
d="M320 145q-41 -44 -80.5 -89.5t-83.5 -93.5q-6 -6 -12 -6q-14 0 -25.5 17.5t-11.5 37.5q0 17 12 32q56 58 104 111t93 104t89.5 103.5t93.5 109.5q34 39 71.5 87t74.5 98t70 99.5t58.5 93t40.5 77.5t15 53q0 22 -9 35t-29 13q-51 0 -113.5 -22.5t-129.5 -65.5t-134 -106
t-126 -143q5 -5 8.5 -9t3.5 -12t-12 -25.5t-29.5 -36.5t-37 -33t-33.5 -14q-20 0 -27.5 11t-7.5 27q0 34 29.5 85t80.5 108t118.5 113.5t144 101.5t157 73.5t157.5 28.5q38 0 59 -24t21 -63q0 -30 -20 -78.5t-54.5 -108t-80.5 -127t-98 -136.5q97 93 183.5 169t159 129.5
t129 82.5t94.5 29q30 0 47.5 -18t17.5 -48q0 -38 -30 -89t-79 -111.5t-111.5 -127t-127.5 -135.5t-126.5 -137t-108.5 -131q-34 -45 -47 -72.5t-13 -44.5q0 -16 10 -22.5t24 -6.5q22 0 54 12.5t70 34.5t79 51.5t80 63.5q5 5 8 6t5 1q9 0 18.5 -10t9.5 -21q0 -2 -1.5 -5.5
t-6.5 -8.5q-39 -34 -86.5 -69.5t-96.5 -64.5t-96 -47.5t-86 -18.5q-78 0 -78 66q0 33 23.5 83t74.5 117q48 63 106 128t116.5 128t114 121t98 107.5t68.5 88t26 61.5q0 8 -4 14.5t-13 6.5q-18 0 -63.5 -28.5t-110.5 -78.5t-146 -119.5t-169.5 -151.5t-181 -173.5
t-181.5 -186.5z" />
    <glyph glyph-name="O" unicode="O" horiz-adv-x="811" 
d="M432 725q91 90 180.5 155.5t169.5 108t146 63.5t111 21q7 0 18 -1t21.5 -4t18.5 -9.5t8 -17.5q0 -12 -8 -23q41 0 59.5 -24t18.5 -68q0 -52 -28.5 -122.5t-76.5 -149.5t-110.5 -161t-131.5 -156q-68 -73 -145 -138.5t-155 -114.5t-151.5 -78t-134.5 -29q-30 0 -57 8
t-47.5 26t-32.5 46t-12 68q0 58 25 131t70 152.5t107 161t137 155.5zM1005 909q-5 0 -9 7t-4 17q0 19 10.5 34t27.5 26q-12 3 -26 3q-35 0 -89 -19t-121.5 -58.5t-146 -99.5t-160.5 -141q-71 -70 -127.5 -142t-96 -139.5t-60.5 -127t-21 -104.5q0 -48 29 -76.5t77 -28.5
q49 0 110.5 26.5t127.5 71.5t132.5 103.5t126.5 122.5q61 66 106.5 124t79 110t55.5 99t36 92q9 30 9 51q0 29 -13.5 41.5t-30.5 12.5q-9 0 -13.5 -2.5t-8.5 -2.5z" />
    <glyph glyph-name="P" unicode="P" horiz-adv-x="725" 
d="M1282 935q0 -57 -29.5 -110.5t-78 -102.5t-111 -92t-129 -79t-132 -65t-120 -49t-92.5 -30.5t-50 -10.5q-7 0 -17.5 7t-17.5 16q-50 -51 -98 -103t-98.5 -109t-104 -120t-114.5 -136q-5 -7 -10.5 -12t-10.5 -5q-7 0 -13.5 6t-11 15t-7 19.5t-2.5 20.5q0 13 6 22
q67 78 129 149.5t125 140.5t128.5 138t138.5 141.5t156.5 150t181.5 163.5q2 2 7.5 6t9.5 4q10 0 20 -13t10 -29q0 -17 -12 -28q-111 -107 -201.5 -194t-170.5 -169q60 18 131 44t143 58.5t139 71t119 81.5t83 90.5t31 98.5q0 54 -46 86t-122 32q-72 0 -147 -14t-147 -38
t-139 -56.5t-123 -68.5q-2 -2 -8.5 -6.5t-6.5 -6.5t3.5 -6.5t3.5 -10.5q0 -8 -12 -16q-18 -13 -40 -24t-42 -19.5t-37 -13.5t-26 -5q-17 0 -23 11t-6 18q0 26 32.5 60.5t88.5 70.5t129.5 70.5t155 61.5t166.5 43.5t164 16.5q55 0 102 -12t81 -34.5t53 -54t19 -70.5z" />
    <glyph glyph-name="Q" unicode="Q" horiz-adv-x="811" 
d="M432 725q91 90 180.5 155.5t169.5 108t146 63.5t111 21q7 0 18 -1t21.5 -4t18.5 -9.5t8 -17.5q0 -12 -8 -23q41 0 59.5 -24t18.5 -68q0 -52 -28.5 -122.5t-76.5 -149.5t-110.5 -161t-131.5 -156q-78 -85 -168.5 -158.5t-179.5 -123.5q4 -32 7 -58.5t6.5 -49.5t7 -44.5
t7.5 -44.5q4 -19 6 -32.5t2 -15.5q0 -10 -6.5 -22.5t-16 -24t-20.5 -19t-19 -7.5q-9 0 -12 14q-13 78 -21 142t-14 125q-45 -20 -86.5 -30.5t-78.5 -10.5q-30 0 -57 8t-47.5 26t-32.5 46t-12 68q0 58 25 131t70 152.5t107 161t137 155.5zM1005 909q-5 0 -9 7t-4 17
q0 19 10.5 34t27.5 26q-12 3 -26 3q-35 0 -89 -19t-121.5 -58.5t-146 -99.5t-160.5 -141q-71 -70 -127.5 -142t-96 -139.5t-60.5 -127t-21 -104.5q0 -48 29 -76.5t77 -28.5q25 0 53.5 7t59.5 20q-4 41 -5 83t-3 90q0 7 6.5 18.5t16 22t19.5 18t18 7.5q11 0 11 -15
q2 -56 4.5 -101t5.5 -85q78 45 158.5 113.5t152.5 145.5q61 66 106.5 124t79 110t55.5 99t36 92q9 30 9 51q0 29 -13.5 41.5t-30.5 12.5q-9 0 -13.5 -2.5t-8.5 -2.5z" />
    <glyph glyph-name="R" unicode="R" horiz-adv-x="779" 
d="M413 436q-17 12 -17 28t17 28.5t43 12.5q6 0 11 -1l10 -2q92 94 199 194t239 216q3 3 8 3q9 0 15 -13t6 -27q0 -8 -2 -15t-7 -11q-97 -92 -177.5 -169.5t-153.5 -151.5q60 19 126 45t129.5 57t120.5 67t100.5 74.5t69 79.5t25.5 84q0 50 -36 74.5t-112 24.5
q-74 0 -153 -15t-155 -39.5t-144.5 -57t-121.5 -68.5q-8 -5 -8 -8q0 -2 4 -6.5t4 -10.5q0 -8 -12 -16q-18 -13 -39 -24.5t-40 -20.5t-35.5 -14.5t-25.5 -5.5q-12 0 -19.5 11.5t-7.5 23.5q0 26 32.5 60.5t88.5 70.5t129.5 70.5t155 61.5t166.5 43.5t164 16.5q111 0 177 -42
t66 -120q0 -63 -36.5 -120t-95 -106.5t-132.5 -91.5t-149 -75t-145 -57t-120 -38q29 -18 40.5 -45t11.5 -59q0 -38 -11.5 -79.5t-25 -80.5t-25 -72.5t-11.5 -55.5q0 -29 27 -29q31 0 68.5 15.5t77 40t77.5 53.5t70 56q5 5 8 6t5 1q9 0 18.5 -10t9.5 -21q0 -2 -1.5 -5.5
t-6.5 -8.5q-34 -29 -76.5 -62.5t-88.5 -62t-93 -47t-90 -18.5q-56 0 -78 20.5t-22 54.5q0 33 15.5 75.5t33.5 86.5t33.5 87t15.5 76q0 23 -9 39.5t-31 27.5q-53 -54 -104.5 -110t-105 -116t-110.5 -126t-120 -142q-4 -5 -9 -8.5t-10 -3.5q-11 0 -18.5 14.5t-7.5 34.5
q0 11 3 22t11 20q94 110 182.5 210.5t184.5 201.5z" />
    <glyph glyph-name="S" unicode="S" horiz-adv-x="713" 
d="M1103 982q-52 0 -113.5 -9.5t-121.5 -24.5t-114 -33t-90 -35q-107 -51 -157.5 -103.5t-50.5 -109.5q0 -85 116 -183q51 -45 79 -96t28 -106q0 -67 -36.5 -123t-93.5 -96t-125.5 -62t-132.5 -22q-38 0 -69.5 8.5t-54.5 25t-36 41t-13 55.5q0 29 16.5 60t58.5 67
q7 6 20 11.5t27 10t27.5 7.5t23.5 3q5 0 9.5 -1.5t4.5 -4.5q0 -5 -10 -13q-45 -38 -63 -68t-18 -56q0 -21 10 -36.5t25.5 -26t35 -16t39.5 -5.5q41 0 89.5 17t90.5 47t70.5 70t28.5 85q0 41 -27 84.5t-88 94.5q-55 45 -88 98t-33 110q0 37 15.5 75t49 75.5t87 74t130.5 71.5
q40 19 98 38.5t123 35.5t133 26.5t129 10.5q30 0 68.5 -5t72.5 -19t57 -39.5t23 -67.5q0 -40 -22.5 -82t-56 -80t-72 -68.5t-71.5 -46.5q-26 -13 -50.5 -19t-43.5 -6q-18 0 -28.5 4t-10.5 12q0 10 17 18q15 9 39 24t50.5 34.5t53 41.5t47.5 46.5t34.5 49.5t13.5 49
q0 27 -15 43t-37.5 25t-49 11.5t-48.5 2.5z" />
    <glyph glyph-name="T" unicode="T" horiz-adv-x="578" 
d="M1051 950q-266 -249 -509.5 -502.5t-472.5 -516.5q-5 -6 -11 -6q-11 0 -19 16.5t-8 37.5q0 10 3 21t10 20q189 218 416.5 451.5t488.5 471.5q-87 -8 -173 -21t-167 -33q-11 -18 -37 -29t-52 -11t-39 14t-13 31q0 11 14 22t36 21t48.5 18.5t50.5 13.5q98 20 207 35t220 24
l62 55q4 3 8 3q11 0 19.5 -12t8.5 -26q0 -4 -4 -14q73 3 146 3q40 0 78.5 -1t74.5 -3q8 0 8 -8q0 -9 -9.5 -21.5t-23 -24t-27.5 -19.5t-23 -8q-6 0 -46 1.5t-99 1.5q-41 0 -82 -1.5t-84 -3.5z" />
    <glyph glyph-name="U" unicode="U" horiz-adv-x="891" 
d="M239 242q53 61 116 130.5t127 140.5t124 141t106 133t74 115.5t28 89.5q0 18 -10.5 28.5t-30.5 10.5q-45 0 -103.5 -23t-122.5 -66.5t-129 -106.5t-124 -143q5 -5 8.5 -9.5t3.5 -13.5q0 -7 -11.5 -25t-29.5 -36.5t-38.5 -33t-38.5 -14.5q-11 0 -20 8t-9 32q0 34 28 85
t76.5 107.5t113 112.5t136.5 101.5t147.5 73.5t147.5 28q54 0 78 -22.5t24 -52.5q0 -47 -29.5 -109t-78 -132t-110.5 -145.5t-126.5 -149t-126 -142.5t-110 -126.5t-78 -100.5t-29.5 -65q0 -5 3 -10.5t12 -5.5q22 0 75 33.5t126 91t162 135.5t183 167t189 184.5t180 189.5
q34 37 71 79t78 86q6 6 10 6q12 0 21.5 -16.5t9.5 -35.5q0 -8 -2.5 -16.5t-8.5 -14.5q-56 -59 -99.5 -107t-83 -93.5t-79.5 -92.5t-90 -103q-76 -86 -134 -161t-97 -137t-59 -108t-20 -73q0 -37 33 -37q39 0 109 43t175 133q5 5 8 6t5 1q9 0 18.5 -10t9.5 -21
q0 -2 -1.5 -5.5t-6.5 -8.5q-26 -23 -65 -56t-85 -64.5t-96.5 -53.5t-99.5 -22q-32 0 -57 17.5t-25 63.5q0 22 7.5 52t24.5 68t45.5 85.5t70.5 104.5q-96 -92 -183 -166.5t-160 -127t-130 -81t-93 -28.5q-31 0 -46 19.5t-15 44.5q0 42 34.5 99.5t92.5 124.5z" />
    <glyph glyph-name="V" unicode="V" horiz-adv-x="753" 
d="M228 29q0 40 25 94t66.5 118t94 134t107.5 141t107.5 140.5t94 131.5t66.5 114t25 88q0 19 -8.5 30t-35.5 11q-46 0 -105 -23t-123 -67t-129.5 -107.5t-124.5 -143.5q5 -5 8.5 -9.5t3.5 -13.5q0 -7 -13 -24.5t-31.5 -36t-39 -33t-34.5 -14.5q-11 0 -20 7.5t-9 31.5
q0 34 28.5 85t77.5 108t114 113.5t138 101.5t149 73.5t148 28.5q54 0 78 -22.5t24 -52.5q0 -46 -25 -106t-65.5 -127.5t-92.5 -140.5t-106.5 -144.5t-106.5 -140t-92.5 -127t-65.5 -104t-25 -73.5q0 -8 5 -18.5t16 -10.5q20 0 62 32t104 92t143.5 146t180.5 194
q67 73 138.5 142.5t139.5 128.5t130.5 104t112.5 70q2 2 4.5 2h3.5q8 0 11.5 -8t3.5 -20q0 -17 -7 -35.5t-22 -25.5q-66 -29 -188 -131.5t-283 -278.5q-102 -111 -189.5 -202.5t-161 -157.5t-132 -102.5t-100.5 -36.5q-30 0 -52.5 19t-22.5 56z" />
    <glyph glyph-name="W" unicode="W" horiz-adv-x="1065" 
d="M1093 809q22 25 43 48.5t39 45.5q9 11 17 11q11 0 17 -15.5t6 -32.5q0 -14 -3.5 -25.5t-10.5 -18.5q-76 -79 -147 -157.5t-133 -153t-113 -142.5t-88 -125t-57 -101.5t-20 -70.5q0 -13 5 -22t16 -9q20 0 62.5 32t104.5 92t143.5 146t180.5 194q67 73 138 142.5t138.5 128
t128.5 103t109 68.5q3 2 7 3.5t7 1.5q8 0 12 -8t4 -20q0 -17 -8 -36t-22 -25q-66 -29 -188 -131.5t-283 -278.5q-102 -111 -189.5 -202.5t-160.5 -157.5t-131.5 -102.5t-101.5 -36.5q-28 0 -50 17t-22 52q0 28 13.5 65.5t38 81.5t57.5 93.5t72 102.5q-96 -98 -179.5 -175
t-152.5 -130t-122.5 -81.5t-90.5 -28.5q-29 0 -48 18t-19 49q0 42 34.5 99.5t92.5 124.5q53 61 116 130.5t126.5 140.5t123.5 140.5t106 132.5t74 115.5t28 88.5q0 19 -10 30t-33 11q-47 0 -106 -23t-123 -67t-129 -107.5t-124 -143.5q5 -5 8.5 -9.5t3.5 -13.5
q0 -7 -11.5 -24.5t-29.5 -36t-38.5 -33t-38.5 -14.5q-11 0 -20 7.5t-9 31.5q0 34 28.5 85t77.5 108t114 113.5t138 101.5t149 73.5t148 28.5q57 0 79.5 -22.5t22.5 -52.5q0 -47 -29.5 -109t-78 -132.5t-110.5 -145.5t-127 -149t-127 -142.5t-110.5 -126t-78 -100.5
t-29.5 -64q0 -17 16 -17q19 0 64.5 29t110.5 80.5t145.5 122.5t169 156t182.5 180t185 194z" />
    <glyph glyph-name="X" unicode="X" horiz-adv-x="644" 
d="M513 311q-112 -88 -230 -172t-252 -160q-2 -2 -5.5 -3.5t-7.5 -1.5q-8 0 -12 10.5t-4 24.5q0 13 3.5 23.5t14.5 16.5q165 97 291.5 185.5t230.5 171.5l23 64q28 78 64.5 150.5t72.5 134t67.5 109.5t49.5 77q7 11 13.5 25t6.5 30q0 17 -11 24t-31 7q-41 0 -103.5 -22.5
t-133.5 -65.5t-143 -106t-131 -143q6 -5 9 -9.5t3 -13.5q0 -7 -11.5 -24.5t-28 -36t-35.5 -33t-33 -14.5q-17 0 -27 8t-10 31q0 34 32 85t86.5 108t126.5 113.5t152 101.5t163.5 73.5t160.5 28.5q42 0 60 -19.5t18 -43.5q0 -17 -8.5 -39.5t-19.5 -41.5q-22 -41 -56.5 -91.5
t-72.5 -109.5t-76.5 -127.5t-69.5 -144.5q80 67 153.5 129t150 120t161.5 112.5t188 105.5q3 1 8 1q11 0 15.5 -10.5t4.5 -24.5q0 -13 -4 -23.5t-12 -12.5q-88 -39 -173.5 -93.5t-172 -119.5t-175 -137.5t-181.5 -147.5q-18 -54 -31.5 -102t-21.5 -97.5t-12 -105.5t-4 -128
q0 -7 -9 -7q-8 0 -18.5 4.5t-20.5 12t-17 17t-7 19.5q0 88 10.5 160.5t31.5 147.5z" />
    <glyph glyph-name="Y" unicode="Y" horiz-adv-x="797" 
d="M1120 776q48 51 92 104.5t90 104.5q8 8 14 8q11 0 20 -16.5t9 -36.5q0 -8 -1.5 -16t-7.5 -15q-128 -144 -225 -260.5t-175.5 -213t-143 -178t-126.5 -156.5l46 15q3 2 8 3.5t7 1.5q6 0 8.5 -5t2.5 -13q0 -11 -5 -21.5t-14 -14.5l-115 -39q-35 -41 -72 -82t-79 -84
q-100 -103 -192 -160t-157 -57q-29 0 -51 16t-22 51q0 42 34 84.5t98.5 85.5t158.5 86t214 87q61 72 128 155t141 174q-89 -81 -168 -145.5t-145 -109t-118.5 -68t-88.5 -23.5q-23 0 -43 13t-20 44q0 34 26.5 82t70 105.5t99 122t113.5 130t113.5 130.5t99 124t70 109
t26.5 87q0 19 -9 30.5t-31 11.5q-48 0 -111.5 -22.5t-133 -65.5t-139 -106t-128.5 -143q5 -5 8.5 -9.5t3.5 -13.5q0 -7 -11.5 -24.5t-29.5 -36t-38.5 -33t-38.5 -14.5q-11 0 -20 7.5t-9 31.5q0 34 31 85t83 108t121 113.5t145.5 101.5t155 73.5t150.5 28.5q57 0 79.5 -22.5
t22.5 -52.5q0 -47 -26 -105.5t-69 -123t-97.5 -132.5t-111 -134t-111 -127t-97.5 -111.5t-69 -88t-26 -56.5q0 -8 4 -12.5t17 -4.5q22 0 65.5 23t102 65t129.5 100.5t148.5 129.5t159 152t160.5 168zM142 -280q24 0 53.5 15t62.5 40.5t69.5 60.5t76.5 75q15 15 30 32t31 34
q-64 -25 -126.5 -54t-112 -59t-80 -60.5t-30.5 -59.5q0 -14 9 -19t17 -5z" />
    <glyph glyph-name="Z" unicode="Z" horiz-adv-x="554" 
d="M207 598q0 44 27.5 95.5t73.5 103.5t106 100.5t124.5 85.5t129 59.5t120.5 22.5q33 0 61.5 -9t50 -26t34 -43t12.5 -60q0 -47 -25 -102t-69 -114.5t-102 -121.5t-125 -122t-138 -117t-140 -107q17 5 34 8t34 3q38 0 58.5 -16.5t20.5 -53.5q0 -25 -9.5 -53t-26.5 -59
l52 18q7 2 12 4t7 2q10 0 10 -13q0 -12 -8 -25t-18 -17l-94 -32q-25 -35 -54 -72t-59 -70q-97 -107 -184.5 -164.5t-152.5 -57.5q-39 0 -57.5 21.5t-18.5 47.5q0 40 32.5 80t94 80.5t150 81t199.5 82.5q25 35 39 64t14 49q0 23 -14 32.5t-35 9.5q-20 0 -44.5 -7t-51 -19
t-52 -27t-47.5 -30q-3 -1 -5.5 -2t-4.5 -1q-8 0 -13 11.5t-5 26.5q0 12 4.5 24t12.5 18q89 57 175.5 121t164 130t144 131.5t114.5 125.5t75.5 112.5t27.5 93.5q0 43 -28.5 65.5t-74.5 22.5q-48 0 -109.5 -22.5t-123.5 -61.5t-117.5 -91.5t-91.5 -112.5q5 -5 8.5 -9.5
t3.5 -13.5q0 -7 -9 -26t-22.5 -39t-29.5 -35.5t-31 -15.5q-18 0 -27 10t-9 26zM314 -31q-61 -23 -121 -50.5t-107 -57t-76.5 -61t-29.5 -62.5q0 -10 6.5 -18t18.5 -8q19 0 48 16t63.5 44t73 65t76.5 79z" />
    <glyph glyph-name="bracketleft" unicode="[" horiz-adv-x="589" 
d="M358 -41q12 0 12 -14q0 -11 -8 -23t-21 -14q-20 -3 -50 -8.5t-59 -10t-51 -8t-25 -3.5q-9 0 -16.5 7.5t-7.5 15.5q0 4 3 9q183 215 350 432t328 441q5 10 14 13.5t22 5.5q28 3 64.5 6.5t64.5 5.5q15 2 22 2h8q14 0 14 -16q0 -10 -8 -21.5t-21 -13.5q-32 -7 -63.5 -11.5
t-60.5 -9.5q-74 -102 -146 -201t-147 -197.5t-154 -196.5t-166 -199q13 1 29.5 3t31.5 3t26.5 2t14.5 1z" />
    <glyph glyph-name="backslash" unicode="\" horiz-adv-x="399" 
d="M245 -263q0 -15 -5 -25t-18 -10q-7 0 -17 3.5t-19.5 11t-16.5 19t-7 28.5q0 144 10.5 289.5t35 292t64.5 292t100 288.5q8 18 14 27.5t16 9.5q9 0 22 -7q13 -8 17 -14t4 -13q0 -11 -4 -22q-50 -139 -87 -277.5t-61 -281.5t-36 -294.5t-12 -316.5z" />
    <glyph glyph-name="bracketright" unicode="]" horiz-adv-x="589" 
d="M583 712q-12 0 -12 13q0 11 8 23t21 14q20 3 50 8.5t59 10.5t51 8.5t25 3.5q9 0 16.5 -7.5t7.5 -15.5q0 -5 -3 -9q-183 -216 -350 -432.5t-327 -441.5q-11 -16 -37 -19q-28 -3 -64.5 -6.5t-64.5 -5.5q-15 -1 -22 -1h-8q-14 0 -14 15q0 11 8 22t21 13q32 7 63.5 12
t60.5 10q73 102 145.5 201t147.5 197t154.5 196.5t166.5 199.5q-14 -2 -30.5 -3.5t-31.5 -3t-26.5 -2t-14.5 -0.5z" />
    <glyph glyph-name="asciicircum" unicode="^" horiz-adv-x="565" 
d="M600 660q11 0 24.5 -11.5t13.5 -28.5q0 -8 -3.5 -33t-8.5 -60t-10.5 -76t-9.5 -81q-1 -8 -6 -16t-12 -15t-15 -11t-14 -4q-11 0 -11 14q1 71 7 129t14 102q-31 -26 -70.5 -60t-80.5 -69t-79.5 -67.5t-66.5 -54.5q-4 -4 -9 -4q-8 0 -11.5 9.5t-3.5 22.5q0 11 2.5 21.5
t9.5 18.5q17 16 44.5 40.5t60 51.5t67 55t64 52t51.5 41t30 23q8 5 13 8t10 3z" />
    <glyph glyph-name="underscore" unicode="_" horiz-adv-x="572" 
d="M-136 -176q-14 0 -14 11q0 6 5 14.5t13 16t19.5 12.5t23.5 6q13 1 39.5 2t61.5 1.5t76.5 0.5h85.5h110t103.5 -1t86 -2t57.5 -3q12 -2 12 -12q0 -6 -4 -14t-10 -15t-14 -12t-16 -5h-635z" />
    <glyph glyph-name="grave" unicode="`" horiz-adv-x="350" 
d="M353 494q4 -18 7 -31t5.5 -24t5.5 -21.5t8 -22.5q3 -7 6.5 -16.5t3.5 -11.5q0 -11 -9 -18.5t-17 -7.5q-7 0 -10 5q-6 11 -14.5 27.5t-16 33.5t-12.5 31.5t-5 22.5q0 16 14.5 27.5t24.5 11.5q8 0 9 -6z" />
    <glyph glyph-name="a" unicode="a" horiz-adv-x="494" 
d="M274 80q-21 -18 -44 -35t-47 -30.5t-48.5 -21.5t-48.5 -8q-35 0 -52 21t-17 57q0 45 28.5 88.5t72.5 77t95.5 54t98.5 20.5q35 0 55.5 -17t27.5 -40q5 5 14 13.5t19 17.5q17 14 22 18.5t9 4.5q11 0 20 -13t9 -33q0 -9 -11 -20t-28.5 -26t-38.5 -32q-13 -11 -26.5 -23
t-24.5 -25.5t-18 -27.5t-7 -28t6.5 -18.5t17.5 -4.5q15 0 37 10t46 25t48 33.5t44.5 35.5t35.5 29.5t20 17.5t8 6t5 1q9 0 18.5 -10t9.5 -21q0 -2 -1.5 -5.5t-6.5 -8.5q-5 -4 -21 -19t-39 -34.5t-51.5 -41.5t-59 -40t-60 -30t-54.5 -12q-35 0 -53.5 15t-18.5 38q0 21 9 42z
M167 193q-39 -32 -55 -56.5t-16 -43.5q0 -16 8 -25.5t25 -9.5q18 0 44 13t55.5 34.5t60.5 48t61 53.5q-3 18 -17 28t-35 10q-17 0 -35 -5t-36 -13t-33.5 -17t-26.5 -17z" />
    <glyph glyph-name="b" unicode="b" horiz-adv-x="416" 
d="M318 107q-14 -27 -32.5 -50.5t-40.5 -41.5t-47 -28t-50 -10q-23 0 -38.5 10t-25.5 25.5t-14 34t-4 34.5q0 47 30.5 116.5t82.5 150.5t122 167t150 167q83 84 165 159.5t154.5 132.5t133 90t100.5 33q26 0 26 -33q0 -24 -21.5 -63t-58.5 -87t-85.5 -102.5t-102.5 -109.5
t-109.5 -107.5t-106.5 -95.5q-63 -54 -121.5 -101t-112.5 -89q21 -7 29 -31.5t8 -54.5q0 -17 -5 -42q13 -12 28.5 -18.5t38.5 -6.5q49 0 100 44q5 5 8 6t5 1q11 0 19.5 -10t8.5 -21q0 -2 -1.5 -5.5t-6.5 -8.5q-8 -7 -24 -19.5t-37 -25t-46 -21.5t-51 -9q-19 0 -36 5.5
t-32 14.5zM927 1001q-10 0 -46 -26.5t-92.5 -76t-131.5 -120.5t-164 -161q-86 -87 -157.5 -165.5t-119.5 -150.5q33 27 66.5 53t70.5 56t79 65t93 80q47 42 95 88.5t93 92.5t84.5 89.5t69.5 78.5t47.5 59.5t18.5 32.5q0 5 -6 5zM248 257l-95 -78q-12 -36 -12 -70
q0 -32 8.5 -45.5t28.5 -13.5q15 0 30 8.5t28.5 22t24.5 30t19 33.5q-15 22 -23.5 49t-8.5 56v8z" />
    <glyph glyph-name="c" unicode="c" horiz-adv-x="324" 
d="M452 162q-5 -4 -22.5 -19.5t-43 -36t-57.5 -43t-68 -41t-73.5 -31t-72.5 -12.5q-44 0 -69 28t-25 73q0 40 27.5 82t68.5 76t90 55.5t91 21.5q27 0 40.5 -16t13.5 -42q0 -12 -5.5 -24.5t-14.5 -22t-20.5 -16t-23.5 -6.5q-13 0 -16.5 10t-4.5 21.5t-3 21.5t-12 10
q-15 0 -40.5 -15.5t-50.5 -39t-43.5 -52t-18.5 -54.5q0 -23 15 -33t30 -10q35 0 78.5 20.5t83.5 47t71 51.5t42 34q5 5 8 6t5 1q9 0 18.5 -10t9.5 -21q0 -2 -1.5 -5.5t-6.5 -8.5z" />
    <glyph glyph-name="d" unicode="d" horiz-adv-x="517" 
d="M291 80q-54 -41 -103 -66t-87 -25q-20 0 -34 7t-22.5 18.5t-12.5 26t-4 29.5q0 44 26.5 86.5t67 75.5t89.5 53t94 20q20 0 35.5 -8t25.5 -18q42 73 96 145t107 131q55 62 116.5 121.5t123 112.5t119.5 97.5t107 77t86 51t56 18.5q26 0 26 -25q0 -17 -29.5 -58t-77 -95
t-107.5 -116t-121 -122.5t-117 -114t-95 -90.5q-62 -58 -133 -127.5t-145 -133.5q-8 -29 -8 -48q0 -15 7 -25.5t21 -10.5q22 0 55 18t66 41.5t59 45t34 28.5q5 5 8 6t5 1q9 0 18.5 -10t9.5 -21q0 -2 -1.5 -5.5t-6.5 -8.5q-5 -4 -22 -19t-41 -35t-53.5 -41.5t-59.5 -39.5
t-58.5 -30t-50.5 -12q-19 0 -32 7t-21.5 18.5t-12 25t-3.5 25.5v19zM1123 959q-62 -42 -126 -93t-128 -108t-125.5 -117.5t-117.5 -121.5q-46 -50 -97.5 -115.5t-92.5 -131.5q60 56 114 107.5t91 87.5q41 39 99.5 95.5t124 122t132.5 136t126 138.5zM138 64q27 0 73 28.5
t101 72.5q5 12 10.5 25.5t11.5 25.5q-10 29 -52 29q-23 0 -51.5 -9.5t-57.5 -31.5q-36 -28 -52.5 -55t-16.5 -48q0 -16 8.5 -26.5t25.5 -10.5z" />
    <glyph glyph-name="e" unicode="e" horiz-adv-x="350" 
d="M478 162q-5 -4 -23 -19t-45.5 -35t-63 -41.5t-74.5 -39.5t-80.5 -30t-81.5 -12q-20 0 -37 6.5t-29 18t-19 26t-7 30.5q0 43 28 86.5t70 78t91 56t90 21.5q23 0 37.5 -12.5t14.5 -38.5q0 -31 -21 -59t-55 -49.5t-78.5 -34t-90.5 -13.5q-1 -5 -1 -12q0 -23 10 -32.5
t31 -9.5q45 0 95 21.5t93 48.5t74 51.5t39 31.5q5 5 8 6t5 1q9 0 18.5 -10t9.5 -21q0 -2 -1.5 -5.5t-6.5 -8.5zM291 234q0 7 -4 12.5t-15 5.5q-12 0 -31.5 -9t-41 -24t-41.5 -34t-34 -40q26 0 55.5 9.5t54 23t41 29t16.5 27.5z" />
    <glyph glyph-name="f" unicode="f" horiz-adv-x="305" 
d="M-40 -242q-47 -53 -102 -104.5t-109 -92t-100.5 -65.5t-75.5 -25q-16 0 -26.5 11t-10.5 28q0 24 18.5 58t47.5 73t64.5 80t70.5 80q68 77 151 170t174 192t185 200t184.5 194.5t173 175t149.5 141.5q4 4 13 4q11 0 22 -10t11 -22q0 -5 -2 -8l-4 -6q-136 -130 -277.5 -275
t-282.5 -297q1 -29 7 -48.5t15.5 -30.5t21.5 -15.5t25 -4.5q31 0 53.5 10.5t43.5 28.5q6 5 8.5 6t4.5 1q9 0 18.5 -10t9.5 -21q0 -2 -1.5 -5.5t-6.5 -8.5q-8 -7 -23 -17.5t-34 -20.5t-40.5 -17.5t-43.5 -7.5q-20 0 -42 8t-37 28q-16 -44 -43.5 -93t-62 -98.5t-72.5 -97
t-75 -88.5zM-367 -444q10 0 40.5 22t71 57t87 80t88.5 91q43 46 87.5 101.5t80.5 109.5t59.5 100.5t23.5 75.5q-100 -108 -195.5 -215t-189.5 -212q-35 -39 -64.5 -72.5t-50.5 -60t-32.5 -45t-11.5 -26.5q0 -6 6 -6z" />
    <glyph glyph-name="g" unicode="g" horiz-adv-x="477" 
d="M-17 -118q34 17 78.5 35t94.5 39q28 27 54 54.5t50 56.5q-40 -32 -85 -57t-89 -25q-35 0 -52 21t-17 57q0 45 28.5 88.5t72.5 77t95.5 54t98.5 20.5q35 0 55.5 -16t27.5 -39l47 41q8 7 14 9t9 2q9 0 19 -13t10 -27q0 -3 -1.5 -8t-8.5 -12q-17 -16 -50.5 -51.5
t-90.5 -101.5l-74 -84q13 6 25.5 11.5t25.5 13.5q60 31 102.5 58t72.5 49.5t48 39t29 25.5q5 5 8 6t5 1q9 0 18.5 -10t9.5 -21q0 -2 -1.5 -5.5t-6.5 -8.5q-11 -9 -28 -25t-46 -38t-72 -50.5t-106 -62.5q-33 -18 -77.5 -37t-91.5 -39q-81 -86 -163.5 -164.5t-158.5 -138.5
t-141.5 -96t-110.5 -36q-11 0 -22 3t-20 10.5t-15 19.5t-6 30q0 28 19 58t51.5 60t75.5 60.5t91.5 59t99.5 55.5t99 51zM-378 -442q0 -8 4 -10t10 -2q22 0 65 24t99.5 65.5t122.5 98t134 121.5q-25 -11 -45.5 -21t-37.5 -19q-40 -22 -82 -47t-81 -50t-73.5 -49.5t-60 -45.5
t-40.5 -38t-15 -27zM95 80q0 -10 5.5 -16.5t21.5 -6.5q21 0 47.5 13t56 34t61 48t63.5 55q-3 14 -13 25t-32 11q-17 0 -39 -7.5t-45.5 -20.5t-46 -29.5t-40 -34.5t-28.5 -36.5t-11 -34.5z" />
    <glyph glyph-name="h" unicode="h" 
d="M87 186q0 4 1 6.5t7 7.5q8 7 30 27.5t51.5 49t62.5 61.5t62 63q77 89 155.5 171.5t151.5 154.5t137 131t113 100q38 32 66 32q20 0 20 -18q0 -23 -34 -58q-78 -84 -148 -155.5t-142 -142.5t-152 -146.5t-177 -168.5q-32 -34 -61 -68t-56 -69q42 30 84 55t78.5 43t65 28.5
t42.5 10.5q11 0 20 -15t9 -26q0 -7 -9.5 -16.5t-22.5 -20t-27.5 -20.5t-24.5 -19q-15 -12 -30 -26.5t-27 -29t-19.5 -28t-7.5 -25.5q0 -9 5 -16t14 -7q16 0 38 9.5t46 24.5t48 33t44 34.5t34.5 29t19.5 17.5t8 6t5 1q9 0 18.5 -10t9.5 -21q0 -2 -1.5 -5.5t-6.5 -8.5
t-21 -19.5t-39 -33.5t-51.5 -40.5t-59 -39.5t-61 -29.5t-57.5 -11.5q-31 0 -51.5 18.5t-20.5 48.5q0 35 22 67.5t57 64.5q-38 -21 -67.5 -40.5t-55.5 -40t-50 -43.5t-49 -51q-8 -9 -15 -15t-13 -6q-11 0 -24 9.5t-13 17.5q0 6 4.5 13.5t9.5 14.5q19 29 37.5 55.5t38.5 55.5
q-6 2 -13.5 10t-7.5 19z" />
    <glyph glyph-name="i" unicode="i" horiz-adv-x="256" 
d="M384 162q-5 -4 -21.5 -19t-40 -35t-52 -41.5t-58.5 -39.5t-58.5 -30t-52.5 -12q-39 0 -60 22t-21 56q0 27 17.5 59t45 65t62 65t68.5 60q6 5 10 5q5 0 11 -4t11 -9.5t8.5 -12t3.5 -12.5q0 -5 -5 -10q-27 -27 -54.5 -54t-49 -51.5t-35.5 -46.5t-14 -39q0 -26 26 -26
q17 0 38.5 9.5t45 24.5t46.5 33t42.5 34.5t34 29t19.5 17.5t8 6t5 1q9 0 18.5 -10t9.5 -21q0 -2 -1.5 -5.5t-6.5 -8.5zM406 462q0 -15 -8 -31t-20.5 -29t-27.5 -21.5t-29 -8.5q-12 0 -21 8.5t-9 25.5q0 15 7.5 30.5t19.5 28t27 21t30 8.5q14 0 22.5 -7.5t8.5 -24.5z" />
    <glyph glyph-name="j" unicode="j" horiz-adv-x="254" 
d="M-58 -38q44 50 82 96.5t80 100.5q-4 2 -10.5 9t-6.5 18q0 4 1.5 6.5t6.5 7.5q8 7 24 23t33.5 33t32.5 32.5t20 20.5q6 6 15 6q14 0 27 -10.5t13 -21.5q0 -4 -17.5 -29t-47 -63t-68.5 -86t-81 -99q22 11 43 20.5t43 20.5q42 21 78.5 45t64.5 46t47 38.5t27 23.5q5 5 8 6
t5 1q9 0 18.5 -10t9.5 -21q0 -2 -1.5 -5.5t-6.5 -8.5q-8 -7 -29 -24.5t-51.5 -40t-69 -47.5t-81.5 -47q-45 -23 -90.5 -43t-88.5 -40q-34 -40 -67 -76.5t-61 -65.5q-23 -24 -55 -56t-68 -65.5t-75 -66.5t-76.5 -58.5t-71.5 -41.5t-61 -16q-23 0 -41.5 16t-18.5 42
q0 30 23.5 65.5t65.5 70.5q37 31 81.5 64.5t92.5 65.5t98 61t98 52zM-543 -467q14 0 38 14.5t54 37.5t63.5 52t66 59t61 57.5t49.5 47.5q16 16 31.5 31t29.5 30q-11 -5 -23 -12t-23 -14q-39 -25 -80.5 -52t-80 -54t-73 -53.5t-60.5 -49.5q-3 -3 -13.5 -13t-22.5 -23
t-21.5 -25.5t-9.5 -21.5q0 -11 14 -11zM407 462q0 -15 -8 -31t-20 -29t-27 -21.5t-29 -8.5q-13 0 -22 8.5t-9 25.5q0 15 7.5 30.5t19.5 28t27 21t30 8.5q31 0 31 -32z" />
    <glyph glyph-name="k" unicode="k" 
d="M361 225q0 11 -11 11q-22 0 -59 -23.5t-80 -61.5q76 14 113 36.5t37 37.5zM857 958q38 32 66 32q9 0 15 -4.5t6 -13.5q0 -23 -34 -58q-78 -84 -148 -155.5t-142 -142.5t-152 -146.5t-177 -168.5q-23 -25 -45 -49.5t-42 -51.5q123 109 195 109q20 0 31 -12.5t11 -33.5
t-13 -42.5t-37 -41t-57.5 -35t-73.5 -22.5q2 -11 6.5 -23t12 -22.5t19 -17.5t26.5 -7q22 0 57 19.5t70 45t63.5 50t39.5 33.5q5 5 8 6t5 1q9 0 18.5 -10t9.5 -21q0 -2 -1.5 -5.5t-6.5 -8.5t-21.5 -19.5t-40 -33.5t-52.5 -40.5t-59 -39.5t-60 -29.5t-56 -11.5
q-46 0 -75.5 29.5t-47.5 101.5q-24 -24 -47 -50.5t-46 -56.5q-17 -21 -28 -21t-24 9.5t-13 17.5q0 6 4.5 13.5t9.5 14.5q19 29 37.5 55.5t38.5 55.5q-6 2 -13.5 10t-7.5 19q0 4 1 6.5t7 7.5q8 7 30 27.5t51.5 49t62.5 61.5t62 63q77 89 155.5 171t151.5 154t137.5 131
t112.5 101z" />
    <glyph glyph-name="l" unicode="l" horiz-adv-x="335" 
d="M1036 1051q0 -31 -26.5 -74t-72.5 -95t-107.5 -111t-130.5 -122q-127 -115 -257 -226.5t-271 -223.5q-10 -24 -15.5 -44.5t-5.5 -36.5q0 -15 7.5 -31.5t27.5 -16.5q36 0 76 18t75.5 41t61 44t33.5 28q7 6 12 6q9 0 18.5 -10t9.5 -21q0 -2 -1.5 -5.5t-6.5 -8.5t-22 -19.5
t-42.5 -34t-57 -41t-65 -39.5t-68.5 -30t-66 -12q-38 0 -58 29t-20 65q0 44 18 93t49 101t72.5 106t89 107.5t98.5 106t100 101.5q86 85 169.5 156t154 121.5t123.5 78.5t78 28q11 0 15.5 -8t4.5 -20zM918 972q-24 -13 -119.5 -91t-256.5 -234q-96 -92 -170 -174t-127 -155
q111 91 217.5 185t212.5 193q100 94 166 160.5t94 104.5q8 11 8 14q0 4 -5 4q-7 0 -20 -7z" />
    <glyph glyph-name="m" unicode="m" horiz-adv-x="712" 
d="M87 186q0 4 1.5 6.5t6.5 7.5q16 14 45 43.5t60 67.5q7 9 17 9q13 0 27.5 -12t14.5 -28q0 -5 -5 -18q-11 -30 -27.5 -59.5t-36.5 -57.5q33 28 67.5 57t66.5 53t59 39t47 15q35 0 35 -37q0 -7 -0.5 -16t-3.5 -21.5t-10 -29t-19 -38.5q40 29 81 53.5t77 42.5t64 28t42 10
q12 0 20.5 -15t8.5 -26q0 -7 -9 -16.5t-22.5 -20t-28 -20.5t-24.5 -19q-15 -12 -30 -26.5t-27 -29t-19.5 -28t-7.5 -25.5q0 -9 5.5 -16t14.5 -7q27 0 63.5 20.5t71 46.5t61 50t34.5 31q5 5 8 6t5 1q9 0 18.5 -10t9.5 -21q0 -2 -1.5 -5.5t-6.5 -8.5t-21.5 -19.5t-40.5 -33.5
t-53 -40.5t-59.5 -39.5t-60 -29.5t-54.5 -11.5q-31 0 -51.5 18.5t-20.5 48.5q0 35 21.5 67.5t56.5 64.5q-37 -21 -67 -40.5t-56 -40t-50 -43.5t-49 -51q-8 -9 -15 -15t-15 -6t-21 9t-13 21q0 11 9 25q28 43 50 82.5t45 90.5q-72 -54 -139 -110t-140 -124q-6 -6 -19 -6
q-15 0 -30 8.5t-15 20.5q0 4 3 9q28 39 50.5 74.5t42.5 70.5q-5 -5 -8 -6t-5 -1q-9 0 -18.5 10t-9.5 21z" />
    <glyph glyph-name="n" unicode="n" 
d="M262 277q0 -6 -2.5 -10.5t-7.5 -12.5q-9 -13 -25.5 -32.5t-38.5 -47.5q40 28 80 51t74.5 40t61 26.5t40.5 9.5q11 0 20 -15t9 -26q0 -7 -9.5 -16.5t-22.5 -20t-27.5 -20.5t-24.5 -19q-15 -12 -30 -26.5t-27 -29t-19.5 -28t-7.5 -25.5q0 -9 5 -16t14 -7q24 0 48 10.5
t51.5 30t59.5 46.5t71 61q5 5 8 6t5 1q9 0 18.5 -10t9.5 -21q0 -2 -1.5 -5.5t-6.5 -8.5q-29 -25 -65 -55t-74.5 -56.5t-77 -44.5t-72.5 -18q-31 0 -51.5 18.5t-20.5 48.5q0 35 22 67.5t57 64.5q-38 -21 -67.5 -40.5t-55.5 -40t-50 -43.5t-49 -51q-8 -9 -15 -15t-13 -6
q-5 0 -11 3t-12 7t-10 8.5t-4 8.5q0 8 5 15.5t9 12.5l73 112q-6 4 -12 11.5t-6 16.5q0 4 1.5 6.5t6.5 7.5q16 14 45.5 44t62.5 70q9 10 22 10q6 0 13 -5t12 -12t8.5 -15t3.5 -15z" />
    <glyph glyph-name="o" unicode="o" horiz-adv-x="399" 
d="M337 96q-22 -25 -48.5 -46.5t-55 -37t-58 -24.5t-57.5 -9q-90 0 -90 94q0 42 29 85.5t72.5 79t94 58t94.5 22.5q46 0 64.5 -22t18.5 -54q0 -20 -5.5 -39.5t-16.5 -40.5q9 -4 23 -4q26 0 48.5 12t43.5 30q5 5 8 6t5 1q9 0 18.5 -10t9.5 -21q0 -2 -1.5 -5.5t-6.5 -8.5
q-16 -14 -32.5 -27t-34.5 -24t-37 -17.5t-40 -6.5q-28 0 -46 9zM298 129q-10 19 -10 47q0 26 11.5 44.5t29.5 24.5q-14 7 -31 7q-25 0 -57.5 -13t-67.5 -39q-15 -11 -29 -25t-24 -28.5t-16 -29t-6 -27.5q0 -20 13 -31.5t33 -11.5t48 11t64 35q12 10 23 19t19 17z" />
    <glyph glyph-name="p" unicode="p" horiz-adv-x="496" 
d="M-436 -422q0 16 9 27q67 73 136 144.5t137.5 140.5t134.5 135.5t128 130.5q-7 3 -14.5 11t-7.5 19q0 4 1.5 6.5t6.5 7.5q8 7 30.5 27.5t53 49t64.5 61.5t65 66q5 5 10 5q10 0 18 -10t8 -24q0 -5 -1 -10.5t-6 -11.5q-22 -29 -41.5 -52.5t-38.5 -46.5q33 23 70 37.5
t69 14.5q18 0 31.5 -7.5t22.5 -19.5t13.5 -25.5t4.5 -25.5q0 -42 -30 -87.5t-75 -80.5q66 23 120.5 59t107.5 81q5 5 7.5 6t5.5 1q9 0 18.5 -10t9.5 -21q0 -2 -1.5 -5.5t-6.5 -8.5q-47 -41 -99 -74.5t-106 -57.5t-109 -37.5t-108 -13.5q-18 0 -35.5 4.5t-31 14t-21.5 26
t-8 40.5q-15 -17 -31.5 -34.5t-33.5 -35.5q-45 -50 -98.5 -105.5t-110.5 -113.5t-115.5 -114.5t-112.5 -107.5q-12 -9 -19 -9q-10 0 -15.5 10.5t-5.5 23.5zM392 200q0 17 -10 30t-29 13q-33 0 -78 -30t-102 -83q-9 -21 -9 -38q0 -21 13 -36.5t39 -15.5q14 0 29.5 5.5t30 13
t27 16.5t21.5 17q8 7 20 19t22.5 26.5t18 31t7.5 31.5z" />
    <glyph glyph-name="q" unicode="q" horiz-adv-x="477" 
d="M252 0q40 22 79.5 42.5t79 43.5t79.5 50.5t82 63.5q5 5 8 6t5 1q9 0 18.5 -10t9.5 -21q0 -2 -1.5 -5.5t-6.5 -8.5q-46 -39 -90.5 -68.5t-88.5 -54t-87 -46.5t-85.5 -46t-83.5 -53t-81 -67q-85 -92 -148.5 -161t-116.5 -122q-8 -8 -14 -8q-11 0 -18.5 13.5t-7.5 28.5
q0 12 8 23q72 83 133 148t112 116.5t94 92t80 73.5q-31 -20 -62.5 -33t-62.5 -13q-35 0 -52 21t-17 57q0 45 28.5 88.5t72.5 77t95.5 54t98.5 20.5q35 0 55.5 -16t27.5 -39l47 41q8 7 12.5 9t9.5 2q8 0 19 -13t11 -27q0 -8 -6 -18.5t-23 -30t-46.5 -49.5t-77.5 -75zM95 80
q0 -10 5.5 -16.5t21.5 -6.5q21 0 47.5 13t56 34t61 48t63.5 55q-3 14 -13 25t-32 11q-17 0 -39 -7.5t-45.5 -20.5t-46 -29.5t-40 -34.5t-28.5 -36.5t-11 -34.5z" />
    <glyph glyph-name="r" unicode="r" horiz-adv-x="381" 
d="M87 186q0 4 1.5 6.5t6.5 7.5q16 14 53.5 50t93.5 91q5 5 14 5t19 -5.5t10 -14.5q0 -8 -8 -15.5t-8 -15.5q0 -7 12.5 -10t21.5 -3q15 0 27.5 3t19.5 3q10 0 16 -9.5t6 -18.5q0 -7 -5 -12q-18 -17 -41 -39t-42.5 -44.5t-33 -43.5t-13.5 -35q0 -23 23 -23q18 0 45.5 14
t57.5 34.5t59.5 44.5t53.5 44q5 5 8 6t5 1q9 0 18.5 -10t9.5 -21q0 -2 -1.5 -5.5t-6.5 -8.5q-29 -25 -65 -55t-74.5 -56.5t-77.5 -44t-75 -17.5q-19 0 -31 5.5t-19 14.5t-9.5 20t-2.5 21q0 28 14 55.5t32 51t35 40t23 23.5q-17 0 -29 7t-16 16q-5 -5 -16 -15.5t-24 -23
t-25.5 -24t-20.5 -18.5q-5 -5 -8 -6t-5 -1q-9 0 -18.5 10t-9.5 21z" />
    <glyph glyph-name="s" unicode="s" horiz-adv-x="324" 
d="M87 186q0 4 1.5 6.5t6.5 7.5q32 27 58.5 55t53.5 57q27 30 40 41t25 11q14 0 25 -10.5t11 -19.5q0 -4 -1 -6l-2 -4q-14 -14 -19.5 -30.5t-7.5 -37t-3 -44.5t-4 -54q-8 -52 -32 -85q60 29 101.5 62t78.5 65q5 5 8 6t5 1q9 0 18.5 -10t9.5 -21q0 -2 -1.5 -5.5t-6.5 -8.5
q-29 -25 -72 -56.5t-91.5 -59.5t-98.5 -47.5t-92 -19.5q-38 0 -55 20t-17 41q0 5 4.5 11.5t10.5 12.5t13 10t12 4q6 0 7 -5q4 -10 11 -16.5t19 -6.5q13 0 29 8t31 23t27 37.5t18 52.5q5 23 5 42t1 39q-16 -20 -40.5 -46t-45.5 -44q-5 -5 -8 -6t-5 -1q-9 0 -18.5 10t-9.5 21z
" />
    <glyph glyph-name="t" unicode="t" horiz-adv-x="242" 
d="M113 90q0 -13 7.5 -21.5t21.5 -8.5q16 0 44.5 18.5t58.5 42.5t55.5 47t36.5 32q5 5 8 6t5 1q10 0 19 -10t9 -21q0 -2 -1.5 -5.5t-6.5 -8.5q-18 -16 -50.5 -45.5t-70 -59t-75 -51t-67.5 -21.5q-29 0 -46.5 19.5t-17.5 55.5q0 40 22.5 87t56.5 94.5t73.5 93t72.5 83.5h-165
q-20 0 -20 10q0 12 20 27.5t49 20.5q96 13 188 15q67 65 126.5 118.5t95.5 82.5q22 18 39 18q14 0 14 -14q0 -15 -18 -40q-23 -31 -60 -74t-82 -91q70 -1 135 -6t125 -12q17 -3 17 -14q0 -6 -5 -13t-13 -13t-17.5 -10.5t-17.5 -4.5h-296q-54 -57 -108 -110t-100 -97
q-26 -31 -44 -61t-18 -60z" />
    <glyph glyph-name="u" unicode="u" horiz-adv-x="465" 
d="M260 83q-42 -39 -89.5 -68t-89.5 -29q-26 0 -42 16t-16 44q0 59 50 125t135 137l4 2t5 1q11 0 20 -14t9 -28q0 -9 -6 -13q-59 -50 -96 -95.5t-37 -76.5q0 -11 7 -16t16 -5q17 0 49 21.5t69.5 55.5t76.5 74.5t71 79.5q2 2 5 4t8 2q11 0 22 -11.5t11 -26.5q0 -5 -1 -9.5
t-3 -7.5q-22 -29 -42 -53.5t-35 -44.5t-23.5 -37t-8.5 -30q0 -8 5.5 -14t15.5 -6q16 0 42 14.5t55.5 35.5t59 45.5t53.5 44.5q5 5 8 6t5 1q9 0 18.5 -10t9.5 -21q0 -2 -1.5 -5.5t-6.5 -8.5q-34 -29 -72.5 -61t-77 -58t-74 -43t-63.5 -17q-22 0 -38 14.5t-16 43.5q0 19 8 42z
" />
    <glyph glyph-name="v" unicode="v" horiz-adv-x="456" 
d="M401 200q6 -20 18.5 -31t34.5 -11q32 0 56.5 14t40.5 28q5 5 8 6t5 1q9 0 18.5 -10t9.5 -21q0 -2 -1.5 -5.5t-6.5 -8.5q-8 -7 -23.5 -19.5t-35.5 -25t-43.5 -21.5t-46.5 -9q-34 0 -57 14t-34 40q-81 -81 -148 -118t-115 -37q-26 0 -42 16t-16 44q0 29 13 60t36 63
t55 64.5t70 64.5q8 8 12.5 10.5t7.5 2.5q11 0 20 -14t9 -28q0 -11 -6 -15q-59 -48 -96 -93.5t-37 -76.5q0 -11 7 -16t16 -5q17 0 48.5 21t69.5 55t78 75.5t75 83.5q5 5 11 5q11 0 21.5 -13t10.5 -28q0 -11 -6 -17z" />
    <glyph glyph-name="w" unicode="w" horiz-adv-x="675" 
d="M308 -14q-21 0 -36 16t-15 44q0 8 1 16l2 16q-53 -48 -98 -70t-81 -22q-26 0 -42 16t-16 44q0 29 13.5 61t37.5 65t57.5 66.5t73.5 66.5q6 5 9 6t5 1q11 0 19 -14t8 -27q0 -10 -4 -14q-61 -50 -98 -96t-37 -77q0 -11 7 -16t16 -5q17 0 48.5 21.5t69 56t78.5 76.5t78 84
q4 7 12 7q12 0 21.5 -15t9.5 -30q0 -10 -6 -17q-23 -23 -44 -45.5t-37 -43t-25 -39.5t-9 -34q0 -11 7 -16t16 -5q17 0 48.5 21t69.5 54.5t77.5 75.5t73.5 83l4 2t4 1q11 0 22.5 -13t11.5 -30q0 -4 -0.5 -6.5t-3.5 -5.5l-36 -45q5 -20 18 -31t35 -11q32 0 56.5 14t40.5 28
q5 5 8 6t5 1q10 0 19 -10t9 -21q0 -2 -1.5 -5.5t-6.5 -8.5q-8 -7 -23 -19.5t-35.5 -25t-44 -21.5t-47.5 -9q-33 0 -56 14t-32 40q-78 -81 -142 -118t-115 -37z" />
    <glyph glyph-name="x" unicode="x" 
d="M223 67q-27 -20 -51.5 -37.5t-49.5 -35.5q-11 -9 -16 -9q-13 0 -22 14.5t-9 28.5q0 11 6 16q26 20 60.5 44t71.5 48q-5 26 -10.5 46.5t-14.5 34.5q-18 -17 -35 -33t-25 -22q-5 -5 -8 -6t-5 -1q-9 0 -18.5 10t-9.5 21q0 4 1.5 6.5t6.5 7.5q8 7 20.5 18.5t26 24.5
t25.5 24.5t19 18.5q21 19 36 19q20 0 33 -34.5t24 -89.5q32 21 63 40.5t58 36t48 28t34 17.5q5 2 8.5 2.5t5.5 0.5q11 0 23 -12.5t12 -24.5q0 -7 -8 -12q-40 -20 -101 -58.5t-133 -86.5l3 -11q8 -49 40 -49q21 0 43.5 10.5t49 30t58.5 46.5t71 61q5 5 8 6t5 1q9 0 18.5 -10
t9.5 -21q0 -2 -1.5 -5.5t-6.5 -8.5q-29 -25 -64 -55t-72.5 -56.5t-76.5 -44.5t-76 -18q-31 0 -48.5 19t-23.5 48l-3 12v0z" />
    <glyph glyph-name="y" unicode="y" horiz-adv-x="488" 
d="M268 73q-52 -38 -104.5 -63t-94.5 -25q-24 0 -41 14.5t-17 40.5q0 30 19 66t47.5 71.5t62 67.5t62.5 53q8 5 12 5q13 0 22 -12t9 -25q0 -10 -8 -17q-21 -15 -45.5 -37t-45 -45.5t-34.5 -45.5t-14 -37q0 -20 17 -20q30 0 74 23.5t91 58.5t92 75.5t79 75.5q5 5 10 9.5
t12 4.5q11 0 23 -8.5t12 -19.5q0 -4 -15 -26.5t-41 -57.5t-60 -79t-72 -92q76 40 145.5 85.5t117.5 86.5q5 5 8 6t5 1q9 0 18.5 -10t9.5 -21q0 -2 -1.5 -5.5t-6.5 -8.5q-39 -34 -80 -62.5t-86.5 -55.5t-96.5 -53.5t-111 -56.5q-34 -40 -66 -76.5t-60 -65.5
q-49 -51 -104.5 -106.5t-112 -102.5t-111 -77.5t-102.5 -30.5q-10 0 -21 3t-20 10.5t-15 19.5t-6 30q0 30 20.5 63t55.5 66.5t81.5 67t97.5 64.5t104 59.5t101 52.5l90 45zM-288 -454q23 0 63 26.5t86 65.5t92.5 83t83.5 80q14 14 27 28t26 29l-38 -22q-60 -33 -122.5 -72.5
t-113.5 -78.5t-84 -72.5t-33 -54.5q0 -8 4 -10t9 -2z" />
    <glyph glyph-name="z" unicode="z" horiz-adv-x="444" 
d="M95 -142l-40 -22q-57 -31 -119.5 -70.5t-114.5 -78.5t-85.5 -73.5t-33.5 -55.5q0 -8 4 -10t9 -2q17 0 41.5 12t52.5 32.5t58.5 46.5t61 54.5t59 56.5t52.5 53zM87 186q0 4 1.5 6.5t6.5 7.5q24 20 50.5 40.5t56 37t60.5 26.5t64 10q42 0 65.5 -18t23.5 -50
q0 -25 -17 -48.5t-45.5 -43.5t-64.5 -35.5t-74 -25.5q26 -8 37 -23.5t11 -37.5q0 -14 -5 -32l48 28q70 42 131 89t103 83q5 5 8 6t5 1q9 0 18.5 -10t9.5 -21q0 -2 -1.5 -5.5t-6.5 -8.5q-48 -41 -110 -86t-131 -87q-28 -16 -54 -31.5t-52 -29.5q-37 -64 -106 -136
q-48 -51 -102.5 -107t-111 -102.5t-112 -77t-104.5 -30.5q-10 0 -21 3t-20 10.5t-15 19.5t-6 30q0 30 21 63t56 66.5t81.5 67t97.5 64.5t103.5 59.5t100.5 52.5l92 46q21 33 21 52q0 46 -52 46q-9 0 -21.5 -3t-17.5 -3q-8 0 -11 6t-3 14q0 7 4.5 14.5t12.5 9.5
q32 12 69 27.5t69 33.5t53 36t21 35q0 27 -32 27q-23 0 -45.5 -9t-43.5 -22.5t-40 -29.5t-35 -29q-5 -5 -8 -6t-5 -1q-9 0 -18.5 10t-9.5 21z" />
    <glyph glyph-name="braceleft" unicode="{" horiz-adv-x="589" 
d="M435 352q0 20 -10 36.5t-33 29.5q-8 5 -8 12q0 9 6.5 17.5t18.5 8.5q58 0 103.5 19.5t84 51t72.5 71t70 78.5q37 42 72.5 69.5t66.5 43t55.5 22t39.5 6.5q13 0 22.5 -8t9.5 -15q0 -6 -12 -9q-13 -1 -30 -6.5t-40 -21.5t-52 -46t-66 -79q-26 -35 -57 -70t-71.5 -64.5
t-92 -51t-119.5 -28.5q20 -21 28.5 -43.5t8.5 -47.5q0 -35 -15 -71.5t-37 -73t-48.5 -72.5t-48.5 -69t-37 -62.5t-15 -53.5q0 -14 3.5 -18.5t3.5 -13.5q0 -7 -4.5 -10.5t-9.5 -3.5q-9 0 -17 7t-14.5 18t-10.5 25t-4 28q0 31 14 65t34.5 69t45 70.5t45 69t34.5 64.5t14 57z
" />
    <glyph glyph-name="bar" unicode="|" horiz-adv-x="727" 
d="M943 761q0 -11 -6 -20t-13 -19q-13 -14 -51 -56t-91.5 -101t-118 -130.5t-131 -145.5t-130.5 -144.5t-116.5 -128.5t-88.5 -97.5t-46 -50.5q-18 -18 -29 -18q-7 0 -12.5 5.5t-5.5 15.5q0 17 11.5 38.5t22.5 33.5q7 9 40 47t83.5 94.5t113.5 126t129 142.5t130.5 143.5
t118 128.5t91.5 97.5t51 51.5q9 9 25 9q9 0 16 -5.5t7 -16.5z" />
    <glyph glyph-name="braceright" unicode="}" horiz-adv-x="589" 
d="M508 318q0 -20 10 -36.5t33 -29.5q8 -6 8 -12q0 -9 -7 -17.5t-18 -8.5q-58 0 -103.5 -19.5t-84 -51t-73 -71t-69.5 -78.5q-38 -42 -73.5 -69.5t-66 -43t-55 -22t-40.5 -6.5q-12 0 -22 8t-10 15q0 8 13 9t30 6.5t39.5 22t51.5 46t67 78.5q26 35 57 70.5t71 65t91.5 50.5
t119.5 28q-20 21 -28 44t-8 47q0 35 15 71.5t37 73t48 72.5t48 69t37 62.5t15 53.5q0 14 -3 18.5t-3 13.5q0 14 14 14q9 0 17 -7t14.5 -18t10.5 -25t4 -28q0 -31 -14 -64.5t-34.5 -69t-45 -71t-45 -69t-34.5 -64.5t-14 -57z" />
    <glyph glyph-name="asciitilde" unicode="~" horiz-adv-x="565" 
d="M191 271q0 15 8 26q9 11 22 23t28.5 21.5t33 16t34.5 6.5q25 0 44.5 -10t36 -21.5t31 -21.5t29.5 -10q10 0 22.5 4.5t25.5 12t25.5 16.5t23.5 18q8 5 11 5q9 0 15.5 -10.5t6.5 -23.5t-8 -26q-9 -11 -22 -23t-28.5 -21.5t-33 -16t-34.5 -6.5q-25 0 -45 9.5t-36.5 21.5
t-30.5 21.5t-29 9.5q-10 0 -22.5 -4.5t-25.5 -12t-26 -16t-24 -17.5q-7 -5 -12 -5q-9 0 -14.5 10.5t-5.5 23.5z" />
    <glyph glyph-name="uni00A0" unicode="&#xa0;" horiz-adv-x="314" 
 />
    <glyph glyph-name="exclamdown" unicode="&#xa1;" horiz-adv-x="407" 
d="M216 205q0 18 10 38t25 36.5t33.5 27t35.5 10.5q15 0 26 -11t11 -31q0 -18 -9 -37.5t-23.5 -35.5t-33 -26.5t-37.5 -10.5q-17 0 -27.5 10t-10.5 30zM-242 -318q97 100 190 199t184 206q6 9 18 9q11 0 19.5 -8t8.5 -19q0 -9 -7 -15q-92 -115 -183 -230t-178 -223
q-6 -10 -17 -10q-16 0 -30.5 20t-14.5 42q0 8 2.5 15.5t7.5 13.5z" />
    <glyph glyph-name="cent" unicode="&#xa2;" horiz-adv-x="537" 
d="M652 522q-36 0 -85 -13t-101 -38t-103 -61.5t-92 -83.5q-24 -28 -39 -57t-15 -53q0 -26 21 -43.5t70 -17.5q35 0 85.5 10t120.5 34q5 1 8.5 2t6.5 1q16 0 16 -15t-14.5 -34.5t-37.5 -27.5q-50 -16 -91.5 -26t-77.5 -13l-93 -117q-8 -6 -18 -6q-9 0 -18.5 2.5t-17.5 7
t-13 9.5t-5 10q0 2 1 4l2 4l78 86q-61 8 -88 38t-27 72q0 39 21 82.5t58 84.5q38 42 85 76.5t98 61.5t103 46.5t101 30.5l90 109q2 4 7.5 5t10.5 1q9 0 18.5 -2.5t17.5 -6.5t13 -9t5 -9q0 -3 -3 -6l-68 -71q41 -3 66 -26t25 -58q0 -32 -26 -70.5t-87 -77.5q-17 -12 -34 -16
t-31 -4q-18 0 -30.5 6.5t-12.5 16.5q0 12 20 24q17 10 37 25t37 31.5t28.5 33t11.5 28.5q0 20 -34 20z" />
    <glyph glyph-name="sterling" unicode="&#xa3;" horiz-adv-x="563" 
d="M565 262q0 -9 -4 -19.5t-10.5 -19.5t-15 -15t-18.5 -6q-14 0 -54.5 2.5t-109.5 2.5q-11 -43 -28.5 -77.5t-39.5 -60.5q40 -11 78.5 -18.5t74.5 -7.5q8 0 19.5 0.5t16.5 0.5q17 0 17 -13q0 -7 -5 -16t-14 -17t-20.5 -14.5t-24.5 -7.5q-8 -2 -15 -2h-14q-45 0 -85 14
t-87 27q-31 -20 -69 -29t-80 -9q-32 0 -55.5 13.5t-23.5 43.5q0 16 11 28t27.5 19.5t37 11t38.5 3.5q24 0 48 -2.5t48 -7.5q50 42 75 121q-15 0 -35.5 -0.5t-40 -1t-35 -1t-19.5 -0.5q-29 0 -29 16q0 9 7 19.5t17 20t21.5 16.5t20.5 7l111 5q17 85 56 155.5t111 130.5
q59 50 127 77t129 27q48 0 71.5 -20t23.5 -52q0 -43 -40 -98t-116 -102q-13 -8 -26.5 -11t-24.5 -3q-16 0 -26.5 4.5t-10.5 12.5q0 5 8 10q75 49 107 86.5t32 59.5q0 15 -12 22t-32 7q-7 0 -15 -0.5t-17 -2.5q-28 -6 -69 -25.5t-81.5 -55.5t-75 -90.5t-50.5 -131.5
q49 0 95.5 -1.5t82.5 -3.5q9 -1 13 -7t4 -14z" />
    <glyph glyph-name="currency" unicode="&#xa4;" horiz-adv-x="825" 
d="M826 436q-15 -48 -44 -98.5t-66 -95.5q-11 -13 -22.5 -25.5t-24.5 -23.5q16 -32 28 -57t19 -40q3 -6 3 -15q0 -11 -6.5 -18.5t-17.5 -7.5q-13 0 -22 9.5t-17 22.5l-36 68q-52 -37 -107.5 -58.5t-105.5 -21.5q-23 0 -44 4.5t-38 15t-29.5 28.5t-18.5 45l-103 -50
q-13 -8 -26 -8q-5 0 -12 4t-7 13q0 8 6 17.5t15 19t19 17t19 12.5q7 5 32 17t59 29q9 53 38.5 111t78.5 106l39 37l-45 82q-3 8 -6 14t-3 11q0 7 5.5 13.5t14.5 6.5q7 0 16 -6t18 -14.5t17 -18.5t13 -18l20 -34q67 47 130 66.5t107 19.5q29 0 40.5 -5t11.5 -13q0 -6 -1 -9
q35 0 50 -21.5t17 -59.5q36 16 62 27.5t39 16.5q2 1 6 2t8 1q9 0 17.5 -6t8.5 -19q0 -12 -9.5 -22t-22.5 -16zM704 537q0 5 3 10t11 10q-5 2 -19 2q-20 0 -49 -7.5t-62.5 -23.5t-70 -41.5t-70.5 -61.5q-50 -51 -73.5 -105t-23.5 -97q0 -45 22 -66t63 -21q27 0 58 10.5t62 29
t60.5 43t54.5 53.5q18 20 35.5 44.5t31 51.5t22 55.5t8.5 56.5q0 21 -12 30.5t-25 9.5q-5 0 -7.5 -0.5t-4.5 -0.5q-5 0 -9.5 5t-4.5 13z" />
    <glyph glyph-name="yen" unicode="&#xa5;" horiz-adv-x="607" 
d="M479 148q0 -9 -3.5 -19.5t-10 -19t-15 -14.5t-18.5 -6q-4 0 -18 0.5t-34 1t-42.5 1.5t-42.5 1l-108 -137q-10 -10 -19 -10q-14 0 -26 16t-12 35q0 14 9 26l58 70q-15 0 -35.5 -0.5t-40 -1t-34.5 -1t-20 -0.5q-16 0 -22.5 5t-6.5 12q0 9 7 19.5t17 20t21.5 16t20.5 7.5
q23 2 65.5 3t93.5 1q13 15 24 30t22 29q-13 0 -29 -0.5l-32 -1t-28.5 -1t-17.5 -0.5q-29 0 -29 16q0 9 7 19.5t17 20t21.5 16.5t20.5 7q20 2 56 3.5t78 1.5q10 46 19.5 96.5t18.5 96t16 83.5t12 59q2 9 10 17.5t18.5 14.5t22 10t20.5 4q19 0 19 -17q0 -4 -3.5 -22
t-8.5 -44.5t-11.5 -58t-12.5 -61.5t-11.5 -55t-7.5 -39q45 37 103 83t113.5 88t100.5 74t64 43q9 4 20 4q20 0 37 -12t17 -26q0 -10 -11 -18q-52 -36 -109.5 -77.5t-115.5 -84t-113 -83t-101 -75.5l118 -5q9 0 13 -6.5t4 -14.5q0 -9 -3.5 -19.5t-10 -19.5t-15.5 -15t-20 -6
q-4 0 -22 1t-42 1.5t-51.5 1.5t-50.5 1l-42 -59l105 -4q17 -3 17 -22z" />
    <glyph glyph-name="brokenbar" unicode="&#xa6;" horiz-adv-x="727" 
d="M943 761q0 -11 -6.5 -22t-12.5 -17q-18 -19 -45 -49l-58.5 -65t-65 -72t-63.5 -70.5t-54 -60.5t-38 -42q-18 -19 -29 -19q-9 0 -14 7t-5 15q0 16 11.5 37.5t22.5 34.5q9 12 31 37t50 57t60.5 67.5t63 68.5t56.5 59.5t42 40.5q9 9 16 12t15 3q9 0 16 -5.5t7 -16.5z
M494 266q0 -11 -6 -21.5t-12 -16.5q-18 -19 -45 -49l-58.5 -65t-65 -72.5t-63.5 -71t-54.5 -60.5t-38.5 -42q-18 -18 -29 -18q-9 0 -13.5 6.5t-4.5 14.5q0 17 11.5 38.5t22.5 33.5q9 12 30.5 37t50 57.5t61 68t63 68t56.5 59.5t42 41q9 9 16 12t14 3q10 0 16.5 -5.5
t6.5 -17.5z" />
    <glyph glyph-name="section" unicode="&#xa7;" horiz-adv-x="537" 
d="M909 863q-44 -2 -85 -8.5t-74 -15.5t-57 -18.5t-35 -17.5q-17 -13 -17 -27q0 -17 16.5 -36t36.5 -40t36.5 -45t16.5 -51t-16 -48.5t-39.5 -39t-50.5 -30.5t-50 -22q0 -28 -25 -57q-17 -21 -43.5 -39t-55.5 -32t-56.5 -22t-46.5 -8q-18 0 -35 12.5t-17 24.5q0 14 23 18
q22 3 45 11t44 18t38.5 22t28.5 24q7 7 9.5 14.5t2.5 14.5q0 21 -17 42.5t-37 44t-37 45.5t-17 46q0 13 6 25t23 25q22 17 55 35.5t75 32.5q-3 9 -3 18q0 27 27 50q22 19 57.5 37t77 31.5t84.5 21.5t81 8q22 0 32.5 -15t10.5 -29q0 -8 -3 -14t-9 -6zM656 597q0 12 -7 25
t-17.5 27t-23 28.5t-23.5 29.5q-9 -2 -25.5 -7t-32.5 -12.5t-28 -17.5t-12 -23q0 -12 9 -26t22.5 -30t28.5 -33t27 -35q9 4 23 12t27 17.5t22.5 21t9.5 23.5z" />
    <glyph glyph-name="dieresis" unicode="&#xa8;" horiz-adv-x="350" 
d="M497 445q0 -12 -6.5 -25t-17 -24.5t-22.5 -18.5t-24 -7q-11 0 -18 7.5t-7 20.5t6 26t16 24t22.5 18t24.5 7q26 0 26 -28zM370 445q0 -12 -6.5 -25t-17 -24.5t-22.5 -18.5t-24 -7q-11 0 -18 7.5t-7 20.5t6 26t16 24t22.5 18t24.5 7q26 0 26 -28z" />
    <glyph glyph-name="copyright" unicode="&#xa9;" horiz-adv-x="825" 
d="M376 496q57 58 119 99t121.5 67t112 38.5t91.5 12.5q29 0 50.5 -6t21.5 -23q0 -6 -1 -9q11 0 23.5 -2.5t23.5 -9.5q22 -15 31.5 -39t9.5 -56q0 -38 -13 -83t-35.5 -93t-53 -96t-66.5 -91q-42 -50 -94 -91.5t-107.5 -72t-112 -47.5t-107.5 -17q-36 0 -68 9t-57 29
t-39.5 52t-14.5 78q0 40 11 84.5t32.5 90.5t52 91t69.5 85zM832 603q-7 0 -12.5 7t-5.5 17q0 12 6 19.5t16 13.5q-8 1 -15 2t-16 1q-31 0 -74 -11.5t-92 -35.5t-102 -62t-104 -90q-72 -76 -108.5 -155t-36.5 -142q0 -68 35.5 -99t92.5 -31q40 0 86 15.5t92 42.5t90 63.5
t80 78.5q25 29 50.5 66t46 77t33.5 82t13 81q0 17 -5.5 29t-14 19.5t-18.5 11t-20 3.5q-5 0 -9 -1.5t-8 -1.5zM713 487q-17 0 -48.5 -8t-68.5 -26.5t-75.5 -48.5t-69.5 -73q-12 -19 -19 -38.5t-7 -38.5q0 -26 17.5 -45t57.5 -19q26 0 60.5 8.5t80.5 31.5q4 1 7 2t5 1
q11 0 11 -16q0 -11 -8 -24.5t-22 -21.5q-48 -20 -86 -29t-68 -9q-63 0 -92.5 32t-29.5 78q0 29 10.5 59t30.5 58q39 51 87.5 85.5t96 55.5t87 30t60.5 9q38 0 57 -18.5t19 -47.5q0 -27 -18 -59t-55 -60q-11 -9 -22.5 -13t-21.5 -4q-15 0 -24.5 6t-9.5 16q0 8 12 16
q12 7 25 19t24 25t18 25.5t7 22.5q0 19 -28 19z" />
    <glyph glyph-name="ordfeminine" unicode="&#xaa;" horiz-adv-x="381" 
d="M376 314q-34 -29 -73 -52t-77 -23q-27 0 -43 18t-16 49q0 33 23.5 66.5t59.5 60.5t78 43.5t79 16.5q26 0 41.5 -12t22.5 -28l31 27q7 6 10.5 8t9.5 2q9 0 19.5 -10t10.5 -21t-19.5 -28.5t-45.5 -40.5q-10 -9 -21 -18.5t-20.5 -20t-15.5 -21.5t-6 -22t6 -15t14 -4
q14 0 14 -14q0 -11 -12 -23.5t-34 -12.5q-19 0 -31 12t-12 31q0 8 1 16t6 16zM104 142q-20 0 -28.5 6t-8.5 17t13 19t34.5 13t49.5 7.5t58 2.5q34 0 63 -1t50.5 -4.5t33.5 -10t12 -18.5q0 -19 -15 -25t-34 -6h-228zM242 326q0 -11 6 -17t17 -6q13 0 33 10.5t43 27.5t47.5 38
t47.5 42q-1 6 -8 14q-10 10 -29 10q-12 0 -27 -4.5t-29 -11t-26.5 -14t-21.5 -14.5q-29 -23 -41 -42t-12 -33z" />
    <glyph glyph-name="guillemotleft" unicode="&#xab;" horiz-adv-x="747" 
d="M248 20q-6 9 -16.5 25t-20.5 33t-18 31.5t-9 20.5q-2 4 -2 8v7q0 13 9.5 23.5t33.5 24.5q15 8 40.5 20t54 25.5t56.5 26.5t49 23q5 2 9.5 2.5t9.5 0.5q11 0 20 -5t9 -11q0 -5 -5 -7q-20 -13 -47.5 -30.5t-56.5 -35.5t-56.5 -35.5t-48.5 -30.5q12 -45 18.5 -69.5
t9.5 -36.5q4 -14 4 -18q0 -9 -11 -9q-8 0 -17.5 5t-14.5 12zM507 20q-6 9 -16.5 25t-21 33t-18.5 31.5t-9 20.5q-1 4 -1 8v7q0 13 9 23.5t34 24.5q15 8 40 20t54 25.5t57 26.5t49 23q5 2 9 2.5t9 0.5q12 0 20.5 -5t8.5 -11t-4 -7q-20 -13 -47.5 -30.5t-57 -35.5t-57 -35.5
t-48.5 -30.5q12 -45 18.5 -69.5t9.5 -36.5q4 -14 4 -18q0 -9 -10 -9q-8 0 -17.5 5t-14.5 12z" />
    <glyph glyph-name="logicalnot" unicode="&#xac;" horiz-adv-x="727" 
d="M664 171q-18 -18 -29 -18q-7 0 -12.5 5t-5.5 16q0 17 11.5 38.5t21.5 33.5q10 14 20 25.5l20 23t22 23.5t27 26h-395q-20 0 -28 6t-8 17q0 9 8.5 15.5t21.5 11.5t27 8t25 4q19 1 60 2t92 1q36 0 73.5 -0.5t72 -1.5t64.5 -2.5t51 -3.5q11 -2 20 -8.5t9 -17.5t-7.5 -23.5
t-15.5 -20.5z" />
    <glyph glyph-name="registered" unicode="&#xae;" horiz-adv-x="563" 
d="M398 560q34 34 70.5 58.5t71 39.5t66 22t54.5 7q17 0 28 -2t11 -13q0 -6 -1 -9h7q23 0 35.5 -17t12.5 -43q0 -23 -7.5 -49.5t-21 -55t-32 -56.5t-39.5 -53q-24 -29 -54.5 -53.5t-63 -42t-66 -27.5t-63.5 -10q-38 0 -68 18q-37 24 -37 81q0 46 25.5 101.5t71.5 103.5z
M656 617q-10 0 -10 13q0 5 2 8.5t5 8.5q-60 0 -118 -32.5t-102 -80.5q-42 -45 -60 -87t-18 -74q0 -20 7 -36t22 -25q15 -12 41 -12q21 0 45.5 8t49.5 23t49.5 35.5t45.5 45.5q13 15 28.5 35.5t29 42.5t22.5 45.5t9 44.5q0 23 -12 31.5t-20 8.5q-5 0 -8.5 -1.5t-7.5 -1.5z
M496 349q-11 0 -11 12q0 2 -0.5 11.5t-1.5 21t-1.5 23t-1.5 19.5l-56 -58q-4 -4 -10 -10.5t-10 -6.5q-7 0 -10.5 7.5t-3.5 18.5t6 22q20 24 51 59t72 71l-34 -17q-3 -2 -6 -2q-6 0 -6 8t8 22.5t22 21.5q27 14 51 18.5t43 4.5q9 0 20.5 -1.5t21.5 -6t17 -12.5t7 -21
q0 -15 -10.5 -32t-29 -31.5t-43.5 -24.5t-54 -12q2 -17 3.5 -31.5t1.5 -27.5q0 -19 -12 -32.5t-23 -13.5zM611 539q0 15 -28 15q-14 0 -32 -5q4 -5 4 -16q0 -13 -6 -20l-23 -26q39 5 62 22t23 30z" />
    <glyph glyph-name="macron" unicode="&#xaf;" horiz-adv-x="350" 
d="M226 358q-14 0 -20 3t-6 14q0 7 6.5 14t15.5 12t19 8.5t18 3.5q30 3 65 3q25 0 52 -0.5t62 -5.5q9 -1 11 -6.5t2 -10.5q0 -15 -14.5 -25t-32.5 -10h-178z" />
    <glyph glyph-name="degree" unicode="&#xb0;" horiz-adv-x="350" 
d="M355 477q0 -22 11 -35.5t32 -13.5q18 0 38 13t37.5 33t29 43.5t11.5 45.5q0 24 -12 36t-29 12q-23 0 -44 -12.5t-37.5 -32t-26.5 -43.5t-10 -46zM578 592q0 -38 -20 -78.5t-51.5 -73.5t-69 -54.5t-71.5 -21.5q-32 0 -53.5 21t-21.5 63q0 38 18.5 77.5t48 72t67 53.5
t75.5 21q34 0 56 -20.5t22 -59.5z" />
    <glyph glyph-name="plusminus" unicode="&#xb1;" horiz-adv-x="727" 
d="M699 511q0 -8 -1 -15.5t-6 -13.5q-17 -20 -42.5 -46.5t-54.5 -57.5q52 -2 99 -4t80 -5q11 -4 11 -11q0 -13 -15.5 -28t-38.5 -15h-192l-143 -156q45 -1 89 -1.5t89 -2.5q5 0 8.5 -4t3.5 -9q0 -6 -4 -14t-11 -14.5t-16 -11t-19 -4.5h-466q-12 0 -12 9q0 6 6 14.5
t17.5 16.5t27 14t33.5 7q13 2 39 2h59h52.5t57.5 -2q-1 5 -1 14q0 7 1.5 14.5t6.5 12.5q14 21 39.5 50.5t54.5 64.5h-179q-13 0 -13 9q0 6 6 14.5t15 16.5t20.5 13.5t22.5 6.5q26 2 76.5 2.5t110.5 0.5q24 26 47.5 50.5t45 46t39.5 39t31 29.5q5 5 9 5q8 0 12.5 -11.5
t4.5 -25.5z" />
    <glyph glyph-name="twosuperior" unicode="&#xb2;" horiz-adv-x="324" 
d="M349 536q27 30 64 58t75 49.5t74.5 35t63.5 13.5q32 0 46 -17t14 -34q0 -26 -23 -62.5t-65.5 -79.5t-102 -89t-131.5 -90q30 -9 71 -9q10 0 10 -10q0 -4 -3 -12.5t-10.5 -17.5t-20 -15.5t-30.5 -6.5q-21 0 -44.5 7t-57.5 18q-53 -22 -89 -22q-22 0 -35.5 8.5t-13.5 27.5
q0 12 8.5 22.5t22 18t29 11.5t29.5 4q18 0 34.5 -2t33.5 -5q33 16 68 38.5t69 47.5t63.5 51.5t52.5 51t36 44.5t13 33q0 15 -19 15q-14 0 -36.5 -10t-48.5 -27t-55 -39.5t-57 -48.5q-15 -13 -23 -13q-11 0 -16 9t-5 21q0 5 2 12.5t7 13.5z" />
    <glyph glyph-name="threesuperior" unicode="&#xb3;" horiz-adv-x="291" 
d="M358 581q22 22 49 40t55 30.5t55 19.5t48 7q26 0 41 -11.5t15 -37.5q0 -37 -38.5 -74.5t-102.5 -69.5q10 -7 20 -19.5t10 -30.5q0 -32 -29.5 -69.5t-77.5 -72t-109 -63t-124 -42.5q-11 -2 -21.5 -4t-15.5 -2q-9 0 -14.5 10.5t-5.5 24.5q0 11 4 19.5t13 9.5q56 8 110 27.5
t96 42.5t68 47.5t26 42.5q0 22 -24 22q-6 0 -17 -2t-22 -5q-3 -2 -10 -2q-12 0 -17.5 9.5t-5.5 19.5t3 18t10 11q35 14 70 29.5t62.5 31.5t45 31t17.5 28q0 5 -4 9.5t-12 4.5q-20 0 -57.5 -20.5t-75.5 -53.5q-5 -3 -10.5 -5.5t-10.5 -2.5q-11 0 -20 7t-9 18q0 13 15 27z" />
    <glyph glyph-name="acute" unicode="&#xb4;" horiz-adv-x="350" 
d="M306 373q0 8 2.5 14t9.5 9q39 17 73.5 35.5t66.5 38.5q1 0 2 0.5t2 0.5q7 0 11 -11t4 -24q0 -11 -3 -20t-12 -14q-26 -14 -50.5 -22t-50.5 -16q-11 -3 -24.5 -7t-18.5 -4t-8.5 6t-3.5 14z" />
    <glyph glyph-name="uni00B5" unicode="&#xb5;" horiz-adv-x="458" 
d="M275 83q-42 -39 -89.5 -68t-89.5 -29q-20 0 -36 11.5t-16 37.5q-55 -59 -108.5 -113t-110.5 -110.5t-120 -119.5t-137 -139q-9 -9 -18 -9t-15 10.5t-6 24.5q0 7 2 14t7 12q92 91 184 183.5t178.5 182.5t166 175t146.5 160q5 5 10 5q10 0 19 -10t9 -22q0 -13 -9 -23
l-68 -77q-24 -28 -38 -52t-14 -43q0 -11 7 -16t16 -5q17 0 49 21.5t70 55t77 74.5t71 80q4 6 12 6q11 0 22.5 -11.5t11.5 -26.5q0 -10 -5 -17q-22 -29 -41.5 -53.5t-34.5 -44.5t-24 -37t-9 -30q0 -8 5.5 -14t16.5 -6q20 0 50 18q8 5 14 5q8 0 14.5 -12.5t6.5 -23.5
q0 -10 -10 -18q-11 -8 -26 -16t-31 -14.5t-32.5 -11t-30.5 -4.5q-22 0 -37.5 14.5t-15.5 43.5q0 8 1 18.5t6 23.5z" />
    <glyph glyph-name="paragraph" unicode="&#xb6;" horiz-adv-x="1180" 
d="M1467 985q-97 -88 -200 -187t-207 -203.5t-207 -212.5t-201 -213.5t-188 -206.5t-167 -192q-11 -12 -20.5 -23.5t-14.5 -11.5q-11 0 -19.5 16.5t-8.5 37.5q0 11 3 21.5t11 19.5q68 84 153 180t181.5 199t201.5 210t212.5 211.5t215 204.5t208.5 190q-57 -2 -116 -7
t-120 -13q0 -1 1 -4.5t1 -7.5q0 -12 -12 -24q-96 -91 -194 -184.5t-200 -195.5l31 9q9 3 17 3q17 0 17 -15q0 -14 -13 -30t-35 -23q-51 -19 -98 -28q-94 -97 -186.5 -195t-179 -191.5t-163.5 -180t-141 -161.5q-20 -23 -28 -32.5t-13 -9.5q-11 0 -19.5 16.5t-8.5 37.5
q0 22 14 41q60 69 129.5 147t147 162t161.5 172t171 177q-51 0 -87 9t-58.5 25.5t-32.5 39.5t-10 50q0 50 33.5 108t99.5 112q87 72 197.5 123.5t245.5 85t296 49t350 15.5q13 0 18 -5t5 -12q0 -9 -6 -19.5t-16 -19.5t-22 -15.5t-24 -6.5h-95q1 -5 1 -16q0 -15 -11 -26z
M1109 993q-74 -12 -145.5 -29.5t-136.5 -40.5t-121.5 -52.5t-99.5 -65.5q-54 -45 -80 -86t-26 -75q0 -37 31.5 -59.5t94.5 -22.5h15t15 1q113 115 228 223t225 207z" />
    <glyph glyph-name="periodcentered" unicode="&#xb7;" horiz-adv-x="407" 
d="M349 194q0 -18 -10 -38t-25 -36t-33.5 -26.5t-35.5 -10.5q-15 0 -26 10.5t-11 30.5q0 18 9 37.5t23.5 35.5t33 26.5t37.5 10.5q17 0 27.5 -10t10.5 -30z" />
    <glyph glyph-name="cedilla" unicode="&#xb8;" horiz-adv-x="324" 
d="M28 -69q0 6 3 9q11 12 17.5 20.5t12 16.5t10 17l10.5 21q7 13 18 13t19.5 -7.5t8.5 -15.5q0 -4 -3.5 -11t-8 -15t-10.5 -15.5t-10 -13.5q5 1 7.5 1h4.5q17 0 29 -10.5t12 -30.5q0 -28 -24.5 -56.5t-58.5 -52t-70 -38.5t-58 -15q-9 0 -16.5 12.5t-7.5 23.5t7 11
q34 4 65.5 16.5t55.5 28.5t38 32.5t14 28.5t-16 12q-14 0 -27 -8q-1 -1 -4 -1q-6 0 -12 9t-6 18z" />
    <glyph glyph-name="onesuperior" unicode="&#xb9;" horiz-adv-x="283" 
d="M211 274q0 6 6 14q19 17 41.5 38.5t51 49.5t64 63.5t80.5 82.5l-78 -37q-9 -5 -17 -8.5t-10 -3.5q-8 0 -12.5 10.5t-4.5 23.5q0 9 2.5 16t9.5 10q80 33 142 65.5t109 70.5q7 6 19 6q11 0 20 -7.5t9 -18.5q0 -7 -5 -12l-378 -392q-5 -5 -12 -5q-13 0 -25 11.5t-12 22.5z
" />
    <glyph glyph-name="ordmasculine" unicode="&#xba;" horiz-adv-x="364" 
d="M435 323q-34 -36 -80 -60t-92 -24q-35 0 -58 16.5t-23 58.5q0 31 22.5 62.5t56.5 57.5t74.5 42.5t76.5 16.5q39 0 55 -16.5t18 -40.5q0 -30 -15 -64h6q15 0 15 -14q0 -11 -10 -24.5t-20 -13.5q-16 0 -26 3zM110 142q-20 0 -28.5 6t-8.5 17q0 9 9 15.5t21.5 11.5t27 8
t25.5 4q19 1 30.5 2t23.5 1q16 0 36 -2t62 -6q10 -2 19.5 -8.5t9.5 -17.5q0 -19 -15.5 -25t-33.5 -6h-178zM396 355q-6 13 -6 31q0 32 20 47q-5 3 -17 3q-16 0 -38 -9t-46 -26q-22 -17 -37 -36t-15 -38q0 -30 32 -30q26 0 75 32q9 7 18 13.5t14 12.5z" />
    <glyph glyph-name="guillemotright" unicode="&#xbb;" horiz-adv-x="747" 
d="M604 277q6 -9 16.5 -25.5t21 -33.5t18.5 -31t9 -20q1 -4 1 -8v-8q0 -12 -9 -22.5t-34 -24.5q-15 -8 -40 -20t-54 -25.5t-57 -26.5t-49 -23q-5 -2 -9 -2.5t-9 -0.5q-12 0 -21 5t-9 10q0 6 5 8q20 13 47.5 30.5t57 35.5t57 35t48.5 31q-12 45 -18.5 69.5t-9.5 36.5
q-4 14 -4 18q0 9 10 9q8 0 17.5 -5t14.5 -12zM346 277q6 -9 16.5 -25.5t20.5 -33.5t18 -31t9 -20q2 -4 2 -8v-8q0 -12 -9.5 -22.5t-33.5 -24.5q-15 -8 -40.5 -20t-54.5 -25.5t-57 -26.5t-49 -23q-5 -2 -9 -2.5t-9 -0.5q-11 0 -20 5t-9 10q0 7 4 8q20 13 47.5 30.5t57 35.5
t57 35t48.5 31q-12 45 -18.5 69.5t-9.5 36.5q-4 14 -4 18q0 9 11 9q8 0 17.5 -5t14.5 -12z" />
    <glyph glyph-name="onequarter" unicode="&#xbc;" horiz-adv-x="858" 
d="M211 274q0 6 6 14q19 17 41.5 38.5t51 49.5t64 63.5t80.5 82.5l-78 -37q-9 -5 -17 -8.5t-10 -3.5q-8 0 -12.5 10.5t-4.5 23.5q0 9 2.5 16t9.5 10q80 33 142 65.5t109 70.5q7 6 19 6q11 0 20 -7.5t9 -18.5q0 -7 -5 -12l-378 -392q-5 -5 -12 -5q-13 0 -25 11.5t-12 22.5z
M1096 652q-86 -56 -163 -109t-148.5 -106.5t-140 -108t-136.5 -114.5t-138 -126.5t-145 -142.5q-5 -5 -9 -5q-11 0 -19.5 14t-8.5 31q0 5 2 11.5t7 11.5q76 72 143 133.5t131 116.5t127.5 106t134 102.5t151 106t176.5 116.5q7 4 16 4q11 0 20 -7.5t9 -18.5q0 -3 -2 -7.5
t-7 -7.5zM767 113q-28 -1 -58 -5t-53 -9q-9 -2 -13 -3t-9 -1q-13 0 -19 6t-6 15q0 21 23 39q55 38 102 73t87.5 69t76.5 66.5t71 66.5q3 3 9 3q11 0 23 -10.5t12 -21.5q0 -7 -6 -14q-33 -32 -63.5 -59.5t-61.5 -54t-64 -51.5t-71 -51q16 2 35.5 3.5l45.5 3.5l72 76q5 5 12 5
q13 0 24 -9.5t11 -18.5q0 -6 -3 -9l-41 -43h15q9 0 9 -12q0 -8 -3.5 -17.5t-8.5 -17.5t-11.5 -14t-12.5 -6q-12 0 -23.5 0.5t-25.5 0.5q-48 -50 -86 -90t-67 -67q-5 -5 -13 -5q-12 0 -24 11t-12 23q0 5 2.5 8t6.5 7q30 28 59 55.5t59 57.5z" />
    <glyph glyph-name="onehalf" unicode="&#xbd;" horiz-adv-x="884" 
d="M211 274q0 6 6 14q19 17 41.5 38.5t51 49.5t64 63.5t80.5 82.5l-78 -37q-9 -5 -17 -8.5t-10 -3.5q-8 0 -12.5 10.5t-4.5 23.5q0 9 2.5 16t9.5 10q80 33 142 65.5t109 70.5q7 6 19 6q11 0 20 -7.5t9 -18.5q0 -7 -5 -12l-378 -392q-5 -5 -12 -5q-13 0 -25 11.5t-12 22.5z
M1096 652q-86 -56 -163 -109t-148.5 -106.5t-140 -108t-136.5 -114.5t-138 -126.5t-145 -142.5q-5 -5 -9 -5q-11 0 -19.5 14t-8.5 31q0 5 2 11.5t7 11.5q76 72 143 133.5t131 116.5t127.5 106t134 102.5t151 106t176.5 116.5q7 4 16 4q11 0 20 -7.5t9 -18.5q0 -3 -2 -7.5
t-7 -7.5zM739 272q28 30 64.5 58t74.5 50t74.5 35t63.5 13q32 0 46 -16.5t14 -33.5q0 -26 -23 -63t-65.5 -79.5t-102 -88.5t-131.5 -90q15 -5 33 -7.5t38 -2.5q11 0 11 -9q0 -4 -3.5 -12.5t-11 -17.5t-20 -15.5t-30.5 -6.5q-20 0 -43.5 6.5t-58.5 18.5q-53 -22 -89 -22
q-22 0 -35.5 8.5t-13.5 26.5q0 13 8.5 23.5t22 18t29 11.5t29.5 4q18 0 35 -2t34 -6q49 24 102 62t97.5 77t73 74t28.5 54q0 15 -18 15q-15 0 -37 -10t-48.5 -27t-55.5 -40t-57 -48q-15 -13 -23 -13q-10 0 -15.5 9t-5.5 20q0 6 2 13.5t7 12.5z" />
    <glyph glyph-name="threequarters" unicode="&#xbe;" horiz-adv-x="866" 
d="M358 581q22 22 49 40t55 30.5t55 19.5t48 7q26 0 41 -11.5t15 -37.5q0 -37 -38.5 -74.5t-102.5 -69.5q10 -7 20 -19.5t10 -30.5q0 -32 -29.5 -69.5t-77.5 -72t-109 -63t-124 -42.5q-11 -2 -21.5 -4t-15.5 -2q-9 0 -14.5 10.5t-5.5 24.5q0 11 4 19.5t13 9.5q56 8 110 27.5
t96 42.5t68 47.5t26 42.5q0 22 -24 22q-6 0 -17 -2t-22 -5q-3 -2 -10 -2q-12 0 -17.5 9.5t-5.5 19.5t3 18t10 11q35 14 70 29.5t62.5 31.5t45 31t17.5 28q0 5 -4 9.5t-12 4.5q-20 0 -57.5 -20.5t-75.5 -53.5q-5 -3 -10.5 -5.5t-10.5 -2.5q-11 0 -20 7t-9 18q0 13 15 27z
M1103 652q-85 -56 -162 -109t-149 -106.5t-140 -108t-136 -114.5t-138 -126.5t-145 -142.5q-5 -5 -10 -5q-10 0 -18.5 14t-8.5 31q0 5 2 11.5t7 11.5q76 72 143 133.5t130.5 116.5t127.5 106t134.5 102.5t150.5 106t177 116.5q7 4 15 4q12 0 20.5 -7.5t8.5 -18.5
q0 -3 -2 -7.5t-7 -7.5zM774 113q-27 -1 -57.5 -5t-52.5 -9q-16 -4 -23 -4q-13 0 -18.5 6t-5.5 15q0 21 23 39q55 38 101.5 73t87 69t76.5 66.5t71 66.5q3 3 9 3q12 0 24 -10.5t12 -21.5q0 -7 -6 -14q-33 -32 -63.5 -59.5t-61.5 -54t-64 -51.5t-72 -51q17 2 36.5 3.5
l45.5 3.5l71 76q5 5 13 5q12 0 23.5 -9.5t11.5 -18.5q0 -6 -3 -9l-42 -43h16q9 0 9 -12q0 -8 -3.5 -17.5t-8.5 -17.5t-12 -14t-13 -6q-11 0 -23 0.5t-26 0.5q-47 -50 -85 -90t-68 -67q-5 -5 -12 -5q-13 0 -25 11t-12 23q0 5 3 8t6 7q30 28 59.5 55.5t58.5 57.5z" />
    <glyph glyph-name="questiondown" unicode="&#xbf;" horiz-adv-x="407" 
d="M219 200q0 18 10 38t25 36.5t33.5 27t35.5 10.5q15 0 26 -10.5t11 -30.5q0 -18 -9 -37.5t-23.5 -35.5t-33 -26.5t-37.5 -10.5q-17 0 -27.5 9.5t-10.5 29.5zM-142 -98q52 24 92 43.5t72 39.5t59 43t54 55q6 9 18 9q11 0 19.5 -8t8.5 -20q0 -8 -7 -15q-55 -69 -121.5 -114
t-133.5 -77q-19 -10 -52.5 -27t-62.5 -39q-22 -17 -31.5 -33t-9.5 -33q0 -20 17 -36t55 -16q33 0 81 15q1 0 2 1t2 1q10 0 10 -15q0 -12 -8 -27t-23 -21q-26 -9 -49 -13t-43 -4q-61 0 -94 31t-33 76q0 35 16.5 63t42.5 50.5t57.5 39.5t61.5 31z" />
    <glyph glyph-name="Agrave" unicode="&#xc0;" horiz-adv-x="891" 
d="M60 0zM667 265q-59 -57 -121.5 -110t-125.5 -93.5t-124.5 -65t-116.5 -24.5q-63 0 -91 32.5t-28 90.5q0 55 19.5 113.5t53 117t78.5 116t96 111.5t104.5 102.5t105.5 88.5q94 73 187.5 127t181.5 89.5t168 52.5t146 17q44 0 73 -16t29 -47q0 -22 -10.5 -44.5t-26.5 -43
t-35.5 -37t-37.5 -25.5q2 -5 2 -8.5v-6.5q0 -5 -2 -9t-8 -11q-49 -60 -85.5 -103t-69 -80t-63.5 -74t-69 -83q-36 -43 -75 -88t-71.5 -90.5t-53.5 -91.5t-21 -92q0 -17 11.5 -31.5t33.5 -14.5q16 0 43 11.5t61.5 33.5t75.5 52.5t85 68.5q5 5 8 6t5 1q9 0 18.5 -10t9.5 -21
q0 -4 -1.5 -6.5t-6.5 -7.5q-47 -40 -93.5 -75t-89 -60.5t-79.5 -40t-65 -14.5q-54 0 -77 28t-23 66q0 51 21 100.5t54 98.5zM158 121q0 -36 18 -51.5t47 -15.5q50 0 120.5 38t152 100.5t169 143.5t171 166t158.5 167.5t132 149.5q-6 9 -6 20q0 19 18.5 32.5t40.5 24
t40.5 21.5t18.5 26q0 14 -11.5 19t-31.5 5q-60 0 -139.5 -22.5t-164 -60.5t-167.5 -88t-150 -106q-74 -60 -148.5 -129.5t-134 -143t-96.5 -149t-37 -147.5zM1298 1221q4 -18 7 -31t5.5 -24t5.5 -21.5t8 -22.5q3 -7 6.5 -16.5t3.5 -11.5q0 -11 -9 -18.5t-17 -7.5q-7 0 -10 5
q-6 11 -14.5 27.5t-16 33.5t-12.5 31.5t-5 22.5q0 16 14.5 27.5t24.5 11.5q8 0 9 -6z" />
    <glyph glyph-name="Aacute" unicode="&#xc1;" horiz-adv-x="891" 
d="M60 0zM667 265q-59 -57 -121.5 -110t-125.5 -93.5t-124.5 -65t-116.5 -24.5q-63 0 -91 32.5t-28 90.5q0 55 19.5 113.5t53 117t78.5 116t96 111.5t104.5 102.5t105.5 88.5q94 73 187.5 127t181.5 89.5t168 52.5t146 17q44 0 73 -16t29 -47q0 -22 -10.5 -44.5t-26.5 -43
t-35.5 -37t-37.5 -25.5q2 -5 2 -8.5v-6.5q0 -5 -2 -9t-8 -11q-49 -60 -85.5 -103t-69 -80t-63.5 -74t-69 -83q-36 -43 -75 -88t-71.5 -90.5t-53.5 -91.5t-21 -92q0 -17 11.5 -31.5t33.5 -14.5q16 0 43 11.5t61.5 33.5t75.5 52.5t85 68.5q5 5 8 6t5 1q9 0 18.5 -10t9.5 -21
q0 -4 -1.5 -6.5t-6.5 -7.5q-47 -40 -93.5 -75t-89 -60.5t-79.5 -40t-65 -14.5q-54 0 -77 28t-23 66q0 51 21 100.5t54 98.5zM158 121q0 -36 18 -51.5t47 -15.5q50 0 120.5 38t152 100.5t169 143.5t171 166t158.5 167.5t132 149.5q-6 9 -6 20q0 19 18.5 32.5t40.5 24
t40.5 21.5t18.5 26q0 14 -11.5 19t-31.5 5q-60 0 -139.5 -22.5t-164 -60.5t-167.5 -88t-150 -106q-74 -60 -148.5 -129.5t-134 -143t-96.5 -149t-37 -147.5zM1248 1100q0 8 2.5 14t9.5 9q39 17 73.5 35.5t66.5 38.5q1 0 2 0.5t2 0.5q7 0 11 -11t4 -24q0 -11 -3 -20t-12 -14
q-26 -14 -50.5 -22t-50.5 -16q-11 -3 -24.5 -7t-18.5 -4t-8.5 6t-3.5 14z" />
    <glyph glyph-name="Acircumflex" unicode="&#xc2;" horiz-adv-x="891" 
d="M60 0zM667 265q-59 -57 -121.5 -110t-125.5 -93.5t-124.5 -65t-116.5 -24.5q-63 0 -91 32.5t-28 90.5q0 55 19.5 113.5t53 117t78.5 116t96 111.5t104.5 102.5t105.5 88.5q94 73 187.5 127t181.5 89.5t168 52.5t146 17q44 0 73 -16t29 -47q0 -22 -10.5 -44.5t-26.5 -43
t-35.5 -37t-37.5 -25.5q2 -5 2 -8.5v-6.5q0 -5 -2 -9t-8 -11q-49 -60 -85.5 -103t-69 -80t-63.5 -74t-69 -83q-36 -43 -75 -88t-71.5 -90.5t-53.5 -91.5t-21 -92q0 -17 11.5 -31.5t33.5 -14.5q16 0 43 11.5t61.5 33.5t75.5 52.5t85 68.5q5 5 8 6t5 1q9 0 18.5 -10t9.5 -21
q0 -4 -1.5 -6.5t-6.5 -7.5q-47 -40 -93.5 -75t-89 -60.5t-79.5 -40t-65 -14.5q-54 0 -77 28t-23 66q0 51 21 100.5t54 98.5zM158 121q0 -36 18 -51.5t47 -15.5q50 0 120.5 38t152 100.5t169 143.5t171 166t158.5 167.5t132 149.5q-6 9 -6 20q0 19 18.5 32.5t40.5 24
t40.5 21.5t18.5 26q0 14 -11.5 19t-31.5 5q-60 0 -139.5 -22.5t-164 -60.5t-167.5 -88t-150 -106q-74 -60 -148.5 -129.5t-134 -143t-96.5 -149t-37 -147.5zM1353 1070q-10 0 -13 7q-5 12 -9 28l-8 32q-27 -16 -48.5 -27t-38.5 -20q-9 -5 -15.5 -8t-8.5 -3q-7 0 -10.5 7.5
t-3.5 15.5q0 16 9 21q34 21 62.5 43.5t49.5 39.5q8 6 14.5 9t17.5 3q9 0 16 -3.5t7 -14.5v-26q0 -37 3 -56.5t3 -24.5q0 -11 -9 -17t-18 -6z" />
    <glyph glyph-name="Atilde" unicode="&#xc3;" horiz-adv-x="891" 
d="M60 0zM667 265q-59 -57 -121.5 -110t-125.5 -93.5t-124.5 -65t-116.5 -24.5q-63 0 -91 32.5t-28 90.5q0 55 19.5 113.5t53 117t78.5 116t96 111.5t104.5 102.5t105.5 88.5q94 73 187.5 127t181.5 89.5t168 52.5t146 17q44 0 73 -16t29 -47q0 -22 -10.5 -44.5t-26.5 -43
t-35.5 -37t-37.5 -25.5q2 -5 2 -8.5v-6.5q0 -5 -2 -9t-8 -11q-49 -60 -85.5 -103t-69 -80t-63.5 -74t-69 -83q-36 -43 -75 -88t-71.5 -90.5t-53.5 -91.5t-21 -92q0 -17 11.5 -31.5t33.5 -14.5q16 0 43 11.5t61.5 33.5t75.5 52.5t85 68.5q5 5 8 6t5 1q9 0 18.5 -10t9.5 -21
q0 -4 -1.5 -6.5t-6.5 -7.5q-47 -40 -93.5 -75t-89 -60.5t-79.5 -40t-65 -14.5q-54 0 -77 28t-23 66q0 51 21 100.5t54 98.5zM158 121q0 -36 18 -51.5t47 -15.5q50 0 120.5 38t152 100.5t169 143.5t171 166t158.5 167.5t132 149.5q-6 9 -6 20q0 19 18.5 32.5t40.5 24
t40.5 21.5t18.5 26q0 14 -11.5 19t-31.5 5q-60 0 -139.5 -22.5t-164 -60.5t-167.5 -88t-150 -106q-74 -60 -148.5 -129.5t-134 -143t-96.5 -149t-37 -147.5zM1188 1105q0 6 2 11t4 9q6 7 16.5 17t23 18.5t26.5 14.5t26 6q17 0 30.5 -6.5t25 -14.5t21 -14.5t19.5 -6.5
q14 0 28 8.5t29 20.5q2 1 3.5 2t3.5 1q6 0 10 -8.5t4 -19.5q0 -5 -1 -10t-3 -8q-6 -8 -16.5 -17.5t-23.5 -18.5t-26.5 -15t-25.5 -6q-17 0 -31 6.5t-25 15t-21 15t-20 6.5q-14 0 -27.5 -9t-28.5 -20q-5 -3 -8 -3q-7 0 -11 8.5t-4 17.5z" />
    <glyph glyph-name="Adieresis" unicode="&#xc4;" horiz-adv-x="891" 
d="M60 0zM667 265q-59 -57 -121.5 -110t-125.5 -93.5t-124.5 -65t-116.5 -24.5q-63 0 -91 32.5t-28 90.5q0 55 19.5 113.5t53 117t78.5 116t96 111.5t104.5 102.5t105.5 88.5q94 73 187.5 127t181.5 89.5t168 52.5t146 17q44 0 73 -16t29 -47q0 -22 -10.5 -44.5t-26.5 -43
t-35.5 -37t-37.5 -25.5q2 -5 2 -8.5v-6.5q0 -5 -2 -9t-8 -11q-49 -60 -85.5 -103t-69 -80t-63.5 -74t-69 -83q-36 -43 -75 -88t-71.5 -90.5t-53.5 -91.5t-21 -92q0 -17 11.5 -31.5t33.5 -14.5q16 0 43 11.5t61.5 33.5t75.5 52.5t85 68.5q5 5 8 6t5 1q9 0 18.5 -10t9.5 -21
q0 -4 -1.5 -6.5t-6.5 -7.5q-47 -40 -93.5 -75t-89 -60.5t-79.5 -40t-65 -14.5q-54 0 -77 28t-23 66q0 51 21 100.5t54 98.5zM158 121q0 -36 18 -51.5t47 -15.5q50 0 120.5 38t152 100.5t169 143.5t171 166t158.5 167.5t132 149.5q-6 9 -6 20q0 19 18.5 32.5t40.5 24
t40.5 21.5t18.5 26q0 14 -11.5 19t-31.5 5q-60 0 -139.5 -22.5t-164 -60.5t-167.5 -88t-150 -106q-74 -60 -148.5 -129.5t-134 -143t-96.5 -149t-37 -147.5zM1463 1171q0 -12 -6.5 -25t-17 -24.5t-22.5 -18.5t-24 -7q-11 0 -18 7.5t-7 20.5t6 26t16 24t22.5 18t24.5 7
q26 0 26 -28zM1336 1171q0 -12 -6.5 -25t-17 -24.5t-22.5 -18.5t-24 -7q-11 0 -18 7.5t-7 20.5t6 26t16 24t22.5 18t24.5 7q26 0 26 -28z" />
    <glyph glyph-name="Aring" unicode="&#xc5;" horiz-adv-x="891" 
d="M60 0zM667 265q-59 -57 -121.5 -110t-125.5 -93.5t-124.5 -65t-116.5 -24.5q-63 0 -91 32.5t-28 90.5q0 55 19.5 113.5t53 117t78.5 116t96 111.5t104.5 102.5t105.5 88.5q94 73 187.5 127t181.5 89.5t168 52.5t146 17q44 0 73 -16t29 -47q0 -22 -10.5 -44.5t-26.5 -43
t-35.5 -37t-37.5 -25.5q2 -5 2 -8.5v-6.5q0 -5 -2 -9t-8 -11q-49 -60 -85.5 -103t-69 -80t-63.5 -74t-69 -83q-36 -43 -75 -88t-71.5 -90.5t-53.5 -91.5t-21 -92q0 -17 11.5 -31.5t33.5 -14.5q16 0 43 11.5t61.5 33.5t75.5 52.5t85 68.5q5 5 8 6t5 1q9 0 18.5 -10t9.5 -21
q0 -4 -1.5 -6.5t-6.5 -7.5q-47 -40 -93.5 -75t-89 -60.5t-79.5 -40t-65 -14.5q-54 0 -77 28t-23 66q0 51 21 100.5t54 98.5zM158 121q0 -36 18 -51.5t47 -15.5q50 0 120.5 38t152 100.5t169 143.5t171 166t158.5 167.5t132 149.5q-6 9 -6 20q0 19 18.5 32.5t40.5 24
t40.5 21.5t18.5 26q0 14 -11.5 19t-31.5 5q-60 0 -139.5 -22.5t-164 -60.5t-167.5 -88t-150 -106q-74 -60 -148.5 -129.5t-134 -143t-96.5 -149t-37 -147.5zM1329 1139q0 -25 20 -25q8 0 17 6.5t17 16.5t13 22t5 24q0 13 -5 18.5t-13 5.5q-11 0 -20.5 -6.5t-17 -16.5
t-12 -22t-4.5 -23zM1453 1204q0 -23 -12.5 -47.5t-31.5 -45t-42 -33.5t-44 -13q-19 0 -32.5 13.5t-13.5 38.5q0 23 11.5 47t29.5 44t41 32.5t47 12.5q20 0 33.5 -12t13.5 -37z" />
    <glyph glyph-name="AE" unicode="&#xc6;" horiz-adv-x="1232" 
d="M566 173q-49 -42 -99 -78.5t-99.5 -64t-97 -43t-91.5 -15.5q-63 0 -91 32.5t-28 90.5q0 55 19.5 113t51.5 115.5t74 113t87.5 105t91 91t84.5 72.5q112 88 223 144.5t214 90.5t194 50.5t163 25.5q29 4 60 6t48 3q25 24 46.5 45.5t41.5 38.5q4 3 8 3q11 0 21 -16t10 -31
q0 -12 -7 -18l-15 -14q70 3 147 5.5t155 2.5q29 0 56.5 -1t56.5 -1q11 0 15.5 -3.5t4.5 -8.5q0 -9 -9.5 -20.5t-24 -22t-32 -18t-32.5 -7.5q-122 0 -233 -4t-199 -9q-90 -87 -182.5 -178.5t-184.5 -189.5q29 2 65.5 4t76 3.5t78 3.5t71.5 3t57 1.5t35 0.5q13 0 13 -14
q0 -9 -6 -21.5t-15 -24t-20 -19t-21 -7.5q-6 0 -29 -0.5t-57 -2t-76 -2.5t-85.5 -2.5t-86.5 -2.5t-78 -2q-126 -135 -243 -273q-57 -65 -57 -113q0 -32 29 -51t92 -19q48 0 97.5 8.5t101.5 23.5t106.5 34.5t110.5 40.5q9 3 16 6t12 3q9 0 9 -12q0 -13 -10.5 -30.5
t-30.5 -26.5q-50 -23 -108.5 -43.5t-119.5 -36t-120.5 -24.5t-111.5 -9q-88 0 -126.5 31.5t-38.5 80.5q0 39 23 87zM803 494q-9 0 -9 8q0 7 6.5 18.5t15.5 22t19.5 18.5t19.5 8q6 1 14 1.5t15.5 1t13 0.5h6.5q100 96 196.5 189.5t175.5 173.5q-80 -9 -175 -28.5t-194 -53
t-196.5 -83t-182.5 -118.5q-57 -46 -122 -107.5t-120 -131.5t-91.5 -145t-36.5 -147q0 -36 18 -51.5t47 -15.5q39 0 102.5 35.5t142.5 96t170 140.5t185 168h-20z" />
    <glyph glyph-name="Ccedilla" unicode="&#xc7;" horiz-adv-x="637" 
d="M200 -95q0 6 4 9q18 21 26.5 33.5t17.5 29.5q-68 24 -102 84t-34 146q0 58 20 123.5t59 136t95.5 143t128.5 144.5q72 71 162.5 134t186 110t189.5 74.5t172 27.5q74 0 109 -32.5t35 -78.5q0 -50 -29 -103.5t-77 -95.5q1 -2 2 -5t1 -5q0 -9 -8.5 -20.5t-21.5 -24
t-29.5 -25.5t-32.5 -23q-52 -33 -95.5 -55t-63.5 -28q-5 -1 -8.5 -1h-6.5q-17 0 -27 8t-10 21q0 16 25 31q54 26 106 61t92 74.5t64.5 81t24.5 81.5q0 28 -16.5 50t-62.5 22q-52 0 -111 -16t-120 -43t-121.5 -62t-115.5 -73.5t-101.5 -78t-78.5 -74.5q-71 -77 -118 -144
t-75.5 -124.5t-40.5 -105.5t-12 -87t10.5 -73t32 -59.5t54 -40.5t76.5 -15q55 0 109 18t101.5 43.5t85 53.5t61.5 48q5 5 8 6t5 1q9 0 18.5 -10t9.5 -21q0 -4 -1.5 -6.5t-6.5 -7.5q-29 -25 -76.5 -59t-104.5 -65.5t-119 -53.5t-121 -22q-14 0 -25.5 1t-23.5 3
q-5 -10 -13.5 -22.5t-13.5 -20.5q5 2 7.5 2h4.5q16 0 28.5 -10.5t12.5 -30.5q0 -28 -24.5 -57t-58.5 -52.5t-70 -38.5t-58 -15q-9 0 -16.5 13t-7.5 24t7 11q34 4 65.5 16.5t55.5 28.5t38 32.5t14 28.5t-17 12q-13 0 -26 -8q-1 -1 -4 -1q-6 0 -12.5 9t-6.5 18z" />
    <glyph glyph-name="Egrave" unicode="&#xc8;" horiz-adv-x="813" 
d="M124 0zM488 572q94 98 184.5 188.5t182.5 175.5q-51 -2 -80 -2.5t-43.5 -1t-19 -0.5h-7.5q-45 0 -75 9.5t-30 31.5q0 18 9 32t22 23t27 14t24 5t10.5 -5.5t1 -12.5t6 -12.5t25.5 -5.5q10 0 37 1t59.5 2.5t65.5 3.5t57 3q11 9 21.5 18t21.5 20l4 2t4 1q9 0 17 -12t12 -25
q100 5 197 9.5t191 4.5h49q17 0 22.5 -3.5t5.5 -8.5q0 -9 -9 -20.5t-23.5 -22t-31.5 -18t-32 -7.5q-108 0 -215.5 -5.5t-216.5 -10.5q-94 -89 -186 -178.5t-183 -186.5q88 6 180 11t204 5q14 0 14 -14q0 -9 -6 -21.5t-15 -24t-20.5 -19t-21.5 -7.5q-96 0 -201 -5t-212 -7
q-60 -65 -120.5 -132.5t-121.5 -140.5q-27 -32 -41.5 -60.5t-14.5 -52.5q0 -32 29 -51t92 -19q48 0 102.5 10.5t108.5 26t104 33t89 32.5q15 6 26 10t13 4q10 0 10 -12q0 -11 -11 -28.5t-31 -26.5q-49 -24 -107.5 -44.5t-119.5 -36.5t-120.5 -25t-111.5 -9q-87 0 -126 31.5
t-39 81.5q0 37 19.5 79.5t55.5 84.5q108 126 216 243h-31q-9 0 -9 8q0 7 6.5 18.5t15.5 22.5t19.5 18.5t19.5 7.5q13 0 26 1zM1230 1241q4 -18 7 -31t5.5 -24t5.5 -21.5t8 -22.5q3 -7 6.5 -16.5t3.5 -11.5q0 -11 -9 -18.5t-17 -7.5q-7 0 -10 5q-6 11 -14.5 27.5t-16 33.5
t-12.5 31.5t-5 22.5q0 16 14.5 27.5t24.5 11.5q8 0 9 -6z" />
    <glyph glyph-name="Eacute" unicode="&#xc9;" horiz-adv-x="813" 
d="M124 0zM488 572q94 98 184.5 188.5t182.5 175.5q-51 -2 -80 -2.5t-43.5 -1t-19 -0.5h-7.5q-45 0 -75 9.5t-30 31.5q0 18 9 32t22 23t27 14t24 5t10.5 -5.5t1 -12.5t6 -12.5t25.5 -5.5q10 0 37 1t59.5 2.5t65.5 3.5t57 3q11 9 21.5 18t21.5 20l4 2t4 1q9 0 17 -12t12 -25
q100 5 197 9.5t191 4.5h49q17 0 22.5 -3.5t5.5 -8.5q0 -9 -9 -20.5t-23.5 -22t-31.5 -18t-32 -7.5q-108 0 -215.5 -5.5t-216.5 -10.5q-94 -89 -186 -178.5t-183 -186.5q88 6 180 11t204 5q14 0 14 -14q0 -9 -6 -21.5t-15 -24t-20.5 -19t-21.5 -7.5q-96 0 -201 -5t-212 -7
q-60 -65 -120.5 -132.5t-121.5 -140.5q-27 -32 -41.5 -60.5t-14.5 -52.5q0 -32 29 -51t92 -19q48 0 102.5 10.5t108.5 26t104 33t89 32.5q15 6 26 10t13 4q10 0 10 -12q0 -11 -11 -28.5t-31 -26.5q-49 -24 -107.5 -44.5t-119.5 -36.5t-120.5 -25t-111.5 -9q-87 0 -126 31.5
t-39 81.5q0 37 19.5 79.5t55.5 84.5q108 126 216 243h-31q-9 0 -9 8q0 7 6.5 18.5t15.5 22.5t19.5 18.5t19.5 7.5q13 0 26 1zM1180 1120q0 8 2.5 14t9.5 9q39 17 73.5 35.5t66.5 38.5q1 0 2 0.5t2 0.5q7 0 11 -11t4 -24q0 -11 -3 -20t-12 -14q-26 -14 -50.5 -22t-50.5 -16
q-11 -3 -24.5 -7t-18.5 -4t-8.5 6t-3.5 14z" />
    <glyph glyph-name="Ecircumflex" unicode="&#xca;" horiz-adv-x="813" 
d="M124 0zM488 572q94 98 184.5 188.5t182.5 175.5q-51 -2 -80 -2.5t-43.5 -1t-19 -0.5h-7.5q-45 0 -75 9.5t-30 31.5q0 18 9 32t22 23t27 14t24 5t10.5 -5.5t1 -12.5t6 -12.5t25.5 -5.5q10 0 37 1t59.5 2.5t65.5 3.5t57 3q11 9 21.5 18t21.5 20l4 2t4 1q9 0 17 -12t12 -25
q100 5 197 9.5t191 4.5h49q17 0 22.5 -3.5t5.5 -8.5q0 -9 -9 -20.5t-23.5 -22t-31.5 -18t-32 -7.5q-108 0 -215.5 -5.5t-216.5 -10.5q-94 -89 -186 -178.5t-183 -186.5q88 6 180 11t204 5q14 0 14 -14q0 -9 -6 -21.5t-15 -24t-20.5 -19t-21.5 -7.5q-96 0 -201 -5t-212 -7
q-60 -65 -120.5 -132.5t-121.5 -140.5q-27 -32 -41.5 -60.5t-14.5 -52.5q0 -32 29 -51t92 -19q48 0 102.5 10.5t108.5 26t104 33t89 32.5q15 6 26 10t13 4q10 0 10 -12q0 -11 -11 -28.5t-31 -26.5q-49 -24 -107.5 -44.5t-119.5 -36.5t-120.5 -25t-111.5 -9q-87 0 -126 31.5
t-39 81.5q0 37 19.5 79.5t55.5 84.5q108 126 216 243h-31q-9 0 -9 8q0 7 6.5 18.5t15.5 22.5t19.5 18.5t19.5 7.5q13 0 26 1zM1285 1090q-10 0 -13 7q-5 12 -9 28l-8 32q-27 -16 -48.5 -27t-38.5 -20q-9 -5 -15.5 -8t-8.5 -3q-7 0 -10.5 7.5t-3.5 15.5q0 16 9 21
q34 21 62.5 43.5t49.5 39.5q8 6 14.5 9t17.5 3q9 0 16 -3.5t7 -14.5v-26q0 -37 3 -56.5t3 -24.5q0 -11 -9 -17t-18 -6z" />
    <glyph glyph-name="Edieresis" unicode="&#xcb;" horiz-adv-x="813" 
d="M124 0zM488 572q94 98 184.5 188.5t182.5 175.5q-51 -2 -80 -2.5t-43.5 -1t-19 -0.5h-7.5q-45 0 -75 9.5t-30 31.5q0 18 9 32t22 23t27 14t24 5t10.5 -5.5t1 -12.5t6 -12.5t25.5 -5.5q10 0 37 1t59.5 2.5t65.5 3.5t57 3q11 9 21.5 18t21.5 20l4 2t4 1q9 0 17 -12t12 -25
q100 5 197 9.5t191 4.5h49q17 0 22.5 -3.5t5.5 -8.5q0 -9 -9 -20.5t-23.5 -22t-31.5 -18t-32 -7.5q-108 0 -215.5 -5.5t-216.5 -10.5q-94 -89 -186 -178.5t-183 -186.5q88 6 180 11t204 5q14 0 14 -14q0 -9 -6 -21.5t-15 -24t-20.5 -19t-21.5 -7.5q-96 0 -201 -5t-212 -7
q-60 -65 -120.5 -132.5t-121.5 -140.5q-27 -32 -41.5 -60.5t-14.5 -52.5q0 -32 29 -51t92 -19q48 0 102.5 10.5t108.5 26t104 33t89 32.5q15 6 26 10t13 4q10 0 10 -12q0 -11 -11 -28.5t-31 -26.5q-49 -24 -107.5 -44.5t-119.5 -36.5t-120.5 -25t-111.5 -9q-87 0 -126 31.5
t-39 81.5q0 37 19.5 79.5t55.5 84.5q108 126 216 243h-31q-9 0 -9 8q0 7 6.5 18.5t15.5 22.5t19.5 18.5t19.5 7.5q13 0 26 1zM1395 1191q0 -12 -6.5 -25t-17 -24.5t-22.5 -18.5t-24 -7q-11 0 -18 7.5t-7 20.5t6 26t16 24t22.5 18t24.5 7q26 0 26 -28zM1268 1191
q0 -12 -6.5 -25t-17 -24.5t-22.5 -18.5t-24 -7q-11 0 -18 7.5t-7 20.5t6 26t16 24t22.5 18t24.5 7q26 0 26 -28z" />
    <glyph glyph-name="Igrave" unicode="&#xcc;" horiz-adv-x="361" 
d="M31 0zM537 435q-109 -117 -223 -233t-239 -237q-8 -5 -12 -5q-12 0 -22 15.5t-10 33.5q0 20 12 31q63 58 117 111.5t105 105t101.5 104.5t106.5 110q38 40 82.5 88t89 98.5t86 101t73.5 95t51.5 79.5t19.5 56q0 18 -9.5 29.5t-29.5 11.5q-39 0 -102.5 -23t-137.5 -67
t-151.5 -107.5t-144.5 -143.5q2 -2 5 -7t3 -12q0 -9 -13.5 -27.5t-32 -37.5t-39 -33.5t-33.5 -14.5q-19 0 -28 10.5t-9 24.5q0 34 34.5 85t93 108.5t135 115t160.5 103.5t170 75t163 29q33 0 48 -18.5t15 -44.5q0 -30 -22 -75.5t-58.5 -100t-83 -114.5t-95 -118
t-94.5 -110.5t-82 -91.5zM1005 1282q4 -18 7 -31t5.5 -24t5.5 -21.5t8 -22.5q3 -7 6.5 -16.5t3.5 -11.5q0 -11 -9 -18.5t-17 -7.5q-7 0 -10 5q-6 11 -14.5 27.5t-16 33.5t-12.5 31.5t-5 22.5q0 16 14.5 27.5t24.5 11.5q8 0 9 -6z" />
    <glyph glyph-name="Iacute" unicode="&#xcd;" horiz-adv-x="361" 
d="M31 0zM537 435q-109 -117 -223 -233t-239 -237q-8 -5 -12 -5q-12 0 -22 15.5t-10 33.5q0 20 12 31q63 58 117 111.5t105 105t101.5 104.5t106.5 110q38 40 82.5 88t89 98.5t86 101t73.5 95t51.5 79.5t19.5 56q0 18 -9.5 29.5t-29.5 11.5q-39 0 -102.5 -23t-137.5 -67
t-151.5 -107.5t-144.5 -143.5q2 -2 5 -7t3 -12q0 -9 -13.5 -27.5t-32 -37.5t-39 -33.5t-33.5 -14.5q-19 0 -28 10.5t-9 24.5q0 34 34.5 85t93 108.5t135 115t160.5 103.5t170 75t163 29q33 0 48 -18.5t15 -44.5q0 -30 -22 -75.5t-58.5 -100t-83 -114.5t-95 -118
t-94.5 -110.5t-82 -91.5zM975 1181q0 8 2.5 14t9.5 9q39 17 73.5 35.5t66.5 38.5q1 0 2 0.5t2 0.5q7 0 11 -11t4 -24q0 -11 -3 -20t-12 -14q-26 -14 -50.5 -22t-50.5 -16q-11 -3 -24.5 -7t-18.5 -4t-8.5 6t-3.5 14z" />
    <glyph glyph-name="Icircumflex" unicode="&#xce;" horiz-adv-x="361" 
d="M31 0zM537 435q-109 -117 -223 -233t-239 -237q-8 -5 -12 -5q-12 0 -22 15.5t-10 33.5q0 20 12 31q63 58 117 111.5t105 105t101.5 104.5t106.5 110q38 40 82.5 88t89 98.5t86 101t73.5 95t51.5 79.5t19.5 56q0 18 -9.5 29.5t-29.5 11.5q-39 0 -102.5 -23t-137.5 -67
t-151.5 -107.5t-144.5 -143.5q2 -2 5 -7t3 -12q0 -9 -13.5 -27.5t-32 -37.5t-39 -33.5t-33.5 -14.5q-19 0 -28 10.5t-9 24.5q0 34 34.5 85t93 108.5t135 115t160.5 103.5t170 75t163 29q33 0 48 -18.5t15 -44.5q0 -30 -22 -75.5t-58.5 -100t-83 -114.5t-95 -118
t-94.5 -110.5t-82 -91.5zM1080 1151q-10 0 -13 7q-5 12 -9 28l-8 32q-27 -16 -48.5 -27t-38.5 -20q-9 -5 -15.5 -8t-8.5 -3q-7 0 -10.5 7.5t-3.5 15.5q0 16 9 21q34 21 62.5 43.5t49.5 39.5q8 6 14.5 9t17.5 3q9 0 16 -3.5t7 -14.5v-26q0 -37 3 -56.5t3 -24.5q0 -11 -9 -17
t-18 -6z" />
    <glyph glyph-name="Idieresis" unicode="&#xcf;" horiz-adv-x="361" 
d="M31 0zM537 435q-109 -117 -223 -233t-239 -237q-8 -5 -12 -5q-12 0 -22 15.5t-10 33.5q0 20 12 31q63 58 117 111.5t105 105t101.5 104.5t106.5 110q38 40 82.5 88t89 98.5t86 101t73.5 95t51.5 79.5t19.5 56q0 18 -9.5 29.5t-29.5 11.5q-39 0 -102.5 -23t-137.5 -67
t-151.5 -107.5t-144.5 -143.5q2 -2 5 -7t3 -12q0 -9 -13.5 -27.5t-32 -37.5t-39 -33.5t-33.5 -14.5q-19 0 -28 10.5t-9 24.5q0 34 34.5 85t93 108.5t135 115t160.5 103.5t170 75t163 29q33 0 48 -18.5t15 -44.5q0 -30 -22 -75.5t-58.5 -100t-83 -114.5t-95 -118
t-94.5 -110.5t-82 -91.5zM1190 1252q0 -12 -6.5 -25t-17 -24.5t-22.5 -18.5t-24 -7q-11 0 -18 7.5t-7 20.5t6 26t16 24t22.5 18t24.5 7q26 0 26 -28zM1063 1252q0 -12 -6.5 -25t-17 -24.5t-22.5 -18.5t-24 -7q-11 0 -18 7.5t-7 20.5t6 26t16 24t22.5 18t24.5 7q26 0 26 -28z
" />
    <glyph glyph-name="Eth" unicode="&#xd0;" horiz-adv-x="966" 
d="M996 344q-105 -86 -225 -155t-243.5 -117t-244.5 -74t-228 -26q-32 0 -46 19.5t-14 37.5q0 11 4.5 19.5t12.5 8.5q13 0 31 -4t47 -4q55 0 122.5 10.5t142.5 31t154.5 50.5t157 68.5t150 85t135.5 100.5q131 113 193 224.5t62 208.5q0 49 -16 93t-49 77.5t-83 53
t-118 19.5q-58 0 -118 -13.5t-115 -34t-101.5 -45.5t-77.5 -48q-1 -1 -5 -4t-4 -5q0 -5 5.5 -8t5.5 -10q0 -5 -2.5 -10t-8.5 -10q-18 -15 -45 -32t-53.5 -31.5t-49 -25t-32.5 -12.5q-5 -2 -14 -2q-19 0 -30 8.5t-11 20.5t10 25q59 73 137 130t164 96t175.5 59.5t171.5 20.5
q167 0 256 -78.5t89 -222.5q0 -53 -15.5 -112t-50 -122t-90 -129t-136.5 -132zM508 410q-57 -63 -118 -133.5t-134 -155.5q-6 -6 -14 -6q-13 0 -24 16.5t-11 36.5q0 16 10 29l187 213h-159q-21 0 -29 6t-8 17q0 9 9 15.5t21.5 11.5t27 8t25.5 3q20 2 67 2.5t104 0.5
q51 56 102 110.5t109.5 114t128.5 128t159 154.5q2 1 4.5 2t4.5 1q11 0 20 -13.5t9 -30.5q0 -16 -9 -25q-69 -69 -127 -128.5t-109 -113t-97.5 -102.5t-91.5 -98q42 -2 78.5 -3t60.5 -3q11 -2 20 -9t9 -17q0 -19 -15.5 -25t-33.5 -6h-176z" />
    <glyph glyph-name="Ntilde" unicode="&#xd1;" horiz-adv-x="877" 
d="M107 0zM320 145q-41 -44 -80.5 -89.5t-83.5 -93.5q-6 -6 -12 -6q-14 0 -25.5 17.5t-11.5 37.5q0 17 12 32q56 58 104 111t93 104t89.5 103.5t93.5 109.5q34 39 71.5 87t74.5 98t70 99.5t58.5 93t40.5 77.5t15 53q0 22 -9 35t-29 13q-51 0 -113.5 -22.5t-129.5 -65.5
t-134 -106t-126 -143q5 -5 8.5 -9t3.5 -12t-12 -25.5t-29.5 -36.5t-37 -33t-33.5 -14q-20 0 -27.5 11t-7.5 27q0 34 29.5 85t80.5 108t118.5 113.5t144 101.5t157 73.5t157.5 28.5q38 0 59 -24t21 -63q0 -30 -20 -78.5t-54.5 -108t-80.5 -127t-98 -136.5q97 93 183.5 169
t159 129.5t129 82.5t94.5 29q30 0 47.5 -18t17.5 -48q0 -38 -30 -89t-79 -111.5t-111.5 -127t-127.5 -135.5t-126.5 -137t-108.5 -131q-34 -45 -47 -72.5t-13 -44.5q0 -16 10 -22.5t24 -6.5q22 0 54 12.5t70 34.5t79 51.5t80 63.5q5 5 8 6t5 1q9 0 18.5 -10t9.5 -21
q0 -2 -1.5 -5.5t-6.5 -8.5q-39 -34 -86.5 -69.5t-96.5 -64.5t-96 -47.5t-86 -18.5q-78 0 -78 66q0 33 23.5 83t74.5 117q48 63 106 128t116.5 128t114 121t98 107.5t68.5 88t26 61.5q0 8 -4 14.5t-13 6.5q-18 0 -63.5 -28.5t-110.5 -78.5t-146 -119.5t-169.5 -151.5
t-181 -173.5t-181.5 -186.5zM1100 1105q0 6 2 11t4 9q6 7 16.5 17t23 18.5t26.5 14.5t26 6q17 0 30.5 -6.5t25 -14.5t21 -14.5t19.5 -6.5q14 0 28 8.5t29 20.5q2 1 3.5 2t3.5 1q6 0 10 -8.5t4 -19.5q0 -5 -1 -10t-3 -8q-6 -8 -16.5 -17.5t-23.5 -18.5t-26.5 -15t-25.5 -6
q-17 0 -31 6.5t-25 15t-21 15t-20 6.5q-14 0 -27.5 -9t-28.5 -20q-5 -3 -8 -3q-7 0 -11 8.5t-4 17.5z" />
    <glyph glyph-name="Ograve" unicode="&#xd2;" horiz-adv-x="811" 
d="M93 0zM432 725q91 90 180.5 155.5t169.5 108t146 63.5t111 21q7 0 18 -1t21.5 -4t18.5 -9.5t8 -17.5q0 -12 -8 -23q41 0 59.5 -24t18.5 -68q0 -52 -28.5 -122.5t-76.5 -149.5t-110.5 -161t-131.5 -156q-68 -73 -145 -138.5t-155 -114.5t-151.5 -78t-134.5 -29
q-30 0 -57 8t-47.5 26t-32.5 46t-12 68q0 58 25 131t70 152.5t107 161t137 155.5zM1005 909q-5 0 -9 7t-4 17q0 19 10.5 34t27.5 26q-12 3 -26 3q-35 0 -89 -19t-121.5 -58.5t-146 -99.5t-160.5 -141q-71 -70 -127.5 -142t-96 -139.5t-60.5 -127t-21 -104.5q0 -48 29 -76.5
t77 -28.5q49 0 110.5 26.5t127.5 71.5t132.5 103.5t126.5 122.5q61 66 106.5 124t79 110t55.5 99t36 92q9 30 9 51q0 29 -13.5 41.5t-30.5 12.5q-9 0 -13.5 -2.5t-8.5 -2.5zM1181 1261q4 -18 7 -31t5.5 -24t5.5 -21.5t8 -22.5q3 -7 6.5 -16.5t3.5 -11.5q0 -11 -9 -18.5
t-17 -7.5q-7 0 -10 5q-6 11 -14.5 27.5t-16 33.5t-12.5 31.5t-5 22.5q0 16 14.5 27.5t24.5 11.5q8 0 9 -6z" />
    <glyph glyph-name="Oacute" unicode="&#xd3;" horiz-adv-x="811" 
d="M93 0zM432 725q91 90 180.5 155.5t169.5 108t146 63.5t111 21q7 0 18 -1t21.5 -4t18.5 -9.5t8 -17.5q0 -12 -8 -23q41 0 59.5 -24t18.5 -68q0 -52 -28.5 -122.5t-76.5 -149.5t-110.5 -161t-131.5 -156q-68 -73 -145 -138.5t-155 -114.5t-151.5 -78t-134.5 -29
q-30 0 -57 8t-47.5 26t-32.5 46t-12 68q0 58 25 131t70 152.5t107 161t137 155.5zM1005 909q-5 0 -9 7t-4 17q0 19 10.5 34t27.5 26q-12 3 -26 3q-35 0 -89 -19t-121.5 -58.5t-146 -99.5t-160.5 -141q-71 -70 -127.5 -142t-96 -139.5t-60.5 -127t-21 -104.5q0 -48 29 -76.5
t77 -28.5q49 0 110.5 26.5t127.5 71.5t132.5 103.5t126.5 122.5q61 66 106.5 124t79 110t55.5 99t36 92q9 30 9 51q0 29 -13.5 41.5t-30.5 12.5q-9 0 -13.5 -2.5t-8.5 -2.5zM1131 1140q0 8 2.5 14t9.5 9q39 17 73.5 35.5t66.5 38.5q1 0 2 0.5t2 0.5q7 0 11 -11t4 -24
q0 -11 -3 -20t-12 -14q-26 -14 -50.5 -22t-50.5 -16q-11 -3 -24.5 -7t-18.5 -4t-8.5 6t-3.5 14z" />
    <glyph glyph-name="Ocircumflex" unicode="&#xd4;" horiz-adv-x="811" 
d="M93 0zM432 725q91 90 180.5 155.5t169.5 108t146 63.5t111 21q7 0 18 -1t21.5 -4t18.5 -9.5t8 -17.5q0 -12 -8 -23q41 0 59.5 -24t18.5 -68q0 -52 -28.5 -122.5t-76.5 -149.5t-110.5 -161t-131.5 -156q-68 -73 -145 -138.5t-155 -114.5t-151.5 -78t-134.5 -29
q-30 0 -57 8t-47.5 26t-32.5 46t-12 68q0 58 25 131t70 152.5t107 161t137 155.5zM1005 909q-5 0 -9 7t-4 17q0 19 10.5 34t27.5 26q-12 3 -26 3q-35 0 -89 -19t-121.5 -58.5t-146 -99.5t-160.5 -141q-71 -70 -127.5 -142t-96 -139.5t-60.5 -127t-21 -104.5q0 -48 29 -76.5
t77 -28.5q49 0 110.5 26.5t127.5 71.5t132.5 103.5t126.5 122.5q61 66 106.5 124t79 110t55.5 99t36 92q9 30 9 51q0 29 -13.5 41.5t-30.5 12.5q-9 0 -13.5 -2.5t-8.5 -2.5zM1236 1110q-10 0 -13 7q-5 12 -9 28l-8 32q-27 -16 -48.5 -27t-38.5 -20q-9 -5 -15.5 -8t-8.5 -3
q-7 0 -10.5 7.5t-3.5 15.5q0 16 9 21q34 21 62.5 43.5t49.5 39.5q8 6 14.5 9t17.5 3q9 0 16 -3.5t7 -14.5v-26q0 -37 3 -56.5t3 -24.5q0 -11 -9 -17t-18 -6z" />
    <glyph glyph-name="Otilde" unicode="&#xd5;" horiz-adv-x="811" 
d="M93 0zM432 725q91 90 180.5 155.5t169.5 108t146 63.5t111 21q7 0 18 -1t21.5 -4t18.5 -9.5t8 -17.5q0 -12 -8 -23q41 0 59.5 -24t18.5 -68q0 -52 -28.5 -122.5t-76.5 -149.5t-110.5 -161t-131.5 -156q-68 -73 -145 -138.5t-155 -114.5t-151.5 -78t-134.5 -29
q-30 0 -57 8t-47.5 26t-32.5 46t-12 68q0 58 25 131t70 152.5t107 161t137 155.5zM1005 909q-5 0 -9 7t-4 17q0 19 10.5 34t27.5 26q-12 3 -26 3q-35 0 -89 -19t-121.5 -58.5t-146 -99.5t-160.5 -141q-71 -70 -127.5 -142t-96 -139.5t-60.5 -127t-21 -104.5q0 -48 29 -76.5
t77 -28.5q49 0 110.5 26.5t127.5 71.5t132.5 103.5t126.5 122.5q61 66 106.5 124t79 110t55.5 99t36 92q9 30 9 51q0 29 -13.5 41.5t-30.5 12.5q-9 0 -13.5 -2.5t-8.5 -2.5zM1071 1145q0 6 2 11t4 9q6 7 16.5 17t23 18.5t26.5 14.5t26 6q17 0 30.5 -6.5t25 -14.5t21 -14.5
t19.5 -6.5q14 0 28 8.5t29 20.5q2 1 3.5 2t3.5 1q6 0 10 -8.5t4 -19.5q0 -5 -1 -10t-3 -8q-6 -8 -16.5 -17.5t-23.5 -18.5t-26.5 -15t-25.5 -6q-17 0 -31 6.5t-25 15t-21 15t-20 6.5q-14 0 -27.5 -9t-28.5 -20q-5 -3 -8 -3q-7 0 -11 8.5t-4 17.5z" />
    <glyph glyph-name="Odieresis" unicode="&#xd6;" horiz-adv-x="811" 
d="M93 0zM432 725q91 90 180.5 155.5t169.5 108t146 63.5t111 21q7 0 18 -1t21.5 -4t18.5 -9.5t8 -17.5q0 -12 -8 -23q41 0 59.5 -24t18.5 -68q0 -52 -28.5 -122.5t-76.5 -149.5t-110.5 -161t-131.5 -156q-68 -73 -145 -138.5t-155 -114.5t-151.5 -78t-134.5 -29
q-30 0 -57 8t-47.5 26t-32.5 46t-12 68q0 58 25 131t70 152.5t107 161t137 155.5zM1005 909q-5 0 -9 7t-4 17q0 19 10.5 34t27.5 26q-12 3 -26 3q-35 0 -89 -19t-121.5 -58.5t-146 -99.5t-160.5 -141q-71 -70 -127.5 -142t-96 -139.5t-60.5 -127t-21 -104.5q0 -48 29 -76.5
t77 -28.5q49 0 110.5 26.5t127.5 71.5t132.5 103.5t126.5 122.5q61 66 106.5 124t79 110t55.5 99t36 92q9 30 9 51q0 29 -13.5 41.5t-30.5 12.5q-9 0 -13.5 -2.5t-8.5 -2.5zM1346 1211q0 -12 -6.5 -25t-17 -24.5t-22.5 -18.5t-24 -7q-11 0 -18 7.5t-7 20.5t6 26t16 24
t22.5 18t24.5 7q26 0 26 -28zM1219 1211q0 -12 -6.5 -25t-17 -24.5t-22.5 -18.5t-24 -7q-11 0 -18 7.5t-7 20.5t6 26t16 24t22.5 18t24.5 7q26 0 26 -28z" />
    <glyph glyph-name="multiply" unicode="&#xd7;" horiz-adv-x="727" 
d="M536 282q6 -12 14.5 -29.5t17 -34.5t14.5 -32.5t6 -23.5q0 -9 -5.5 -18t-17.5 -9t-21.5 9t-17.5 23l-47 87q-37 -18 -72 -35.5t-65.5 -32.5t-54 -26.5t-36.5 -17.5q-8 -5 -14.5 -6t-11.5 -1q-8 0 -14 3.5t-6 12.5q0 8 6 18t15 19t19.5 16.5t19.5 12.5t26.5 14.5t41.5 22
t53.5 27t61.5 30.5l-50 96q-9 16 -9 25q0 7 5 13t15 6q7 0 16 -6t18 -14.5t17 -18t13 -17.5l34 -57q69 34 126 59t83 36q18 8 28 8q9 0 18 -4.5t9 -18.5q0 -13 -9.5 -22t-22.5 -17z" />
    <glyph glyph-name="Oslash" unicode="&#xd8;" horiz-adv-x="811" 
d="M432 725q91 90 180.5 155.5t169.5 108t146 63.5t111 21q7 0 18 -1t21.5 -4t18.5 -9.5t8 -17.5q0 -12 -8 -23q31 0 49.5 -15.5t24.5 -43.5q27 20 54.5 38.5t55.5 36.5q7 5 14 5q12 0 22 -11t10 -23q0 -8 -8 -13q-37 -26 -73.5 -52t-74.5 -54q-10 -54 -41 -121.5
t-77.5 -140t-104 -146.5t-120.5 -141q-68 -73 -145 -138.5t-155 -114.5t-151.5 -78t-134.5 -29q-37 0 -69 12t-52 39q-69 -63 -132 -123q-6 -6 -15 -6q-15 0 -28 14t-13 29q0 11 9 20l151 139v24q0 58 25 131t70 152.5t107 161t137 155.5zM1005 909q-5 0 -9 7t-4 17
q0 19 10.5 34t27.5 26q-12 3 -26 3q-35 0 -89 -19t-121.5 -58.5t-146 -99.5t-160.5 -141q-68 -67 -123 -136.5t-94 -135t-62 -124t-26 -103.5q97 85 204.5 175.5t220.5 181.5t229 179.5t231 170.5q-12 28 -40 28q-9 0 -13.5 -2.5t-8.5 -2.5zM785 384q60 65 105 122t78 108.5
t55.5 98t36.5 90.5q-109 -81 -219.5 -168t-220 -176.5t-215.5 -180.5t-205 -179q28 -39 88 -39q49 0 110.5 26.5t127.5 71.5t132.5 103.5t126.5 122.5z" />
    <glyph glyph-name="Ugrave" unicode="&#xd9;" horiz-adv-x="891" 
d="M112 0zM239 242q53 61 116 130.5t127 140.5t124 141t106 133t74 115.5t28 89.5q0 18 -10.5 28.5t-30.5 10.5q-45 0 -103.5 -23t-122.5 -66.5t-129 -106.5t-124 -143q5 -5 8.5 -9.5t3.5 -13.5q0 -7 -11.5 -25t-29.5 -36.5t-38.5 -33t-38.5 -14.5q-11 0 -20 8t-9 32
q0 34 28 85t76.5 107.5t113 112.5t136.5 101.5t147.5 73.5t147.5 28q54 0 78 -22.5t24 -52.5q0 -47 -29.5 -109t-78 -132t-110.5 -145.5t-126.5 -149t-126 -142.5t-110 -126.5t-78 -100.5t-29.5 -65q0 -5 3 -10.5t12 -5.5q22 0 75 33.5t126 91t162 135.5t183 167t189 184.5
t180 189.5q34 37 71 79t78 86q6 6 10 6q12 0 21.5 -16.5t9.5 -35.5q0 -8 -2.5 -16.5t-8.5 -14.5q-56 -59 -99.5 -107t-83 -93.5t-79.5 -92.5t-90 -103q-76 -86 -134 -161t-97 -137t-59 -108t-20 -73q0 -37 33 -37q39 0 109 43t175 133q5 5 8 6t5 1q9 0 18.5 -10t9.5 -21
q0 -2 -1.5 -5.5t-6.5 -8.5q-26 -23 -65 -56t-85 -64.5t-96.5 -53.5t-99.5 -22q-32 0 -57 17.5t-25 63.5q0 22 7.5 52t24.5 68t45.5 85.5t70.5 104.5q-96 -92 -183 -166.5t-160 -127t-130 -81t-93 -28.5q-31 0 -46 19.5t-15 44.5q0 42 34.5 99.5t92.5 124.5zM1159 1223
q4 -18 7 -31t5.5 -24t5.5 -21.5t8 -22.5q3 -7 6.5 -16.5t3.5 -11.5q0 -11 -9 -18.5t-17 -7.5q-7 0 -10 5q-6 11 -14.5 27.5t-16 33.5t-12.5 31.5t-5 22.5q0 16 14.5 27.5t24.5 11.5q8 0 9 -6z" />
    <glyph glyph-name="Uacute" unicode="&#xda;" horiz-adv-x="891" 
d="M112 0zM239 242q53 61 116 130.5t127 140.5t124 141t106 133t74 115.5t28 89.5q0 18 -10.5 28.5t-30.5 10.5q-45 0 -103.5 -23t-122.5 -66.5t-129 -106.5t-124 -143q5 -5 8.5 -9.5t3.5 -13.5q0 -7 -11.5 -25t-29.5 -36.5t-38.5 -33t-38.5 -14.5q-11 0 -20 8t-9 32
q0 34 28 85t76.5 107.5t113 112.5t136.5 101.5t147.5 73.5t147.5 28q54 0 78 -22.5t24 -52.5q0 -47 -29.5 -109t-78 -132t-110.5 -145.5t-126.5 -149t-126 -142.5t-110 -126.5t-78 -100.5t-29.5 -65q0 -5 3 -10.5t12 -5.5q22 0 75 33.5t126 91t162 135.5t183 167t189 184.5
t180 189.5q34 37 71 79t78 86q6 6 10 6q12 0 21.5 -16.5t9.5 -35.5q0 -8 -2.5 -16.5t-8.5 -14.5q-56 -59 -99.5 -107t-83 -93.5t-79.5 -92.5t-90 -103q-76 -86 -134 -161t-97 -137t-59 -108t-20 -73q0 -37 33 -37q39 0 109 43t175 133q5 5 8 6t5 1q9 0 18.5 -10t9.5 -21
q0 -2 -1.5 -5.5t-6.5 -8.5q-26 -23 -65 -56t-85 -64.5t-96.5 -53.5t-99.5 -22q-32 0 -57 17.5t-25 63.5q0 22 7.5 52t24.5 68t45.5 85.5t70.5 104.5q-96 -92 -183 -166.5t-160 -127t-130 -81t-93 -28.5q-31 0 -46 19.5t-15 44.5q0 42 34.5 99.5t92.5 124.5zM1109 1102
q0 8 2.5 14t9.5 9q39 17 73.5 35.5t66.5 38.5q1 0 2 0.5t2 0.5q7 0 11 -11t4 -24q0 -11 -3 -20t-12 -14q-26 -14 -50.5 -22t-50.5 -16q-11 -3 -24.5 -7t-18.5 -4t-8.5 6t-3.5 14z" />
    <glyph glyph-name="Ucircumflex" unicode="&#xdb;" horiz-adv-x="891" 
d="M112 0zM239 242q53 61 116 130.5t127 140.5t124 141t106 133t74 115.5t28 89.5q0 18 -10.5 28.5t-30.5 10.5q-45 0 -103.5 -23t-122.5 -66.5t-129 -106.5t-124 -143q5 -5 8.5 -9.5t3.5 -13.5q0 -7 -11.5 -25t-29.5 -36.5t-38.5 -33t-38.5 -14.5q-11 0 -20 8t-9 32
q0 34 28 85t76.5 107.5t113 112.5t136.5 101.5t147.5 73.5t147.5 28q54 0 78 -22.5t24 -52.5q0 -47 -29.5 -109t-78 -132t-110.5 -145.5t-126.5 -149t-126 -142.5t-110 -126.5t-78 -100.5t-29.5 -65q0 -5 3 -10.5t12 -5.5q22 0 75 33.5t126 91t162 135.5t183 167t189 184.5
t180 189.5q34 37 71 79t78 86q6 6 10 6q12 0 21.5 -16.5t9.5 -35.5q0 -8 -2.5 -16.5t-8.5 -14.5q-56 -59 -99.5 -107t-83 -93.5t-79.5 -92.5t-90 -103q-76 -86 -134 -161t-97 -137t-59 -108t-20 -73q0 -37 33 -37q39 0 109 43t175 133q5 5 8 6t5 1q9 0 18.5 -10t9.5 -21
q0 -2 -1.5 -5.5t-6.5 -8.5q-26 -23 -65 -56t-85 -64.5t-96.5 -53.5t-99.5 -22q-32 0 -57 17.5t-25 63.5q0 22 7.5 52t24.5 68t45.5 85.5t70.5 104.5q-96 -92 -183 -166.5t-160 -127t-130 -81t-93 -28.5q-31 0 -46 19.5t-15 44.5q0 42 34.5 99.5t92.5 124.5zM1214 1072
q-10 0 -13 7q-5 12 -9 28l-8 32q-27 -16 -48.5 -27t-38.5 -20q-9 -5 -15.5 -8t-8.5 -3q-7 0 -10.5 7.5t-3.5 15.5q0 16 9 21q34 21 62.5 43.5t49.5 39.5q8 6 14.5 9t17.5 3q9 0 16 -3.5t7 -14.5v-26q0 -37 3 -56.5t3 -24.5q0 -11 -9 -17t-18 -6z" />
    <glyph glyph-name="Udieresis" unicode="&#xdc;" horiz-adv-x="891" 
d="M112 0zM239 242q53 61 116 130.5t127 140.5t124 141t106 133t74 115.5t28 89.5q0 18 -10.5 28.5t-30.5 10.5q-45 0 -103.5 -23t-122.5 -66.5t-129 -106.5t-124 -143q5 -5 8.5 -9.5t3.5 -13.5q0 -7 -11.5 -25t-29.5 -36.5t-38.5 -33t-38.5 -14.5q-11 0 -20 8t-9 32
q0 34 28 85t76.5 107.5t113 112.5t136.5 101.5t147.5 73.5t147.5 28q54 0 78 -22.5t24 -52.5q0 -47 -29.5 -109t-78 -132t-110.5 -145.5t-126.5 -149t-126 -142.5t-110 -126.5t-78 -100.5t-29.5 -65q0 -5 3 -10.5t12 -5.5q22 0 75 33.5t126 91t162 135.5t183 167t189 184.5
t180 189.5q34 37 71 79t78 86q6 6 10 6q12 0 21.5 -16.5t9.5 -35.5q0 -8 -2.5 -16.5t-8.5 -14.5q-56 -59 -99.5 -107t-83 -93.5t-79.5 -92.5t-90 -103q-76 -86 -134 -161t-97 -137t-59 -108t-20 -73q0 -37 33 -37q39 0 109 43t175 133q5 5 8 6t5 1q9 0 18.5 -10t9.5 -21
q0 -2 -1.5 -5.5t-6.5 -8.5q-26 -23 -65 -56t-85 -64.5t-96.5 -53.5t-99.5 -22q-32 0 -57 17.5t-25 63.5q0 22 7.5 52t24.5 68t45.5 85.5t70.5 104.5q-96 -92 -183 -166.5t-160 -127t-130 -81t-93 -28.5q-31 0 -46 19.5t-15 44.5q0 42 34.5 99.5t92.5 124.5zM1304 1173
q0 -12 -6.5 -25t-17 -24.5t-22.5 -18.5t-24 -7q-11 0 -18 7.5t-7 20.5t6 26t16 24t22.5 18t24.5 7q26 0 26 -28zM1177 1173q0 -12 -6.5 -25t-17 -24.5t-22.5 -18.5t-24 -7q-11 0 -18 7.5t-7 20.5t6 26t16 24t22.5 18t24.5 7q26 0 26 -28z" />
    <glyph glyph-name="Yacute" unicode="&#xdd;" horiz-adv-x="797" 
d="M31 0zM1120 776q48 51 92 104.5t90 104.5q8 8 14 8q11 0 20 -16.5t9 -36.5q0 -8 -1.5 -16t-7.5 -15q-128 -144 -225 -260.5t-175.5 -213t-143 -178t-126.5 -156.5l46 15q3 2 8 3.5t7 1.5q6 0 8.5 -5t2.5 -13q0 -11 -5 -21.5t-14 -14.5l-115 -39q-35 -41 -72 -82t-79 -84
q-100 -103 -192 -160t-157 -57q-29 0 -51 16t-22 51q0 42 34 84.5t98.5 85.5t158.5 86t214 87q61 72 128 155t141 174q-89 -81 -168 -145.5t-145 -109t-118.5 -68t-88.5 -23.5q-23 0 -43 13t-20 44q0 34 26.5 82t70 105.5t99 122t113.5 130t113.5 130.5t99 124t70 109
t26.5 87q0 19 -9 30.5t-31 11.5q-48 0 -111.5 -22.5t-133 -65.5t-139 -106t-128.5 -143q5 -5 8.5 -9.5t3.5 -13.5q0 -7 -11.5 -24.5t-29.5 -36t-38.5 -33t-38.5 -14.5q-11 0 -20 7.5t-9 31.5q0 34 31 85t83 108t121 113.5t145.5 101.5t155 73.5t150.5 28.5q57 0 79.5 -22.5
t22.5 -52.5q0 -47 -26 -105.5t-69 -123t-97.5 -132.5t-111 -134t-111 -127t-97.5 -111.5t-69 -88t-26 -56.5q0 -8 4 -12.5t17 -4.5q22 0 65.5 23t102 65t129.5 100.5t148.5 129.5t159 152t160.5 168zM142 -280q24 0 53.5 15t62.5 40.5t69.5 60.5t76.5 75q15 15 30 32t31 34
q-64 -25 -126.5 -54t-112 -59t-80 -60.5t-30.5 -59.5q0 -14 9 -19t17 -5zM1125 1100q0 8 2.5 14t9.5 9q39 17 73.5 35.5t66.5 38.5q1 0 2 0.5t2 0.5q7 0 11 -11t4 -24q0 -11 -3 -20t-12 -14q-26 -14 -50.5 -22t-50.5 -16q-11 -3 -24.5 -7t-18.5 -4t-8.5 6t-3.5 14z" />
    <glyph glyph-name="Thorn" unicode="&#xde;" horiz-adv-x="1094" 
d="M914 663q38 9 74.5 14t71.5 5q50 0 91 -12t70 -34.5t44.5 -54t15.5 -70.5q0 -57 -29.5 -110.5t-78 -102t-111 -91.5t-129 -79.5t-132.5 -65t-120 -49t-92 -31t-50 -10.5t-27 12t-15 28q0 13 7.5 21t15.5 10q58 16 131 41t149.5 57.5t149.5 72t130 84.5t92 95t35 104
t-46 86t-122 32q-46 0 -95 -10t-101 -27q-16 -20 -33 -39.5t-36 -39.5q-85 -95 -175.5 -195t-181.5 -195t-178.5 -179.5t-165.5 -147.5t-144 -100t-113 -37q-35 0 -55.5 13.5t-20.5 50.5q0 25 24 69t68 100.5t104.5 122t133.5 134.5t156 137.5t171.5 131t179.5 116t180 91.5
q47 53 89.5 103t81.5 94.5t76.5 84t75.5 71.5q88 75 170 108.5t139 33.5q9 0 23.5 -2t28.5 -8t24 -16t10 -26q0 -10 -5 -20.5t-12.5 -19.5t-16.5 -15t-16 -6q-13 0 -16 17q-4 26 -41 26q-21 0 -49.5 -9t-60.5 -26t-65.5 -40.5t-64.5 -51.5q-50 -46 -101.5 -108.5
t-112.5 -137.5zM-168 -271q0 -18 20 -18q27 0 75 33t110.5 90t136.5 133.5t154.5 163.5t163.5 180t163 183q-101 -54 -201 -124t-191.5 -146t-170 -153t-136.5 -144t-91 -119t-33 -79z" />
    <glyph glyph-name="germandbls" unicode="&#xdf;" horiz-adv-x="373" 
d="M295 289q44 16 95 51.5t104.5 84t106 105.5t99 115.5t84 115.5t61.5 104q3 8 8 18t5 18q0 6 -3 6q-2 0 -5 -2t-7 -4q-20 -15 -52.5 -47t-75 -76.5t-91.5 -98.5t-101.5 -111.5t-106.5 -116t-105.5 -112t-98 -99t-84.5 -78.5q-5 -5 -8 -6t-5 -1q-9 0 -18.5 10t-9.5 21
q0 4 1.5 6.5t6.5 7.5q35 30 83 78.5t103 107t115 124t120 130t117 125.5t107 110.5t89.5 84.5t64.5 47q10 6 24 6q13 0 22 -8.5t9 -26.5q0 -22 -10.5 -54t-24.5 -58q-26 -54 -67.5 -116t-92.5 -125.5t-108.5 -124.5t-116 -113t-116 -91.5t-108.5 -58.5q7 -13 11 -29.5
t4 -36.5q0 -51 -32 -98q60 29 104 64.5t76 62.5q5 5 8 6t5 1q9 0 18.5 -10t9.5 -21q0 -2 -1.5 -5.5t-6.5 -8.5q-29 -25 -72 -56.5t-91.5 -59.5t-98.5 -47.5t-92 -19.5q-38 0 -55 20t-17 41q0 5 4.5 11.5t10.5 12.5t13 10t12 4q6 0 7 -5q4 -10 11 -16.5t18 -6.5q14 0 30 7.5
t31 22t27 35.5t17 47q1 6 1 10.5v9.5q0 14 -2.5 21.5t-6 12.5t-6 9t-2.5 12q0 9 6 17.5t14 15t17.5 11.5t17.5 8z" />
    <glyph glyph-name="agrave" unicode="&#xe0;" horiz-adv-x="494" 
d="M17 0zM274 80q-21 -18 -44 -35t-47 -30.5t-48.5 -21.5t-48.5 -8q-35 0 -52 21t-17 57q0 45 28.5 88.5t72.5 77t95.5 54t98.5 20.5q35 0 55.5 -17t27.5 -40q5 5 14 13.5t19 17.5q17 14 22 18.5t9 4.5q11 0 20 -13t9 -33q0 -9 -11 -20t-28.5 -26t-38.5 -32
q-13 -11 -26.5 -23t-24.5 -25.5t-18 -27.5t-7 -28t6.5 -18.5t17.5 -4.5q15 0 37 10t46 25t48 33.5t44.5 35.5t35.5 29.5t20 17.5t8 6t5 1q9 0 18.5 -10t9.5 -21q0 -2 -1.5 -5.5t-6.5 -8.5q-5 -4 -21 -19t-39 -34.5t-51.5 -41.5t-59 -40t-60 -30t-54.5 -12q-35 0 -53.5 15
t-18.5 38q0 21 9 42zM167 193q-39 -32 -55 -56.5t-16 -43.5q0 -16 8 -25.5t25 -9.5q18 0 44 13t55.5 34.5t60.5 48t61 53.5q-3 18 -17 28t-35 10q-17 0 -35 -5t-36 -13t-33.5 -17t-26.5 -17zM412 494q4 -18 7 -31t5.5 -24t5.5 -21.5t8 -22.5q3 -7 6.5 -16.5t3.5 -11.5
q0 -11 -9 -18.5t-17 -7.5q-7 0 -10 5q-6 11 -14.5 27.5t-16 33.5t-12.5 31.5t-5 22.5q0 16 14.5 27.5t24.5 11.5q8 0 9 -6z" />
    <glyph glyph-name="aacute" unicode="&#xe1;" horiz-adv-x="494" 
d="M17 0zM274 80q-21 -18 -44 -35t-47 -30.5t-48.5 -21.5t-48.5 -8q-35 0 -52 21t-17 57q0 45 28.5 88.5t72.5 77t95.5 54t98.5 20.5q35 0 55.5 -17t27.5 -40q5 5 14 13.5t19 17.5q17 14 22 18.5t9 4.5q11 0 20 -13t9 -33q0 -9 -11 -20t-28.5 -26t-38.5 -32
q-13 -11 -26.5 -23t-24.5 -25.5t-18 -27.5t-7 -28t6.5 -18.5t17.5 -4.5q15 0 37 10t46 25t48 33.5t44.5 35.5t35.5 29.5t20 17.5t8 6t5 1q9 0 18.5 -10t9.5 -21q0 -2 -1.5 -5.5t-6.5 -8.5q-5 -4 -21 -19t-39 -34.5t-51.5 -41.5t-59 -40t-60 -30t-54.5 -12q-35 0 -53.5 15
t-18.5 38q0 21 9 42zM167 193q-39 -32 -55 -56.5t-16 -43.5q0 -16 8 -25.5t25 -9.5q18 0 44 13t55.5 34.5t60.5 48t61 53.5q-3 18 -17 28t-35 10q-17 0 -35 -5t-36 -13t-33.5 -17t-26.5 -17zM362 373q0 8 2.5 14t9.5 9q39 17 73.5 35.5t66.5 38.5q1 0 2 0.5t2 0.5
q7 0 11 -11t4 -24q0 -11 -3 -20t-12 -14q-26 -14 -50.5 -22t-50.5 -16q-11 -3 -24.5 -7t-18.5 -4t-8.5 6t-3.5 14z" />
    <glyph glyph-name="acircumflex" unicode="&#xe2;" horiz-adv-x="494" 
d="M17 0zM274 80q-21 -18 -44 -35t-47 -30.5t-48.5 -21.5t-48.5 -8q-35 0 -52 21t-17 57q0 45 28.5 88.5t72.5 77t95.5 54t98.5 20.5q35 0 55.5 -17t27.5 -40q5 5 14 13.5t19 17.5q17 14 22 18.5t9 4.5q11 0 20 -13t9 -33q0 -9 -11 -20t-28.5 -26t-38.5 -32
q-13 -11 -26.5 -23t-24.5 -25.5t-18 -27.5t-7 -28t6.5 -18.5t17.5 -4.5q15 0 37 10t46 25t48 33.5t44.5 35.5t35.5 29.5t20 17.5t8 6t5 1q9 0 18.5 -10t9.5 -21q0 -2 -1.5 -5.5t-6.5 -8.5q-5 -4 -21 -19t-39 -34.5t-51.5 -41.5t-59 -40t-60 -30t-54.5 -12q-35 0 -53.5 15
t-18.5 38q0 21 9 42zM167 193q-39 -32 -55 -56.5t-16 -43.5q0 -16 8 -25.5t25 -9.5q18 0 44 13t55.5 34.5t60.5 48t61 53.5q-3 18 -17 28t-35 10q-17 0 -35 -5t-36 -13t-33.5 -17t-26.5 -17zM467 343q-10 0 -13 7q-5 12 -9 28l-8 32q-27 -16 -48.5 -27t-38.5 -20
q-9 -5 -15.5 -8t-8.5 -3q-7 0 -10.5 7.5t-3.5 15.5q0 16 9 21q34 21 62.5 43.5t49.5 39.5q8 6 14.5 9t17.5 3q9 0 16 -3.5t7 -14.5v-26q0 -37 3 -56.5t3 -24.5q0 -11 -9 -17t-18 -6z" />
    <glyph glyph-name="atilde" unicode="&#xe3;" horiz-adv-x="494" 
d="M17 0zM274 80q-21 -18 -44 -35t-47 -30.5t-48.5 -21.5t-48.5 -8q-35 0 -52 21t-17 57q0 45 28.5 88.5t72.5 77t95.5 54t98.5 20.5q35 0 55.5 -17t27.5 -40q5 5 14 13.5t19 17.5q17 14 22 18.5t9 4.5q11 0 20 -13t9 -33q0 -9 -11 -20t-28.5 -26t-38.5 -32
q-13 -11 -26.5 -23t-24.5 -25.5t-18 -27.5t-7 -28t6.5 -18.5t17.5 -4.5q15 0 37 10t46 25t48 33.5t44.5 35.5t35.5 29.5t20 17.5t8 6t5 1q9 0 18.5 -10t9.5 -21q0 -2 -1.5 -5.5t-6.5 -8.5q-5 -4 -21 -19t-39 -34.5t-51.5 -41.5t-59 -40t-60 -30t-54.5 -12q-35 0 -53.5 15
t-18.5 38q0 21 9 42zM167 193q-39 -32 -55 -56.5t-16 -43.5q0 -16 8 -25.5t25 -9.5q18 0 44 13t55.5 34.5t60.5 48t61 53.5q-3 18 -17 28t-35 10q-17 0 -35 -5t-36 -13t-33.5 -17t-26.5 -17zM302 378q0 6 2 11t4 9q6 7 16.5 17t23 18.5t26.5 14.5t26 6q17 0 30.5 -6.5
t25 -14.5t21 -14.5t19.5 -6.5q14 0 28 8.5t29 20.5q2 1 3.5 2t3.5 1q6 0 10 -8.5t4 -19.5q0 -5 -1 -10t-3 -8q-6 -8 -16.5 -17.5t-23.5 -18.5t-26.5 -15t-25.5 -6q-17 0 -31 6.5t-25 15t-21 15t-20 6.5q-14 0 -27.5 -9t-28.5 -20q-5 -3 -8 -3q-7 0 -11 8.5t-4 17.5z" />
    <glyph glyph-name="adieresis" unicode="&#xe4;" horiz-adv-x="494" 
d="M17 0zM274 80q-21 -18 -44 -35t-47 -30.5t-48.5 -21.5t-48.5 -8q-35 0 -52 21t-17 57q0 45 28.5 88.5t72.5 77t95.5 54t98.5 20.5q35 0 55.5 -17t27.5 -40q5 5 14 13.5t19 17.5q17 14 22 18.5t9 4.5q11 0 20 -13t9 -33q0 -9 -11 -20t-28.5 -26t-38.5 -32
q-13 -11 -26.5 -23t-24.5 -25.5t-18 -27.5t-7 -28t6.5 -18.5t17.5 -4.5q15 0 37 10t46 25t48 33.5t44.5 35.5t35.5 29.5t20 17.5t8 6t5 1q9 0 18.5 -10t9.5 -21q0 -2 -1.5 -5.5t-6.5 -8.5q-5 -4 -21 -19t-39 -34.5t-51.5 -41.5t-59 -40t-60 -30t-54.5 -12q-35 0 -53.5 15
t-18.5 38q0 21 9 42zM167 193q-39 -32 -55 -56.5t-16 -43.5q0 -16 8 -25.5t25 -9.5q18 0 44 13t55.5 34.5t60.5 48t61 53.5q-3 18 -17 28t-35 10q-17 0 -35 -5t-36 -13t-33.5 -17t-26.5 -17zM537 445q0 -12 -6.5 -25t-17 -24.5t-22.5 -18.5t-24 -7q-11 0 -18 7.5t-7 20.5
t6 26t16 24t22.5 18t24.5 7q26 0 26 -28zM410 445q0 -12 -6.5 -25t-17 -24.5t-22.5 -18.5t-24 -7q-11 0 -18 7.5t-7 20.5t6 26t16 24t22.5 18t24.5 7q26 0 26 -28z" />
    <glyph glyph-name="aring" unicode="&#xe5;" horiz-adv-x="494" 
d="M17 0zM274 80q-21 -18 -44 -35t-47 -30.5t-48.5 -21.5t-48.5 -8q-35 0 -52 21t-17 57q0 45 28.5 88.5t72.5 77t95.5 54t98.5 20.5q35 0 55.5 -17t27.5 -40q5 5 14 13.5t19 17.5q17 14 22 18.5t9 4.5q11 0 20 -13t9 -33q0 -9 -11 -20t-28.5 -26t-38.5 -32
q-13 -11 -26.5 -23t-24.5 -25.5t-18 -27.5t-7 -28t6.5 -18.5t17.5 -4.5q15 0 37 10t46 25t48 33.5t44.5 35.5t35.5 29.5t20 17.5t8 6t5 1q9 0 18.5 -10t9.5 -21q0 -2 -1.5 -5.5t-6.5 -8.5q-5 -4 -21 -19t-39 -34.5t-51.5 -41.5t-59 -40t-60 -30t-54.5 -12q-35 0 -53.5 15
t-18.5 38q0 21 9 42zM167 193q-39 -32 -55 -56.5t-16 -43.5q0 -16 8 -25.5t25 -9.5q18 0 44 13t55.5 34.5t60.5 48t61 53.5q-3 18 -17 28t-35 10q-17 0 -35 -5t-36 -13t-33.5 -17t-26.5 -17zM423 412q0 -25 20 -25q8 0 17 6.5t17 16.5t13 22t5 24q0 13 -5 18.5t-13 5.5
q-11 0 -20.5 -6.5t-17 -16.5t-12 -22t-4.5 -23zM547 477q0 -23 -12.5 -47.5t-31.5 -45t-42 -33.5t-44 -13q-19 0 -32.5 13.5t-13.5 38.5q0 23 11.5 47t29.5 44t41 32.5t47 12.5q20 0 33.5 -12t13.5 -37z" />
    <glyph glyph-name="ae" unicode="&#xe6;" horiz-adv-x="612" 
d="M740 162q-5 -4 -23 -19t-45.5 -35t-63 -41.5t-74.5 -39.5t-80.5 -30t-81.5 -12q-20 0 -37 6.5t-29 18t-19 26t-7 30.5q0 5 1 10t1 10q-22 -18 -46 -36.5t-49 -32.5t-50.5 -23t-50.5 -9q-35 0 -52 21t-17 57q0 45 28.5 88.5t72.5 77t95.5 54t98.5 20.5q32 0 52.5 -14
t27.5 -37q13 15 24 29t19 27q5 7 10.5 8.5t8.5 1.5q8 0 16.5 -7.5t13.5 -18.5q20 7 39 11.5t36 4.5q23 0 37.5 -12.5t14.5 -38.5q0 -31 -20 -59t-54 -49.5t-78 -34t-93 -13.5q-2 -5 -2 -12q0 -23 10.5 -32.5t31.5 -9.5q45 0 94.5 21.5t93 48.5t74.5 51.5t39 31.5q5 5 8 6
t5 1q9 0 18.5 -10t9.5 -21q0 -2 -1.5 -5.5t-6.5 -8.5zM167 193q-39 -32 -55 -56.5t-16 -43.5q0 -16 8.5 -25.5t25.5 -9.5q19 0 45.5 12.5t55.5 33t60 47.5t59 56q-3 20 -17 29t-35 9q-17 0 -35 -5t-36 -13t-33.5 -17t-26.5 -17zM552 234q0 7 -3.5 12.5t-14.5 5.5
q-12 0 -30 -8t-38.5 -22.5t-41.5 -34t-38 -42.5q26 0 55.5 9.5t54 23t40.5 29t16 27.5z" />
    <glyph glyph-name="ccedilla" unicode="&#xe7;" horiz-adv-x="324" 
d="M26 -69q0 6 3 9q15 17 22.5 27.5t14.5 23.5q-22 11 -33.5 34t-11.5 55q0 40 27.5 82t68.5 76t90 55.5t91 21.5q27 0 40.5 -16t13.5 -42q0 -12 -5.5 -24.5t-14.5 -22t-20.5 -16t-23.5 -6.5q-13 0 -16.5 10t-4.5 21.5t-3 21.5t-12 10q-15 0 -40.5 -15.5t-50.5 -39
t-43.5 -52t-18.5 -54.5q0 -23 15 -33t30 -10q35 0 78.5 20.5t83.5 47t71 51.5t42 34q5 5 8 6t5 1q9 0 18.5 -10t9.5 -21q0 -2 -1.5 -5.5t-6.5 -8.5q-5 -4 -22.5 -19.5t-43 -36t-58 -43t-68.5 -41t-73.5 -31t-73.5 -12.5l-10 -16t-10 -13q5 1 8 1h5q16 0 28.5 -10.5
t12.5 -30.5q0 -28 -24.5 -56.5t-58.5 -52t-70 -38.5t-58 -15q-10 0 -17.5 12.5t-7.5 23.5t8 11q34 4 65 16.5t55 28.5t38.5 32.5t14.5 28.5q0 5 -5 8.5t-12 3.5q-14 0 -26 -8q-2 -1 -5 -1q-5 0 -11.5 9t-6.5 18z" />
    <glyph glyph-name="egrave" unicode="&#xe8;" horiz-adv-x="350" 
d="M18 0zM478 162q-5 -4 -23 -19t-45.5 -35t-63 -41.5t-74.5 -39.5t-80.5 -30t-81.5 -12q-20 0 -37 6.5t-29 18t-19 26t-7 30.5q0 43 28 86.5t70 78t91 56t90 21.5q23 0 37.5 -12.5t14.5 -38.5q0 -31 -21 -59t-55 -49.5t-78.5 -34t-90.5 -13.5q-1 -5 -1 -12q0 -23 10 -32.5
t31 -9.5q45 0 95 21.5t93 48.5t74 51.5t39 31.5q5 5 8 6t5 1q9 0 18.5 -10t9.5 -21q0 -2 -1.5 -5.5t-6.5 -8.5zM291 234q0 7 -4 12.5t-15 5.5q-12 0 -31.5 -9t-41 -24t-41.5 -34t-34 -40q26 0 55.5 9.5t54 23t41 29t16.5 27.5zM355 494q4 -18 7 -31t5.5 -24t5.5 -21.5
t8 -22.5q3 -7 6.5 -16.5t3.5 -11.5q0 -11 -9 -18.5t-17 -7.5q-7 0 -10 5q-6 11 -14.5 27.5t-16 33.5t-12.5 31.5t-5 22.5q0 16 14.5 27.5t24.5 11.5q8 0 9 -6z" />
    <glyph glyph-name="eacute" unicode="&#xe9;" horiz-adv-x="350" 
d="M18 0zM478 162q-5 -4 -23 -19t-45.5 -35t-63 -41.5t-74.5 -39.5t-80.5 -30t-81.5 -12q-20 0 -37 6.5t-29 18t-19 26t-7 30.5q0 43 28 86.5t70 78t91 56t90 21.5q23 0 37.5 -12.5t14.5 -38.5q0 -31 -21 -59t-55 -49.5t-78.5 -34t-90.5 -13.5q-1 -5 -1 -12q0 -23 10 -32.5
t31 -9.5q45 0 95 21.5t93 48.5t74 51.5t39 31.5q5 5 8 6t5 1q9 0 18.5 -10t9.5 -21q0 -2 -1.5 -5.5t-6.5 -8.5zM291 234q0 7 -4 12.5t-15 5.5q-12 0 -31.5 -9t-41 -24t-41.5 -34t-34 -40q26 0 55.5 9.5t54 23t41 29t16.5 27.5zM286 373q0 8 2.5 14t9.5 9q39 17 73.5 35.5
t66.5 38.5q1 0 2 0.5t2 0.5q7 0 11 -11t4 -24q0 -11 -3 -20t-12 -14q-26 -14 -50.5 -22t-50.5 -16q-11 -3 -24.5 -7t-18.5 -4t-8.5 6t-3.5 14z" />
    <glyph glyph-name="ecircumflex" unicode="&#xea;" horiz-adv-x="350" 
d="M18 0zM478 162q-5 -4 -23 -19t-45.5 -35t-63 -41.5t-74.5 -39.5t-80.5 -30t-81.5 -12q-20 0 -37 6.5t-29 18t-19 26t-7 30.5q0 43 28 86.5t70 78t91 56t90 21.5q23 0 37.5 -12.5t14.5 -38.5q0 -31 -21 -59t-55 -49.5t-78.5 -34t-90.5 -13.5q-1 -5 -1 -12q0 -23 10 -32.5
t31 -9.5q45 0 95 21.5t93 48.5t74 51.5t39 31.5q5 5 8 6t5 1q9 0 18.5 -10t9.5 -21q0 -2 -1.5 -5.5t-6.5 -8.5zM291 234q0 7 -4 12.5t-15 5.5q-12 0 -31.5 -9t-41 -24t-41.5 -34t-34 -40q26 0 55.5 9.5t54 23t41 29t16.5 27.5zM410 343q-10 0 -13 7q-5 12 -9 28l-8 32
q-27 -16 -48.5 -27t-38.5 -20q-9 -5 -15.5 -8t-8.5 -3q-7 0 -10.5 7.5t-3.5 15.5q0 16 9 21q34 21 62.5 43.5t49.5 39.5q8 6 14.5 9t17.5 3q9 0 16 -3.5t7 -14.5v-26q0 -37 3 -56.5t3 -24.5q0 -11 -9 -17t-18 -6z" />
    <glyph glyph-name="edieresis" unicode="&#xeb;" horiz-adv-x="350" 
d="M18 0zM478 162q-5 -4 -23 -19t-45.5 -35t-63 -41.5t-74.5 -39.5t-80.5 -30t-81.5 -12q-20 0 -37 6.5t-29 18t-19 26t-7 30.5q0 43 28 86.5t70 78t91 56t90 21.5q23 0 37.5 -12.5t14.5 -38.5q0 -31 -21 -59t-55 -49.5t-78.5 -34t-90.5 -13.5q-1 -5 -1 -12q0 -23 10 -32.5
t31 -9.5q45 0 95 21.5t93 48.5t74 51.5t39 31.5q5 5 8 6t5 1q9 0 18.5 -10t9.5 -21q0 -2 -1.5 -5.5t-6.5 -8.5zM291 234q0 7 -4 12.5t-15 5.5q-12 0 -31.5 -9t-41 -24t-41.5 -34t-34 -40q26 0 55.5 9.5t54 23t41 29t16.5 27.5zM481 445q0 -12 -6.5 -25t-17 -24.5
t-22.5 -18.5t-24 -7q-11 0 -18 7.5t-7 20.5t6 26t16 24t22.5 18t24.5 7q26 0 26 -28zM354 445q0 -12 -6.5 -25t-17 -24.5t-22.5 -18.5t-24 -7q-11 0 -18 7.5t-7 20.5t6 26t16 24t22.5 18t24.5 7q26 0 26 -28z" />
    <glyph glyph-name="igrave" unicode="&#xec;" horiz-adv-x="256" 
d="M20 0zM384 162q-5 -4 -21.5 -19t-40 -35t-52 -41.5t-58.5 -39.5t-58.5 -30t-52.5 -12q-39 0 -60 22t-21 56q0 27 17.5 59t45 65t62 65t68.5 60q6 5 10 5q5 0 11 -4t11 -9.5t8.5 -12t3.5 -12.5q0 -5 -5 -10q-27 -27 -54.5 -54t-49 -51.5t-35.5 -46.5t-14 -39q0 -26 26 -26
q17 0 38.5 9.5t45 24.5t46.5 33t42.5 34.5t34 29t19.5 17.5t8 6t5 1q9 0 18.5 -10t9.5 -21q0 -2 -1.5 -5.5t-6.5 -8.5zM309 494q4 -18 7 -31t5.5 -24t5.5 -21.5t8 -22.5q3 -7 6.5 -16.5t3.5 -11.5q0 -11 -9 -18.5t-17 -7.5q-7 0 -10 5q-6 11 -14.5 27.5t-16 33.5t-12.5 31.5
t-5 22.5q0 16 14.5 27.5t24.5 11.5q8 0 9 -6z" />
    <glyph glyph-name="iacute" unicode="&#xed;" horiz-adv-x="256" 
d="M20 0zM384 162q-5 -4 -21.5 -19t-40 -35t-52 -41.5t-58.5 -39.5t-58.5 -30t-52.5 -12q-39 0 -60 22t-21 56q0 27 17.5 59t45 65t62 65t68.5 60q6 5 10 5q5 0 11 -4t11 -9.5t8.5 -12t3.5 -12.5q0 -5 -5 -10q-27 -27 -54.5 -54t-49 -51.5t-35.5 -46.5t-14 -39q0 -26 26 -26
q17 0 38.5 9.5t45 24.5t46.5 33t42.5 34.5t34 29t19.5 17.5t8 6t5 1q9 0 18.5 -10t9.5 -21q0 -2 -1.5 -5.5t-6.5 -8.5zM280 373q0 8 2.5 14t9.5 9q39 17 73.5 35.5t66.5 38.5q1 0 2 0.5t2 0.5q7 0 11 -11t4 -24q0 -11 -3 -20t-12 -14q-26 -14 -50.5 -22t-50.5 -16
q-11 -3 -24.5 -7t-18.5 -4t-8.5 6t-3.5 14z" />
    <glyph glyph-name="icircumflex" unicode="&#xee;" horiz-adv-x="256" 
d="M20 0zM384 162q-5 -4 -21.5 -19t-40 -35t-52 -41.5t-58.5 -39.5t-58.5 -30t-52.5 -12q-39 0 -60 22t-21 56q0 27 17.5 59t45 65t62 65t68.5 60q6 5 10 5q5 0 11 -4t11 -9.5t8.5 -12t3.5 -12.5q0 -5 -5 -10q-27 -27 -54.5 -54t-49 -51.5t-35.5 -46.5t-14 -39q0 -26 26 -26
q17 0 38.5 9.5t45 24.5t46.5 33t42.5 34.5t34 29t19.5 17.5t8 6t5 1q9 0 18.5 -10t9.5 -21q0 -2 -1.5 -5.5t-6.5 -8.5zM369 343q-10 0 -13 7q-5 12 -9 28l-8 32q-27 -16 -48.5 -27t-38.5 -20q-9 -5 -15.5 -8t-8.5 -3q-7 0 -10.5 7.5t-3.5 15.5q0 16 9 21q34 21 62.5 43.5
t49.5 39.5q8 6 14.5 9t17.5 3q9 0 16 -3.5t7 -14.5v-26q0 -37 3 -56.5t3 -24.5q0 -11 -9 -17t-18 -6z" />
    <glyph glyph-name="idieresis" unicode="&#xef;" horiz-adv-x="256" 
d="M20 0zM384 162q-5 -4 -21.5 -19t-40 -35t-52 -41.5t-58.5 -39.5t-58.5 -30t-52.5 -12q-39 0 -60 22t-21 56q0 27 17.5 59t45 65t62 65t68.5 60q6 5 10 5q5 0 11 -4t11 -9.5t8.5 -12t3.5 -12.5q0 -5 -5 -10q-27 -27 -54.5 -54t-49 -51.5t-35.5 -46.5t-14 -39q0 -26 26 -26
q17 0 38.5 9.5t45 24.5t46.5 33t42.5 34.5t34 29t19.5 17.5t8 6t5 1q9 0 18.5 -10t9.5 -21q0 -2 -1.5 -5.5t-6.5 -8.5zM458 445q0 -12 -6.5 -25t-17 -24.5t-22.5 -18.5t-24 -7q-11 0 -18 7.5t-7 20.5t6 26t16 24t22.5 18t24.5 7q26 0 26 -28zM331 445q0 -12 -6.5 -25
t-17 -24.5t-22.5 -18.5t-24 -7q-11 0 -18 7.5t-7 20.5t6 26t16 24t22.5 18t24.5 7q26 0 26 -28z" />
    <glyph glyph-name="eth" unicode="&#xf0;" horiz-adv-x="439" 
d="M950 845q0 -12 -6.5 -23.5t-20.5 -13.5q-26 -5 -52.5 -9.5t-51.5 -10.5q-68 -191 -195.5 -375t-323.5 -353q-13 -11 -32 -25t-42.5 -26.5t-49 -21t-51.5 -8.5q-44 0 -68.5 28t-24.5 73q0 40 29 82.5t72 77t93 56.5t92 22q25 0 41.5 -7t25.5 -18.5t12.5 -25t3.5 -25.5
q0 -5 -1 -9l-2 -8q109 113 199 250t153 299l-94 -18q-14 -3 -21 -3q-8 0 -8 8q0 7 4.5 16.5t12 19t15.5 16.5t16 9q20 5 45.5 10.5t55.5 10.5q26 83 46 176q1 17 15 17q11 0 24 -13.5t13 -33.5q0 -4 -1 -6.5t-1 -4.5q-7 -32 -15 -63t-17 -61q23 3 43.5 6t33.5 5q5 0 7.5 0.5
t4.5 0.5h4q10 0 13.5 -6.5t3.5 -14.5zM346 173q-11 1 -15 8t-4 18q0 5 1 9t1 9q0 14 -6 24.5t-28 10.5q-28 0 -60.5 -15t-60 -39t-46 -52.5t-18.5 -55.5q0 -23 15 -33t30 -10q16 0 34.5 7.5t37 19t36.5 25.5t32 26z" />
    <glyph glyph-name="ntilde" unicode="&#xf1;" 
d="M18 0zM262 277q0 -6 -2.5 -10.5t-7.5 -12.5q-9 -13 -25.5 -32.5t-38.5 -47.5q40 28 80 51t74.5 40t61 26.5t40.5 9.5q11 0 20 -15t9 -26q0 -7 -9.5 -16.5t-22.5 -20t-27.5 -20.5t-24.5 -19q-15 -12 -30 -26.5t-27 -29t-19.5 -28t-7.5 -25.5q0 -9 5 -16t14 -7
q24 0 48 10.5t51.5 30t59.5 46.5t71 61q5 5 8 6t5 1q9 0 18.5 -10t9.5 -21q0 -2 -1.5 -5.5t-6.5 -8.5q-29 -25 -65 -55t-74.5 -56.5t-77 -44.5t-72.5 -18q-31 0 -51.5 18.5t-20.5 48.5q0 35 22 67.5t57 64.5q-38 -21 -67.5 -40.5t-55.5 -40t-50 -43.5t-49 -51q-8 -9 -15 -15
t-13 -6q-5 0 -11 3t-12 7t-10 8.5t-4 8.5q0 8 5 15.5t9 12.5l73 112q-6 4 -12 11.5t-6 16.5q0 4 1.5 6.5t6.5 7.5q16 14 45.5 44t62.5 70q9 10 22 10q6 0 13 -5t12 -12t8.5 -15t3.5 -15zM280 378q0 6 2 11t4 9q6 7 16.5 17t23 18.5t26.5 14.5t26 6q17 0 30.5 -6.5t25 -14.5
t21 -14.5t19.5 -6.5q14 0 28 8.5t29 20.5q2 1 3.5 2t3.5 1q6 0 10 -8.5t4 -19.5q0 -5 -1 -10t-3 -8q-6 -8 -16.5 -17.5t-23.5 -18.5t-26.5 -15t-25.5 -6q-17 0 -31 6.5t-25 15t-21 15t-20 6.5q-14 0 -27.5 -9t-28.5 -20q-5 -3 -8 -3q-7 0 -11 8.5t-4 17.5z" />
    <glyph glyph-name="ograve" unicode="&#xf2;" horiz-adv-x="399" 
d="M28 0zM337 96q-22 -25 -48.5 -46.5t-55 -37t-58 -24.5t-57.5 -9q-90 0 -90 94q0 42 29 85.5t72.5 79t94 58t94.5 22.5q46 0 64.5 -22t18.5 -54q0 -20 -5.5 -39.5t-16.5 -40.5q9 -4 23 -4q26 0 48.5 12t43.5 30q5 5 8 6t5 1q9 0 18.5 -10t9.5 -21q0 -2 -1.5 -5.5
t-6.5 -8.5q-16 -14 -32.5 -27t-34.5 -24t-37 -17.5t-40 -6.5q-28 0 -46 9zM298 129q-10 19 -10 47q0 26 11.5 44.5t29.5 24.5q-14 7 -31 7q-25 0 -57.5 -13t-67.5 -39q-15 -11 -29 -25t-24 -28.5t-16 -29t-6 -27.5q0 -20 13 -31.5t33 -11.5t48 11t64 35q12 10 23 19t19 17z
M410 494q4 -18 7 -31t5.5 -24t5.5 -21.5t8 -22.5q3 -7 6.5 -16.5t3.5 -11.5q0 -11 -9 -18.5t-17 -7.5q-7 0 -10 5q-6 11 -14.5 27.5t-16 33.5t-12.5 31.5t-5 22.5q0 16 14.5 27.5t24.5 11.5q8 0 9 -6z" />
    <glyph glyph-name="oacute" unicode="&#xf3;" horiz-adv-x="399" 
d="M28 0zM337 96q-22 -25 -48.5 -46.5t-55 -37t-58 -24.5t-57.5 -9q-90 0 -90 94q0 42 29 85.5t72.5 79t94 58t94.5 22.5q46 0 64.5 -22t18.5 -54q0 -20 -5.5 -39.5t-16.5 -40.5q9 -4 23 -4q26 0 48.5 12t43.5 30q5 5 8 6t5 1q9 0 18.5 -10t9.5 -21q0 -2 -1.5 -5.5
t-6.5 -8.5q-16 -14 -32.5 -27t-34.5 -24t-37 -17.5t-40 -6.5q-28 0 -46 9zM298 129q-10 19 -10 47q0 26 11.5 44.5t29.5 24.5q-14 7 -31 7q-25 0 -57.5 -13t-67.5 -39q-15 -11 -29 -25t-24 -28.5t-16 -29t-6 -27.5q0 -20 13 -31.5t33 -11.5t48 11t64 35q12 10 23 19t19 17z
M340 373q0 8 2.5 14t9.5 9q39 17 73.5 35.5t66.5 38.5q1 0 2 0.5t2 0.5q7 0 11 -11t4 -24q0 -11 -3 -20t-12 -14q-26 -14 -50.5 -22t-50.5 -16q-11 -3 -24.5 -7t-18.5 -4t-8.5 6t-3.5 14z" />
    <glyph glyph-name="ocircumflex" unicode="&#xf4;" horiz-adv-x="399" 
d="M28 0zM337 96q-22 -25 -48.5 -46.5t-55 -37t-58 -24.5t-57.5 -9q-90 0 -90 94q0 42 29 85.5t72.5 79t94 58t94.5 22.5q46 0 64.5 -22t18.5 -54q0 -20 -5.5 -39.5t-16.5 -40.5q9 -4 23 -4q26 0 48.5 12t43.5 30q5 5 8 6t5 1q9 0 18.5 -10t9.5 -21q0 -2 -1.5 -5.5
t-6.5 -8.5q-16 -14 -32.5 -27t-34.5 -24t-37 -17.5t-40 -6.5q-28 0 -46 9zM298 129q-10 19 -10 47q0 26 11.5 44.5t29.5 24.5q-14 7 -31 7q-25 0 -57.5 -13t-67.5 -39q-15 -11 -29 -25t-24 -28.5t-16 -29t-6 -27.5q0 -20 13 -31.5t33 -11.5t48 11t64 35q12 10 23 19t19 17z
M445 343q-10 0 -13 7q-5 12 -9 28l-8 32q-27 -16 -48.5 -27t-38.5 -20q-9 -5 -15.5 -8t-8.5 -3q-7 0 -10.5 7.5t-3.5 15.5q0 16 9 21q34 21 62.5 43.5t49.5 39.5q8 6 14.5 9t17.5 3q9 0 16 -3.5t7 -14.5v-26q0 -37 3 -56.5t3 -24.5q0 -11 -9 -17t-18 -6z" />
    <glyph glyph-name="otilde" unicode="&#xf5;" horiz-adv-x="399" 
d="M28 0zM337 96q-22 -25 -48.5 -46.5t-55 -37t-58 -24.5t-57.5 -9q-90 0 -90 94q0 42 29 85.5t72.5 79t94 58t94.5 22.5q46 0 64.5 -22t18.5 -54q0 -20 -5.5 -39.5t-16.5 -40.5q9 -4 23 -4q26 0 48.5 12t43.5 30q5 5 8 6t5 1q9 0 18.5 -10t9.5 -21q0 -2 -1.5 -5.5
t-6.5 -8.5q-16 -14 -32.5 -27t-34.5 -24t-37 -17.5t-40 -6.5q-28 0 -46 9zM298 129q-10 19 -10 47q0 26 11.5 44.5t29.5 24.5q-14 7 -31 7q-25 0 -57.5 -13t-67.5 -39q-15 -11 -29 -25t-24 -28.5t-16 -29t-6 -27.5q0 -20 13 -31.5t33 -11.5t48 11t64 35q12 10 23 19t19 17z
M261 378q0 6 2 11t4 9q6 7 16.5 17t23 18.5t26.5 14.5t26 6q17 0 30.5 -6.5t25 -14.5t21 -14.5t19.5 -6.5q14 0 28 8.5t29 20.5q2 1 3.5 2t3.5 1q6 0 10 -8.5t4 -19.5q0 -5 -1 -10t-3 -8q-6 -8 -16.5 -17.5t-23.5 -18.5t-26.5 -15t-25.5 -6q-17 0 -31 6.5t-25 15t-21 15
t-20 6.5q-14 0 -27.5 -9t-28.5 -20q-5 -3 -8 -3q-7 0 -11 8.5t-4 17.5z" />
    <glyph glyph-name="odieresis" unicode="&#xf6;" horiz-adv-x="399" 
d="M28 0zM337 96q-22 -25 -48.5 -46.5t-55 -37t-58 -24.5t-57.5 -9q-90 0 -90 94q0 42 29 85.5t72.5 79t94 58t94.5 22.5q46 0 64.5 -22t18.5 -54q0 -20 -5.5 -39.5t-16.5 -40.5q9 -4 23 -4q26 0 48.5 12t43.5 30q5 5 8 6t5 1q9 0 18.5 -10t9.5 -21q0 -2 -1.5 -5.5
t-6.5 -8.5q-16 -14 -32.5 -27t-34.5 -24t-37 -17.5t-40 -6.5q-28 0 -46 9zM298 129q-10 19 -10 47q0 26 11.5 44.5t29.5 24.5q-14 7 -31 7q-25 0 -57.5 -13t-67.5 -39q-15 -11 -29 -25t-24 -28.5t-16 -29t-6 -27.5q0 -20 13 -31.5t33 -11.5t48 11t64 35q12 10 23 19t19 17z
M515 445q0 -12 -6.5 -25t-17 -24.5t-22.5 -18.5t-24 -7q-11 0 -18 7.5t-7 20.5t6 26t16 24t22.5 18t24.5 7q26 0 26 -28zM388 445q0 -12 -6.5 -25t-17 -24.5t-22.5 -18.5t-24 -7q-11 0 -18 7.5t-7 20.5t6 26t16 24t22.5 18t24.5 7q26 0 26 -28z" />
    <glyph glyph-name="divide" unicode="&#xf7;" horiz-adv-x="727" 
d="M422 171q0 -18 -10 -38t-25 -36t-33.5 -26.5t-35.5 -10.5q-15 0 -25.5 10.5t-10.5 30.5q0 18 9 37.5t23.5 35.5t32.5 26.5t37 10.5q17 0 27.5 -10t10.5 -30zM702 487q0 -18 -10 -38t-25 -36.5t-33.5 -27t-35.5 -10.5q-15 0 -25.5 10.5t-10.5 30.5q0 18 9 37.5t23.5 35.5
t32.5 26.5t37 10.5q17 0 27.5 -9.5t10.5 -29.5zM233 263q-13 0 -13 9q0 6 6.5 14.5t17.5 16.5t27 14t34 7q12 2 38 2h59q41 0 89 -0.5t94 -1.5t86 -2t65 -2q6 0 9 -3.5t3 -8.5q0 -6 -4 -14t-11 -15t-16 -11.5t-19 -4.5h-465z" />
    <glyph glyph-name="oslash" unicode="&#xf8;" horiz-adv-x="399" 
d="M337 96q-22 -25 -48.5 -46.5t-55 -37t-58 -24.5t-57.5 -9q-11 0 -21 1t-19 5l-110 -98q-10 -8 -15 -8q-13 0 -13 23q0 13 5.5 28.5t16.5 25.5q7 8 27 25.5t46 42.5q-3 11 -5 23t-2 26q0 42 29 85.5t72.5 79t94 58t94.5 22.5q14 0 24.5 -2t20.5 -7q29 26 52.5 44.5
t35.5 27.5q8 5 13 5q8 0 14 -9.5t6 -19.5q0 -13 -10 -23l-76 -68q1 -5 2 -11t1 -13q0 -20 -5.5 -39.5t-16.5 -40.5q9 -4 23 -4q26 0 48.5 12t43.5 30q5 5 8 6t5 1q9 0 18.5 -10t9.5 -21q0 -2 -1.5 -5.5t-6.5 -8.5q-16 -14 -32.5 -27t-34.5 -24t-37 -17.5t-40 -6.5
q-28 0 -46 9zM294 252q-24 -1 -56 -14t-65 -38q-15 -11 -29 -25t-24 -28.5t-16 -29t-6 -27.5v-9zM150 47q20 2 46 12.5t60 33.5q12 10 23 19t19 17q-10 17 -10 41z" />
    <glyph glyph-name="ugrave" unicode="&#xf9;" horiz-adv-x="465" 
d="M23 0zM260 83q-42 -39 -89.5 -68t-89.5 -29q-26 0 -42 16t-16 44q0 59 50 125t135 137l4 2t5 1q11 0 20 -14t9 -28q0 -9 -6 -13q-59 -50 -96 -95.5t-37 -76.5q0 -11 7 -16t16 -5q17 0 49 21.5t69.5 55.5t76.5 74.5t71 79.5q2 2 5 4t8 2q11 0 22 -11.5t11 -26.5
q0 -5 -1 -9.5t-3 -7.5q-22 -29 -42 -53.5t-35 -44.5t-23.5 -37t-8.5 -30q0 -8 5.5 -14t15.5 -6q16 0 42 14.5t55.5 35.5t59 45.5t53.5 44.5q5 5 8 6t5 1q9 0 18.5 -10t9.5 -21q0 -2 -1.5 -5.5t-6.5 -8.5q-34 -29 -72.5 -61t-77 -58t-74 -43t-63.5 -17q-22 0 -38 14.5
t-16 43.5q0 19 8 42zM357 494q4 -18 7 -31t5.5 -24t5.5 -21.5t8 -22.5q3 -7 6.5 -16.5t3.5 -11.5q0 -11 -9 -18.5t-17 -7.5q-7 0 -10 5q-6 11 -14.5 27.5t-16 33.5t-12.5 31.5t-5 22.5q0 16 14.5 27.5t24.5 11.5q8 0 9 -6z" />
    <glyph glyph-name="uacute" unicode="&#xfa;" horiz-adv-x="465" 
d="M23 0zM260 83q-42 -39 -89.5 -68t-89.5 -29q-26 0 -42 16t-16 44q0 59 50 125t135 137l4 2t5 1q11 0 20 -14t9 -28q0 -9 -6 -13q-59 -50 -96 -95.5t-37 -76.5q0 -11 7 -16t16 -5q17 0 49 21.5t69.5 55.5t76.5 74.5t71 79.5q2 2 5 4t8 2q11 0 22 -11.5t11 -26.5
q0 -5 -1 -9.5t-3 -7.5q-22 -29 -42 -53.5t-35 -44.5t-23.5 -37t-8.5 -30q0 -8 5.5 -14t15.5 -6q16 0 42 14.5t55.5 35.5t59 45.5t53.5 44.5q5 5 8 6t5 1q9 0 18.5 -10t9.5 -21q0 -2 -1.5 -5.5t-6.5 -8.5q-34 -29 -72.5 -61t-77 -58t-74 -43t-63.5 -17q-22 0 -38 14.5
t-16 43.5q0 19 8 42zM327 373q0 8 2.5 14t9.5 9q39 17 73.5 35.5t66.5 38.5q1 0 2 0.5t2 0.5q7 0 11 -11t4 -24q0 -11 -3 -20t-12 -14q-26 -14 -50.5 -22t-50.5 -16q-11 -3 -24.5 -7t-18.5 -4t-8.5 6t-3.5 14z" />
    <glyph glyph-name="ucircumflex" unicode="&#xfb;" horiz-adv-x="465" 
d="M23 0zM260 83q-42 -39 -89.5 -68t-89.5 -29q-26 0 -42 16t-16 44q0 59 50 125t135 137l4 2t5 1q11 0 20 -14t9 -28q0 -9 -6 -13q-59 -50 -96 -95.5t-37 -76.5q0 -11 7 -16t16 -5q17 0 49 21.5t69.5 55.5t76.5 74.5t71 79.5q2 2 5 4t8 2q11 0 22 -11.5t11 -26.5
q0 -5 -1 -9.5t-3 -7.5q-22 -29 -42 -53.5t-35 -44.5t-23.5 -37t-8.5 -30q0 -8 5.5 -14t15.5 -6q16 0 42 14.5t55.5 35.5t59 45.5t53.5 44.5q5 5 8 6t5 1q9 0 18.5 -10t9.5 -21q0 -2 -1.5 -5.5t-6.5 -8.5q-34 -29 -72.5 -61t-77 -58t-74 -43t-63.5 -17q-22 0 -38 14.5
t-16 43.5q0 19 8 42zM452 343q-10 0 -13 7q-5 12 -9 28l-8 32q-27 -16 -48.5 -27t-38.5 -20q-9 -5 -15.5 -8t-8.5 -3q-7 0 -10.5 7.5t-3.5 15.5q0 16 9 21q34 21 62.5 43.5t49.5 39.5q8 6 14.5 9t17.5 3q9 0 16 -3.5t7 -14.5v-26q0 -37 3 -56.5t3 -24.5q0 -11 -9 -17t-18 -6
z" />
    <glyph glyph-name="udieresis" unicode="&#xfc;" horiz-adv-x="465" 
d="M23 0zM260 83q-42 -39 -89.5 -68t-89.5 -29q-26 0 -42 16t-16 44q0 59 50 125t135 137l4 2t5 1q11 0 20 -14t9 -28q0 -9 -6 -13q-59 -50 -96 -95.5t-37 -76.5q0 -11 7 -16t16 -5q17 0 49 21.5t69.5 55.5t76.5 74.5t71 79.5q2 2 5 4t8 2q11 0 22 -11.5t11 -26.5
q0 -5 -1 -9.5t-3 -7.5q-22 -29 -42 -53.5t-35 -44.5t-23.5 -37t-8.5 -30q0 -8 5.5 -14t15.5 -6q16 0 42 14.5t55.5 35.5t59 45.5t53.5 44.5q5 5 8 6t5 1q9 0 18.5 -10t9.5 -21q0 -2 -1.5 -5.5t-6.5 -8.5q-34 -29 -72.5 -61t-77 -58t-74 -43t-63.5 -17q-22 0 -38 14.5
t-16 43.5q0 19 8 42zM522 445q0 -12 -6.5 -25t-17 -24.5t-22.5 -18.5t-24 -7q-11 0 -18 7.5t-7 20.5t6 26t16 24t22.5 18t24.5 7q26 0 26 -28zM395 445q0 -12 -6.5 -25t-17 -24.5t-22.5 -18.5t-24 -7q-11 0 -18 7.5t-7 20.5t6 26t16 24t22.5 18t24.5 7q26 0 26 -28z" />
    <glyph glyph-name="yacute" unicode="&#xfd;" horiz-adv-x="488" 
d="M0 0zM268 73q-52 -38 -104.5 -63t-94.5 -25q-24 0 -41 14.5t-17 40.5q0 30 19 66t47.5 71.5t62 67.5t62.5 53q8 5 12 5q13 0 22 -12t9 -25q0 -10 -8 -17q-21 -15 -45.5 -37t-45 -45.5t-34.5 -45.5t-14 -37q0 -20 17 -20q30 0 74 23.5t91 58.5t92 75.5t79 75.5q5 5 10 9.5
t12 4.5q11 0 23 -8.5t12 -19.5q0 -4 -15 -26.5t-41 -57.5t-60 -79t-72 -92q76 40 145.5 85.5t117.5 86.5q5 5 8 6t5 1q9 0 18.5 -10t9.5 -21q0 -2 -1.5 -5.5t-6.5 -8.5q-39 -34 -80 -62.5t-86.5 -55.5t-96.5 -53.5t-111 -56.5q-34 -40 -66 -76.5t-60 -65.5
q-49 -51 -104.5 -106.5t-112 -102.5t-111 -77.5t-102.5 -30.5q-10 0 -21 3t-20 10.5t-15 19.5t-6 30q0 30 20.5 63t55.5 66.5t81.5 67t97.5 64.5t104 59.5t101 52.5l90 45zM-288 -454q23 0 63 26.5t86 65.5t92.5 83t83.5 80q14 14 27 28t26 29l-38 -22q-60 -33 -122.5 -72.5
t-113.5 -78.5t-84 -72.5t-33 -54.5q0 -8 4 -10t9 -2zM324 373q0 8 2.5 14t9.5 9q39 17 73.5 35.5t66.5 38.5q1 0 2 0.5t2 0.5q7 0 11 -11t4 -24q0 -11 -3 -20t-12 -14q-26 -14 -50.5 -22t-50.5 -16q-11 -3 -24.5 -7t-18.5 -4t-8.5 6t-3.5 14z" />
    <glyph glyph-name="thorn" unicode="&#xfe;" horiz-adv-x="496" 
d="M-427 -395q66 73 135.5 144.5t138 140.5t135 136t127.5 130q-6 2 -14 10.5t-8 19.5q0 4 1.5 6.5t6.5 7.5q20 17 56 51.5t82.5 80.5t100.5 99.5t109 109t108 108.5t97.5 98t78.5 78.5t50 48.5q4 4 13 4q11 0 22 -10t11 -22q0 -8 -6 -14q-83 -81 -165.5 -165t-156.5 -161
t-134.5 -142t-98.5 -107q32 22 67.5 35.5t66.5 13.5q18 0 31.5 -7.5t22.5 -19.5t13.5 -25.5t4.5 -25.5q0 -42 -30 -87.5t-75 -80.5q66 23 120.5 59t107.5 81q5 5 7.5 6t5.5 1q9 0 18.5 -10t9.5 -21q0 -2 -1.5 -5.5t-6.5 -8.5q-47 -41 -99 -74.5t-106 -57.5t-109 -37.5
t-108 -13.5q-18 0 -35.5 4.5t-31 14t-21.5 26t-8 40.5q-15 -17 -31.5 -34.5t-33.5 -35.5q-45 -50 -98.5 -105.5t-110.5 -113.5t-115.5 -114.5t-112.5 -107.5q-12 -9 -19 -9q-10 0 -15.5 10.5t-5.5 23.5q0 16 9 27zM381 231q-9 12 -28 12q-33 0 -78 -30t-102 -83
q-9 -21 -9 -38q0 -24 14.5 -38t37.5 -14q14 0 29.5 5.5t30 13t27 16.5t21.5 17q8 7 20 19t22.5 26.5t18 31t7.5 31.5q0 19 -11 31z" />
    <glyph glyph-name="ydieresis" unicode="&#xff;" horiz-adv-x="488" 
d="M0 0zM268 73q-52 -38 -104.5 -63t-94.5 -25q-24 0 -41 14.5t-17 40.5q0 30 19 66t47.5 71.5t62 67.5t62.5 53q8 5 12 5q13 0 22 -12t9 -25q0 -10 -8 -17q-21 -15 -45.5 -37t-45 -45.5t-34.5 -45.5t-14 -37q0 -20 17 -20q30 0 74 23.5t91 58.5t92 75.5t79 75.5q5 5 10 9.5
t12 4.5q11 0 23 -8.5t12 -19.5q0 -4 -15 -26.5t-41 -57.5t-60 -79t-72 -92q76 40 145.5 85.5t117.5 86.5q5 5 8 6t5 1q9 0 18.5 -10t9.5 -21q0 -2 -1.5 -5.5t-6.5 -8.5q-39 -34 -80 -62.5t-86.5 -55.5t-96.5 -53.5t-111 -56.5q-34 -40 -66 -76.5t-60 -65.5
q-49 -51 -104.5 -106.5t-112 -102.5t-111 -77.5t-102.5 -30.5q-10 0 -21 3t-20 10.5t-15 19.5t-6 30q0 30 20.5 63t55.5 66.5t81.5 67t97.5 64.5t104 59.5t101 52.5l90 45zM-288 -454q23 0 63 26.5t86 65.5t92.5 83t83.5 80q14 14 27 28t26 29l-38 -22q-60 -33 -122.5 -72.5
t-113.5 -78.5t-84 -72.5t-33 -54.5q0 -8 4 -10t9 -2zM519 445q0 -12 -6.5 -25t-17 -24.5t-22.5 -18.5t-24 -7q-11 0 -18 7.5t-7 20.5t6 26t16 24t22.5 18t24.5 7q26 0 26 -28zM392 445q0 -12 -6.5 -25t-17 -24.5t-22.5 -18.5t-24 -7q-11 0 -18 7.5t-7 20.5t6 26t16 24
t22.5 18t24.5 7q26 0 26 -28z" />
    <glyph glyph-name="Amacron" unicode="&#x100;" horiz-adv-x="891" 
d="M60 0zM667 265q-59 -57 -121.5 -110t-125.5 -93.5t-124.5 -65t-116.5 -24.5q-63 0 -91 32.5t-28 90.5q0 55 19.5 113.5t53 117t78.5 116t96 111.5t104.5 102.5t105.5 88.5q94 73 187.5 127t181.5 89.5t168 52.5t146 17q44 0 73 -16t29 -47q0 -22 -10.5 -44.5t-26.5 -43
t-35.5 -37t-37.5 -25.5q2 -5 2 -8.5v-6.5q0 -5 -2 -9t-8 -11q-49 -60 -85.5 -103t-69 -80t-63.5 -74t-69 -83q-36 -43 -75 -88t-71.5 -90.5t-53.5 -91.5t-21 -92q0 -17 11.5 -31.5t33.5 -14.5q16 0 43 11.5t61.5 33.5t75.5 52.5t85 68.5q5 5 8 6t5 1q9 0 18.5 -10t9.5 -21
q0 -4 -1.5 -6.5t-6.5 -7.5q-47 -40 -93.5 -75t-89 -60.5t-79.5 -40t-65 -14.5q-54 0 -77 28t-23 66q0 51 21 100.5t54 98.5zM158 121q0 -36 18 -51.5t47 -15.5q50 0 120.5 38t152 100.5t169 143.5t171 166t158.5 167.5t132 149.5q-6 9 -6 20q0 19 18.5 32.5t40.5 24
t40.5 21.5t18.5 26q0 14 -11.5 19t-31.5 5q-60 0 -139.5 -22.5t-164 -60.5t-167.5 -88t-150 -106q-74 -60 -148.5 -129.5t-134 -143t-96.5 -149t-37 -147.5zM1196 1085q-14 0 -20 3t-6 14q0 7 6.5 14t15.5 12t19 8.5t18 3.5q30 3 65 3q25 0 52 -0.5t62 -5.5q9 -1 11 -6.5
t2 -10.5q0 -15 -14.5 -25t-32.5 -10h-178z" />
    <glyph glyph-name="amacron" unicode="&#x101;" horiz-adv-x="494" 
d="M17 0zM274 80q-21 -18 -44 -35t-47 -30.5t-48.5 -21.5t-48.5 -8q-35 0 -52 21t-17 57q0 45 28.5 88.5t72.5 77t95.5 54t98.5 20.5q35 0 55.5 -17t27.5 -40q5 5 14 13.5t19 17.5q17 14 22 18.5t9 4.5q11 0 20 -13t9 -33q0 -9 -11 -20t-28.5 -26t-38.5 -32
q-13 -11 -26.5 -23t-24.5 -25.5t-18 -27.5t-7 -28t6.5 -18.5t17.5 -4.5q15 0 37 10t46 25t48 33.5t44.5 35.5t35.5 29.5t20 17.5t8 6t5 1q9 0 18.5 -10t9.5 -21q0 -2 -1.5 -5.5t-6.5 -8.5q-5 -4 -21 -19t-39 -34.5t-51.5 -41.5t-59 -40t-60 -30t-54.5 -12q-35 0 -53.5 15
t-18.5 38q0 21 9 42zM167 193q-39 -32 -55 -56.5t-16 -43.5q0 -16 8 -25.5t25 -9.5q18 0 44 13t55.5 34.5t60.5 48t61 53.5q-3 18 -17 28t-35 10q-17 0 -35 -5t-36 -13t-33.5 -17t-26.5 -17zM310 358q-14 0 -20 3t-6 14q0 7 6.5 14t15.5 12t19 8.5t18 3.5q30 3 65 3
q25 0 52 -0.5t62 -5.5q9 -1 11 -6.5t2 -10.5q0 -15 -14.5 -25t-32.5 -10h-178z" />
    <glyph glyph-name="Abreve" unicode="&#x102;" horiz-adv-x="891" 
d="M60 0zM667 265q-59 -57 -121.5 -110t-125.5 -93.5t-124.5 -65t-116.5 -24.5q-63 0 -91 32.5t-28 90.5q0 55 19.5 113.5t53 117t78.5 116t96 111.5t104.5 102.5t105.5 88.5q94 73 187.5 127t181.5 89.5t168 52.5t146 17q44 0 73 -16t29 -47q0 -22 -10.5 -44.5t-26.5 -43
t-35.5 -37t-37.5 -25.5q2 -5 2 -8.5v-6.5q0 -5 -2 -9t-8 -11q-49 -60 -85.5 -103t-69 -80t-63.5 -74t-69 -83q-36 -43 -75 -88t-71.5 -90.5t-53.5 -91.5t-21 -92q0 -17 11.5 -31.5t33.5 -14.5q16 0 43 11.5t61.5 33.5t75.5 52.5t85 68.5q5 5 8 6t5 1q9 0 18.5 -10t9.5 -21
q0 -4 -1.5 -6.5t-6.5 -7.5q-47 -40 -93.5 -75t-89 -60.5t-79.5 -40t-65 -14.5q-54 0 -77 28t-23 66q0 51 21 100.5t54 98.5zM158 121q0 -36 18 -51.5t47 -15.5q50 0 120.5 38t152 100.5t169 143.5t171 166t158.5 167.5t132 149.5q-6 9 -6 20q0 19 18.5 32.5t40.5 24
t40.5 21.5t18.5 26q0 14 -11.5 19t-31.5 5q-60 0 -139.5 -22.5t-164 -60.5t-167.5 -88t-150 -106q-74 -60 -148.5 -129.5t-134 -143t-96.5 -149t-37 -147.5zM1391 1169q7 0 14 -6.5t7 -14.5q0 -7 -9.5 -20t-26 -25.5t-39.5 -22t-50 -9.5q-26 0 -45.5 10t-32 23.5t-19 28
t-6.5 22.5q0 10 10.5 16.5t21.5 6.5q7 0 10.5 -5t9.5 -14q11 -17 23 -25.5t32 -8.5q29 0 47.5 11t36.5 26q9 7 16 7z" />
    <glyph glyph-name="abreve" unicode="&#x103;" horiz-adv-x="494" 
d="M17 0zM274 80q-21 -18 -44 -35t-47 -30.5t-48.5 -21.5t-48.5 -8q-35 0 -52 21t-17 57q0 45 28.5 88.5t72.5 77t95.5 54t98.5 20.5q35 0 55.5 -17t27.5 -40q5 5 14 13.5t19 17.5q17 14 22 18.5t9 4.5q11 0 20 -13t9 -33q0 -9 -11 -20t-28.5 -26t-38.5 -32
q-13 -11 -26.5 -23t-24.5 -25.5t-18 -27.5t-7 -28t6.5 -18.5t17.5 -4.5q15 0 37 10t46 25t48 33.5t44.5 35.5t35.5 29.5t20 17.5t8 6t5 1q9 0 18.5 -10t9.5 -21q0 -2 -1.5 -5.5t-6.5 -8.5q-5 -4 -21 -19t-39 -34.5t-51.5 -41.5t-59 -40t-60 -30t-54.5 -12q-35 0 -53.5 15
t-18.5 38q0 21 9 42zM167 193q-39 -32 -55 -56.5t-16 -43.5q0 -16 8 -25.5t25 -9.5q18 0 44 13t55.5 34.5t60.5 48t61 53.5q-3 18 -17 28t-35 10q-17 0 -35 -5t-36 -13t-33.5 -17t-26.5 -17zM505 442q7 0 14 -6.5t7 -14.5q0 -7 -9.5 -20t-26 -25.5t-39.5 -22t-50 -9.5
q-26 0 -45.5 10t-32 23.5t-19 28t-6.5 22.5q0 10 10.5 16.5t21.5 6.5q7 0 10.5 -5t9.5 -14q11 -17 23 -25.5t32 -8.5q29 0 47.5 11t36.5 26q9 7 16 7z" />
    <glyph glyph-name="Aogonek" unicode="&#x104;" horiz-adv-x="891" 
d="M667 265q-59 -57 -121.5 -110t-125.5 -93.5t-124.5 -65t-116.5 -24.5q-63 0 -91 32.5t-28 90.5q0 55 19.5 113.5t53 117t78.5 116t96 111.5t104.5 102.5t105.5 88.5q94 73 187.5 127t181.5 89.5t168 52.5t146 17q44 0 73 -16t29 -47q0 -22 -10.5 -44.5t-26.5 -43
t-35.5 -37t-37.5 -25.5q2 -5 2 -8.5v-6.5q0 -5 -2 -9t-8 -11q-49 -60 -85.5 -103t-69 -80t-63.5 -74t-69 -83q-36 -43 -75 -88t-71.5 -90.5t-53.5 -91.5t-21 -92q0 -17 11.5 -31.5t33.5 -14.5q16 0 43 11.5t61.5 33.5t75.5 52.5t85 68.5q5 5 8 6t5 1q9 0 18.5 -10t9.5 -21
q0 -4 -1.5 -6.5t-6.5 -7.5q-94 -80 -155.5 -118.5t-98.5 -54.5q-25 -12 -49 -27t-43.5 -31t-31.5 -31.5t-12 -29.5q0 -13 7.5 -18t18.5 -5q12 0 27 4.5t31.5 13t34 20t32.5 25.5q2 1 3.5 2t3.5 1q5 0 7.5 -6t2.5 -14q0 -13 -7 -22q-37 -39 -82 -61.5t-82 -22.5
q-26 0 -43.5 14.5t-17.5 43.5q0 37 26 71.5t61 62.5q-32 9 -46 33t-14 54q0 51 21 100.5t54 98.5zM158 121q0 -36 18 -51.5t47 -15.5q50 0 120.5 38t152 100.5t169 143.5t171 166t158.5 167.5t132 149.5q-6 9 -6 20q0 19 18.5 32.5t40.5 24t40.5 21.5t18.5 26q0 14 -11.5 19
t-31.5 5q-60 0 -139.5 -22.5t-164 -60.5t-167.5 -88t-150 -106q-74 -60 -148.5 -129.5t-134 -143t-96.5 -149t-37 -147.5z" />
    <glyph glyph-name="aogonek" unicode="&#x105;" horiz-adv-x="494" 
d="M274 80q-21 -18 -44 -35t-47 -30.5t-48.5 -21.5t-48.5 -8q-35 0 -52 21t-17 57q0 45 28.5 88.5t72.5 77t95.5 54t98.5 20.5q35 0 55.5 -17t27.5 -40l33 31q17 14 22 18.5t9 4.5q11 0 20 -13t9 -33q0 -9 -11 -20t-28.5 -26t-38.5 -32q-13 -11 -26.5 -23t-24.5 -25.5
t-18 -27.5t-7 -28t6.5 -18.5t17.5 -4.5q15 0 37 10t46 25t48 33.5t44.5 35.5t35.5 29.5t20 17.5t8 6t5 1q9 0 18.5 -10t9.5 -21q0 -2 -1.5 -5.5t-6.5 -8.5q-7 -6 -30 -27t-54.5 -46.5t-69 -50.5t-73.5 -40q-26 -12 -53 -28t-49.5 -33.5t-36.5 -34.5t-14 -32q0 -23 26 -23
q23 0 58.5 17.5t66.5 45.5q2 1 3.5 2t2.5 1q5 0 8 -6t3 -14q0 -14 -8 -22q-37 -39 -81.5 -61.5t-81.5 -22.5q-26 0 -43.5 14.5t-17.5 43.5q0 22 9.5 43t25.5 40.5t35.5 37t40.5 31.5q-24 13 -24 41q0 21 9 42zM167 193q-39 -32 -55 -56.5t-16 -43.5q0 -16 8 -25.5t25 -9.5
q18 0 44 13t55.5 34.5t60.5 48t61 53.5q-3 18 -17 28t-35 10q-17 0 -35 -5t-36 -13t-33.5 -17t-26.5 -17z" />
    <glyph glyph-name="Cacute" unicode="&#x106;" horiz-adv-x="637" 
d="M112 0zM765 162q-29 -25 -76.5 -59t-104.5 -65.5t-119 -53.5t-121 -22q-115 0 -173.5 66.5t-58.5 178.5q0 58 20 123.5t59 136t95.5 143t128.5 144.5q72 71 162.5 134t186 110t189.5 74.5t172 27.5q74 0 109 -32.5t35 -78.5q0 -50 -29 -103.5t-77 -95.5q1 -2 2 -5t1 -5
q0 -9 -8.5 -20.5t-21.5 -24t-29.5 -25.5t-32.5 -23q-52 -33 -95.5 -55t-63.5 -28q-5 -1 -8.5 -1h-6.5q-17 0 -27 8t-10 21q0 16 25 31q54 26 106 61t92 74.5t64.5 81t24.5 81.5q0 28 -16.5 50t-62.5 22q-52 0 -111 -16t-120 -43t-121.5 -62t-115.5 -73.5t-101.5 -78
t-78.5 -74.5q-71 -77 -118 -144t-75.5 -124.5t-40.5 -105.5t-12 -87t10.5 -73t32 -59.5t54 -40.5t76.5 -15q55 0 109 18t101.5 43.5t85 53.5t61.5 48q5 5 8 6t5 1q9 0 18.5 -10t9.5 -21q0 -2 -1.5 -5.5t-6.5 -8.5zM1184 1160q0 8 2.5 14t9.5 9q39 17 73.5 35.5t66.5 38.5
q1 0 2 0.5t2 0.5q7 0 11 -11t4 -24q0 -11 -3 -20t-12 -14q-26 -14 -50.5 -22t-50.5 -16q-11 -3 -24.5 -7t-18.5 -4t-8.5 6t-3.5 14z" />
    <glyph glyph-name="cacute" unicode="&#x107;" horiz-adv-x="324" 
d="M21 0zM452 162q-5 -4 -22.5 -19.5t-43 -36t-57.5 -43t-68 -41t-73.5 -31t-72.5 -12.5q-44 0 -69 28t-25 73q0 40 27.5 82t68.5 76t90 55.5t91 21.5q27 0 40.5 -16t13.5 -42q0 -12 -5.5 -24.5t-14.5 -22t-20.5 -16t-23.5 -6.5q-13 0 -16.5 10t-4.5 21.5t-3 21.5t-12 10
q-15 0 -40.5 -15.5t-50.5 -39t-43.5 -52t-18.5 -54.5q0 -23 15 -33t30 -10q35 0 78.5 20.5t83.5 47t71 51.5t42 34q5 5 8 6t5 1q9 0 18.5 -10t9.5 -21q0 -2 -1.5 -5.5t-6.5 -8.5zM325 373q0 8 2.5 14t9.5 9q39 17 73.5 35.5t66.5 38.5q1 0 2 0.5t2 0.5q7 0 11 -11t4 -24
q0 -11 -3 -20t-12 -14q-26 -14 -50.5 -22t-50.5 -16q-11 -3 -24.5 -7t-18.5 -4t-8.5 6t-3.5 14z" />
    <glyph glyph-name="Ccircumflex" unicode="&#x108;" horiz-adv-x="637" 
d="M112 0zM765 162q-29 -25 -76.5 -59t-104.5 -65.5t-119 -53.5t-121 -22q-115 0 -173.5 66.5t-58.5 178.5q0 58 20 123.5t59 136t95.5 143t128.5 144.5q72 71 162.5 134t186 110t189.5 74.5t172 27.5q74 0 109 -32.5t35 -78.5q0 -50 -29 -103.5t-77 -95.5q1 -2 2 -5t1 -5
q0 -9 -8.5 -20.5t-21.5 -24t-29.5 -25.5t-32.5 -23q-52 -33 -95.5 -55t-63.5 -28q-5 -1 -8.5 -1h-6.5q-17 0 -27 8t-10 21q0 16 25 31q54 26 106 61t92 74.5t64.5 81t24.5 81.5q0 28 -16.5 50t-62.5 22q-52 0 -111 -16t-120 -43t-121.5 -62t-115.5 -73.5t-101.5 -78
t-78.5 -74.5q-71 -77 -118 -144t-75.5 -124.5t-40.5 -105.5t-12 -87t10.5 -73t32 -59.5t54 -40.5t76.5 -15q55 0 109 18t101.5 43.5t85 53.5t61.5 48q5 5 8 6t5 1q9 0 18.5 -10t9.5 -21q0 -2 -1.5 -5.5t-6.5 -8.5zM1289 1130q-10 0 -13 7q-5 12 -9 28l-8 32
q-27 -16 -48.5 -27t-38.5 -20q-9 -5 -15.5 -8t-8.5 -3q-7 0 -10.5 7.5t-3.5 15.5q0 16 9 21q34 21 62.5 43.5t49.5 39.5q8 6 14.5 9t17.5 3q9 0 16 -3.5t7 -14.5v-26q0 -37 3 -56.5t3 -24.5q0 -11 -9 -17t-18 -6z" />
    <glyph glyph-name="ccircumflex" unicode="&#x109;" horiz-adv-x="324" 
d="M21 0zM452 162q-5 -4 -22.5 -19.5t-43 -36t-57.5 -43t-68 -41t-73.5 -31t-72.5 -12.5q-44 0 -69 28t-25 73q0 40 27.5 82t68.5 76t90 55.5t91 21.5q27 0 40.5 -16t13.5 -42q0 -12 -5.5 -24.5t-14.5 -22t-20.5 -16t-23.5 -6.5q-13 0 -16.5 10t-4.5 21.5t-3 21.5t-12 10
q-15 0 -40.5 -15.5t-50.5 -39t-43.5 -52t-18.5 -54.5q0 -23 15 -33t30 -10q35 0 78.5 20.5t83.5 47t71 51.5t42 34q5 5 8 6t5 1q9 0 18.5 -10t9.5 -21q0 -2 -1.5 -5.5t-6.5 -8.5zM430 343q-10 0 -13 7q-5 12 -9 28l-8 32q-27 -16 -48.5 -27t-38.5 -20q-9 -5 -15.5 -8
t-8.5 -3q-7 0 -10.5 7.5t-3.5 15.5q0 16 9 21q34 21 62.5 43.5t49.5 39.5q8 6 14.5 9t17.5 3q9 0 16 -3.5t7 -14.5v-26q0 -37 3 -56.5t3 -24.5q0 -11 -9 -17t-18 -6z" />
    <glyph glyph-name="Cdotaccent" unicode="&#x10a;" horiz-adv-x="637" 
d="M112 0zM765 162q-29 -25 -76.5 -59t-104.5 -65.5t-119 -53.5t-121 -22q-115 0 -173.5 66.5t-58.5 178.5q0 58 20 123.5t59 136t95.5 143t128.5 144.5q72 71 162.5 134t186 110t189.5 74.5t172 27.5q74 0 109 -32.5t35 -78.5q0 -50 -29 -103.5t-77 -95.5q1 -2 2 -5t1 -5
q0 -9 -8.5 -20.5t-21.5 -24t-29.5 -25.5t-32.5 -23q-52 -33 -95.5 -55t-63.5 -28q-5 -1 -8.5 -1h-6.5q-17 0 -27 8t-10 21q0 16 25 31q54 26 106 61t92 74.5t64.5 81t24.5 81.5q0 28 -16.5 50t-62.5 22q-52 0 -111 -16t-120 -43t-121.5 -62t-115.5 -73.5t-101.5 -78
t-78.5 -74.5q-71 -77 -118 -144t-75.5 -124.5t-40.5 -105.5t-12 -87t10.5 -73t32 -59.5t54 -40.5t76.5 -15q55 0 109 18t101.5 43.5t85 53.5t61.5 48q5 5 8 6t5 1q9 0 18.5 -10t9.5 -21q0 -2 -1.5 -5.5t-6.5 -8.5zM1351 1249q0 -15 -8 -31t-20 -29t-27 -21.5t-29 -8.5
q-13 0 -21.5 8.5t-8.5 25.5q0 15 7 30.5t19 28t27 21t31 8.5q14 0 22 -7.5t8 -24.5z" />
    <glyph glyph-name="cdotaccent" unicode="&#x10b;" horiz-adv-x="324" 
d="M21 0zM452 162q-5 -4 -22.5 -19.5t-43 -36t-57.5 -43t-68 -41t-73.5 -31t-72.5 -12.5q-44 0 -69 28t-25 73q0 40 27.5 82t68.5 76t90 55.5t91 21.5q27 0 40.5 -16t13.5 -42q0 -12 -5.5 -24.5t-14.5 -22t-20.5 -16t-23.5 -6.5q-13 0 -16.5 10t-4.5 21.5t-3 21.5t-12 10
q-15 0 -40.5 -15.5t-50.5 -39t-43.5 -52t-18.5 -54.5q0 -23 15 -33t30 -10q35 0 78.5 20.5t83.5 47t71 51.5t42 34q5 5 8 6t5 1q9 0 18.5 -10t9.5 -21q0 -2 -1.5 -5.5t-6.5 -8.5zM452 462q0 -15 -8 -31t-20 -29t-27 -21.5t-29 -8.5q-13 0 -21.5 8.5t-8.5 25.5q0 15 7 30.5
t19 28t27 21t31 8.5q14 0 22 -7.5t8 -24.5z" />
    <glyph glyph-name="Ccaron" unicode="&#x10c;" horiz-adv-x="637" 
d="M112 0zM765 162q-29 -25 -76.5 -59t-104.5 -65.5t-119 -53.5t-121 -22q-115 0 -173.5 66.5t-58.5 178.5q0 58 20 123.5t59 136t95.5 143t128.5 144.5q72 71 162.5 134t186 110t189.5 74.5t172 27.5q74 0 109 -32.5t35 -78.5q0 -50 -29 -103.5t-77 -95.5q1 -2 2 -5t1 -5
q0 -9 -8.5 -20.5t-21.5 -24t-29.5 -25.5t-32.5 -23q-52 -33 -95.5 -55t-63.5 -28q-5 -1 -8.5 -1h-6.5q-17 0 -27 8t-10 21q0 16 25 31q54 26 106 61t92 74.5t64.5 81t24.5 81.5q0 28 -16.5 50t-62.5 22q-52 0 -111 -16t-120 -43t-121.5 -62t-115.5 -73.5t-101.5 -78
t-78.5 -74.5q-71 -77 -118 -144t-75.5 -124.5t-40.5 -105.5t-12 -87t10.5 -73t32 -59.5t54 -40.5t76.5 -15q55 0 109 18t101.5 43.5t85 53.5t61.5 48q5 5 8 6t5 1q9 0 18.5 -10t9.5 -21q0 -2 -1.5 -5.5t-6.5 -8.5zM1232 1298q9 0 13 -7q5 -12 9 -28t7 -32q28 16 49.5 27
t38.5 20q9 5 15.5 8t8.5 3q7 0 10.5 -7.5t3.5 -15.5q0 -16 -9 -21q-34 -21 -62.5 -43.5t-49.5 -39.5q-8 -6 -14.5 -9t-17.5 -3q-9 0 -16 3.5t-7 14.5v26q0 37 -3 56.5t-3 24.5q0 11 9 17t18 6z" />
    <glyph glyph-name="ccaron" unicode="&#x10d;" horiz-adv-x="324" 
d="M21 0zM452 162q-5 -4 -22.5 -19.5t-43 -36t-57.5 -43t-68 -41t-73.5 -31t-72.5 -12.5q-44 0 -69 28t-25 73q0 40 27.5 82t68.5 76t90 55.5t91 21.5q27 0 40.5 -16t13.5 -42q0 -12 -5.5 -24.5t-14.5 -22t-20.5 -16t-23.5 -6.5q-13 0 -16.5 10t-4.5 21.5t-3 21.5t-12 10
q-15 0 -40.5 -15.5t-50.5 -39t-43.5 -52t-18.5 -54.5q0 -23 15 -33t30 -10q35 0 78.5 20.5t83.5 47t71 51.5t42 34q5 5 8 6t5 1q9 0 18.5 -10t9.5 -21q0 -2 -1.5 -5.5t-6.5 -8.5zM333 491q9 0 13 -7q5 -12 9 -28t7 -32q28 16 49.5 27t38.5 20q9 5 15.5 8t8.5 3
q7 0 10.5 -7.5t3.5 -15.5q0 -16 -9 -21q-34 -21 -62.5 -43.5t-49.5 -39.5q-8 -6 -14.5 -9t-17.5 -3q-9 0 -16 3.5t-7 14.5v26q0 37 -3 56.5t-3 24.5q0 11 9 17t18 6z" />
    <glyph glyph-name="Dcaron" unicode="&#x10e;" horiz-adv-x="966" 
d="M0 0zM996 344q-105 -86 -225 -155t-243.5 -117t-244.5 -74t-228 -26q-32 0 -46 19.5t-14 37.5q0 11 4.5 19.5t12.5 8.5q13 0 31 -4t47 -4q55 0 122.5 10.5t142.5 31t154.5 50.5t157 68.5t150 85t135.5 100.5q131 113 193 224.5t62 208.5q0 49 -16 93t-49 77.5t-83 53
t-118 19.5q-58 0 -118 -13.5t-115 -34t-101.5 -45.5t-77.5 -48q-1 -1 -5 -4t-4 -5q0 -5 5.5 -8t5.5 -10q0 -5 -2.5 -10t-8.5 -10q-18 -15 -45 -32t-53.5 -31.5t-49 -25t-32.5 -12.5q-5 -2 -14 -2q-19 0 -30 8.5t-11 20.5t10 25q59 73 137 130t164 96t175.5 59.5t171.5 20.5
q167 0 256 -78.5t89 -222.5q0 -53 -15.5 -112t-50 -122t-90 -129t-136.5 -132zM990 915q-82 -83 -148.5 -151t-125 -129.5t-112 -119t-107.5 -118t-113 -128t-128 -148.5q-6 -6 -14 -6q-13 0 -24 16.5t-11 36.5q0 16 10 29q70 80 127 144.5t109.5 123t104 113.5t111 115.5
t130.5 130.5t162 157q2 1 4.5 2t4.5 1q11 0 20 -13.5t9 -30.5q0 -16 -9 -25zM1123 1298q9 0 13 -7q5 -12 9 -28t7 -32q28 16 49.5 27t38.5 20q9 5 15.5 8t8.5 3q7 0 10.5 -7.5t3.5 -15.5q0 -16 -9 -21q-34 -21 -62.5 -43.5t-49.5 -39.5q-8 -6 -14.5 -9t-17.5 -3
q-9 0 -16 3.5t-7 14.5v26q0 37 -3 56.5t-3 24.5q0 11 9 17t18 6z" />
    <glyph glyph-name="dcaron" unicode="&#x10f;" horiz-adv-x="617" 
d="M291 80q-54 -41 -103 -66t-87 -25q-20 0 -34 7t-22.5 18.5t-12.5 26t-4 29.5q0 44 26.5 86.5t67 75.5t89.5 53t94 20q20 0 35.5 -8t25.5 -18q42 73 96 145t107 131q55 62 116.5 121.5t123 112.5t119.5 97.5t107 77t86 51t56 18.5q26 0 26 -25q0 -17 -29.5 -58t-77 -95
t-107.5 -116t-121 -122.5t-117 -114t-95 -90.5q-62 -58 -133 -127.5t-145 -133.5q-2 -5 -4 -14.5t-2 -20.5q0 -20 13 -39t45 -19q46 0 93 19.5t86.5 44.5t67 48t35.5 30q5 5 8 6t5 1q10 0 19 -10t9 -21q0 -2 -1.5 -5.5t-6.5 -8.5q-5 -4 -22.5 -19t-44 -35t-60.5 -41.5
t-72.5 -39.5t-80 -30t-82.5 -12q-26 0 -43.5 8t-28.5 21t-15.5 28.5t-4.5 29.5v8zM1123 959q-62 -42 -126 -93t-128 -108t-125.5 -117.5t-117.5 -121.5q-46 -50 -97.5 -115.5t-92.5 -131.5q60 56 114 107.5t91 87.5q41 39 99.5 95.5t124 122t132.5 136t126 138.5zM138 64
q27 0 73 28.5t101 72.5q5 12 10.5 25.5t11.5 25.5q-10 29 -52 29q-23 0 -51.5 -9.5t-57.5 -31.5q-36 -28 -52.5 -55t-16.5 -48q0 -16 8.5 -26.5t25.5 -10.5zM1311 1064q10 -2 20.5 -10t10.5 -21q0 -11 -11 -30.5t-28 -42.5t-37 -47t-38.5 -43.5t-32.5 -32t-18 -12.5
q-10 0 -19.5 8.5t-9.5 17.5q0 2 1.5 5t8.5 10q2 2 17 19.5t35.5 43.5t43 58t38.5 64q6 13 19 13z" />
    <glyph glyph-name="Dcroat" unicode="&#x110;" horiz-adv-x="966" 
d="M996 344q-105 -86 -225 -155t-243.5 -117t-244.5 -74t-228 -26q-32 0 -46 19.5t-14 37.5q0 11 4.5 19.5t12.5 8.5q13 0 31 -4t47 -4q55 0 122.5 10.5t142.5 31t154.5 50.5t157 68.5t150 85t135.5 100.5q131 113 193 224.5t62 208.5q0 49 -16 93t-49 77.5t-83 53
t-118 19.5q-58 0 -118 -13.5t-115 -34t-101.5 -45.5t-77.5 -48q-1 -1 -5 -4t-4 -5q0 -5 5.5 -8t5.5 -10q0 -5 -2.5 -10t-8.5 -10q-18 -15 -45 -32t-53.5 -31.5t-49 -25t-32.5 -12.5q-5 -2 -14 -2q-19 0 -30 8.5t-11 20.5t10 25q59 73 137 130t164 96t175.5 59.5t171.5 20.5
q167 0 256 -78.5t89 -222.5q0 -53 -15.5 -112t-50 -122t-90 -129t-136.5 -132zM508 410q-57 -63 -118 -133.5t-134 -155.5q-6 -6 -14 -6q-13 0 -24 16.5t-11 36.5q0 16 10 29l187 213h-159q-21 0 -29 6t-8 17q0 9 9 15.5t21.5 11.5t27 8t25.5 3q20 2 67 2.5t104 0.5
q51 56 102 110.5t109.5 114t128.5 128t159 154.5q2 1 4.5 2t4.5 1q11 0 20 -13.5t9 -30.5q0 -16 -9 -25q-69 -69 -127 -128.5t-109 -113t-97.5 -102.5t-91.5 -98q42 -2 78.5 -3t60.5 -3q11 -2 20 -9t9 -17q0 -19 -15.5 -25t-33.5 -6h-176z" />
    <glyph glyph-name="dcroat" unicode="&#x111;" horiz-adv-x="517" 
d="M663 418q-3 -4 -7 -6q-62 -58 -133 -127.5t-145 -133.5q-8 -29 -8 -48q0 -15 7 -25.5t21 -10.5q22 0 55 18t66 41.5t59 45t34 28.5q5 5 8 6t5 1q9 0 18.5 -10t9.5 -21q0 -2 -1.5 -5.5t-6.5 -8.5q-5 -4 -22 -19t-41 -35t-53.5 -41.5t-59.5 -39.5t-58.5 -30t-50.5 -12
q-19 0 -32 7t-21.5 18.5t-12 25t-3.5 25.5v19q-54 -41 -103 -66t-87 -25q-20 0 -34 7t-22.5 18.5t-12.5 26t-4 29.5q0 44 26.5 86.5t67 75.5t89.5 53t94 20q20 0 35.5 -8t25.5 -18q20 34 42 69t48 70h-87q-16 0 -16 9q0 6 8 15t22 17t33.5 14t42.5 7q7 0 20 1t28 1
q14 20 30 38t32 35q55 62 116.5 121.5t123 112.5t119.5 97.5t107 77t86 51t56 18.5q26 0 26 -25q0 -15 -23 -48.5t-61 -78t-87 -97t-102 -106.5t-105.5 -106t-97.5 -95q11 0 22.5 -0.5t23.5 -0.5q7 0 11 -3.5t4 -8.5q0 -7 -5 -15t-13.5 -15t-20 -11.5t-24.5 -4.5h-62z
M592 482q13 0 28 -1t35 -1q42 40 99.5 96t120.5 119.5t127.5 131t120.5 132.5q-62 -42 -126 -93t-128 -108t-125.5 -117.5t-117.5 -121.5zM138 64q27 0 73 28.5t101 72.5q5 12 10.5 25.5t11.5 25.5q-10 29 -52 29q-23 0 -51.5 -9.5t-57.5 -31.5q-36 -28 -52.5 -55t-16.5 -48
q0 -16 8.5 -26.5t25.5 -10.5zM539 418q-28 -36 -54.5 -73t-48.5 -73q42 38 81.5 76t73.5 70h-52z" />
    <glyph glyph-name="Emacron" unicode="&#x112;" horiz-adv-x="813" 
d="M124 0zM488 572q94 98 184.5 188.5t182.5 175.5q-51 -2 -80 -2.5t-43.5 -1t-19 -0.5h-7.5q-45 0 -75 9.5t-30 31.5q0 18 9 32t22 23t27 14t24 5t10.5 -5.5t1 -12.5t6 -12.5t25.5 -5.5q10 0 37 1t59.5 2.5t65.5 3.5t57 3q11 9 21.5 18t21.5 20l4 2t4 1q9 0 17 -12t12 -25
q100 5 197 9.5t191 4.5h49q17 0 22.5 -3.5t5.5 -8.5q0 -9 -9 -20.5t-23.5 -22t-31.5 -18t-32 -7.5q-108 0 -215.5 -5.5t-216.5 -10.5q-94 -89 -186 -178.5t-183 -186.5q88 6 180 11t204 5q14 0 14 -14q0 -9 -6 -21.5t-15 -24t-20.5 -19t-21.5 -7.5q-96 0 -201 -5t-212 -7
q-60 -65 -120.5 -132.5t-121.5 -140.5q-27 -32 -41.5 -60.5t-14.5 -52.5q0 -32 29 -51t92 -19q48 0 102.5 10.5t108.5 26t104 33t89 32.5q15 6 26 10t13 4q10 0 10 -12q0 -11 -11 -28.5t-31 -26.5q-49 -24 -107.5 -44.5t-119.5 -36.5t-120.5 -25t-111.5 -9q-87 0 -126 31.5
t-39 81.5q0 37 19.5 79.5t55.5 84.5q108 126 216 243h-31q-9 0 -9 8q0 7 6.5 18.5t15.5 22.5t19.5 18.5t19.5 7.5q13 0 26 1zM1128 1105q-14 0 -20 3t-6 14q0 7 6.5 14t15.5 12t19 8.5t18 3.5q30 3 65 3q25 0 52 -0.5t62 -5.5q9 -1 11 -6.5t2 -10.5q0 -15 -14.5 -25
t-32.5 -10h-178z" />
    <glyph glyph-name="emacron" unicode="&#x113;" horiz-adv-x="350" 
d="M18 0zM478 162q-5 -4 -23 -19t-45.5 -35t-63 -41.5t-74.5 -39.5t-80.5 -30t-81.5 -12q-20 0 -37 6.5t-29 18t-19 26t-7 30.5q0 43 28 86.5t70 78t91 56t90 21.5q23 0 37.5 -12.5t14.5 -38.5q0 -31 -21 -59t-55 -49.5t-78.5 -34t-90.5 -13.5q-1 -5 -1 -12q0 -23 10 -32.5
t31 -9.5q45 0 95 21.5t93 48.5t74 51.5t39 31.5q5 5 8 6t5 1q9 0 18.5 -10t9.5 -21q0 -2 -1.5 -5.5t-6.5 -8.5zM291 234q0 7 -4 12.5t-15 5.5q-12 0 -31.5 -9t-41 -24t-41.5 -34t-34 -40q26 0 55.5 9.5t54 23t41 29t16.5 27.5zM233 358q-14 0 -20 3t-6 14q0 7 6.5 14
t15.5 12t19 8.5t18 3.5q30 3 65 3q25 0 52 -0.5t62 -5.5q9 -1 11 -6.5t2 -10.5q0 -15 -14.5 -25t-32.5 -10h-178z" />
    <glyph glyph-name="Ebreve" unicode="&#x114;" horiz-adv-x="813" 
d="M124 0zM488 572q94 98 184.5 188.5t182.5 175.5q-51 -2 -80 -2.5t-43.5 -1t-19 -0.5h-7.5q-45 0 -75 9.5t-30 31.5q0 18 9 32t22 23t27 14t24 5t10.5 -5.5t1 -12.5t6 -12.5t25.5 -5.5q10 0 37 1t59.5 2.5t65.5 3.5t57 3q11 9 21.5 18t21.5 20l4 2t4 1q9 0 17 -12t12 -25
q100 5 197 9.5t191 4.5h49q17 0 22.5 -3.5t5.5 -8.5q0 -9 -9 -20.5t-23.5 -22t-31.5 -18t-32 -7.5q-108 0 -215.5 -5.5t-216.5 -10.5q-94 -89 -186 -178.5t-183 -186.5q88 6 180 11t204 5q14 0 14 -14q0 -9 -6 -21.5t-15 -24t-20.5 -19t-21.5 -7.5q-96 0 -201 -5t-212 -7
q-60 -65 -120.5 -132.5t-121.5 -140.5q-27 -32 -41.5 -60.5t-14.5 -52.5q0 -32 29 -51t92 -19q48 0 102.5 10.5t108.5 26t104 33t89 32.5q15 6 26 10t13 4q10 0 10 -12q0 -11 -11 -28.5t-31 -26.5q-49 -24 -107.5 -44.5t-119.5 -36.5t-120.5 -25t-111.5 -9q-87 0 -126 31.5
t-39 81.5q0 37 19.5 79.5t55.5 84.5q108 126 216 243h-31q-9 0 -9 8q0 7 6.5 18.5t15.5 22.5t19.5 18.5t19.5 7.5q13 0 26 1zM1323 1189q7 0 14 -6.5t7 -14.5q0 -7 -9.5 -20t-26 -25.5t-39.5 -22t-50 -9.5q-26 0 -45.5 10t-32 23.5t-19 28t-6.5 22.5q0 10 10.5 16.5
t21.5 6.5q7 0 10.5 -5t9.5 -14q11 -17 23 -25.5t32 -8.5q29 0 47.5 11t36.5 26q9 7 16 7z" />
    <glyph glyph-name="ebreve" unicode="&#x115;" horiz-adv-x="350" 
d="M18 0zM478 162q-5 -4 -23 -19t-45.5 -35t-63 -41.5t-74.5 -39.5t-80.5 -30t-81.5 -12q-20 0 -37 6.5t-29 18t-19 26t-7 30.5q0 43 28 86.5t70 78t91 56t90 21.5q23 0 37.5 -12.5t14.5 -38.5q0 -31 -21 -59t-55 -49.5t-78.5 -34t-90.5 -13.5q-1 -5 -1 -12q0 -23 10 -32.5
t31 -9.5q45 0 95 21.5t93 48.5t74 51.5t39 31.5q5 5 8 6t5 1q9 0 18.5 -10t9.5 -21q0 -2 -1.5 -5.5t-6.5 -8.5zM291 234q0 7 -4 12.5t-15 5.5q-12 0 -31.5 -9t-41 -24t-41.5 -34t-34 -40q26 0 55.5 9.5t54 23t41 29t16.5 27.5zM448 442q7 0 14 -6.5t7 -14.5q0 -7 -9.5 -20
t-26 -25.5t-39.5 -22t-50 -9.5q-26 0 -45.5 10t-32 23.5t-19 28t-6.5 22.5q0 10 10.5 16.5t21.5 6.5q7 0 10.5 -5t9.5 -14q11 -17 23 -25.5t32 -8.5q29 0 47.5 11t36.5 26q9 7 16 7z" />
    <glyph glyph-name="Edotaccent" unicode="&#x116;" horiz-adv-x="813" 
d="M124 0zM488 572q94 98 184.5 188.5t182.5 175.5q-51 -2 -80 -2.5t-43.5 -1t-19 -0.5h-7.5q-45 0 -75 9.5t-30 31.5q0 18 9 32t22 23t27 14t24 5t10.5 -5.5t1 -12.5t6 -12.5t25.5 -5.5q10 0 37 1t59.5 2.5t65.5 3.5t57 3q11 9 21.5 18t21.5 20l4 2t4 1q9 0 17 -12t12 -25
q100 5 197 9.5t191 4.5h49q17 0 22.5 -3.5t5.5 -8.5q0 -9 -9 -20.5t-23.5 -22t-31.5 -18t-32 -7.5q-108 0 -215.5 -5.5t-216.5 -10.5q-94 -89 -186 -178.5t-183 -186.5q88 6 180 11t204 5q14 0 14 -14q0 -9 -6 -21.5t-15 -24t-20.5 -19t-21.5 -7.5q-96 0 -201 -5t-212 -7
q-60 -65 -120.5 -132.5t-121.5 -140.5q-27 -32 -41.5 -60.5t-14.5 -52.5q0 -32 29 -51t92 -19q48 0 102.5 10.5t108.5 26t104 33t89 32.5q15 6 26 10t13 4q10 0 10 -12q0 -11 -11 -28.5t-31 -26.5q-49 -24 -107.5 -44.5t-119.5 -36.5t-120.5 -25t-111.5 -9q-87 0 -126 31.5
t-39 81.5q0 37 19.5 79.5t55.5 84.5q108 126 216 243h-31q-9 0 -9 8q0 7 6.5 18.5t15.5 22.5t19.5 18.5t19.5 7.5q13 0 26 1zM1347 1209q0 -15 -8 -31t-20 -29t-27 -21.5t-29 -8.5q-13 0 -21.5 8.5t-8.5 25.5q0 15 7 30.5t19 28t27 21t31 8.5q14 0 22 -7.5t8 -24.5z" />
    <glyph glyph-name="edotaccent" unicode="&#x117;" horiz-adv-x="350" 
d="M18 0zM478 162q-5 -4 -23 -19t-45.5 -35t-63 -41.5t-74.5 -39.5t-80.5 -30t-81.5 -12q-20 0 -37 6.5t-29 18t-19 26t-7 30.5q0 43 28 86.5t70 78t91 56t90 21.5q23 0 37.5 -12.5t14.5 -38.5q0 -31 -21 -59t-55 -49.5t-78.5 -34t-90.5 -13.5q-1 -5 -1 -12q0 -23 10 -32.5
t31 -9.5q45 0 95 21.5t93 48.5t74 51.5t39 31.5q5 5 8 6t5 1q9 0 18.5 -10t9.5 -21q0 -2 -1.5 -5.5t-6.5 -8.5zM291 234q0 7 -4 12.5t-15 5.5q-12 0 -31.5 -9t-41 -24t-41.5 -34t-34 -40q26 0 55.5 9.5t54 23t41 29t16.5 27.5zM472 462q0 -15 -8 -31t-20 -29t-27 -21.5
t-29 -8.5q-13 0 -21.5 8.5t-8.5 25.5q0 15 7 30.5t19 28t27 21t31 8.5q14 0 22 -7.5t8 -24.5z" />
    <glyph glyph-name="Eogonek" unicode="&#x118;" horiz-adv-x="813" 
d="M488 572q94 98 184.5 188.5t182.5 175.5q-51 -2 -80 -2.5t-43.5 -1t-19 -0.5h-7.5q-45 0 -75 9.5t-30 31.5q0 18 9 32t22 23t27 14t24 5t10.5 -5.5t1 -12.5t6 -12.5t25.5 -5.5q10 0 37 1t59.5 2.5t65.5 3.5t57 3q11 9 21.5 18t21.5 20l4 2t4 1q9 0 17 -12t12 -25
q100 5 197 9.5t191 4.5h49q17 0 22.5 -3.5t5.5 -8.5q0 -9 -9 -20.5t-23.5 -22t-31.5 -18t-32 -7.5q-108 0 -215.5 -5.5t-216.5 -10.5q-94 -89 -186 -178.5t-183 -186.5q88 6 180 11t204 5q14 0 14 -14q0 -9 -6 -21.5t-15 -24t-20.5 -19t-21.5 -7.5q-96 0 -201 -5t-212 -7
q-60 -65 -120.5 -132.5t-121.5 -140.5q-27 -32 -41.5 -60.5t-14.5 -52.5q0 -32 29 -51t92 -19q48 0 102.5 10.5t108.5 26t104 33t89 32.5q15 6 26 10t13 4q10 0 10 -12q0 -11 -11 -28.5t-31 -26.5q-59 -28 -129 -52t-142 -39q-26 -12 -52.5 -28t-48.5 -33.5t-36 -34.5
t-14 -32q0 -13 7.5 -18t18.5 -5q12 0 27 4.5t31.5 13t34 20t32.5 25.5q2 1 3.5 2t3.5 1q5 0 7.5 -6t2.5 -14q0 -13 -7 -22q-37 -39 -82 -61.5t-82 -22.5q-26 0 -43.5 14.5t-17.5 43.5q0 37 25 70.5t60 61.5q-15 -1 -29.5 -2t-28.5 -1q-87 0 -126 31.5t-39 81.5
q0 37 19.5 79.5t55.5 84.5q108 126 216 243h-31q-9 0 -9 8q0 7 6.5 18.5t15.5 22.5t19.5 18.5t19.5 7.5q13 0 26 1z" />
    <glyph glyph-name="eogonek" unicode="&#x119;" horiz-adv-x="350" 
d="M486 176q0 -2 -1.5 -5.5t-6.5 -8.5q-8 -7 -34.5 -28t-65 -46.5t-86 -50.5t-98.5 -39q-26 -12 -53 -28t-48.5 -33.5t-35.5 -34.5t-14 -32q0 -13 7.5 -18t18.5 -5q23 0 58.5 17.5t66.5 45.5q2 1 3.5 2t2.5 1q5 0 8 -6t3 -14q0 -13 -7 -22q-37 -39 -82 -61.5t-82 -22.5
q-26 0 -43.5 14.5t-17.5 43.5q0 21 8.5 41t23 38t32.5 34.5t38 30.5q-29 8 -46 29.5t-17 47.5q0 43 28 86.5t70 78t91 56t90 21.5q23 0 37.5 -12.5t14.5 -38.5q0 -31 -21 -59t-55 -49.5t-78.5 -34t-90.5 -13.5q-1 -5 -1 -12q0 -23 10 -32.5t31 -9.5q45 0 95 21.5t93 48.5
t74 51.5t39 31.5q5 5 8 6t5 1q9 0 18.5 -10t9.5 -21zM291 234q0 7 -4 12.5t-15 5.5q-12 0 -31.5 -9t-41 -24t-41.5 -34t-34 -40q26 0 55.5 9.5t54 23t41 29t16.5 27.5z" />
    <glyph glyph-name="Ecaron" unicode="&#x11a;" horiz-adv-x="813" 
d="M124 0zM488 572q94 98 184.5 188.5t182.5 175.5q-51 -2 -80 -2.5t-43.5 -1t-19 -0.5h-7.5q-45 0 -75 9.5t-30 31.5q0 18 9 32t22 23t27 14t24 5t10.5 -5.5t1 -12.5t6 -12.5t25.5 -5.5q10 0 37 1t59.5 2.5t65.5 3.5t57 3q11 9 21.5 18t21.5 20l4 2t4 1q9 0 17 -12t12 -25
q100 5 197 9.5t191 4.5h49q17 0 22.5 -3.5t5.5 -8.5q0 -9 -9 -20.5t-23.5 -22t-31.5 -18t-32 -7.5q-108 0 -215.5 -5.5t-216.5 -10.5q-94 -89 -186 -178.5t-183 -186.5q88 6 180 11t204 5q14 0 14 -14q0 -9 -6 -21.5t-15 -24t-20.5 -19t-21.5 -7.5q-96 0 -201 -5t-212 -7
q-60 -65 -120.5 -132.5t-121.5 -140.5q-27 -32 -41.5 -60.5t-14.5 -52.5q0 -32 29 -51t92 -19q48 0 102.5 10.5t108.5 26t104 33t89 32.5q15 6 26 10t13 4q10 0 10 -12q0 -11 -11 -28.5t-31 -26.5q-49 -24 -107.5 -44.5t-119.5 -36.5t-120.5 -25t-111.5 -9q-87 0 -126 31.5
t-39 81.5q0 37 19.5 79.5t55.5 84.5q108 126 216 243h-31q-9 0 -9 8q0 7 6.5 18.5t15.5 22.5t19.5 18.5t19.5 7.5q13 0 26 1zM1208 1238q9 0 13 -7q5 -12 9 -28t7 -32q28 16 49.5 27t38.5 20q9 5 15.5 8t8.5 3q7 0 10.5 -7.5t3.5 -15.5q0 -16 -9 -21q-34 -21 -62.5 -43.5
t-49.5 -39.5q-8 -6 -14.5 -9t-17.5 -3q-9 0 -16 3.5t-7 14.5v26q0 37 -3 56.5t-3 24.5q0 11 9 17t18 6z" />
    <glyph glyph-name="ecaron" unicode="&#x11b;" horiz-adv-x="350" 
d="M18 0zM478 162q-5 -4 -23 -19t-45.5 -35t-63 -41.5t-74.5 -39.5t-80.5 -30t-81.5 -12q-20 0 -37 6.5t-29 18t-19 26t-7 30.5q0 43 28 86.5t70 78t91 56t90 21.5q23 0 37.5 -12.5t14.5 -38.5q0 -31 -21 -59t-55 -49.5t-78.5 -34t-90.5 -13.5q-1 -5 -1 -12q0 -23 10 -32.5
t31 -9.5q45 0 95 21.5t93 48.5t74 51.5t39 31.5q5 5 8 6t5 1q9 0 18.5 -10t9.5 -21q0 -2 -1.5 -5.5t-6.5 -8.5zM291 234q0 7 -4 12.5t-15 5.5q-12 0 -31.5 -9t-41 -24t-41.5 -34t-34 -40q26 0 55.5 9.5t54 23t41 29t16.5 27.5zM314 491q9 0 13 -7q5 -12 9 -28t7 -32
q28 16 49.5 27t38.5 20q9 5 15.5 8t8.5 3q7 0 10.5 -7.5t3.5 -15.5q0 -16 -9 -21q-34 -21 -62.5 -43.5t-49.5 -39.5q-8 -6 -14.5 -9t-17.5 -3q-9 0 -16 3.5t-7 14.5v26q0 37 -3 56.5t-3 24.5q0 11 9 17t18 6z" />
    <glyph glyph-name="Gcircumflex" unicode="&#x11c;" horiz-adv-x="799" 
d="M0 0zM549 -6q-22 -22 -50 -48.5t-66 -63.5q-56 -54 -109.5 -98t-103 -74.5t-94.5 -47.5t-85 -17q-37 0 -53 15t-16 45q0 38 36.5 76t104 77.5t162 80.5t210.5 84q39 38 80 78t78 78q-34 -23 -74.5 -45t-83 -39t-84 -27.5t-78.5 -10.5q-41 0 -69.5 13.5t-46.5 37t-26 54
t-8 64.5q0 46 15.5 102.5t49 119.5t87 131.5t128.5 139.5q107 102 210 174.5t196 118t172.5 66.5t140.5 21q78 0 118.5 -32.5t40.5 -91.5q0 -45 -28.5 -94t-83 -97.5t-133 -93.5t-177.5 -83q-11 -4 -21 -4q-23 0 -41 13.5t-18 27.5q0 12 16 19q109 38 183 78t119 79t64 74
t19 62q0 71 -92 71q-47 0 -115.5 -21.5t-152.5 -66.5t-181 -115.5t-201 -168.5q-48 -45 -87 -96t-67.5 -102.5t-44 -101.5t-15.5 -92q0 -23 6.5 -45.5t19.5 -40.5t32.5 -29.5t46.5 -11.5q31 0 69 11.5t78 30.5t79.5 43.5t75 49.5t64.5 49t48 43q3 3 7 3q12 0 21.5 -18.5
t9.5 -38.5q0 -14 -6 -23q-38 -40 -67 -71t-52.5 -56t-42 -45.5t-34.5 -38.5l79 28l12 4t11 2q8 0 8 -13q0 -7 -2.5 -15.5t-6.5 -16t-9 -13.5t-11 -7q-35 -9 -76 -22t-85 -28zM389 -67q-65 -27 -123.5 -54.5t-103.5 -54t-71.5 -49.5t-26.5 -41q0 -8 5.5 -15t13.5 -7
q24 0 53.5 16t64.5 43t75.5 63t86.5 76zM1344 1130q-10 0 -13 7q-5 12 -9 28l-8 32q-27 -16 -48.5 -27t-38.5 -20q-9 -5 -15.5 -8t-8.5 -3q-7 0 -10.5 7.5t-3.5 15.5q0 16 9 21q34 21 62.5 43.5t49.5 39.5q8 6 14.5 9t17.5 3q9 0 16 -3.5t7 -14.5v-26q0 -37 3 -56.5t3 -24.5
q0 -11 -9 -17t-18 -6z" />
    <glyph glyph-name="gcircumflex" unicode="&#x11d;" horiz-adv-x="477" 
d="M0 0zM-17 -118q34 17 78.5 35t94.5 39q28 27 54 54.5t50 56.5q-40 -32 -85 -57t-89 -25q-35 0 -52 21t-17 57q0 45 28.5 88.5t72.5 77t95.5 54t98.5 20.5q35 0 55.5 -16t27.5 -39l47 41q8 7 14 9t9 2q9 0 19 -13t10 -27q0 -3 -1.5 -8t-8.5 -12q-17 -16 -50.5 -51.5
t-90.5 -101.5l-74 -84q13 6 25.5 11.5t25.5 13.5q60 31 102.5 58t72.5 49.5t48 39t29 25.5q5 5 8 6t5 1q9 0 18.5 -10t9.5 -21q0 -2 -1.5 -5.5t-6.5 -8.5q-11 -9 -28 -25t-46 -38t-72 -50.5t-106 -62.5q-33 -18 -77.5 -37t-91.5 -39q-81 -86 -163.5 -164.5t-158.5 -138.5
t-141.5 -96t-110.5 -36q-11 0 -22 3t-20 10.5t-15 19.5t-6 30q0 28 19 58t51.5 60t75.5 60.5t91.5 59t99.5 55.5t99 51zM-378 -442q0 -8 4 -10t10 -2q22 0 65 24t99.5 65.5t122.5 98t134 121.5q-25 -11 -45.5 -21t-37.5 -19q-40 -22 -82 -47t-81 -50t-73.5 -49.5t-60 -45.5
t-40.5 -38t-15 -27zM95 80q0 -10 5.5 -16.5t21.5 -6.5q21 0 47.5 13t56 34t61 48t63.5 55q-3 14 -13 25t-32 11q-17 0 -39 -7.5t-45.5 -20.5t-46 -29.5t-40 -34.5t-28.5 -36.5t-11 -34.5zM467 343q-10 0 -13 7q-5 12 -9 28l-8 32q-27 -16 -48.5 -27t-38.5 -20
q-9 -5 -15.5 -8t-8.5 -3q-7 0 -10.5 7.5t-3.5 15.5q0 16 9 21q34 21 62.5 43.5t49.5 39.5q8 6 14.5 9t17.5 3q9 0 16 -3.5t7 -14.5v-26q0 -37 3 -56.5t3 -24.5q0 -11 -9 -17t-18 -6z" />
    <glyph glyph-name="Gbreve" unicode="&#x11e;" horiz-adv-x="799" 
d="M0 0zM549 -6q-22 -22 -50 -48.5t-66 -63.5q-56 -54 -109.5 -98t-103 -74.5t-94.5 -47.5t-85 -17q-37 0 -53 15t-16 45q0 38 36.5 76t104 77.5t162 80.5t210.5 84q39 38 80 78t78 78q-34 -23 -74.5 -45t-83 -39t-84 -27.5t-78.5 -10.5q-41 0 -69.5 13.5t-46.5 37t-26 54
t-8 64.5q0 46 15.5 102.5t49 119.5t87 131.5t128.5 139.5q107 102 210 174.5t196 118t172.5 66.5t140.5 21q78 0 118.5 -32.5t40.5 -91.5q0 -45 -28.5 -94t-83 -97.5t-133 -93.5t-177.5 -83q-11 -4 -21 -4q-23 0 -41 13.5t-18 27.5q0 12 16 19q109 38 183 78t119 79t64 74
t19 62q0 71 -92 71q-47 0 -115.5 -21.5t-152.5 -66.5t-181 -115.5t-201 -168.5q-48 -45 -87 -96t-67.5 -102.5t-44 -101.5t-15.5 -92q0 -23 6.5 -45.5t19.5 -40.5t32.5 -29.5t46.5 -11.5q31 0 69 11.5t78 30.5t79.5 43.5t75 49.5t64.5 49t48 43q3 3 7 3q12 0 21.5 -18.5
t9.5 -38.5q0 -14 -6 -23q-38 -40 -67 -71t-52.5 -56t-42 -45.5t-34.5 -38.5l79 28l12 4t11 2q8 0 8 -13q0 -7 -2.5 -15.5t-6.5 -16t-9 -13.5t-11 -7q-35 -9 -76 -22t-85 -28zM389 -67q-65 -27 -123.5 -54.5t-103.5 -54t-71.5 -49.5t-26.5 -41q0 -8 5.5 -15t13.5 -7
q24 0 53.5 16t64.5 43t75.5 63t86.5 76zM1382 1229q7 0 14 -6.5t7 -14.5q0 -7 -9.5 -20t-26 -25.5t-39.5 -22t-50 -9.5q-26 0 -45.5 10t-32 23.5t-19 28t-6.5 22.5q0 10 10.5 16.5t21.5 6.5q7 0 10.5 -5t9.5 -14q11 -17 23 -25.5t32 -8.5q29 0 47.5 11t36.5 26q9 7 16 7z
" />
    <glyph glyph-name="gbreve" unicode="&#x11f;" horiz-adv-x="477" 
d="M0 0zM-17 -118q34 17 78.5 35t94.5 39q28 27 54 54.5t50 56.5q-40 -32 -85 -57t-89 -25q-35 0 -52 21t-17 57q0 45 28.5 88.5t72.5 77t95.5 54t98.5 20.5q35 0 55.5 -16t27.5 -39l47 41q8 7 14 9t9 2q9 0 19 -13t10 -27q0 -3 -1.5 -8t-8.5 -12q-17 -16 -50.5 -51.5
t-90.5 -101.5l-74 -84q13 6 25.5 11.5t25.5 13.5q60 31 102.5 58t72.5 49.5t48 39t29 25.5q5 5 8 6t5 1q9 0 18.5 -10t9.5 -21q0 -2 -1.5 -5.5t-6.5 -8.5q-11 -9 -28 -25t-46 -38t-72 -50.5t-106 -62.5q-33 -18 -77.5 -37t-91.5 -39q-81 -86 -163.5 -164.5t-158.5 -138.5
t-141.5 -96t-110.5 -36q-11 0 -22 3t-20 10.5t-15 19.5t-6 30q0 28 19 58t51.5 60t75.5 60.5t91.5 59t99.5 55.5t99 51zM-378 -442q0 -8 4 -10t10 -2q22 0 65 24t99.5 65.5t122.5 98t134 121.5q-25 -11 -45.5 -21t-37.5 -19q-40 -22 -82 -47t-81 -50t-73.5 -49.5t-60 -45.5
t-40.5 -38t-15 -27zM95 80q0 -10 5.5 -16.5t21.5 -6.5q21 0 47.5 13t56 34t61 48t63.5 55q-3 14 -13 25t-32 11q-17 0 -39 -7.5t-45.5 -20.5t-46 -29.5t-40 -34.5t-28.5 -36.5t-11 -34.5zM523 442q7 0 14 -6.5t7 -14.5q0 -7 -9.5 -20t-26 -25.5t-39.5 -22t-50 -9.5
q-26 0 -45.5 10t-32 23.5t-19 28t-6.5 22.5q0 10 10.5 16.5t21.5 6.5q7 0 10.5 -5t9.5 -14q11 -17 23 -25.5t32 -8.5q29 0 47.5 11t36.5 26q9 7 16 7z" />
    <glyph glyph-name="Gdotaccent" unicode="&#x120;" horiz-adv-x="799" 
d="M0 0zM549 -6q-22 -22 -50 -48.5t-66 -63.5q-56 -54 -109.5 -98t-103 -74.5t-94.5 -47.5t-85 -17q-37 0 -53 15t-16 45q0 38 36.5 76t104 77.5t162 80.5t210.5 84q39 38 80 78t78 78q-34 -23 -74.5 -45t-83 -39t-84 -27.5t-78.5 -10.5q-41 0 -69.5 13.5t-46.5 37t-26 54
t-8 64.5q0 46 15.5 102.5t49 119.5t87 131.5t128.5 139.5q107 102 210 174.5t196 118t172.5 66.5t140.5 21q78 0 118.5 -32.5t40.5 -91.5q0 -45 -28.5 -94t-83 -97.5t-133 -93.5t-177.5 -83q-11 -4 -21 -4q-23 0 -41 13.5t-18 27.5q0 12 16 19q109 38 183 78t119 79t64 74
t19 62q0 71 -92 71q-47 0 -115.5 -21.5t-152.5 -66.5t-181 -115.5t-201 -168.5q-48 -45 -87 -96t-67.5 -102.5t-44 -101.5t-15.5 -92q0 -23 6.5 -45.5t19.5 -40.5t32.5 -29.5t46.5 -11.5q31 0 69 11.5t78 30.5t79.5 43.5t75 49.5t64.5 49t48 43q3 3 7 3q12 0 21.5 -18.5
t9.5 -38.5q0 -14 -6 -23q-38 -40 -67 -71t-52.5 -56t-42 -45.5t-34.5 -38.5l79 28l12 4t11 2q8 0 8 -13q0 -7 -2.5 -15.5t-6.5 -16t-9 -13.5t-11 -7q-35 -9 -76 -22t-85 -28zM389 -67q-65 -27 -123.5 -54.5t-103.5 -54t-71.5 -49.5t-26.5 -41q0 -8 5.5 -15t13.5 -7
q24 0 53.5 16t64.5 43t75.5 63t86.5 76zM1406 1249q0 -15 -8 -31t-20 -29t-27 -21.5t-29 -8.5q-13 0 -21.5 8.5t-8.5 25.5q0 15 7 30.5t19 28t27 21t31 8.5q14 0 22 -7.5t8 -24.5z" />
    <glyph glyph-name="gdotaccent" unicode="&#x121;" horiz-adv-x="477" 
d="M0 0zM-17 -118q34 17 78.5 35t94.5 39q28 27 54 54.5t50 56.5q-40 -32 -85 -57t-89 -25q-35 0 -52 21t-17 57q0 45 28.5 88.5t72.5 77t95.5 54t98.5 20.5q35 0 55.5 -16t27.5 -39l47 41q8 7 14 9t9 2q9 0 19 -13t10 -27q0 -3 -1.5 -8t-8.5 -12q-17 -16 -50.5 -51.5
t-90.5 -101.5l-74 -84q13 6 25.5 11.5t25.5 13.5q60 31 102.5 58t72.5 49.5t48 39t29 25.5q5 5 8 6t5 1q9 0 18.5 -10t9.5 -21q0 -2 -1.5 -5.5t-6.5 -8.5q-11 -9 -28 -25t-46 -38t-72 -50.5t-106 -62.5q-33 -18 -77.5 -37t-91.5 -39q-81 -86 -163.5 -164.5t-158.5 -138.5
t-141.5 -96t-110.5 -36q-11 0 -22 3t-20 10.5t-15 19.5t-6 30q0 28 19 58t51.5 60t75.5 60.5t91.5 59t99.5 55.5t99 51zM-378 -442q0 -8 4 -10t10 -2q22 0 65 24t99.5 65.5t122.5 98t134 121.5q-25 -11 -45.5 -21t-37.5 -19q-40 -22 -82 -47t-81 -50t-73.5 -49.5t-60 -45.5
t-40.5 -38t-15 -27zM95 80q0 -10 5.5 -16.5t21.5 -6.5q21 0 47.5 13t56 34t61 48t63.5 55q-3 14 -13 25t-32 11q-17 0 -39 -7.5t-45.5 -20.5t-46 -29.5t-40 -34.5t-28.5 -36.5t-11 -34.5zM467 462q0 -15 -8 -31t-20 -29t-27 -21.5t-29 -8.5q-13 0 -21.5 8.5t-8.5 25.5
q0 15 7 30.5t19 28t27 21t31 8.5q14 0 22 -7.5t8 -24.5z" />
    <glyph glyph-name="uni0122" unicode="&#x122;" horiz-adv-x="836" 
d="M0 0zM549 -6q-22 -22 -50 -48.5t-66 -63.5q-56 -54 -109.5 -98t-103 -74.5t-94.5 -47.5t-85 -17q-37 0 -53 15t-16 45q0 38 36.5 76t104 77.5t162 80.5t210.5 84q39 38 80 78t78 78q-34 -23 -74.5 -45t-83 -39t-84 -27.5t-78.5 -10.5q-41 0 -69.5 13.5t-46.5 37t-26 54
t-8 64.5q0 46 15.5 102.5t49 119.5t87 131.5t128.5 139.5q107 102 210 174.5t196 118t172.5 66.5t140.5 21q78 0 118.5 -32.5t40.5 -91.5q0 -45 -28.5 -94t-83 -97.5t-133 -93.5t-177.5 -83q-11 -4 -21 -4q-23 0 -41 13.5t-18 27.5q0 12 16 19q109 38 183 78t119 79t64 74
t19 62q0 71 -92 71q-47 0 -115.5 -21.5t-152.5 -66.5t-181 -115.5t-201 -168.5q-48 -45 -87 -96t-67.5 -102.5t-44 -101.5t-15.5 -92q0 -23 6.5 -45.5t19.5 -40.5t32.5 -29.5t46.5 -11.5q31 0 69 11.5t78 30.5t79.5 43.5t75 49.5t64.5 49t48 43q3 3 7 3q12 0 21.5 -18.5
t9.5 -38.5q0 -14 -6 -23q-38 -40 -67 -71t-52.5 -56t-42 -45.5t-34.5 -38.5l79 28l12 4t11 2q8 0 8 -13q0 -7 -2.5 -15.5t-6.5 -16t-9 -13.5t-11 -7q-35 -9 -76 -22t-85 -28zM389 -67q-65 -27 -123.5 -54.5t-103.5 -54t-71.5 -49.5t-26.5 -41q0 -8 5.5 -15t13.5 -7
q24 0 53.5 16t64.5 43t75.5 63t86.5 76zM99 36q15 0 24.5 -9t9.5 -26q0 -26 -19 -54.5t-46 -55.5t-57.5 -50.5t-53.5 -38.5q-8 -5 -12 -5q-12 0 -20 9.5t-8 18.5t8 14q26 16 50.5 35.5t39.5 39.5q-6 7 -6 24q0 16 8 33.5t20.5 31.5t28.5 23.5t33 9.5z" />
    <glyph glyph-name="uni0123" unicode="&#x123;" horiz-adv-x="477" 
d="M375 373q-17 0 -27.5 10t-10.5 30q0 30 21 62.5t52 62.5t65 56t61 43q5 4 15 4q11 0 19 -10t8 -20q0 -8 -3.5 -12t-12.5 -10q-11 -6 -24.5 -16t-26 -21t-24 -21.5t-17.5 -19.5q3 -5 5 -11t2 -16q0 -18 -9 -38t-23.5 -36t-32.5 -26.5t-37 -10.5zM-17 -118q34 17 78.5 35
t94.5 39q28 27 54 54.5t50 56.5q-40 -32 -85 -57t-89 -25q-35 0 -52 21t-17 57q0 45 28.5 88.5t72.5 77t95.5 54t98.5 20.5q35 0 55.5 -16t27.5 -39l47 41q8 7 14 9t9 2q9 0 19 -13t10 -27q0 -3 -1.5 -8t-8.5 -12q-17 -16 -50.5 -51.5t-90.5 -101.5l-74 -84q13 6 25.5 11.5
t25.5 13.5q60 31 102.5 58t72.5 49.5t48 39t29 25.5q5 5 8 6t5 1q9 0 18.5 -10t9.5 -21q0 -2 -1.5 -5.5t-6.5 -8.5q-11 -9 -28 -25t-46 -38t-72 -50.5t-106 -62.5q-33 -18 -77.5 -37t-91.5 -39q-81 -86 -163.5 -164.5t-158.5 -138.5t-141.5 -96t-110.5 -36q-11 0 -22 3
t-20 10.5t-15 19.5t-6 30q0 28 19 58t51.5 60t75.5 60.5t91.5 59t99.5 55.5t99 51zM-378 -442q0 -8 4 -10t10 -2q22 0 65 24t99.5 65.5t122.5 98t134 121.5q-25 -11 -45.5 -21t-37.5 -19q-40 -22 -82 -47t-81 -50t-73.5 -49.5t-60 -45.5t-40.5 -38t-15 -27zM95 80
q0 -10 5.5 -16.5t21.5 -6.5q21 0 47.5 13t56 34t61 48t63.5 55q-3 14 -13 25t-32 11q-17 0 -39 -7.5t-45.5 -20.5t-46 -29.5t-40 -34.5t-28.5 -36.5t-11 -34.5z" />
    <glyph glyph-name="Hcircumflex" unicode="&#x124;" horiz-adv-x="884" 
d="M31 0zM44 54q49 46 92.5 88t84 82.5t79 80t78.5 81.5q-11 0 -14.5 4t-3.5 12q0 7 4 16t11.5 17t16.5 13.5t20 5.5q15 2 23 2h12l18 20q38 39 82.5 88t89.5 100.5t86.5 103.5t73.5 97.5t51.5 81.5t19.5 57q0 11 -7 18.5t-19 7.5q-48 0 -118 -26.5t-146.5 -73
t-150.5 -108.5t-129 -133q4 -4 7 -8t3 -11q0 -10 -15 -28.5t-36 -36.5t-42.5 -31.5t-33.5 -13.5q-8 0 -18 6t-10 32q0 31 34.5 81.5t92.5 107t134 114t160 103.5t169.5 75t162.5 29q33 0 48 -18.5t15 -44.5q0 -41 -36 -105.5t-94.5 -142t-131.5 -163.5t-147 -170l140 6
t136 4q25 28 50.5 57.5t53.5 59.5q58 64 128 135.5t142 140t140 129.5t121 104q7 5 12 5q11 0 20 -15.5t9 -32.5q0 -16 -9 -24q-52 -44 -113 -100.5t-125.5 -119.5t-131 -130t-128.5 -132l-70 -75q9 0 30 -0.5t44.5 -0.5t43.5 -0.5t27 -0.5q19 0 19 -16q0 -9 -6 -19.5
t-15.5 -20t-21.5 -16.5t-25 -7q-44 -2 -86 -2h-85q-42 -47 -80.5 -94t-68 -90.5t-47 -80t-17.5 -62.5q0 -17 7.5 -27.5t27.5 -10.5q56 0 129 45.5t168 126.5q5 5 8 6t5 1q9 0 18.5 -10t9.5 -21q0 -2 -1.5 -5.5t-6.5 -8.5q-47 -41 -95.5 -77t-97 -63.5t-95.5 -43.5t-91 -16
t-63 17.5t-19 49.5q0 28 11 61t36.5 76t67 98.5t101.5 128.5q-69 0 -136.5 -0.5t-137.5 -2.5q-100 -105 -203 -209.5t-215 -214.5q-8 -6 -12 -6q-13 0 -22.5 18t-9.5 39q0 11 2.5 20t10.5 17zM1273 1070q-10 0 -13 7q-5 12 -9 28l-8 32q-27 -16 -48.5 -27t-38.5 -20
q-9 -5 -15.5 -8t-8.5 -3q-7 0 -10.5 7.5t-3.5 15.5q0 16 9 21q34 21 62.5 43.5t49.5 39.5q8 6 14.5 9t17.5 3q9 0 16 -3.5t7 -14.5v-26q0 -37 3 -56.5t3 -24.5q0 -11 -9 -17t-18 -6z" />
    <glyph glyph-name="hcircumflex" unicode="&#x125;" 
d="M18 0zM87 186q0 4 1 6.5t7 7.5q8 7 30 27.5t51.5 49t62.5 61.5t62 63q77 89 155.5 171.5t151.5 154.5t137 131t113 100q38 32 66 32q20 0 20 -18q0 -23 -34 -58q-78 -84 -148 -155.5t-142 -142.5t-152 -146.5t-177 -168.5q-32 -34 -61 -68t-56 -69q42 30 84 55t78.5 43
t65 28.5t42.5 10.5q11 0 20 -15t9 -26q0 -7 -9.5 -16.5t-22.5 -20t-27.5 -20.5t-24.5 -19q-15 -12 -30 -26.5t-27 -29t-19.5 -28t-7.5 -25.5q0 -9 5 -16t14 -7q16 0 38 9.5t46 24.5t48 33t44 34.5t34.5 29t19.5 17.5t8 6t5 1q9 0 18.5 -10t9.5 -21q0 -2 -1.5 -5.5t-6.5 -8.5
t-21 -19.5t-39 -33.5t-51.5 -40.5t-59 -39.5t-61 -29.5t-57.5 -11.5q-31 0 -51.5 18.5t-20.5 48.5q0 35 22 67.5t57 64.5q-38 -21 -67.5 -40.5t-55.5 -40t-50 -43.5t-49 -51q-8 -9 -15 -15t-13 -6q-11 0 -24 9.5t-13 17.5q0 6 4.5 13.5t9.5 14.5q19 29 37.5 55.5t38.5 55.5
q-6 2 -13.5 10t-7.5 19zM1055 1030q-10 0 -13 7q-5 12 -9 28l-8 32q-27 -16 -48.5 -27t-38.5 -20q-9 -5 -15.5 -8t-8.5 -3q-7 0 -10.5 7.5t-3.5 15.5q0 16 9 21q34 21 62.5 43.5t49.5 39.5q8 6 14.5 9t17.5 3q9 0 16 -3.5t7 -14.5v-26q0 -37 3 -56.5t3 -24.5q0 -11 -9 -17
t-18 -6z" />
    <glyph glyph-name="Hbar" unicode="&#x126;" horiz-adv-x="884" 
d="M1080 630l-145 -154q9 0 30 -0.5t44.5 -0.5t43.5 -0.5t27 -0.5q19 0 19 -16q0 -9 -6 -19.5t-15.5 -20t-21.5 -16.5t-25 -7q-44 -2 -86 -2h-85q-42 -47 -80.5 -94t-68 -90.5t-47 -80t-17.5 -62.5q0 -17 7.5 -27.5t27.5 -10.5q56 0 129 45.5t168 126.5q5 5 8 6t5 1
q9 0 18.5 -10t9.5 -21q0 -2 -1.5 -5.5t-6.5 -8.5q-47 -41 -95.5 -77t-97 -63.5t-95.5 -43.5t-91 -16t-63 17.5t-19 49.5q0 28 11 61t36.5 76t67 98.5t101.5 128.5q-69 0 -136.5 -0.5t-137.5 -2.5q-100 -105 -203 -209.5t-215 -214.5q-8 -6 -12 -6q-13 0 -22.5 18t-9.5 39
q0 11 2.5 20t10.5 17q49 46 92.5 88t84 82.5t79 80t78.5 81.5q-11 0 -14.5 4t-3.5 12q0 7 4 16t11.5 17t16.5 13.5t20 5.5q15 2 23 2h12l18 20q32 32 68 72t74 82h-41q-12 0 -12 10q0 6 6 14.5t17.5 16.5t27 14t33.5 7q4 0 10 0.5t13 0.5q41 48 78.5 95.5t66 89t45.5 74
t17 52.5q0 11 -7 18.5t-19 7.5q-48 0 -118 -26.5t-146.5 -73t-150.5 -108.5t-129 -133q4 -4 7 -8t3 -11q0 -10 -15 -28.5t-36 -36.5t-42.5 -31.5t-33.5 -13.5q-8 0 -18 6t-10 32q0 31 34.5 81.5t92.5 107t134 114t160 103.5t169.5 75t162.5 29q33 0 48 -18.5t15 -44.5
q0 -27 -16.5 -65t-45.5 -83.5t-67.5 -97t-83.5 -106.5h56h68t75 -0.5t78 -0.5q54 56 113 114t117 111.5t111.5 100.5t96.5 82q7 5 12 5q11 0 20 -15.5t9 -32.5q0 -16 -9 -24q-78 -66 -172 -156t-193 -188q36 0 62.5 -1t40.5 -1q6 0 9 -3.5t3 -8.5q0 -6 -4 -14t-11 -15
t-16 -11.5t-19 -4.5h-123zM975 630h-271q-35 -42 -72 -83t-72 -83l140 6t136 4q25 28 50.5 57.5t53.5 59.5z" />
    <glyph glyph-name="hbar" unicode="&#x127;" 
d="M350 358l-59 -57q-32 -34 -61 -68t-56 -69q42 30 84 55t78.5 43t65 28.5t42.5 10.5q11 0 20 -15t9 -26q0 -7 -9.5 -16.5t-22.5 -20t-27.5 -20.5t-24.5 -19q-15 -12 -30 -26.5t-27 -29t-19.5 -28t-7.5 -25.5q0 -9 5 -16t14 -7q16 0 38 9.5t46 24.5t48 33t44 34.5t34.5 29
t19.5 17.5t8 6t5 1q9 0 18.5 -10t9.5 -21q0 -2 -1.5 -5.5t-6.5 -8.5t-21 -19.5t-39 -33.5t-51.5 -40.5t-59 -39.5t-61 -29.5t-57.5 -11.5q-31 0 -51.5 18.5t-20.5 48.5q0 35 22 67.5t57 64.5q-38 -21 -67.5 -40.5t-55.5 -40t-50 -43.5t-49 -51q-8 -9 -15 -15t-13 -6
q-11 0 -24 9.5t-13 17.5q0 6 4.5 13.5t9.5 14.5q19 29 37.5 55.5t38.5 55.5q-6 2 -13.5 10t-7.5 19q0 6 7 13q8 7 25 22.5t39 37t48 47t53 52.5h-34q-14 0 -20 3t-6 14q0 7 6 13.5t15 11.5t19 8.5t18 4.5q13 2 27.5 2.5t29.5 0.5q76 87 152 167t147 149.5t133.5 127
t111.5 98.5q38 32 66 32q20 0 20 -18q0 -23 -34 -58q-66 -70 -125.5 -131.5t-119 -121t-122 -120t-134.5 -128.5l27 -3q9 -1 11.5 -6.5t2.5 -10.5q0 -15 -14.5 -25t-33.5 -10h-52z" />
    <glyph glyph-name="Itilde" unicode="&#x128;" horiz-adv-x="361" 
d="M31 0zM537 435q-109 -117 -223 -233t-239 -237q-8 -5 -12 -5q-12 0 -22 15.5t-10 33.5q0 20 12 31q63 58 117 111.5t105 105t101.5 104.5t106.5 110q38 40 82.5 88t89 98.5t86 101t73.5 95t51.5 79.5t19.5 56q0 18 -9.5 29.5t-29.5 11.5q-39 0 -102.5 -23t-137.5 -67
t-151.5 -107.5t-144.5 -143.5q2 -2 5 -7t3 -12q0 -9 -13.5 -27.5t-32 -37.5t-39 -33.5t-33.5 -14.5q-19 0 -28 10.5t-9 24.5q0 34 34.5 85t93 108.5t135 115t160.5 103.5t170 75t163 29q33 0 48 -18.5t15 -44.5q0 -30 -22 -75.5t-58.5 -100t-83 -114.5t-95 -118
t-94.5 -110.5t-82 -91.5zM915 1186q0 6 2 11t4 9q6 7 16.5 17t23 18.5t26.5 14.5t26 6q17 0 30.5 -6.5t25 -14.5t21 -14.5t19.5 -6.5q14 0 28 8.5t29 20.5q2 1 3.5 2t3.5 1q6 0 10 -8.5t4 -19.5q0 -5 -1 -10t-3 -8q-6 -8 -16.5 -17.5t-23.5 -18.5t-26.5 -15t-25.5 -6
q-17 0 -31 6.5t-25 15t-21 15t-20 6.5q-14 0 -27.5 -9t-28.5 -20q-5 -3 -8 -3q-7 0 -11 8.5t-4 17.5z" />
    <glyph glyph-name="itilde" unicode="&#x129;" horiz-adv-x="256" 
d="M20 0zM384 162q-5 -4 -21.5 -19t-40 -35t-52 -41.5t-58.5 -39.5t-58.5 -30t-52.5 -12q-39 0 -60 22t-21 56q0 27 17.5 59t45 65t62 65t68.5 60q6 5 10 5q5 0 11 -4t11 -9.5t8.5 -12t3.5 -12.5q0 -5 -5 -10q-27 -27 -54.5 -54t-49 -51.5t-35.5 -46.5t-14 -39q0 -26 26 -26
q17 0 38.5 9.5t45 24.5t46.5 33t42.5 34.5t34 29t19.5 17.5t8 6t5 1q9 0 18.5 -10t9.5 -21q0 -2 -1.5 -5.5t-6.5 -8.5zM156 378q0 6 2 11t4 9q6 7 16.5 17t23 18.5t26.5 14.5t26 6q17 0 30.5 -6.5t25 -14.5t21 -14.5t19.5 -6.5q14 0 28 8.5t29 20.5q2 1 3.5 2t3.5 1
q6 0 10 -8.5t4 -19.5q0 -5 -1 -10t-3 -8q-6 -8 -16.5 -17.5t-23.5 -18.5t-26.5 -15t-25.5 -6q-17 0 -31 6.5t-25 15t-21 15t-20 6.5q-14 0 -27.5 -9t-28.5 -20q-5 -3 -8 -3q-7 0 -11 8.5t-4 17.5z" />
    <glyph glyph-name="Imacron" unicode="&#x12a;" horiz-adv-x="361" 
d="M31 0zM537 435q-109 -117 -223 -233t-239 -237q-8 -5 -12 -5q-12 0 -22 15.5t-10 33.5q0 20 12 31q63 58 117 111.5t105 105t101.5 104.5t106.5 110q38 40 82.5 88t89 98.5t86 101t73.5 95t51.5 79.5t19.5 56q0 18 -9.5 29.5t-29.5 11.5q-39 0 -102.5 -23t-137.5 -67
t-151.5 -107.5t-144.5 -143.5q2 -2 5 -7t3 -12q0 -9 -13.5 -27.5t-32 -37.5t-39 -33.5t-33.5 -14.5q-19 0 -28 10.5t-9 24.5q0 34 34.5 85t93 108.5t135 115t160.5 103.5t170 75t163 29q33 0 48 -18.5t15 -44.5q0 -30 -22 -75.5t-58.5 -100t-83 -114.5t-95 -118
t-94.5 -110.5t-82 -91.5zM923 1166q-14 0 -20 3t-6 14q0 7 6.5 14t15.5 12t19 8.5t18 3.5q30 3 65 3q25 0 52 -0.5t62 -5.5q9 -1 11 -6.5t2 -10.5q0 -15 -14.5 -25t-32.5 -10h-178z" />
    <glyph glyph-name="imacron" unicode="&#x12b;" horiz-adv-x="256" 
d="M20 0zM384 162q-5 -4 -21.5 -19t-40 -35t-52 -41.5t-58.5 -39.5t-58.5 -30t-52.5 -12q-39 0 -60 22t-21 56q0 27 17.5 59t45 65t62 65t68.5 60q6 5 10 5q5 0 11 -4t11 -9.5t8.5 -12t3.5 -12.5q0 -5 -5 -10q-27 -27 -54.5 -54t-49 -51.5t-35.5 -46.5t-14 -39q0 -26 26 -26
q17 0 38.5 9.5t45 24.5t46.5 33t42.5 34.5t34 29t19.5 17.5t8 6t5 1q9 0 18.5 -10t9.5 -21q0 -2 -1.5 -5.5t-6.5 -8.5zM187 358q-14 0 -20 3t-6 14q0 7 6.5 14t15.5 12t19 8.5t18 3.5q30 3 65 3q25 0 52 -0.5t62 -5.5q9 -1 11 -6.5t2 -10.5q0 -15 -14.5 -25t-32.5 -10h-178z
" />
    <glyph glyph-name="Ibreve" unicode="&#x12c;" horiz-adv-x="361" 
d="M31 0zM537 435q-109 -117 -223 -233t-239 -237q-8 -5 -12 -5q-12 0 -22 15.5t-10 33.5q0 20 12 31q63 58 117 111.5t105 105t101.5 104.5t106.5 110q38 40 82.5 88t89 98.5t86 101t73.5 95t51.5 79.5t19.5 56q0 18 -9.5 29.5t-29.5 11.5q-39 0 -102.5 -23t-137.5 -67
t-151.5 -107.5t-144.5 -143.5q2 -2 5 -7t3 -12q0 -9 -13.5 -27.5t-32 -37.5t-39 -33.5t-33.5 -14.5q-19 0 -28 10.5t-9 24.5q0 34 34.5 85t93 108.5t135 115t160.5 103.5t170 75t163 29q33 0 48 -18.5t15 -44.5q0 -30 -22 -75.5t-58.5 -100t-83 -114.5t-95 -118
t-94.5 -110.5t-82 -91.5zM1118 1250q7 0 14 -6.5t7 -14.5q0 -7 -9.5 -20t-26 -25.5t-39.5 -22t-50 -9.5q-26 0 -45.5 10t-32 23.5t-19 28t-6.5 22.5q0 10 10.5 16.5t21.5 6.5q7 0 10.5 -5t9.5 -14q11 -17 23 -25.5t32 -8.5q29 0 47.5 11t36.5 26q9 7 16 7z" />
    <glyph glyph-name="ibreve" unicode="&#x12d;" horiz-adv-x="256" 
d="M20 0zM384 162q-5 -4 -21.5 -19t-40 -35t-52 -41.5t-58.5 -39.5t-58.5 -30t-52.5 -12q-39 0 -60 22t-21 56q0 27 17.5 59t45 65t62 65t68.5 60q6 5 10 5q5 0 11 -4t11 -9.5t8.5 -12t3.5 -12.5q0 -5 -5 -10q-27 -27 -54.5 -54t-49 -51.5t-35.5 -46.5t-14 -39q0 -26 26 -26
q17 0 38.5 9.5t45 24.5t46.5 33t42.5 34.5t34 29t19.5 17.5t8 6t5 1q9 0 18.5 -10t9.5 -21q0 -2 -1.5 -5.5t-6.5 -8.5zM402 442q7 0 14 -6.5t7 -14.5q0 -7 -9.5 -20t-26 -25.5t-39.5 -22t-50 -9.5q-26 0 -45.5 10t-32 23.5t-19 28t-6.5 22.5q0 10 10.5 16.5t21.5 6.5
q7 0 10.5 -5t9.5 -14q11 -17 23 -25.5t32 -8.5q29 0 47.5 11t36.5 26q9 7 16 7z" />
    <glyph glyph-name="Iogonek" unicode="&#x12e;" horiz-adv-x="361" 
d="M537 435q-109 -117 -222 -232t-235 -234q-6 -5 -13.5 -9t-11.5 -6q-19 -10 -43 -24.5t-45.5 -31t-36 -33.5t-14.5 -32q0 -13 7.5 -18t18.5 -5q23 0 58.5 17.5t66.5 45.5q3 3 6 3q5 0 8 -6t3 -14q0 -5 -2 -11.5t-5 -9.5q-37 -39 -82 -61.5t-82 -22.5q-26 0 -43.5 14
t-17.5 44q0 31 20 61t48 55t59 44t52 29v11q0 20 12 31q63 58 117 111.5t105 105t101.5 104.5t106.5 110q38 40 82.5 88t89 98.5t86 101t73.5 95t51.5 79.5t19.5 56q0 18 -9.5 29.5t-29.5 11.5q-39 0 -102.5 -23t-137.5 -67t-151.5 -107.5t-144.5 -143.5q2 -2 5 -7t3 -12
q0 -9 -13.5 -27.5t-32 -37.5t-39 -33.5t-33.5 -14.5q-19 0 -28 10.5t-9 24.5q0 34 34.5 85t93 108.5t135 115t160.5 103.5t170 75t163 29q33 0 48 -18.5t15 -44.5q0 -30 -22 -75.5t-58.5 -100t-83 -114.5t-95 -118t-94.5 -110.5t-82 -91.5z" />
    <glyph glyph-name="iogonek" unicode="&#x12f;" horiz-adv-x="256" 
d="M392 176q0 -2 -1.5 -5.5t-6.5 -8.5q-8 -7 -32 -28.5t-57 -47.5t-70.5 -51t-73.5 -39q-26 -12 -52 -28t-47.5 -33t-35 -34t-13.5 -31q0 -13 7.5 -18t18.5 -5q12 0 27 4.5t32 13t34 20t33 25.5q3 3 6 3q5 0 7.5 -6t2.5 -14q0 -13 -7 -22q-37 -39 -82 -61.5t-82 -22.5
q-26 0 -43.5 14.5t-17.5 43.5q0 22 10.5 43.5t27 41t37 36.5t40.5 31q-34 22 -34 66q0 27 17.5 59t45 65t62 65t68.5 60q6 5 10 5q5 0 11 -4t11 -9.5t8.5 -12t3.5 -12.5q0 -5 -5 -10q-26 -26 -53.5 -53t-49.5 -51.5t-36 -47t-14 -39.5q0 -26 26 -26q17 0 38.5 9.5t45 24.5
t46.5 33t42.5 34.5t34 29t19.5 17.5t8 6t5 1q9 0 18.5 -10t9.5 -21zM406 462q0 -15 -8 -31t-20.5 -29t-27.5 -21.5t-29 -8.5q-12 0 -21 8.5t-9 25.5q0 15 7.5 30.5t19.5 28t27 21t30 8.5q14 0 22.5 -7.5t8.5 -24.5z" />
    <glyph glyph-name="Idotaccent" unicode="&#x130;" horiz-adv-x="361" 
d="M31 0zM537 435q-109 -117 -223 -233t-239 -237q-8 -5 -12 -5q-12 0 -22 15.5t-10 33.5q0 20 12 31q63 58 117 111.5t105 105t101.5 104.5t106.5 110q38 40 82.5 88t89 98.5t86 101t73.5 95t51.5 79.5t19.5 56q0 18 -9.5 29.5t-29.5 11.5q-39 0 -102.5 -23t-137.5 -67
t-151.5 -107.5t-144.5 -143.5q2 -2 5 -7t3 -12q0 -9 -13.5 -27.5t-32 -37.5t-39 -33.5t-33.5 -14.5q-19 0 -28 10.5t-9 24.5q0 34 34.5 85t93 108.5t135 115t160.5 103.5t170 75t163 29q33 0 48 -18.5t15 -44.5q0 -30 -22 -75.5t-58.5 -100t-83 -114.5t-95 -118
t-94.5 -110.5t-82 -91.5zM1142 1270q0 -15 -8 -31t-20 -29t-27 -21.5t-29 -8.5q-13 0 -21.5 8.5t-8.5 25.5q0 15 7 30.5t19 28t27 21t31 8.5q14 0 22 -7.5t8 -24.5z" />
    <glyph glyph-name="dotlessi" unicode="&#x131;" horiz-adv-x="256" 
d="M384 162q-5 -4 -21.5 -19t-40 -35t-52 -41.5t-58.5 -39.5t-58.5 -30t-52.5 -12q-39 0 -60 22t-21 56q0 27 17.5 59t45 65t62 65t68.5 60q6 5 10 5q5 0 11 -4t11 -9.5t8.5 -12t3.5 -12.5q0 -5 -5 -10q-27 -27 -54.5 -54t-49 -51.5t-35.5 -46.5t-14 -39q0 -26 26 -26
q17 0 38.5 9.5t45 24.5t46.5 33t42.5 34.5t34 29t19.5 17.5t8 6t5 1q9 0 18.5 -10t9.5 -21q0 -2 -1.5 -5.5t-6.5 -8.5z" />
    <glyph glyph-name="IJ" unicode="&#x132;" horiz-adv-x="1018" 
d="M537 435q-109 -117 -223 -233t-239 -237q-8 -5 -12 -5q-12 0 -22 15.5t-10 33.5q0 20 12 31q63 58 117 111.5t105 105t101.5 104.5t106.5 110q38 40 82.5 88t89 98.5t86 101t73.5 95t51.5 79.5t19.5 56q0 18 -9.5 29.5t-29.5 11.5q-39 0 -102.5 -23t-137.5 -67
t-151.5 -107.5t-144.5 -143.5q2 -2 5 -7t3 -12q0 -9 -13.5 -27.5t-32 -37.5t-39 -33.5t-33.5 -14.5q-19 0 -28 10.5t-9 24.5q0 34 34.5 85t93 108.5t135 115t160.5 103.5t170 75t163 29q33 0 48 -18.5t15 -44.5q0 -30 -22 -75.5t-58.5 -100t-83 -114.5t-95 -118
t-94.5 -110.5t-82 -91.5zM800 77q29 9 55.5 17t56.5 18l10 2.5t10 1.5q11 0 11 -12q0 -11 -7.5 -23t-18.5 -15q-47 -13 -93.5 -27.5t-95.5 -30.5q-86 -83 -160 -150.5t-137.5 -114.5t-116.5 -72.5t-97 -25.5q-35 0 -55.5 13.5t-20.5 50.5t35.5 76t101 79t158.5 80t208 80
q63 62 133.5 132t148.5 149q51 51 108 112t113.5 125.5t108 129.5t90.5 122.5t62.5 104.5t23.5 77q0 48 -47 48q-38 0 -86.5 -20.5t-101.5 -57.5t-108.5 -87.5t-108 -110.5t-100 -128t-84.5 -138q3 -4 6 -7.5t3 -10.5q0 -8 -11.5 -27.5t-28 -39.5t-35 -35.5t-32.5 -15.5
q-19 0 -27 11t-8 27q0 28 20 73.5t55.5 101.5t84 118.5t105.5 123.5t120.5 116.5t127.5 98t127.5 67.5t121.5 25q30 0 48.5 -8t29 -20t14 -27.5t3.5 -30.5q0 -44 -23 -101t-62.5 -122t-92 -135t-113 -140.5t-124.5 -139.5t-126 -130zM233 -271q0 -18 19 -18q37 0 115 61.5
t195 172.5q-67 -28 -127 -56.5t-105 -56.5t-71 -54.5t-26 -48.5z" />
    </font>
</defs>
</svg>
